G04 Layer_Color=2752767*
%FSAX24Y24*%
%MOIN*%
G70*
G01*
G75*
%ADD95C,0.0020*%
%ADD96C,0.0027*%
%ADD97C,0.0013*%
D95*
X289684Y208188D02*
Y208348D01*
X289844D01*
Y208188D01*
X289684D01*
Y206219D02*
Y206379D01*
X289844D01*
Y206219D01*
X289684D01*
X281416Y244014D02*
Y244174D01*
X281576D01*
Y244014D01*
X281416D01*
X290865D02*
Y244174D01*
X291025D01*
Y244014D01*
X290865D01*
X288503D02*
Y244174D01*
X288663D01*
Y244014D01*
X288503D01*
X286140D02*
Y244174D01*
X286300D01*
Y244014D01*
X286140D01*
X283778D02*
Y244174D01*
X283938D01*
Y244014D01*
X283778D01*
X273542Y204644D02*
Y204804D01*
X273702D01*
Y204644D01*
X273542D01*
Y181022D02*
Y181182D01*
X273702D01*
Y181022D01*
X273542D01*
Y188896D02*
Y189056D01*
X273702D01*
Y188896D01*
X273542D01*
Y196770D02*
Y196930D01*
X273702D01*
Y196770D01*
X273542D01*
Y255826D02*
Y255986D01*
X273702D01*
Y255826D01*
X273542D01*
Y232203D02*
Y232363D01*
X273702D01*
Y232203D01*
X273542D01*
Y240077D02*
Y240237D01*
X273702D01*
Y240077D01*
X273542D01*
Y247952D02*
Y248111D01*
X273702D01*
Y247952D01*
X273542D01*
X242520Y236050D02*
X242440Y236210D01*
X242600D01*
X242520Y236050D01*
Y240168D02*
X242440Y240328D01*
X242600D01*
X242520Y240168D01*
Y192924D02*
X242440Y193084D01*
X242600D01*
X242520Y192924D01*
Y188806D02*
X242440Y188966D01*
X242600D01*
X242520Y188806D01*
Y251798D02*
X242440Y251958D01*
X242600D01*
X242520Y251798D01*
Y255916D02*
X242440Y256076D01*
X242600D01*
X242520Y255916D01*
Y208672D02*
X242440Y208832D01*
X242600D01*
X242520Y208672D01*
Y204554D02*
X242440Y204714D01*
X242600D01*
X242520Y204554D01*
Y243924D02*
X242440Y244084D01*
X242600D01*
X242520Y243924D01*
Y248042D02*
X242440Y248202D01*
X242600D01*
X242520Y248042D01*
Y200798D02*
X242440Y200958D01*
X242600D01*
X242520Y200798D01*
Y196680D02*
X242440Y196840D01*
X242600D01*
X242520Y196680D01*
X262303Y213011D02*
X262343Y213051D01*
X262383D01*
X262343Y213091D01*
X262383Y213131D01*
X262343D01*
X262303Y213171D01*
X262263Y213131D01*
X262223D01*
X262263Y213091D01*
X262223Y213051D01*
X262263D01*
X262303Y213011D01*
Y211042D02*
X262343Y211082D01*
X262383D01*
X262343Y211122D01*
X262383Y211162D01*
X262343D01*
X262303Y211202D01*
X262263Y211162D01*
X262223D01*
X262263Y211122D01*
X262223Y211082D01*
X262263D01*
X262303Y211042D01*
X236896Y181022D02*
X236936Y181102D01*
X236896Y181182D01*
X236976Y181142D01*
X237056Y181182D01*
X237016Y181102D01*
X237056Y181022D01*
X236976Y181062D01*
X236896Y181022D01*
X238896D02*
X238936Y181102D01*
X238896Y181182D01*
X238976Y181142D01*
X239056Y181182D01*
X239016Y181102D01*
X239056Y181022D01*
X238976Y181062D01*
X238896Y181022D01*
X236896Y196770D02*
X236936Y196850D01*
X236896Y196930D01*
X236976Y196890D01*
X237056Y196930D01*
X237016Y196850D01*
X237056Y196770D01*
X236976Y196810D01*
X236896Y196770D01*
X238896D02*
X238936Y196850D01*
X238896Y196930D01*
X238976Y196890D01*
X239056Y196930D01*
X239016Y196850D01*
X239056Y196770D01*
X238976Y196810D01*
X238896Y196770D01*
X236896Y232203D02*
X236936Y232283D01*
X236896Y232363D01*
X236976Y232323D01*
X237056Y232363D01*
X237016Y232283D01*
X237056Y232203D01*
X236976Y232243D01*
X236896Y232203D01*
X238896D02*
X238936Y232283D01*
X238896Y232363D01*
X238976Y232323D01*
X239056Y232363D01*
X239016Y232283D01*
X239056Y232203D01*
X238976Y232243D01*
X238896Y232203D01*
X236928Y247952D02*
X236968Y248032D01*
X236928Y248111D01*
X237008Y248071D01*
X237088Y248111D01*
X237048Y248032D01*
X237088Y247952D01*
X237008Y247992D01*
X236928Y247952D01*
X238928D02*
X238968Y248032D01*
X238928Y248111D01*
X239008Y248071D01*
X239088Y248111D01*
X239048Y248032D01*
X239088Y247952D01*
X239008Y247992D01*
X238928Y247952D01*
X236928Y188896D02*
X236968Y188976D01*
X236928Y189056D01*
X237008Y189016D01*
X237088Y189056D01*
X237048Y188976D01*
X237088Y188896D01*
X237008Y188936D01*
X236928Y188896D01*
X238928D02*
X238968Y188976D01*
X238928Y189056D01*
X239008Y189016D01*
X239088Y189056D01*
X239048Y188976D01*
X239088Y188896D01*
X239008Y188936D01*
X238928Y188896D01*
X236928Y204644D02*
X236968Y204724D01*
X236928Y204804D01*
X237008Y204764D01*
X237088Y204804D01*
X237048Y204724D01*
X237088Y204644D01*
X237008Y204684D01*
X236928Y204644D01*
X238928D02*
X238968Y204724D01*
X238928Y204804D01*
X239008Y204764D01*
X239088Y204804D01*
X239048Y204724D01*
X239088Y204644D01*
X239008Y204684D01*
X238928Y204644D01*
X236896Y240077D02*
X236936Y240157D01*
X236896Y240237D01*
X236976Y240197D01*
X237056Y240237D01*
X237016Y240157D01*
X237056Y240077D01*
X236976Y240117D01*
X236896Y240077D01*
X238896D02*
X238936Y240157D01*
X238896Y240237D01*
X238976Y240197D01*
X239056Y240237D01*
X239016Y240157D01*
X239056Y240077D01*
X238976Y240117D01*
X238896Y240077D01*
X236928Y255826D02*
X236968Y255906D01*
X236928Y255986D01*
X237008Y255946D01*
X237088Y255986D01*
X237048Y255906D01*
X237088Y255826D01*
X237008Y255866D01*
X236928Y255826D01*
X238928D02*
X238968Y255906D01*
X238928Y255986D01*
X239008Y255946D01*
X239088Y255986D01*
X239048Y255906D01*
X239088Y255826D01*
X239008Y255866D01*
X238928Y255826D01*
X238780Y223542D02*
X238820Y223582D01*
X238860D01*
X238820Y223622D01*
X238860Y223662D01*
X238820D01*
X238780Y223702D01*
X238740Y223662D01*
X238700D01*
X238740Y223622D01*
X238700Y223582D01*
X238740D01*
X238780Y223542D01*
Y225511D02*
X238820Y225551D01*
X238860D01*
X238820Y225591D01*
X238860Y225631D01*
X238820D01*
X238780Y225671D01*
X238740Y225631D01*
X238700D01*
X238740Y225591D01*
X238700Y225551D01*
X238740D01*
X238780Y225511D01*
X266259Y226062D02*
X266299Y226142D01*
X266259Y226222D01*
X266339Y226182D01*
X266419Y226222D01*
X266379Y226142D01*
X266419Y226062D01*
X266339Y226102D01*
X266259Y226062D01*
Y220156D02*
X266299Y220236D01*
X266259Y220316D01*
X266339Y220276D01*
X266419Y220316D01*
X266379Y220236D01*
X266419Y220156D01*
X266339Y220196D01*
X266259Y220156D01*
X291052Y219153D02*
Y219113D01*
X291132D01*
Y219153D01*
X291172D01*
Y219233D01*
X291132D01*
Y219273D01*
X291052D01*
Y219233D01*
X291012D01*
Y219153D01*
X291052D01*
X291602D02*
Y219113D01*
X291682D01*
Y219153D01*
X291722D01*
Y219233D01*
X291682D01*
Y219273D01*
X291602D01*
Y219233D01*
X291562D01*
Y219153D01*
X291602D01*
X287617Y216160D02*
X287657Y216240D01*
X287617Y216320D01*
X287697Y216280D01*
X287777Y216320D01*
X287737Y216240D01*
X287777Y216160D01*
X287697Y216200D01*
X287617Y216160D01*
Y215160D02*
X287657Y215240D01*
X287617Y215320D01*
X287697Y215280D01*
X287777Y215320D01*
X287737Y215240D01*
X287777Y215160D01*
X287697Y215200D01*
X287617Y215160D01*
Y214160D02*
X287657Y214240D01*
X287617Y214320D01*
X287697Y214280D01*
X287777Y214320D01*
X287737Y214240D01*
X287777Y214160D01*
X287697Y214200D01*
X287617Y214160D01*
X261189Y201889D02*
X261229Y201929D01*
X261269D01*
X261229Y201968D01*
X261269Y202008D01*
X261229D01*
X261189Y202048D01*
X261149Y202008D01*
X261109D01*
X261149Y201968D01*
X261109Y201929D01*
X261149D01*
X261189Y201889D01*
X262189D02*
X262229Y201929D01*
X262269D01*
X262229Y201968D01*
X262269Y202008D01*
X262229D01*
X262189Y202048D01*
X262149Y202008D01*
X262109D01*
X262149Y201968D01*
X262109Y201929D01*
X262149D01*
X262189Y201889D01*
X263189D02*
X263229Y201929D01*
X263269D01*
X263229Y201968D01*
X263269Y202008D01*
X263229D01*
X263189Y202048D01*
X263149Y202008D01*
X263109D01*
X263149Y201968D01*
X263109Y201929D01*
X263149D01*
X263189Y201889D01*
X264189D02*
X264229Y201929D01*
X264269D01*
X264229Y201968D01*
X264269Y202008D01*
X264229D01*
X264189Y202048D01*
X264149Y202008D01*
X264109D01*
X264149Y201968D01*
X264109Y201929D01*
X264149D01*
X264189Y201889D01*
Y178266D02*
X264229Y178306D01*
X264269D01*
X264229Y178346D01*
X264269Y178386D01*
X264229D01*
X264189Y178426D01*
X264149Y178386D01*
X264109D01*
X264149Y178346D01*
X264109Y178306D01*
X264149D01*
X264189Y178266D01*
X263189D02*
X263229Y178306D01*
X263269D01*
X263229Y178346D01*
X263269Y178386D01*
X263229D01*
X263189Y178426D01*
X263149Y178386D01*
X263109D01*
X263149Y178346D01*
X263109Y178306D01*
X263149D01*
X263189Y178266D01*
X262189D02*
X262229Y178306D01*
X262269D01*
X262229Y178346D01*
X262269Y178386D01*
X262229D01*
X262189Y178426D01*
X262149Y178386D01*
X262109D01*
X262149Y178346D01*
X262109Y178306D01*
X262149D01*
X262189Y178266D01*
X261189D02*
X261229Y178306D01*
X261269D01*
X261229Y178346D01*
X261269Y178386D01*
X261229D01*
X261189Y178426D01*
X261149Y178386D01*
X261109D01*
X261149Y178346D01*
X261109Y178306D01*
X261149D01*
X261189Y178266D01*
Y186140D02*
X261229Y186180D01*
X261269D01*
X261229Y186220D01*
X261269Y186260D01*
X261229D01*
X261189Y186300D01*
X261149Y186260D01*
X261109D01*
X261149Y186220D01*
X261109Y186180D01*
X261149D01*
X261189Y186140D01*
X262189D02*
X262229Y186180D01*
X262269D01*
X262229Y186220D01*
X262269Y186260D01*
X262229D01*
X262189Y186300D01*
X262149Y186260D01*
X262109D01*
X262149Y186220D01*
X262109Y186180D01*
X262149D01*
X262189Y186140D01*
X263189D02*
X263229Y186180D01*
X263269D01*
X263229Y186220D01*
X263269Y186260D01*
X263229D01*
X263189Y186300D01*
X263149Y186260D01*
X263109D01*
X263149Y186220D01*
X263109Y186180D01*
X263149D01*
X263189Y186140D01*
X264189D02*
X264229Y186180D01*
X264269D01*
X264229Y186220D01*
X264269Y186260D01*
X264229D01*
X264189Y186300D01*
X264149Y186260D01*
X264109D01*
X264149Y186220D01*
X264109Y186180D01*
X264149D01*
X264189Y186140D01*
Y194014D02*
X264229Y194054D01*
X264269D01*
X264229Y194094D01*
X264269Y194134D01*
X264229D01*
X264189Y194174D01*
X264149Y194134D01*
X264109D01*
X264149Y194094D01*
X264109Y194054D01*
X264149D01*
X264189Y194014D01*
X263189D02*
X263229Y194054D01*
X263269D01*
X263229Y194094D01*
X263269Y194134D01*
X263229D01*
X263189Y194174D01*
X263149Y194134D01*
X263109D01*
X263149Y194094D01*
X263109Y194054D01*
X263149D01*
X263189Y194014D01*
X262189D02*
X262229Y194054D01*
X262269D01*
X262229Y194094D01*
X262269Y194134D01*
X262229D01*
X262189Y194174D01*
X262149Y194134D01*
X262109D01*
X262149Y194094D01*
X262109Y194054D01*
X262149D01*
X262189Y194014D01*
X261189D02*
X261229Y194054D01*
X261269D01*
X261229Y194094D01*
X261269Y194134D01*
X261229D01*
X261189Y194174D01*
X261149Y194134D01*
X261109D01*
X261149Y194094D01*
X261109Y194054D01*
X261149D01*
X261189Y194014D01*
X261220Y253070D02*
X261260Y253110D01*
X261300D01*
X261260Y253150D01*
X261300Y253190D01*
X261260D01*
X261220Y253230D01*
X261180Y253190D01*
X261140D01*
X261180Y253150D01*
X261140Y253110D01*
X261180D01*
X261220Y253070D01*
X262220D02*
X262260Y253110D01*
X262300D01*
X262260Y253150D01*
X262300Y253190D01*
X262260D01*
X262220Y253230D01*
X262180Y253190D01*
X262140D01*
X262180Y253150D01*
X262140Y253110D01*
X262180D01*
X262220Y253070D01*
X263220D02*
X263260Y253110D01*
X263300D01*
X263260Y253150D01*
X263300Y253190D01*
X263260D01*
X263220Y253230D01*
X263180Y253190D01*
X263140D01*
X263180Y253150D01*
X263140Y253110D01*
X263180D01*
X263220Y253070D01*
X264220D02*
X264260Y253110D01*
X264300D01*
X264260Y253150D01*
X264300Y253190D01*
X264260D01*
X264220Y253230D01*
X264180Y253190D01*
X264140D01*
X264180Y253150D01*
X264140Y253110D01*
X264180D01*
X264220Y253070D01*
X264205Y229448D02*
X264245Y229488D01*
X264285D01*
X264245Y229528D01*
X264285Y229568D01*
X264245D01*
X264205Y229608D01*
X264165Y229568D01*
X264125D01*
X264165Y229528D01*
X264125Y229488D01*
X264165D01*
X264205Y229448D01*
X263205D02*
X263245Y229488D01*
X263285D01*
X263245Y229528D01*
X263285Y229568D01*
X263245D01*
X263205Y229608D01*
X263165Y229568D01*
X263125D01*
X263165Y229528D01*
X263125Y229488D01*
X263165D01*
X263205Y229448D01*
X262205D02*
X262245Y229488D01*
X262285D01*
X262245Y229528D01*
X262285Y229568D01*
X262245D01*
X262205Y229608D01*
X262165Y229568D01*
X262125D01*
X262165Y229528D01*
X262125Y229488D01*
X262165D01*
X262205Y229448D01*
X261205D02*
X261245Y229488D01*
X261285D01*
X261245Y229528D01*
X261285Y229568D01*
X261245D01*
X261205Y229608D01*
X261165Y229568D01*
X261125D01*
X261165Y229528D01*
X261125Y229488D01*
X261165D01*
X261205Y229448D01*
X261189Y237322D02*
X261229Y237362D01*
X261269D01*
X261229Y237402D01*
X261269Y237442D01*
X261229D01*
X261189Y237482D01*
X261149Y237442D01*
X261109D01*
X261149Y237402D01*
X261109Y237362D01*
X261149D01*
X261189Y237322D01*
X262189D02*
X262229Y237362D01*
X262269D01*
X262229Y237402D01*
X262269Y237442D01*
X262229D01*
X262189Y237482D01*
X262149Y237442D01*
X262109D01*
X262149Y237402D01*
X262109Y237362D01*
X262149D01*
X262189Y237322D01*
X263189D02*
X263229Y237362D01*
X263269D01*
X263229Y237402D01*
X263269Y237442D01*
X263229D01*
X263189Y237482D01*
X263149Y237442D01*
X263109D01*
X263149Y237402D01*
X263109Y237362D01*
X263149D01*
X263189Y237322D01*
X264189D02*
X264229Y237362D01*
X264269D01*
X264229Y237402D01*
X264269Y237442D01*
X264229D01*
X264189Y237482D01*
X264149Y237442D01*
X264109D01*
X264149Y237402D01*
X264109Y237362D01*
X264149D01*
X264189Y237322D01*
Y245196D02*
X264229Y245236D01*
X264269D01*
X264229Y245276D01*
X264269Y245316D01*
X264229D01*
X264189Y245356D01*
X264149Y245316D01*
X264109D01*
X264149Y245276D01*
X264109Y245236D01*
X264149D01*
X264189Y245196D01*
X263189D02*
X263229Y245236D01*
X263269D01*
X263229Y245276D01*
X263269Y245316D01*
X263229D01*
X263189Y245356D01*
X263149Y245316D01*
X263109D01*
X263149Y245276D01*
X263109Y245236D01*
X263149D01*
X263189Y245196D01*
X262189D02*
X262229Y245236D01*
X262269D01*
X262229Y245276D01*
X262269Y245316D01*
X262229D01*
X262189Y245356D01*
X262149Y245316D01*
X262109D01*
X262149Y245276D01*
X262109Y245236D01*
X262149D01*
X262189Y245196D01*
X261189D02*
X261229Y245236D01*
X261269D01*
X261229Y245276D01*
X261269Y245316D01*
X261229D01*
X261189Y245356D01*
X261149Y245316D01*
X261109D01*
X261149Y245276D01*
X261109Y245236D01*
X261149D01*
X261189Y245196D01*
X242833Y217243D02*
X242873D01*
X242913Y217283D01*
X242953Y217243D01*
X242993D01*
Y217283D01*
X242953Y217323D01*
X242993Y217363D01*
Y217403D01*
X242953D01*
X242913Y217363D01*
X242873Y217403D01*
X242833D01*
Y217363D01*
X242873Y217323D01*
X242833Y217283D01*
Y217243D01*
X260833Y221243D02*
X260873D01*
X260913Y221283D01*
X260953Y221243D01*
X260993D01*
Y221283D01*
X260953Y221323D01*
X260993Y221363D01*
Y221403D01*
X260953D01*
X260913Y221363D01*
X260873Y221403D01*
X260833D01*
Y221363D01*
X260873Y221323D01*
X260833Y221283D01*
Y221243D01*
X242833Y225243D02*
X242873D01*
X242913Y225283D01*
X242953Y225243D01*
X242993D01*
Y225283D01*
X242953Y225323D01*
X242993Y225363D01*
Y225403D01*
X242953D01*
X242913Y225363D01*
X242873Y225403D01*
X242833D01*
Y225363D01*
X242873Y225323D01*
X242833Y225283D01*
Y225243D01*
X260833D02*
X260873D01*
X260913Y225283D01*
X260953Y225243D01*
X260993D01*
Y225283D01*
X260953Y225323D01*
X260993Y225363D01*
Y225403D01*
X260953D01*
X260913Y225363D01*
X260873Y225403D01*
X260833D01*
Y225363D01*
X260873Y225323D01*
X260833Y225283D01*
Y225243D01*
X284455Y217637D02*
X284495D01*
X284535Y217677D01*
X284575Y217637D01*
X284615D01*
Y217677D01*
X284575Y217717D01*
X284615Y217757D01*
Y217797D01*
X284575D01*
X284535Y217757D01*
X284495Y217797D01*
X284455D01*
Y217757D01*
X284495Y217717D01*
X284455Y217677D01*
Y217637D01*
X266455D02*
X266495D01*
X266535Y217677D01*
X266575Y217637D01*
X266615D01*
Y217677D01*
X266575Y217717D01*
X266615Y217757D01*
Y217797D01*
X266575D01*
X266535Y217757D01*
X266495Y217797D01*
X266455D01*
Y217757D01*
X266495Y217717D01*
X266455Y217677D01*
Y217637D01*
X284455Y213637D02*
X284495D01*
X284535Y213677D01*
X284575Y213637D01*
X284615D01*
Y213677D01*
X284575Y213717D01*
X284615Y213757D01*
Y213797D01*
X284575D01*
X284535Y213757D01*
X284495Y213797D01*
X284455D01*
Y213757D01*
X284495Y213717D01*
X284455Y213677D01*
Y213637D01*
X266455Y209637D02*
X266495D01*
X266535Y209677D01*
X266575Y209637D01*
X266615D01*
Y209677D01*
X266575Y209717D01*
X266615Y209757D01*
Y209797D01*
X266575D01*
X266535Y209757D01*
X266495Y209797D01*
X266455D01*
Y209757D01*
X266495Y209717D01*
X266455Y209677D01*
Y209637D01*
X234251Y181102D02*
X234331Y181182D01*
X234411Y181102D01*
X234331Y181022D01*
X234251Y181102D01*
X234172Y216535D02*
X234252Y216615D01*
X234332Y216535D01*
X234252Y216455D01*
X234172Y216535D01*
Y232283D02*
X234252Y232363D01*
X234332Y232283D01*
X234252Y232203D01*
X234172Y232283D01*
Y196850D02*
X234252Y196930D01*
X234332Y196850D01*
X234252Y196770D01*
X234172Y196850D01*
Y212598D02*
X234252Y212678D01*
X234332Y212598D01*
X234252Y212518D01*
X234172Y212598D01*
Y248032D02*
X234252Y248111D01*
X234332Y248032D01*
X234252Y247952D01*
X234172Y248032D01*
Y188976D02*
X234252Y189056D01*
X234332Y188976D01*
X234252Y188896D01*
X234172Y188976D01*
Y224409D02*
X234252Y224489D01*
X234332Y224409D01*
X234252Y224329D01*
X234172Y224409D01*
Y240157D02*
X234252Y240237D01*
X234332Y240157D01*
X234252Y240077D01*
X234172Y240157D01*
Y204724D02*
X234252Y204804D01*
X234332Y204724D01*
X234252Y204644D01*
X234172Y204724D01*
Y220472D02*
X234252Y220552D01*
X234332Y220472D01*
X234252Y220392D01*
X234172Y220472D01*
Y255906D02*
X234252Y255986D01*
X234332Y255906D01*
X234252Y255826D01*
X234172Y255906D01*
X256299Y211042D02*
X256339Y211082D01*
X256379D01*
X256339Y211122D01*
X256379Y211162D01*
X256339D01*
X256299Y211202D01*
X256259Y211162D01*
X256219D01*
X256259Y211122D01*
X256219Y211082D01*
X256259D01*
X256299Y211042D01*
Y213011D02*
X256339Y213051D01*
X256379D01*
X256339Y213091D01*
X256379Y213131D01*
X256339D01*
X256299Y213171D01*
X256259Y213131D01*
X256219D01*
X256259Y213091D01*
X256219Y213051D01*
X256259D01*
X256299Y213011D01*
X238780Y217440D02*
X238820Y217480D01*
X238860D01*
X238820Y217520D01*
X238860Y217560D01*
X238820D01*
X238780Y217600D01*
X238740Y217560D01*
X238700D01*
X238740Y217520D01*
X238700Y217480D01*
X238740D01*
X238780Y217440D01*
Y219408D02*
X238820Y219448D01*
X238860D01*
X238820Y219488D01*
X238860Y219528D01*
X238820D01*
X238780Y219568D01*
X238740Y219528D01*
X238700D01*
X238740Y219488D01*
X238700Y219448D01*
X238740D01*
X238780Y219408D01*
X232203Y258778D02*
Y258938D01*
X232363D01*
Y258778D01*
X232203D01*
X232243Y258818D02*
Y258898D01*
X232323D01*
Y258818D01*
X232243D01*
X296180Y258778D02*
Y258938D01*
X296340D01*
Y258778D01*
X296180D01*
X296220Y258818D02*
Y258898D01*
X296300D01*
Y258818D01*
X296220D01*
X296180Y176101D02*
Y176261D01*
X296340D01*
Y176101D01*
X296180D01*
X296220Y176141D02*
Y176221D01*
X296300D01*
Y176141D01*
X296220D01*
X232203Y176101D02*
Y176261D01*
X232363D01*
Y176101D01*
X232203D01*
X232243Y176141D02*
Y176221D01*
X232323D01*
Y176141D01*
X232243D01*
X294566Y205117D02*
X294606Y205197D01*
X294566Y205277D01*
X294646Y205237D01*
X294726Y205277D01*
X294686Y205197D01*
X294726Y205117D01*
X294646Y205157D01*
X294566Y205117D01*
X295566D02*
X295606Y205197D01*
X295566Y205277D01*
X295646Y205237D01*
X295726Y205277D01*
X295686Y205197D01*
X295726Y205117D01*
X295646Y205157D01*
X295566Y205117D01*
X291889Y210432D02*
X291929Y210512D01*
X291889Y210592D01*
X291968Y210552D01*
X292048Y210592D01*
X292008Y210512D01*
X292048Y210432D01*
X291968Y210472D01*
X291889Y210432D01*
Y209432D02*
X291929Y209512D01*
X291889Y209592D01*
X291968Y209552D01*
X292048Y209592D01*
X292008Y209512D01*
X292048Y209432D01*
X291968Y209472D01*
X291889Y209432D01*
X274148Y242440D02*
X274188Y242520D01*
X274148Y242600D01*
X274228Y242560D01*
X274308Y242600D01*
X274268Y242520D01*
X274308Y242440D01*
X274228Y242480D01*
X274148Y242440D01*
X273148D02*
X273188Y242520D01*
X273148Y242600D01*
X273228Y242560D01*
X273308Y242600D01*
X273268Y242520D01*
X273308Y242440D01*
X273228Y242480D01*
X273148Y242440D01*
Y191259D02*
X273188Y191339D01*
X273148Y191419D01*
X273228Y191379D01*
X273308Y191419D01*
X273268Y191339D01*
X273308Y191259D01*
X273228Y191299D01*
X273148Y191259D01*
X274148D02*
X274188Y191339D01*
X274148Y191419D01*
X274228Y191379D01*
X274308Y191419D01*
X274268Y191339D01*
X274308Y191259D01*
X274228Y191299D01*
X274148Y191259D01*
X277203Y235353D02*
X277243Y235433D01*
X277203Y235513D01*
X277283Y235473D01*
X277363Y235513D01*
X277323Y235433D01*
X277363Y235353D01*
X277283Y235393D01*
X277203Y235353D01*
X276203D02*
X276243Y235433D01*
X276203Y235513D01*
X276283Y235473D01*
X276363Y235513D01*
X276323Y235433D01*
X276363Y235353D01*
X276283Y235393D01*
X276203Y235353D01*
X273188Y183385D02*
X273228Y183465D01*
X273188Y183545D01*
X273268Y183505D01*
X273348Y183545D01*
X273308Y183465D01*
X273348Y183385D01*
X273268Y183425D01*
X273188Y183385D01*
X274188D02*
X274228Y183465D01*
X274188Y183545D01*
X274268Y183505D01*
X274348Y183545D01*
X274308Y183465D01*
X274348Y183385D01*
X274268Y183425D01*
X274188Y183385D01*
X277164Y227597D02*
X277204Y227677D01*
X277164Y227757D01*
X277244Y227717D01*
X277324Y227757D01*
X277284Y227677D01*
X277324Y227597D01*
X277244Y227637D01*
X277164Y227597D01*
X276164D02*
X276204Y227677D01*
X276164Y227757D01*
X276244Y227717D01*
X276324Y227757D01*
X276284Y227677D01*
X276324Y227597D01*
X276244Y227637D01*
X276164Y227597D01*
X274117Y176495D02*
X274157Y176575D01*
X274117Y176655D01*
X274197Y176615D01*
X274277Y176655D01*
X274237Y176575D01*
X274277Y176495D01*
X274197Y176535D01*
X274117Y176495D01*
X275117D02*
X275157Y176575D01*
X275117Y176655D01*
X275197Y176615D01*
X275277Y176655D01*
X275237Y176575D01*
X275277Y176495D01*
X275197Y176535D01*
X275117Y176495D01*
X274133Y250511D02*
X274173Y250591D01*
X274133Y250671D01*
X274213Y250631D01*
X274293Y250671D01*
X274253Y250591D01*
X274293Y250511D01*
X274213Y250551D01*
X274133Y250511D01*
X273133D02*
X273173Y250591D01*
X273133Y250671D01*
X273213Y250631D01*
X273293Y250671D01*
X273253Y250591D01*
X273293Y250511D01*
X273213Y250551D01*
X273133Y250511D01*
X272345Y199329D02*
X272385Y199409D01*
X272345Y199489D01*
X272425Y199449D01*
X272505Y199489D01*
X272465Y199409D01*
X272505Y199329D01*
X272425Y199369D01*
X272345Y199329D01*
X273345D02*
X273385Y199409D01*
X273345Y199489D01*
X273425Y199449D01*
X273505Y199489D01*
X273465Y199409D01*
X273505Y199329D01*
X273425Y199369D01*
X273345Y199329D01*
X295688Y228660D02*
X295728Y228740D01*
X295688Y228820D01*
X295768Y228780D01*
X295848Y228820D01*
X295808Y228740D01*
X295848Y228660D01*
X295768Y228700D01*
X295688Y228660D01*
Y227660D02*
X295728Y227740D01*
X295688Y227820D01*
X295768Y227780D01*
X295848Y227820D01*
X295808Y227740D01*
X295848Y227660D01*
X295768Y227700D01*
X295688Y227660D01*
Y226660D02*
X295728Y226740D01*
X295688Y226820D01*
X295768Y226780D01*
X295848Y226820D01*
X295808Y226740D01*
X295848Y226660D01*
X295768Y226700D01*
X295688Y226660D01*
Y225660D02*
X295728Y225740D01*
X295688Y225820D01*
X295768Y225780D01*
X295848Y225820D01*
X295808Y225740D01*
X295848Y225660D01*
X295768Y225700D01*
X295688Y225660D01*
Y224660D02*
X295728Y224740D01*
X295688Y224820D01*
X295768Y224780D01*
X295848Y224820D01*
X295808Y224740D01*
X295848Y224660D01*
X295768Y224700D01*
X295688Y224660D01*
Y237487D02*
X295728Y237567D01*
X295688Y237647D01*
X295768Y237607D01*
X295848Y237647D01*
X295808Y237567D01*
X295848Y237487D01*
X295768Y237527D01*
X295688Y237487D01*
Y238487D02*
X295728Y238567D01*
X295688Y238647D01*
X295768Y238607D01*
X295848Y238647D01*
X295808Y238567D01*
X295848Y238487D01*
X295768Y238527D01*
X295688Y238487D01*
Y239487D02*
X295728Y239567D01*
X295688Y239647D01*
X295768Y239607D01*
X295848Y239647D01*
X295808Y239567D01*
X295848Y239487D01*
X295768Y239527D01*
X295688Y239487D01*
Y240487D02*
X295728Y240567D01*
X295688Y240647D01*
X295768Y240607D01*
X295848Y240647D01*
X295808Y240567D01*
X295848Y240487D01*
X295768Y240527D01*
X295688Y240487D01*
Y241487D02*
X295728Y241567D01*
X295688Y241647D01*
X295768Y241607D01*
X295848Y241647D01*
X295808Y241567D01*
X295848Y241487D01*
X295768Y241527D01*
X295688Y241487D01*
Y230991D02*
X295728Y231071D01*
X295688Y231151D01*
X295768Y231111D01*
X295848Y231151D01*
X295808Y231071D01*
X295848Y230991D01*
X295768Y231031D01*
X295688Y230991D01*
Y231991D02*
X295728Y232071D01*
X295688Y232151D01*
X295768Y232111D01*
X295848Y232151D01*
X295808Y232071D01*
X295848Y231991D01*
X295768Y232031D01*
X295688Y231991D01*
Y232991D02*
X295728Y233071D01*
X295688Y233151D01*
X295768Y233111D01*
X295848Y233151D01*
X295808Y233071D01*
X295848Y232991D01*
X295768Y233031D01*
X295688Y232991D01*
Y233991D02*
X295728Y234071D01*
X295688Y234151D01*
X295768Y234111D01*
X295848Y234151D01*
X295808Y234071D01*
X295848Y233991D01*
X295768Y234031D01*
X295688Y233991D01*
Y234991D02*
X295728Y235071D01*
X295688Y235151D01*
X295768Y235111D01*
X295848Y235151D01*
X295808Y235071D01*
X295848Y234991D01*
X295768Y235031D01*
X295688Y234991D01*
D96*
X291656Y215985D02*
G03*
X291656Y215985I-000080J000000D01*
G01*
X293426D02*
G03*
X293426Y215985I-000080J000000D01*
G01*
X291656Y213425D02*
G03*
X291656Y213425I-000080J000000D01*
G01*
X293426D02*
G03*
X293426Y213425I-000080J000000D01*
G01*
X295552Y207528D02*
G03*
X295552Y207528I-000080J000000D01*
G01*
Y209528D02*
G03*
X295552Y209528I-000080J000000D01*
G01*
Y210528D02*
G03*
X295552Y210528I-000080J000000D01*
G01*
Y211528D02*
G03*
X295552Y211528I-000080J000000D01*
G01*
Y208528D02*
G03*
X295552Y208528I-000080J000000D01*
G01*
Y213748D02*
G03*
X295552Y213748I-000080J000000D01*
G01*
Y215748D02*
G03*
X295552Y215748I-000080J000000D01*
G01*
Y216748D02*
G03*
X295552Y216748I-000080J000000D01*
G01*
Y217748D02*
G03*
X295552Y217748I-000080J000000D01*
G01*
Y214748D02*
G03*
X295552Y214748I-000080J000000D01*
G01*
X287482Y231890D02*
G03*
X287482Y231890I-000080J000000D01*
G01*
X285513Y229921D02*
G03*
X285513Y229921I-000080J000000D01*
G01*
X283545Y208661D02*
G03*
X283545Y208661I-000080J000000D01*
G01*
Y212598D02*
G03*
X283545Y212598I-000080J000000D01*
G01*
X279608D02*
G03*
X279608Y212598I-000080J000000D01*
G01*
Y208661D02*
G03*
X279608Y208661I-000080J000000D01*
G01*
Y204724D02*
G03*
X279608Y204724I-000080J000000D01*
G01*
X287482D02*
G03*
X287482Y204724I-000080J000000D01*
G01*
X291419D02*
G03*
X291419Y204724I-000080J000000D01*
G01*
X295356Y200787D02*
G03*
X295356Y200787I-000080J000000D01*
G01*
X291419D02*
G03*
X291419Y200787I-000080J000000D01*
G01*
X287482D02*
G03*
X287482Y200787I-000080J000000D01*
G01*
X283545D02*
G03*
X283545Y200787I-000080J000000D01*
G01*
X279608Y196850D02*
G03*
X279608Y196850I-000080J000000D01*
G01*
X283545D02*
G03*
X283545Y196850I-000080J000000D01*
G01*
X287482D02*
G03*
X287482Y196850I-000080J000000D01*
G01*
X291419D02*
G03*
X291419Y196850I-000080J000000D01*
G01*
X295356D02*
G03*
X295356Y196850I-000080J000000D01*
G01*
Y192913D02*
G03*
X295356Y192913I-000080J000000D01*
G01*
X291419D02*
G03*
X291419Y192913I-000080J000000D01*
G01*
X287482D02*
G03*
X287482Y192913I-000080J000000D01*
G01*
X283545D02*
G03*
X283545Y192913I-000080J000000D01*
G01*
X279608D02*
G03*
X279608Y192913I-000080J000000D01*
G01*
Y188976D02*
G03*
X279608Y188976I-000080J000000D01*
G01*
X283545D02*
G03*
X283545Y188976I-000080J000000D01*
G01*
X287482D02*
G03*
X287482Y188976I-000080J000000D01*
G01*
X291419D02*
G03*
X291419Y188976I-000080J000000D01*
G01*
X295356D02*
G03*
X295356Y188976I-000080J000000D01*
G01*
Y185039D02*
G03*
X295356Y185039I-000080J000000D01*
G01*
X291419D02*
G03*
X291419Y185039I-000080J000000D01*
G01*
X287482D02*
G03*
X287482Y185039I-000080J000000D01*
G01*
X283545D02*
G03*
X283545Y185039I-000080J000000D01*
G01*
X279608D02*
G03*
X279608Y185039I-000080J000000D01*
G01*
X283545Y181102D02*
G03*
X283545Y181102I-000080J000000D01*
G01*
X287482D02*
G03*
X287482Y181102I-000080J000000D01*
G01*
X291419D02*
G03*
X291419Y181102I-000080J000000D01*
G01*
X295356D02*
G03*
X295356Y181102I-000080J000000D01*
G01*
X291419Y177165D02*
G03*
X291419Y177165I-000080J000000D01*
G01*
X287482D02*
G03*
X287482Y177165I-000080J000000D01*
G01*
X283545D02*
G03*
X283545Y177165I-000080J000000D01*
G01*
X279608D02*
G03*
X279608Y177165I-000080J000000D01*
G01*
X289450Y238189D02*
G03*
X289450Y238189I-000080J000000D01*
G01*
X285513D02*
G03*
X285513Y238189I-000080J000000D01*
G01*
X281576D02*
G03*
X281576Y238189I-000080J000000D01*
G01*
X293387Y242126D02*
G03*
X293387Y242126I-000080J000000D01*
G01*
X289450D02*
G03*
X289450Y242126I-000080J000000D01*
G01*
X285513D02*
G03*
X285513Y242126I-000080J000000D01*
G01*
X281576Y246063D02*
G03*
X281576Y246063I-000080J000000D01*
G01*
X285513D02*
G03*
X285513Y246063I-000080J000000D01*
G01*
X289450D02*
G03*
X289450Y246063I-000080J000000D01*
G01*
X293387D02*
G03*
X293387Y246063I-000080J000000D01*
G01*
Y250000D02*
G03*
X293387Y250000I-000080J000000D01*
G01*
X289450D02*
G03*
X289450Y250000I-000080J000000D01*
G01*
X285513D02*
G03*
X285513Y250000I-000080J000000D01*
G01*
X281576D02*
G03*
X281576Y250000I-000080J000000D01*
G01*
Y253937D02*
G03*
X281576Y253937I-000080J000000D01*
G01*
X285513D02*
G03*
X285513Y253937I-000080J000000D01*
G01*
X289450D02*
G03*
X289450Y253937I-000080J000000D01*
G01*
X293387D02*
G03*
X293387Y253937I-000080J000000D01*
G01*
Y257874D02*
G03*
X293387Y257874I-000080J000000D01*
G01*
X289450D02*
G03*
X289450Y257874I-000080J000000D01*
G01*
X285513D02*
G03*
X285513Y257874I-000080J000000D01*
G01*
X281576D02*
G03*
X281576Y257874I-000080J000000D01*
G01*
X277639D02*
G03*
X277639Y257874I-000080J000000D01*
G01*
X292206Y224213D02*
G03*
X292206Y224213I-000080J000000D01*
G01*
X292600Y223976D02*
G03*
X292600Y223976I-000080J000000D01*
G01*
X293781Y224016D02*
G03*
X293781Y224016I-000080J000000D01*
G01*
X293702Y222835D02*
G03*
X293702Y222835I-000080J000000D01*
G01*
X285080Y224016D02*
G03*
X285080Y224016I-000080J000000D01*
G01*
X273584Y221201D02*
G03*
X273584Y221201I-000080J000000D01*
G01*
X273623Y220118D02*
G03*
X273623Y220118I-000080J000000D01*
G01*
X289056Y218465D02*
G03*
X289056Y218465I-000080J000000D01*
G01*
X288033Y219882D02*
G03*
X288033Y219882I-000080J000000D01*
G01*
X293111Y224016D02*
G03*
X293111Y224016I-000080J000000D01*
G01*
X294765Y237913D02*
G03*
X294765Y237913I-000080J000000D01*
G01*
Y228346D02*
G03*
X294765Y228346I-000080J000000D01*
G01*
Y224016D02*
G03*
X294765Y224016I-000080J000000D01*
G01*
X291812Y222047D02*
G03*
X291812Y222047I-000080J000000D01*
G01*
Y223228D02*
G03*
X291812Y223228I-000080J000000D01*
G01*
X292206Y223032D02*
G03*
X292206Y223032I-000080J000000D01*
G01*
X289450Y228346D02*
G03*
X289450Y228346I-000080J000000D01*
G01*
X288151Y229134D02*
G03*
X288151Y229134I-000080J000000D01*
G01*
X287167Y229213D02*
G03*
X287167Y229213I-000080J000000D01*
G01*
X287639D02*
G03*
X287639Y229213I-000080J000000D01*
G01*
X290041Y224213D02*
G03*
X290041Y224213I-000080J000000D01*
G01*
X276064Y201181D02*
G03*
X276064Y201181I-000080J000000D01*
G01*
X267797Y179134D02*
G03*
X267797Y179134I-000080J000000D01*
G01*
Y179528D02*
G03*
X267797Y179528I-000080J000000D01*
G01*
Y179921D02*
G03*
X267797Y179921I-000080J000000D01*
G01*
Y180315D02*
G03*
X267797Y180315I-000080J000000D01*
G01*
Y180709D02*
G03*
X267797Y180709I-000080J000000D01*
G01*
X267403D02*
G03*
X267403Y180709I-000080J000000D01*
G01*
Y180315D02*
G03*
X267403Y180315I-000080J000000D01*
G01*
Y179921D02*
G03*
X267403Y179921I-000080J000000D01*
G01*
Y179528D02*
G03*
X267403Y179528I-000080J000000D01*
G01*
Y179134D02*
G03*
X267403Y179134I-000080J000000D01*
G01*
X267009D02*
G03*
X267009Y179134I-000080J000000D01*
G01*
Y179528D02*
G03*
X267009Y179528I-000080J000000D01*
G01*
Y179921D02*
G03*
X267009Y179921I-000080J000000D01*
G01*
Y180315D02*
G03*
X267009Y180315I-000080J000000D01*
G01*
Y180709D02*
G03*
X267009Y180709I-000080J000000D01*
G01*
X267797Y187008D02*
G03*
X267797Y187008I-000080J000000D01*
G01*
Y187402D02*
G03*
X267797Y187402I-000080J000000D01*
G01*
Y187795D02*
G03*
X267797Y187795I-000080J000000D01*
G01*
Y188189D02*
G03*
X267797Y188189I-000080J000000D01*
G01*
Y188583D02*
G03*
X267797Y188583I-000080J000000D01*
G01*
X267403D02*
G03*
X267403Y188583I-000080J000000D01*
G01*
Y188189D02*
G03*
X267403Y188189I-000080J000000D01*
G01*
Y187795D02*
G03*
X267403Y187795I-000080J000000D01*
G01*
Y187402D02*
G03*
X267403Y187402I-000080J000000D01*
G01*
Y187008D02*
G03*
X267403Y187008I-000080J000000D01*
G01*
X267009D02*
G03*
X267009Y187008I-000080J000000D01*
G01*
Y187402D02*
G03*
X267009Y187402I-000080J000000D01*
G01*
Y187795D02*
G03*
X267009Y187795I-000080J000000D01*
G01*
Y188189D02*
G03*
X267009Y188189I-000080J000000D01*
G01*
Y188583D02*
G03*
X267009Y188583I-000080J000000D01*
G01*
X267797Y194882D02*
G03*
X267797Y194882I-000080J000000D01*
G01*
Y195276D02*
G03*
X267797Y195276I-000080J000000D01*
G01*
Y195669D02*
G03*
X267797Y195669I-000080J000000D01*
G01*
Y196063D02*
G03*
X267797Y196063I-000080J000000D01*
G01*
Y196457D02*
G03*
X267797Y196457I-000080J000000D01*
G01*
X267403D02*
G03*
X267403Y196457I-000080J000000D01*
G01*
Y196063D02*
G03*
X267403Y196063I-000080J000000D01*
G01*
Y195669D02*
G03*
X267403Y195669I-000080J000000D01*
G01*
Y195276D02*
G03*
X267403Y195276I-000080J000000D01*
G01*
Y194882D02*
G03*
X267403Y194882I-000080J000000D01*
G01*
X267009D02*
G03*
X267009Y194882I-000080J000000D01*
G01*
Y195276D02*
G03*
X267009Y195276I-000080J000000D01*
G01*
Y195669D02*
G03*
X267009Y195669I-000080J000000D01*
G01*
Y196063D02*
G03*
X267009Y196063I-000080J000000D01*
G01*
Y196457D02*
G03*
X267009Y196457I-000080J000000D01*
G01*
X267797Y202756D02*
G03*
X267797Y202756I-000080J000000D01*
G01*
Y203150D02*
G03*
X267797Y203150I-000080J000000D01*
G01*
Y203543D02*
G03*
X267797Y203543I-000080J000000D01*
G01*
Y203937D02*
G03*
X267797Y203937I-000080J000000D01*
G01*
Y204331D02*
G03*
X267797Y204331I-000080J000000D01*
G01*
X267403D02*
G03*
X267403Y204331I-000080J000000D01*
G01*
Y203937D02*
G03*
X267403Y203937I-000080J000000D01*
G01*
Y203543D02*
G03*
X267403Y203543I-000080J000000D01*
G01*
Y203150D02*
G03*
X267403Y203150I-000080J000000D01*
G01*
Y202756D02*
G03*
X267403Y202756I-000080J000000D01*
G01*
X267009D02*
G03*
X267009Y202756I-000080J000000D01*
G01*
Y203150D02*
G03*
X267009Y203150I-000080J000000D01*
G01*
Y203543D02*
G03*
X267009Y203543I-000080J000000D01*
G01*
Y203937D02*
G03*
X267009Y203937I-000080J000000D01*
G01*
Y204331D02*
G03*
X267009Y204331I-000080J000000D01*
G01*
X294568Y219843D02*
G03*
X294568Y219843I-000080J000000D01*
G01*
X281930Y224803D02*
G03*
X281930Y224803I-000080J000000D01*
G01*
X279489Y224134D02*
G03*
X279489Y224134I-000080J000000D01*
G01*
X280434Y223819D02*
G03*
X280434Y223819I-000080J000000D01*
G01*
X281261Y222087D02*
G03*
X281261Y222087I-000080J000000D01*
G01*
X293663Y220787D02*
G03*
X293663Y220787I-000080J000000D01*
G01*
X288860Y221063D02*
G03*
X288860Y221063I-000080J000000D01*
G01*
X288269Y221299D02*
G03*
X288269Y221299I-000080J000000D01*
G01*
X283269Y225276D02*
G03*
X283269Y225276I-000080J000000D01*
G01*
X285080Y223583D02*
G03*
X285080Y223583I-000080J000000D01*
G01*
X283741Y222047D02*
G03*
X283741Y222047I-000080J000000D01*
G01*
X283663Y221535D02*
G03*
X283663Y221535I-000080J000000D01*
G01*
X277108Y221358D02*
G03*
X277108Y221358I-000080J000000D01*
G01*
X278820Y221575D02*
G03*
X278820Y221575I-000080J000000D01*
G01*
X287875Y221929D02*
G03*
X287875Y221929I-000080J000000D01*
G01*
X286419Y222047D02*
G03*
X286419Y222047I-000080J000000D01*
G01*
X286694Y220157D02*
G03*
X286694Y220157I-000080J000000D01*
G01*
X283623Y224370D02*
G03*
X283623Y224370I-000080J000000D01*
G01*
X282521Y224803D02*
G03*
X282521Y224803I-000080J000000D01*
G01*
X285671D02*
G03*
X285671Y224803I-000080J000000D01*
G01*
X288781Y222205D02*
G03*
X288781Y222205I-000080J000000D01*
G01*
X288171Y222224D02*
G03*
X288171Y222224I-000080J000000D01*
G01*
X287639Y223110D02*
G03*
X287639Y223110I-000080J000000D01*
G01*
X283446Y222441D02*
G03*
X283446Y222441I-000080J000000D01*
G01*
X281871Y220768D02*
G03*
X281871Y220768I-000080J000000D01*
G01*
X285021Y222638D02*
G03*
X285021Y222638I-000080J000000D01*
G01*
X281576Y221654D02*
G03*
X281576Y221654I-000080J000000D01*
G01*
X278820Y222638D02*
G03*
X278820Y222638I-000080J000000D01*
G01*
X277934Y223720D02*
G03*
X277934Y223720I-000080J000000D01*
G01*
X260119Y202953D02*
G03*
X260119Y202953I-000080J000000D01*
G01*
Y204134D02*
G03*
X260119Y204134I-000080J000000D01*
G01*
X264844Y203543D02*
G03*
X264844Y203543I-000080J000000D01*
G01*
X265828Y200787D02*
G03*
X265828Y200787I-000080J000000D01*
G01*
X260119Y195079D02*
G03*
X260119Y195079I-000080J000000D01*
G01*
X252836Y195669D02*
G03*
X252836Y195669I-000080J000000D01*
G01*
X252442D02*
G03*
X252442Y195669I-000080J000000D01*
G01*
X252048D02*
G03*
X252048Y195669I-000080J000000D01*
G01*
Y196063D02*
G03*
X252048Y196063I-000080J000000D01*
G01*
X260119D02*
G03*
X260119Y196063I-000080J000000D01*
G01*
X264844Y195669D02*
G03*
X264844Y195669I-000080J000000D01*
G01*
Y187795D02*
G03*
X264844Y187795I-000080J000000D01*
G01*
X260119Y187205D02*
G03*
X260119Y187205I-000080J000000D01*
G01*
X252836Y187795D02*
G03*
X252836Y187795I-000080J000000D01*
G01*
X252442D02*
G03*
X252442Y187795I-000080J000000D01*
G01*
Y188189D02*
G03*
X252442Y188189I-000080J000000D01*
G01*
X252048Y187795D02*
G03*
X252048Y187795I-000080J000000D01*
G01*
Y188189D02*
G03*
X252048Y188189I-000080J000000D01*
G01*
X260119D02*
G03*
X260119Y188189I-000080J000000D01*
G01*
Y179528D02*
G03*
X260119Y179528I-000080J000000D01*
G01*
X264844Y179921D02*
G03*
X264844Y179921I-000080J000000D01*
G01*
X252836D02*
G03*
X252836Y179921I-000080J000000D01*
G01*
Y180315D02*
G03*
X252836Y180315I-000080J000000D01*
G01*
X252442Y179921D02*
G03*
X252442Y179921I-000080J000000D01*
G01*
X260119Y180315D02*
G03*
X260119Y180315I-000080J000000D01*
G01*
X265828Y177165D02*
G03*
X265828Y177165I-000080J000000D01*
G01*
X267797Y230315D02*
G03*
X267797Y230315I-000080J000000D01*
G01*
X267403D02*
G03*
X267403Y230315I-000080J000000D01*
G01*
X267009D02*
G03*
X267009Y230315I-000080J000000D01*
G01*
Y230709D02*
G03*
X267009Y230709I-000080J000000D01*
G01*
X267403D02*
G03*
X267403Y230709I-000080J000000D01*
G01*
X267797D02*
G03*
X267797Y230709I-000080J000000D01*
G01*
Y231102D02*
G03*
X267797Y231102I-000080J000000D01*
G01*
X267403D02*
G03*
X267403Y231102I-000080J000000D01*
G01*
X267009D02*
G03*
X267009Y231102I-000080J000000D01*
G01*
Y231496D02*
G03*
X267009Y231496I-000080J000000D01*
G01*
X267403D02*
G03*
X267403Y231496I-000080J000000D01*
G01*
X267797D02*
G03*
X267797Y231496I-000080J000000D01*
G01*
Y231890D02*
G03*
X267797Y231890I-000080J000000D01*
G01*
X267403D02*
G03*
X267403Y231890I-000080J000000D01*
G01*
X267009D02*
G03*
X267009Y231890I-000080J000000D01*
G01*
X267797Y238189D02*
G03*
X267797Y238189I-000080J000000D01*
G01*
Y238583D02*
G03*
X267797Y238583I-000080J000000D01*
G01*
Y238976D02*
G03*
X267797Y238976I-000080J000000D01*
G01*
Y239370D02*
G03*
X267797Y239370I-000080J000000D01*
G01*
Y239764D02*
G03*
X267797Y239764I-000080J000000D01*
G01*
X267403D02*
G03*
X267403Y239764I-000080J000000D01*
G01*
Y239370D02*
G03*
X267403Y239370I-000080J000000D01*
G01*
Y238976D02*
G03*
X267403Y238976I-000080J000000D01*
G01*
Y238583D02*
G03*
X267403Y238583I-000080J000000D01*
G01*
Y238189D02*
G03*
X267403Y238189I-000080J000000D01*
G01*
X267009D02*
G03*
X267009Y238189I-000080J000000D01*
G01*
Y238583D02*
G03*
X267009Y238583I-000080J000000D01*
G01*
Y238976D02*
G03*
X267009Y238976I-000080J000000D01*
G01*
Y239370D02*
G03*
X267009Y239370I-000080J000000D01*
G01*
Y239764D02*
G03*
X267009Y239764I-000080J000000D01*
G01*
X267797Y246063D02*
G03*
X267797Y246063I-000080J000000D01*
G01*
Y246457D02*
G03*
X267797Y246457I-000080J000000D01*
G01*
Y246850D02*
G03*
X267797Y246850I-000080J000000D01*
G01*
Y247244D02*
G03*
X267797Y247244I-000080J000000D01*
G01*
Y247638D02*
G03*
X267797Y247638I-000080J000000D01*
G01*
X267403D02*
G03*
X267403Y247638I-000080J000000D01*
G01*
Y247244D02*
G03*
X267403Y247244I-000080J000000D01*
G01*
Y246850D02*
G03*
X267403Y246850I-000080J000000D01*
G01*
Y246457D02*
G03*
X267403Y246457I-000080J000000D01*
G01*
Y246063D02*
G03*
X267403Y246063I-000080J000000D01*
G01*
X267009D02*
G03*
X267009Y246063I-000080J000000D01*
G01*
Y246457D02*
G03*
X267009Y246457I-000080J000000D01*
G01*
Y246850D02*
G03*
X267009Y246850I-000080J000000D01*
G01*
Y247244D02*
G03*
X267009Y247244I-000080J000000D01*
G01*
Y247638D02*
G03*
X267009Y247638I-000080J000000D01*
G01*
X267797Y253937D02*
G03*
X267797Y253937I-000080J000000D01*
G01*
Y254331D02*
G03*
X267797Y254331I-000080J000000D01*
G01*
Y254724D02*
G03*
X267797Y254724I-000080J000000D01*
G01*
Y255118D02*
G03*
X267797Y255118I-000080J000000D01*
G01*
Y255512D02*
G03*
X267797Y255512I-000080J000000D01*
G01*
X267403Y255118D02*
G03*
X267403Y255118I-000080J000000D01*
G01*
Y255512D02*
G03*
X267403Y255512I-000080J000000D01*
G01*
Y254724D02*
G03*
X267403Y254724I-000080J000000D01*
G01*
Y254331D02*
G03*
X267403Y254331I-000080J000000D01*
G01*
Y253937D02*
G03*
X267403Y253937I-000080J000000D01*
G01*
X267009D02*
G03*
X267009Y253937I-000080J000000D01*
G01*
Y254331D02*
G03*
X267009Y254331I-000080J000000D01*
G01*
Y254724D02*
G03*
X267009Y254724I-000080J000000D01*
G01*
Y255118D02*
G03*
X267009Y255118I-000080J000000D01*
G01*
Y255512D02*
G03*
X267009Y255512I-000080J000000D01*
G01*
X264844Y231102D02*
G03*
X264844Y231102I-000080J000000D01*
G01*
X265828Y228346D02*
G03*
X265828Y228346I-000080J000000D01*
G01*
X260119Y230512D02*
G03*
X260119Y230512I-000080J000000D01*
G01*
Y231496D02*
G03*
X260119Y231496I-000080J000000D01*
G01*
Y238386D02*
G03*
X260119Y238386I-000080J000000D01*
G01*
X252836Y238976D02*
G03*
X252836Y238976I-000080J000000D01*
G01*
Y238583D02*
G03*
X252836Y238583I-000080J000000D01*
G01*
X252442D02*
G03*
X252442Y238583I-000080J000000D01*
G01*
Y238976D02*
G03*
X252442Y238976I-000080J000000D01*
G01*
X252048D02*
G03*
X252048Y238976I-000080J000000D01*
G01*
Y239370D02*
G03*
X252048Y239370I-000080J000000D01*
G01*
X260119D02*
G03*
X260119Y239370I-000080J000000D01*
G01*
X264844Y238976D02*
G03*
X264844Y238976I-000080J000000D01*
G01*
X265828Y251968D02*
G03*
X265828Y251968I-000080J000000D01*
G01*
Y244094D02*
G03*
X265828Y244094I-000080J000000D01*
G01*
X252836Y254331D02*
G03*
X252836Y254331I-000080J000000D01*
G01*
Y255118D02*
G03*
X252836Y255118I-000080J000000D01*
G01*
X252442Y254331D02*
G03*
X252442Y254331I-000080J000000D01*
G01*
X252836Y254724D02*
G03*
X252836Y254724I-000080J000000D01*
G01*
X252442Y255118D02*
G03*
X252442Y255118I-000080J000000D01*
G01*
Y254724D02*
G03*
X252442Y254724I-000080J000000D01*
G01*
X251655Y254331D02*
G03*
X251655Y254331I-000080J000000D01*
G01*
X251261D02*
G03*
X251261Y254331I-000080J000000D01*
G01*
X252048Y255118D02*
G03*
X252048Y255118I-000080J000000D01*
G01*
Y254724D02*
G03*
X252048Y254724I-000080J000000D01*
G01*
Y254331D02*
G03*
X252048Y254331I-000080J000000D01*
G01*
X251655Y254724D02*
G03*
X251655Y254724I-000080J000000D01*
G01*
X251261D02*
G03*
X251261Y254724I-000080J000000D01*
G01*
X251655Y255118D02*
G03*
X251655Y255118I-000080J000000D01*
G01*
X250867Y254724D02*
G03*
X250867Y254724I-000080J000000D01*
G01*
X251261Y255118D02*
G03*
X251261Y255118I-000080J000000D01*
G01*
X250867Y254331D02*
G03*
X250867Y254331I-000080J000000D01*
G01*
X252836Y257087D02*
G03*
X252836Y257087I-000080J000000D01*
G01*
Y256693D02*
G03*
X252836Y256693I-000080J000000D01*
G01*
X252048D02*
G03*
X252048Y256693I-000080J000000D01*
G01*
Y257480D02*
G03*
X252048Y257480I-000080J000000D01*
G01*
X251655Y257087D02*
G03*
X251655Y257087I-000080J000000D01*
G01*
X252442D02*
G03*
X252442Y257087I-000080J000000D01*
G01*
Y256693D02*
G03*
X252442Y256693I-000080J000000D01*
G01*
X251261Y257087D02*
G03*
X251261Y257087I-000080J000000D01*
G01*
X251655Y256693D02*
G03*
X251655Y256693I-000080J000000D01*
G01*
Y257480D02*
G03*
X251655Y257480I-000080J000000D01*
G01*
X252048Y257087D02*
G03*
X252048Y257087I-000080J000000D01*
G01*
X252836Y257480D02*
G03*
X252836Y257480I-000080J000000D01*
G01*
Y179528D02*
G03*
X252836Y179528I-000080J000000D01*
G01*
X252442D02*
G03*
X252442Y179528I-000080J000000D01*
G01*
X252048D02*
G03*
X252048Y179528I-000080J000000D01*
G01*
X251655D02*
G03*
X251655Y179528I-000080J000000D01*
G01*
X251261D02*
G03*
X251261Y179528I-000080J000000D01*
G01*
X250867D02*
G03*
X250867Y179528I-000080J000000D01*
G01*
Y179921D02*
G03*
X250867Y179921I-000080J000000D01*
G01*
X251261D02*
G03*
X251261Y179921I-000080J000000D01*
G01*
X251655D02*
G03*
X251655Y179921I-000080J000000D01*
G01*
X252048D02*
G03*
X252048Y179921I-000080J000000D01*
G01*
X252442Y180315D02*
G03*
X252442Y180315I-000080J000000D01*
G01*
X252048D02*
G03*
X252048Y180315I-000080J000000D01*
G01*
X251655D02*
G03*
X251655Y180315I-000080J000000D01*
G01*
X251261D02*
G03*
X251261Y180315I-000080J000000D01*
G01*
X250867D02*
G03*
X250867Y180315I-000080J000000D01*
G01*
X252836Y181890D02*
G03*
X252836Y181890I-000080J000000D01*
G01*
X252442D02*
G03*
X252442Y181890I-000080J000000D01*
G01*
X252048D02*
G03*
X252048Y181890I-000080J000000D01*
G01*
X251655D02*
G03*
X251655Y181890I-000080J000000D01*
G01*
X251261D02*
G03*
X251261Y181890I-000080J000000D01*
G01*
X250867D02*
G03*
X250867Y181890I-000080J000000D01*
G01*
Y182283D02*
G03*
X250867Y182283I-000080J000000D01*
G01*
X251261D02*
G03*
X251261Y182283I-000080J000000D01*
G01*
X251655D02*
G03*
X251655Y182283I-000080J000000D01*
G01*
X252048D02*
G03*
X252048Y182283I-000080J000000D01*
G01*
X252442D02*
G03*
X252442Y182283I-000080J000000D01*
G01*
X252836D02*
G03*
X252836Y182283I-000080J000000D01*
G01*
Y182677D02*
G03*
X252836Y182677I-000080J000000D01*
G01*
X252442D02*
G03*
X252442Y182677I-000080J000000D01*
G01*
X252048D02*
G03*
X252048Y182677I-000080J000000D01*
G01*
X251655D02*
G03*
X251655Y182677I-000080J000000D01*
G01*
X251261D02*
G03*
X251261Y182677I-000080J000000D01*
G01*
X250867D02*
G03*
X250867Y182677I-000080J000000D01*
G01*
X252442Y187402D02*
G03*
X252442Y187402I-000080J000000D01*
G01*
X252836D02*
G03*
X252836Y187402I-000080J000000D01*
G01*
X252048D02*
G03*
X252048Y187402I-000080J000000D01*
G01*
X251655D02*
G03*
X251655Y187402I-000080J000000D01*
G01*
X251261D02*
G03*
X251261Y187402I-000080J000000D01*
G01*
X250867D02*
G03*
X250867Y187402I-000080J000000D01*
G01*
Y187795D02*
G03*
X250867Y187795I-000080J000000D01*
G01*
X251261D02*
G03*
X251261Y187795I-000080J000000D01*
G01*
X251655D02*
G03*
X251655Y187795I-000080J000000D01*
G01*
X252836Y188189D02*
G03*
X252836Y188189I-000080J000000D01*
G01*
X251655D02*
G03*
X251655Y188189I-000080J000000D01*
G01*
X251261D02*
G03*
X251261Y188189I-000080J000000D01*
G01*
X250867D02*
G03*
X250867Y188189I-000080J000000D01*
G01*
X252836Y189764D02*
G03*
X252836Y189764I-000080J000000D01*
G01*
X252442D02*
G03*
X252442Y189764I-000080J000000D01*
G01*
X252048D02*
G03*
X252048Y189764I-000080J000000D01*
G01*
X251655D02*
G03*
X251655Y189764I-000080J000000D01*
G01*
X251261D02*
G03*
X251261Y189764I-000080J000000D01*
G01*
X250867D02*
G03*
X250867Y189764I-000080J000000D01*
G01*
Y190157D02*
G03*
X250867Y190157I-000080J000000D01*
G01*
X251261D02*
G03*
X251261Y190157I-000080J000000D01*
G01*
X251655D02*
G03*
X251655Y190157I-000080J000000D01*
G01*
X252048D02*
G03*
X252048Y190157I-000080J000000D01*
G01*
X252442D02*
G03*
X252442Y190157I-000080J000000D01*
G01*
X252836D02*
G03*
X252836Y190157I-000080J000000D01*
G01*
Y190551D02*
G03*
X252836Y190551I-000080J000000D01*
G01*
X252442D02*
G03*
X252442Y190551I-000080J000000D01*
G01*
X252048D02*
G03*
X252048Y190551I-000080J000000D01*
G01*
X251655D02*
G03*
X251655Y190551I-000080J000000D01*
G01*
X251261D02*
G03*
X251261Y190551I-000080J000000D01*
G01*
X250867D02*
G03*
X250867Y190551I-000080J000000D01*
G01*
X252836Y195276D02*
G03*
X252836Y195276I-000080J000000D01*
G01*
X252442D02*
G03*
X252442Y195276I-000080J000000D01*
G01*
X252048D02*
G03*
X252048Y195276I-000080J000000D01*
G01*
X251655D02*
G03*
X251655Y195276I-000080J000000D01*
G01*
X251261D02*
G03*
X251261Y195276I-000080J000000D01*
G01*
X250867D02*
G03*
X250867Y195276I-000080J000000D01*
G01*
Y195669D02*
G03*
X250867Y195669I-000080J000000D01*
G01*
X251261D02*
G03*
X251261Y195669I-000080J000000D01*
G01*
X251655D02*
G03*
X251655Y195669I-000080J000000D01*
G01*
X252836Y196063D02*
G03*
X252836Y196063I-000080J000000D01*
G01*
X252442D02*
G03*
X252442Y196063I-000080J000000D01*
G01*
X251655D02*
G03*
X251655Y196063I-000080J000000D01*
G01*
X251261D02*
G03*
X251261Y196063I-000080J000000D01*
G01*
X250867D02*
G03*
X250867Y196063I-000080J000000D01*
G01*
X252836Y197638D02*
G03*
X252836Y197638I-000080J000000D01*
G01*
X252442D02*
G03*
X252442Y197638I-000080J000000D01*
G01*
X252048D02*
G03*
X252048Y197638I-000080J000000D01*
G01*
X251655D02*
G03*
X251655Y197638I-000080J000000D01*
G01*
X251261D02*
G03*
X251261Y197638I-000080J000000D01*
G01*
X250867D02*
G03*
X250867Y197638I-000080J000000D01*
G01*
Y198032D02*
G03*
X250867Y198032I-000080J000000D01*
G01*
X251261D02*
G03*
X251261Y198032I-000080J000000D01*
G01*
X251655D02*
G03*
X251655Y198032I-000080J000000D01*
G01*
X252048D02*
G03*
X252048Y198032I-000080J000000D01*
G01*
X252442D02*
G03*
X252442Y198032I-000080J000000D01*
G01*
X252836D02*
G03*
X252836Y198032I-000080J000000D01*
G01*
Y198425D02*
G03*
X252836Y198425I-000080J000000D01*
G01*
X252048D02*
G03*
X252048Y198425I-000080J000000D01*
G01*
X252442D02*
G03*
X252442Y198425I-000080J000000D01*
G01*
X251655D02*
G03*
X251655Y198425I-000080J000000D01*
G01*
X251261D02*
G03*
X251261Y198425I-000080J000000D01*
G01*
X250867D02*
G03*
X250867Y198425I-000080J000000D01*
G01*
X252836Y203150D02*
G03*
X252836Y203150I-000080J000000D01*
G01*
X252442D02*
G03*
X252442Y203150I-000080J000000D01*
G01*
X252048D02*
G03*
X252048Y203150I-000080J000000D01*
G01*
X251655D02*
G03*
X251655Y203150I-000080J000000D01*
G01*
X251261D02*
G03*
X251261Y203150I-000080J000000D01*
G01*
X250867D02*
G03*
X250867Y203150I-000080J000000D01*
G01*
Y203543D02*
G03*
X250867Y203543I-000080J000000D01*
G01*
X251261D02*
G03*
X251261Y203543I-000080J000000D01*
G01*
X251655D02*
G03*
X251655Y203543I-000080J000000D01*
G01*
X252048D02*
G03*
X252048Y203543I-000080J000000D01*
G01*
X252442D02*
G03*
X252442Y203543I-000080J000000D01*
G01*
X252836D02*
G03*
X252836Y203543I-000080J000000D01*
G01*
Y203937D02*
G03*
X252836Y203937I-000080J000000D01*
G01*
X252442D02*
G03*
X252442Y203937I-000080J000000D01*
G01*
X252048D02*
G03*
X252048Y203937I-000080J000000D01*
G01*
X251261D02*
G03*
X251261Y203937I-000080J000000D01*
G01*
X251655D02*
G03*
X251655Y203937I-000080J000000D01*
G01*
X250867D02*
G03*
X250867Y203937I-000080J000000D01*
G01*
X252836Y205512D02*
G03*
X252836Y205512I-000080J000000D01*
G01*
X252442D02*
G03*
X252442Y205512I-000080J000000D01*
G01*
X252048D02*
G03*
X252048Y205512I-000080J000000D01*
G01*
X251655D02*
G03*
X251655Y205512I-000080J000000D01*
G01*
X251261D02*
G03*
X251261Y205512I-000080J000000D01*
G01*
X250867D02*
G03*
X250867Y205512I-000080J000000D01*
G01*
Y205906D02*
G03*
X250867Y205906I-000080J000000D01*
G01*
X251261D02*
G03*
X251261Y205906I-000080J000000D01*
G01*
X251655D02*
G03*
X251655Y205906I-000080J000000D01*
G01*
X252048D02*
G03*
X252048Y205906I-000080J000000D01*
G01*
X252442D02*
G03*
X252442Y205906I-000080J000000D01*
G01*
X252836D02*
G03*
X252836Y205906I-000080J000000D01*
G01*
Y206299D02*
G03*
X252836Y206299I-000080J000000D01*
G01*
X252442D02*
G03*
X252442Y206299I-000080J000000D01*
G01*
X252048D02*
G03*
X252048Y206299I-000080J000000D01*
G01*
X251655D02*
G03*
X251655Y206299I-000080J000000D01*
G01*
X251261D02*
G03*
X251261Y206299I-000080J000000D01*
G01*
X250867D02*
G03*
X250867Y206299I-000080J000000D01*
G01*
X252836Y230709D02*
G03*
X252836Y230709I-000080J000000D01*
G01*
X252442D02*
G03*
X252442Y230709I-000080J000000D01*
G01*
X252048D02*
G03*
X252048Y230709I-000080J000000D01*
G01*
X251655D02*
G03*
X251655Y230709I-000080J000000D01*
G01*
X251261D02*
G03*
X251261Y230709I-000080J000000D01*
G01*
X250867D02*
G03*
X250867Y230709I-000080J000000D01*
G01*
Y231102D02*
G03*
X250867Y231102I-000080J000000D01*
G01*
X251261D02*
G03*
X251261Y231102I-000080J000000D01*
G01*
X251655D02*
G03*
X251655Y231102I-000080J000000D01*
G01*
X252048D02*
G03*
X252048Y231102I-000080J000000D01*
G01*
X252442D02*
G03*
X252442Y231102I-000080J000000D01*
G01*
X252836D02*
G03*
X252836Y231102I-000080J000000D01*
G01*
Y231496D02*
G03*
X252836Y231496I-000080J000000D01*
G01*
X252442D02*
G03*
X252442Y231496I-000080J000000D01*
G01*
X252048D02*
G03*
X252048Y231496I-000080J000000D01*
G01*
X251655D02*
G03*
X251655Y231496I-000080J000000D01*
G01*
X251261D02*
G03*
X251261Y231496I-000080J000000D01*
G01*
X250867D02*
G03*
X250867Y231496I-000080J000000D01*
G01*
X252836Y233071D02*
G03*
X252836Y233071I-000080J000000D01*
G01*
X252442D02*
G03*
X252442Y233071I-000080J000000D01*
G01*
X252048D02*
G03*
X252048Y233071I-000080J000000D01*
G01*
X251655D02*
G03*
X251655Y233071I-000080J000000D01*
G01*
X251261D02*
G03*
X251261Y233071I-000080J000000D01*
G01*
X250867D02*
G03*
X250867Y233071I-000080J000000D01*
G01*
Y233465D02*
G03*
X250867Y233465I-000080J000000D01*
G01*
X251261D02*
G03*
X251261Y233465I-000080J000000D01*
G01*
X251655D02*
G03*
X251655Y233465I-000080J000000D01*
G01*
X252048D02*
G03*
X252048Y233465I-000080J000000D01*
G01*
X252442D02*
G03*
X252442Y233465I-000080J000000D01*
G01*
X252836D02*
G03*
X252836Y233465I-000080J000000D01*
G01*
Y233858D02*
G03*
X252836Y233858I-000080J000000D01*
G01*
X252442D02*
G03*
X252442Y233858I-000080J000000D01*
G01*
X252048D02*
G03*
X252048Y233858I-000080J000000D01*
G01*
X251655D02*
G03*
X251655Y233858I-000080J000000D01*
G01*
X251261D02*
G03*
X251261Y233858I-000080J000000D01*
G01*
X250867D02*
G03*
X250867Y233858I-000080J000000D01*
G01*
X252048Y238583D02*
G03*
X252048Y238583I-000080J000000D01*
G01*
X251655D02*
G03*
X251655Y238583I-000080J000000D01*
G01*
X251261D02*
G03*
X251261Y238583I-000080J000000D01*
G01*
X250867D02*
G03*
X250867Y238583I-000080J000000D01*
G01*
Y238976D02*
G03*
X250867Y238976I-000080J000000D01*
G01*
X251261D02*
G03*
X251261Y238976I-000080J000000D01*
G01*
X251655D02*
G03*
X251655Y238976I-000080J000000D01*
G01*
X252836Y239370D02*
G03*
X252836Y239370I-000080J000000D01*
G01*
X252442D02*
G03*
X252442Y239370I-000080J000000D01*
G01*
X251655D02*
G03*
X251655Y239370I-000080J000000D01*
G01*
X251261D02*
G03*
X251261Y239370I-000080J000000D01*
G01*
X250867D02*
G03*
X250867Y239370I-000080J000000D01*
G01*
X252836Y241732D02*
G03*
X252836Y241732I-000080J000000D01*
G01*
X252442D02*
G03*
X252442Y241732I-000080J000000D01*
G01*
X252048D02*
G03*
X252048Y241732I-000080J000000D01*
G01*
X251655D02*
G03*
X251655Y241732I-000080J000000D01*
G01*
X251261D02*
G03*
X251261Y241732I-000080J000000D01*
G01*
Y241339D02*
G03*
X251261Y241339I-000080J000000D01*
G01*
X251655D02*
G03*
X251655Y241339I-000080J000000D01*
G01*
X252048D02*
G03*
X252048Y241339I-000080J000000D01*
G01*
X252442D02*
G03*
X252442Y241339I-000080J000000D01*
G01*
X252836D02*
G03*
X252836Y241339I-000080J000000D01*
G01*
Y240945D02*
G03*
X252836Y240945I-000080J000000D01*
G01*
X252442D02*
G03*
X252442Y240945I-000080J000000D01*
G01*
X252048D02*
G03*
X252048Y240945I-000080J000000D01*
G01*
X251655D02*
G03*
X251655Y240945I-000080J000000D01*
G01*
X251261D02*
G03*
X251261Y240945I-000080J000000D01*
G01*
X250867D02*
G03*
X250867Y240945I-000080J000000D01*
G01*
Y241339D02*
G03*
X250867Y241339I-000080J000000D01*
G01*
Y241732D02*
G03*
X250867Y241732I-000080J000000D01*
G01*
X252442Y246457D02*
G03*
X252442Y246457I-000080J000000D01*
G01*
X252048D02*
G03*
X252048Y246457I-000080J000000D01*
G01*
X251655D02*
G03*
X251655Y246457I-000080J000000D01*
G01*
X251261D02*
G03*
X251261Y246457I-000080J000000D01*
G01*
X250867D02*
G03*
X250867Y246457I-000080J000000D01*
G01*
Y246850D02*
G03*
X250867Y246850I-000080J000000D01*
G01*
X251261D02*
G03*
X251261Y246850I-000080J000000D01*
G01*
X251655D02*
G03*
X251655Y246850I-000080J000000D01*
G01*
X252048D02*
G03*
X252048Y246850I-000080J000000D01*
G01*
X252442D02*
G03*
X252442Y246850I-000080J000000D01*
G01*
X252836D02*
G03*
X252836Y246850I-000080J000000D01*
G01*
Y246457D02*
G03*
X252836Y246457I-000080J000000D01*
G01*
Y247244D02*
G03*
X252836Y247244I-000080J000000D01*
G01*
X252442D02*
G03*
X252442Y247244I-000080J000000D01*
G01*
X252048D02*
G03*
X252048Y247244I-000080J000000D01*
G01*
X251655D02*
G03*
X251655Y247244I-000080J000000D01*
G01*
X251261D02*
G03*
X251261Y247244I-000080J000000D01*
G01*
X250867D02*
G03*
X250867Y247244I-000080J000000D01*
G01*
X252836Y248819D02*
G03*
X252836Y248819I-000080J000000D01*
G01*
X252442D02*
G03*
X252442Y248819I-000080J000000D01*
G01*
X252048D02*
G03*
X252048Y248819I-000080J000000D01*
G01*
X251261D02*
G03*
X251261Y248819I-000080J000000D01*
G01*
X251655D02*
G03*
X251655Y248819I-000080J000000D01*
G01*
Y249213D02*
G03*
X251655Y249213I-000080J000000D01*
G01*
X252048D02*
G03*
X252048Y249213I-000080J000000D01*
G01*
X252442D02*
G03*
X252442Y249213I-000080J000000D01*
G01*
X252836D02*
G03*
X252836Y249213I-000080J000000D01*
G01*
Y249606D02*
G03*
X252836Y249606I-000080J000000D01*
G01*
X252442D02*
G03*
X252442Y249606I-000080J000000D01*
G01*
X252048D02*
G03*
X252048Y249606I-000080J000000D01*
G01*
X251655D02*
G03*
X251655Y249606I-000080J000000D01*
G01*
X251261Y249213D02*
G03*
X251261Y249213I-000080J000000D01*
G01*
X250867D02*
G03*
X250867Y249213I-000080J000000D01*
G01*
Y248819D02*
G03*
X250867Y248819I-000080J000000D01*
G01*
X251261Y249606D02*
G03*
X251261Y249606I-000080J000000D01*
G01*
X250867D02*
G03*
X250867Y249606I-000080J000000D01*
G01*
Y255118D02*
G03*
X250867Y255118I-000080J000000D01*
G01*
Y256693D02*
G03*
X250867Y256693I-000080J000000D01*
G01*
X251261D02*
G03*
X251261Y256693I-000080J000000D01*
G01*
X250867Y257087D02*
G03*
X250867Y257087I-000080J000000D01*
G01*
Y257480D02*
G03*
X250867Y257480I-000080J000000D01*
G01*
X251261D02*
G03*
X251261Y257480I-000080J000000D01*
G01*
X252442D02*
G03*
X252442Y257480I-000080J000000D01*
G01*
X245552Y180906D02*
G03*
X245552Y180906I-000080J000000D01*
G01*
Y188583D02*
G03*
X245552Y188583I-000080J000000D01*
G01*
Y196457D02*
G03*
X245552Y196457I-000080J000000D01*
G01*
Y204331D02*
G03*
X245552Y204331I-000080J000000D01*
G01*
Y240551D02*
G03*
X245552Y240551I-000080J000000D01*
G01*
Y248425D02*
G03*
X245552Y248425I-000080J000000D01*
G01*
Y256299D02*
G03*
X245552Y256299I-000080J000000D01*
G01*
Y232677D02*
G03*
X245552Y232677I-000080J000000D01*
G01*
X247718Y212598D02*
G03*
X247718Y212598I-000080J000000D01*
G01*
X244174Y211024D02*
G03*
X244174Y211024I-000080J000000D01*
G01*
X247324Y212598D02*
G03*
X247324Y212598I-000080J000000D01*
G01*
X246537D02*
G03*
X246537Y212598I-000080J000000D01*
G01*
X246930D02*
G03*
X246930Y212598I-000080J000000D01*
G01*
X248899D02*
G03*
X248899Y212598I-000080J000000D01*
G01*
X255356Y222323D02*
G03*
X255356Y222323I-000080J000000D01*
G01*
Y223858D02*
G03*
X255356Y223858I-000080J000000D01*
G01*
X250277Y226968D02*
G03*
X250277Y226968I-000080J000000D01*
G01*
X264253Y222047D02*
G03*
X264253Y222047I-000080J000000D01*
G01*
X246537Y226968D02*
G03*
X246537Y226968I-000080J000000D01*
G01*
X292363Y221299D02*
G03*
X292363Y221299I-000080J000000D01*
G01*
X276143Y221425D02*
G03*
X276143Y221425I-000080J000000D01*
G01*
X275080Y224409D02*
G03*
X275080Y224409I-000080J000000D01*
G01*
X273899Y220472D02*
G03*
X273899Y220472I-000080J000000D01*
G01*
X274293D02*
G03*
X274293Y220472I-000080J000000D01*
G01*
X273899Y225197D02*
G03*
X273899Y225197I-000080J000000D01*
G01*
X274293D02*
G03*
X274293Y225197I-000080J000000D01*
G01*
X267797Y221457D02*
G03*
X267797Y221457I-000080J000000D01*
G01*
X269568Y224409D02*
G03*
X269568Y224409I-000080J000000D01*
G01*
X274686Y220472D02*
G03*
X274686Y220472I-000080J000000D01*
G01*
X286222Y219488D02*
G03*
X286222Y219488I-000080J000000D01*
G01*
X286025Y221339D02*
G03*
X286025Y221339I-000080J000000D01*
G01*
X278426Y216299D02*
G03*
X278426Y216299I-000080J000000D01*
G01*
X255789Y223071D02*
G03*
X255789Y223071I-000080J000000D01*
G01*
X269017D02*
G03*
X269017Y223071I-000080J000000D01*
G01*
X277048Y252165D02*
G03*
X277048Y252165I-000080J000000D01*
G01*
X291812Y220551D02*
G03*
X291812Y220551I-000080J000000D01*
G01*
X290828Y222480D02*
G03*
X290828Y222480I-000080J000000D01*
G01*
X289450Y222323D02*
G03*
X289450Y222323I-000080J000000D01*
G01*
X291025Y222087D02*
G03*
X291025Y222087I-000080J000000D01*
G01*
X281104Y236181D02*
G03*
X281104Y236181I-000080J000000D01*
G01*
X277285Y244291D02*
G03*
X277285Y244291I-000080J000000D01*
G01*
X291222Y221732D02*
G03*
X291222Y221732I-000080J000000D01*
G01*
X275631Y194370D02*
G03*
X275631Y194370I-000080J000000D01*
G01*
X275867Y185945D02*
G03*
X275867Y185945I-000080J000000D01*
G01*
X276143Y178425D02*
G03*
X276143Y178425I-000080J000000D01*
G01*
X273072Y205984D02*
G03*
X273072Y205984I-000080J000000D01*
G01*
X273033Y202795D02*
G03*
X273033Y202795I-000080J000000D01*
G01*
Y195000D02*
G03*
X273033Y195000I-000080J000000D01*
G01*
X273072Y198110D02*
G03*
X273072Y198110I-000080J000000D01*
G01*
Y187008D02*
G03*
X273072Y187008I-000080J000000D01*
G01*
X272993Y190236D02*
G03*
X272993Y190236I-000080J000000D01*
G01*
X273072Y182323D02*
G03*
X273072Y182323I-000080J000000D01*
G01*
X273033Y179213D02*
G03*
X273033Y179213I-000080J000000D01*
G01*
X272954Y257165D02*
G03*
X272954Y257165I-000080J000000D01*
G01*
X273072Y253937D02*
G03*
X273072Y253937I-000080J000000D01*
G01*
X272993Y249291D02*
G03*
X272993Y249291I-000080J000000D01*
G01*
X273072Y246181D02*
G03*
X273072Y246181I-000080J000000D01*
G01*
X273190Y241417D02*
G03*
X273190Y241417I-000080J000000D01*
G01*
X273033Y238307D02*
G03*
X273033Y238307I-000080J000000D01*
G01*
X273151Y233504D02*
G03*
X273151Y233504I-000080J000000D01*
G01*
X273072Y230394D02*
G03*
X273072Y230394I-000080J000000D01*
G01*
X277915Y219685D02*
G03*
X277915Y219685I-000080J000000D01*
G01*
X290513Y218228D02*
G03*
X290513Y218228I-000080J000000D01*
G01*
X292442Y218268D02*
G03*
X292442Y218268I-000080J000000D01*
G01*
X295356Y220236D02*
G03*
X295356Y220236I-000080J000000D01*
G01*
X287954Y220394D02*
G03*
X287954Y220394I-000080J000000D01*
G01*
X280356Y215512D02*
G03*
X280356Y215512I-000080J000000D01*
G01*
X272954Y220472D02*
G03*
X272954Y220472I-000080J000000D01*
G01*
Y225197D02*
G03*
X272954Y225197I-000080J000000D01*
G01*
X273308Y220472D02*
G03*
X273308Y220472I-000080J000000D01*
G01*
Y225197D02*
G03*
X273308Y225197I-000080J000000D01*
G01*
X281458Y225669D02*
G03*
X281458Y225669I-000080J000000D01*
G01*
X280159Y216535D02*
G03*
X280159Y216535I-000080J000000D01*
G01*
X279371Y217992D02*
G03*
X279371Y217992I-000080J000000D01*
G01*
X247127Y244094D02*
G03*
X247127Y244094I-000080J000000D01*
G01*
X248013D02*
G03*
X248013Y244094I-000080J000000D01*
G01*
X246635Y236220D02*
G03*
X246635Y236220I-000080J000000D01*
G01*
X248013D02*
G03*
X248013Y236220I-000080J000000D01*
G01*
X246930Y227854D02*
G03*
X246930Y227854I-000080J000000D01*
G01*
X247324D02*
G03*
X247324Y227854I-000080J000000D01*
G01*
X247718D02*
G03*
X247718Y227854I-000080J000000D01*
G01*
X246438Y228346D02*
G03*
X246438Y228346I-000080J000000D01*
G01*
X248013D02*
G03*
X248013Y228346I-000080J000000D01*
G01*
X264844Y246850D02*
G03*
X264844Y246850I-000080J000000D01*
G01*
X260119Y246457D02*
G03*
X260119Y246457I-000080J000000D01*
G01*
Y247244D02*
G03*
X260119Y247244I-000080J000000D01*
G01*
X246419Y200787D02*
G03*
X246419Y200787I-000080J000000D01*
G01*
X247993D02*
G03*
X247993Y200787I-000080J000000D01*
G01*
X246458Y192913D02*
G03*
X246458Y192913I-000080J000000D01*
G01*
X247993D02*
G03*
X247993Y192913I-000080J000000D01*
G01*
X246419Y208661D02*
G03*
X246419Y208661I-000080J000000D01*
G01*
X247993D02*
G03*
X247993Y208661I-000080J000000D01*
G01*
X242600Y183071D02*
G03*
X242600Y183071I-000080J000000D01*
G01*
Y182283D02*
G03*
X242600Y182283I-000080J000000D01*
G01*
Y181496D02*
G03*
X242600Y181496I-000080J000000D01*
G01*
Y180709D02*
G03*
X242600Y180709I-000080J000000D01*
G01*
Y179921D02*
G03*
X242600Y179921I-000080J000000D01*
G01*
Y179134D02*
G03*
X242600Y179134I-000080J000000D01*
G01*
Y178346D02*
G03*
X242600Y178346I-000080J000000D01*
G01*
Y177559D02*
G03*
X242600Y177559I-000080J000000D01*
G01*
Y176772D02*
G03*
X242600Y176772I-000080J000000D01*
G01*
Y183858D02*
G03*
X242600Y183858I-000080J000000D01*
G01*
Y186220D02*
G03*
X242600Y186220I-000080J000000D01*
G01*
Y187008D02*
G03*
X242600Y187008I-000080J000000D01*
G01*
Y187795D02*
G03*
X242600Y187795I-000080J000000D01*
G01*
Y190157D02*
G03*
X242600Y190157I-000080J000000D01*
G01*
Y190945D02*
G03*
X242600Y190945I-000080J000000D01*
G01*
X240631D02*
G03*
X240631Y190945I-000080J000000D01*
G01*
Y190157D02*
G03*
X240631Y190157I-000080J000000D01*
G01*
Y189370D02*
G03*
X240631Y189370I-000080J000000D01*
G01*
Y188583D02*
G03*
X240631Y188583I-000080J000000D01*
G01*
Y187795D02*
G03*
X240631Y187795I-000080J000000D01*
G01*
Y187008D02*
G03*
X240631Y187008I-000080J000000D01*
G01*
Y186220D02*
G03*
X240631Y186220I-000080J000000D01*
G01*
Y183858D02*
G03*
X240631Y183858I-000080J000000D01*
G01*
Y183071D02*
G03*
X240631Y183071I-000080J000000D01*
G01*
Y182283D02*
G03*
X240631Y182283I-000080J000000D01*
G01*
Y181496D02*
G03*
X240631Y181496I-000080J000000D01*
G01*
Y180709D02*
G03*
X240631Y180709I-000080J000000D01*
G01*
Y179921D02*
G03*
X240631Y179921I-000080J000000D01*
G01*
Y179134D02*
G03*
X240631Y179134I-000080J000000D01*
G01*
Y178346D02*
G03*
X240631Y178346I-000080J000000D01*
G01*
Y177559D02*
G03*
X240631Y177559I-000080J000000D01*
G01*
Y176772D02*
G03*
X240631Y176772I-000080J000000D01*
G01*
X239056Y197638D02*
G03*
X239056Y197638I-000080J000000D01*
G01*
Y198425D02*
G03*
X239056Y198425I-000080J000000D01*
G01*
Y199213D02*
G03*
X239056Y199213I-000080J000000D01*
G01*
Y196063D02*
G03*
X239056Y196063I-000080J000000D01*
G01*
Y195276D02*
G03*
X239056Y195276I-000080J000000D01*
G01*
X242600D02*
G03*
X242600Y195276I-000080J000000D01*
G01*
Y196063D02*
G03*
X242600Y196063I-000080J000000D01*
G01*
Y197638D02*
G03*
X242600Y197638I-000080J000000D01*
G01*
Y198425D02*
G03*
X242600Y198425I-000080J000000D01*
G01*
Y199213D02*
G03*
X242600Y199213I-000080J000000D01*
G01*
X239056Y203937D02*
G03*
X239056Y203937I-000080J000000D01*
G01*
Y203150D02*
G03*
X239056Y203150I-000080J000000D01*
G01*
Y205512D02*
G03*
X239056Y205512I-000080J000000D01*
G01*
Y206299D02*
G03*
X239056Y206299I-000080J000000D01*
G01*
X242600Y205512D02*
G03*
X242600Y205512I-000080J000000D01*
G01*
Y206299D02*
G03*
X242600Y206299I-000080J000000D01*
G01*
Y203937D02*
G03*
X242600Y203937I-000080J000000D01*
G01*
Y203150D02*
G03*
X242600Y203150I-000080J000000D01*
G01*
X277344Y222736D02*
G03*
X277344Y222736I-000080J000000D01*
G01*
X240237Y257874D02*
G03*
X240237Y257874I-000080J000000D01*
G01*
X241812D02*
G03*
X241812Y257874I-000080J000000D01*
G01*
X243387D02*
G03*
X243387Y257874I-000080J000000D01*
G01*
X246537D02*
G03*
X246537Y257874I-000080J000000D01*
G01*
X248111D02*
G03*
X248111Y257874I-000080J000000D01*
G01*
Y256299D02*
G03*
X248111Y256299I-000080J000000D01*
G01*
Y254724D02*
G03*
X248111Y254724I-000080J000000D01*
G01*
X240237Y256299D02*
G03*
X240237Y256299I-000080J000000D01*
G01*
Y254724D02*
G03*
X240237Y254724I-000080J000000D01*
G01*
X241812D02*
G03*
X241812Y254724I-000080J000000D01*
G01*
X243387D02*
G03*
X243387Y254724I-000080J000000D01*
G01*
X239056Y248819D02*
G03*
X239056Y248819I-000080J000000D01*
G01*
Y247244D02*
G03*
X239056Y247244I-000080J000000D01*
G01*
Y246457D02*
G03*
X239056Y246457I-000080J000000D01*
G01*
Y249606D02*
G03*
X239056Y249606I-000080J000000D01*
G01*
X242600Y247244D02*
G03*
X242600Y247244I-000080J000000D01*
G01*
Y246457D02*
G03*
X242600Y246457I-000080J000000D01*
G01*
Y245669D02*
G03*
X242600Y245669I-000080J000000D01*
G01*
X239056D02*
G03*
X239056Y245669I-000080J000000D01*
G01*
Y237795D02*
G03*
X239056Y237795I-000080J000000D01*
G01*
Y238583D02*
G03*
X239056Y238583I-000080J000000D01*
G01*
Y239370D02*
G03*
X239056Y239370I-000080J000000D01*
G01*
Y240945D02*
G03*
X239056Y240945I-000080J000000D01*
G01*
X242600D02*
G03*
X242600Y240945I-000080J000000D01*
G01*
Y241732D02*
G03*
X242600Y241732I-000080J000000D01*
G01*
Y239370D02*
G03*
X242600Y239370I-000080J000000D01*
G01*
Y238583D02*
G03*
X242600Y238583I-000080J000000D01*
G01*
Y237795D02*
G03*
X242600Y237795I-000080J000000D01*
G01*
X239056Y241732D02*
G03*
X239056Y241732I-000080J000000D01*
G01*
X245552Y241929D02*
G03*
X245552Y241929I-000080J000000D01*
G01*
X239056Y231496D02*
G03*
X239056Y231496I-000080J000000D01*
G01*
Y230709D02*
G03*
X239056Y230709I-000080J000000D01*
G01*
Y229921D02*
G03*
X239056Y229921I-000080J000000D01*
G01*
Y233071D02*
G03*
X239056Y233071I-000080J000000D01*
G01*
Y233858D02*
G03*
X239056Y233858I-000080J000000D01*
G01*
X242600Y233071D02*
G03*
X242600Y233071I-000080J000000D01*
G01*
Y231496D02*
G03*
X242600Y231496I-000080J000000D01*
G01*
Y230709D02*
G03*
X242600Y230709I-000080J000000D01*
G01*
Y229921D02*
G03*
X242600Y229921I-000080J000000D01*
G01*
Y232283D02*
G03*
X242600Y232283I-000080J000000D01*
G01*
Y233858D02*
G03*
X242600Y233858I-000080J000000D01*
G01*
X256182Y222441D02*
G03*
X256182Y222441I-000080J000000D01*
G01*
X269017Y222520D02*
G03*
X269017Y222520I-000080J000000D01*
G01*
X254332Y224606D02*
G03*
X254332Y224606I-000080J000000D01*
G01*
X253820Y223425D02*
G03*
X253820Y223425I-000080J000000D01*
G01*
Y223819D02*
G03*
X253820Y223819I-000080J000000D01*
G01*
X265592Y236220D02*
G03*
X265592Y236220I-000080J000000D01*
G01*
X265671Y192913D02*
G03*
X265671Y192913I-000080J000000D01*
G01*
Y185000D02*
G03*
X265671Y185000I-000080J000000D01*
G01*
X255198Y183465D02*
G03*
X255198Y183465I-000080J000000D01*
G01*
X255986D02*
G03*
X255986Y183465I-000080J000000D01*
G01*
X256773D02*
G03*
X256773Y183465I-000080J000000D01*
G01*
X257560D02*
G03*
X257560Y183465I-000080J000000D01*
G01*
X258348D02*
G03*
X258348Y183465I-000080J000000D01*
G01*
Y176772D02*
G03*
X258348Y176772I-000080J000000D01*
G01*
X257560D02*
G03*
X257560Y176772I-000080J000000D01*
G01*
X256773D02*
G03*
X256773Y176772I-000080J000000D01*
G01*
X255986D02*
G03*
X255986Y176772I-000080J000000D01*
G01*
X255198D02*
G03*
X255198Y176772I-000080J000000D01*
G01*
Y177559D02*
G03*
X255198Y177559I-000080J000000D01*
G01*
X255986D02*
G03*
X255986Y177559I-000080J000000D01*
G01*
X256773D02*
G03*
X256773Y177559I-000080J000000D01*
G01*
X257560D02*
G03*
X257560Y177559I-000080J000000D01*
G01*
X258348D02*
G03*
X258348Y177559I-000080J000000D01*
G01*
Y178346D02*
G03*
X258348Y178346I-000080J000000D01*
G01*
X257560D02*
G03*
X257560Y178346I-000080J000000D01*
G01*
X256773D02*
G03*
X256773Y178346I-000080J000000D01*
G01*
X255986D02*
G03*
X255986Y178346I-000080J000000D01*
G01*
X255198D02*
G03*
X255198Y178346I-000080J000000D01*
G01*
Y180709D02*
G03*
X255198Y180709I-000080J000000D01*
G01*
X255986D02*
G03*
X255986Y180709I-000080J000000D01*
G01*
X256773D02*
G03*
X256773Y180709I-000080J000000D01*
G01*
X257560D02*
G03*
X257560Y180709I-000080J000000D01*
G01*
X263860Y182677D02*
G03*
X263860Y182677I-000080J000000D01*
G01*
Y181890D02*
G03*
X263860Y181890I-000080J000000D01*
G01*
X264647D02*
G03*
X264647Y181890I-000080J000000D01*
G01*
Y182677D02*
G03*
X264647Y182677I-000080J000000D01*
G01*
X265434D02*
G03*
X265434Y182677I-000080J000000D01*
G01*
Y181890D02*
G03*
X265434Y181890I-000080J000000D01*
G01*
Y189764D02*
G03*
X265434Y189764I-000080J000000D01*
G01*
Y190551D02*
G03*
X265434Y190551I-000080J000000D01*
G01*
X264647D02*
G03*
X264647Y190551I-000080J000000D01*
G01*
X263860D02*
G03*
X263860Y190551I-000080J000000D01*
G01*
Y189764D02*
G03*
X263860Y189764I-000080J000000D01*
G01*
X264647D02*
G03*
X264647Y189764I-000080J000000D01*
G01*
X255198Y191339D02*
G03*
X255198Y191339I-000080J000000D01*
G01*
X255986D02*
G03*
X255986Y191339I-000080J000000D01*
G01*
X256773D02*
G03*
X256773Y191339I-000080J000000D01*
G01*
X257560D02*
G03*
X257560Y191339I-000080J000000D01*
G01*
X258348D02*
G03*
X258348Y191339I-000080J000000D01*
G01*
X257167Y188583D02*
G03*
X257167Y188583I-000080J000000D01*
G01*
X256379D02*
G03*
X256379Y188583I-000080J000000D01*
G01*
X255592D02*
G03*
X255592Y188583I-000080J000000D01*
G01*
X255198Y185433D02*
G03*
X255198Y185433I-000080J000000D01*
G01*
X255986D02*
G03*
X255986Y185433I-000080J000000D01*
G01*
X256773D02*
G03*
X256773Y185433I-000080J000000D01*
G01*
X257560D02*
G03*
X257560Y185433I-000080J000000D01*
G01*
X258348D02*
G03*
X258348Y185433I-000080J000000D01*
G01*
X255198Y193307D02*
G03*
X255198Y193307I-000080J000000D01*
G01*
X255986D02*
G03*
X255986Y193307I-000080J000000D01*
G01*
X256773D02*
G03*
X256773Y193307I-000080J000000D01*
G01*
X257560D02*
G03*
X257560Y193307I-000080J000000D01*
G01*
X258348D02*
G03*
X258348Y193307I-000080J000000D01*
G01*
Y194094D02*
G03*
X258348Y194094I-000080J000000D01*
G01*
X257560D02*
G03*
X257560Y194094I-000080J000000D01*
G01*
X256773D02*
G03*
X256773Y194094I-000080J000000D01*
G01*
X255986D02*
G03*
X255986Y194094I-000080J000000D01*
G01*
X255198D02*
G03*
X255198Y194094I-000080J000000D01*
G01*
Y199213D02*
G03*
X255198Y199213I-000080J000000D01*
G01*
X255986D02*
G03*
X255986Y199213I-000080J000000D01*
G01*
X256773D02*
G03*
X256773Y199213I-000080J000000D01*
G01*
X257560D02*
G03*
X257560Y199213I-000080J000000D01*
G01*
X258348D02*
G03*
X258348Y199213I-000080J000000D01*
G01*
X257954Y196063D02*
G03*
X257954Y196063I-000080J000000D01*
G01*
X257167D02*
G03*
X257167Y196063I-000080J000000D01*
G01*
X256379D02*
G03*
X256379Y196063I-000080J000000D01*
G01*
X255592D02*
G03*
X255592Y196063I-000080J000000D01*
G01*
X255198Y207087D02*
G03*
X255198Y207087I-000080J000000D01*
G01*
X255986D02*
G03*
X255986Y207087I-000080J000000D01*
G01*
X256773D02*
G03*
X256773Y207087I-000080J000000D01*
G01*
X257560D02*
G03*
X257560Y207087I-000080J000000D01*
G01*
X258348D02*
G03*
X258348Y207087I-000080J000000D01*
G01*
X259135D02*
G03*
X259135Y207087I-000080J000000D01*
G01*
X259923D02*
G03*
X259923Y207087I-000080J000000D01*
G01*
X266222D02*
G03*
X266222Y207087I-000080J000000D01*
G01*
Y206299D02*
G03*
X266222Y206299I-000080J000000D01*
G01*
Y205512D02*
G03*
X266222Y205512I-000080J000000D01*
G01*
X256773Y204331D02*
G03*
X256773Y204331I-000080J000000D01*
G01*
X255986D02*
G03*
X255986Y204331I-000080J000000D01*
G01*
X255198D02*
G03*
X255198Y204331I-000080J000000D01*
G01*
Y201181D02*
G03*
X255198Y201181I-000080J000000D01*
G01*
X255986D02*
G03*
X255986Y201181I-000080J000000D01*
G01*
X256773D02*
G03*
X256773Y201181I-000080J000000D01*
G01*
X257560D02*
G03*
X257560Y201181I-000080J000000D01*
G01*
X258348D02*
G03*
X258348Y201181I-000080J000000D01*
G01*
Y201968D02*
G03*
X258348Y201968I-000080J000000D01*
G01*
X257560D02*
G03*
X257560Y201968I-000080J000000D01*
G01*
X256773D02*
G03*
X256773Y201968I-000080J000000D01*
G01*
X255986D02*
G03*
X255986Y201968I-000080J000000D01*
G01*
X255198D02*
G03*
X255198Y201968I-000080J000000D01*
G01*
Y258268D02*
G03*
X255198Y258268I-000080J000000D01*
G01*
X255986D02*
G03*
X255986Y258268I-000080J000000D01*
G01*
X256773D02*
G03*
X256773Y258268I-000080J000000D01*
G01*
X257560D02*
G03*
X257560Y258268I-000080J000000D01*
G01*
X258348D02*
G03*
X258348Y258268I-000080J000000D01*
G01*
X259135D02*
G03*
X259135Y258268I-000080J000000D01*
G01*
X255198Y252362D02*
G03*
X255198Y252362I-000080J000000D01*
G01*
X255986D02*
G03*
X255986Y252362I-000080J000000D01*
G01*
X256773D02*
G03*
X256773Y252362I-000080J000000D01*
G01*
X257560D02*
G03*
X257560Y252362I-000080J000000D01*
G01*
X258348D02*
G03*
X258348Y252362I-000080J000000D01*
G01*
X259135D02*
G03*
X259135Y252362I-000080J000000D01*
G01*
Y253150D02*
G03*
X259135Y253150I-000080J000000D01*
G01*
X258348D02*
G03*
X258348Y253150I-000080J000000D01*
G01*
X257560D02*
G03*
X257560Y253150I-000080J000000D01*
G01*
X256773D02*
G03*
X256773Y253150I-000080J000000D01*
G01*
X255986D02*
G03*
X255986Y253150I-000080J000000D01*
G01*
X255198D02*
G03*
X255198Y253150I-000080J000000D01*
G01*
Y253937D02*
G03*
X255198Y253937I-000080J000000D01*
G01*
X255986D02*
G03*
X255986Y253937I-000080J000000D01*
G01*
X256773D02*
G03*
X256773Y253937I-000080J000000D01*
G01*
X257560D02*
G03*
X257560Y253937I-000080J000000D01*
G01*
X258348D02*
G03*
X258348Y253937I-000080J000000D01*
G01*
X259135D02*
G03*
X259135Y253937I-000080J000000D01*
G01*
X255198Y250394D02*
G03*
X255198Y250394I-000080J000000D01*
G01*
X255986D02*
G03*
X255986Y250394I-000080J000000D01*
G01*
X256773D02*
G03*
X256773Y250394I-000080J000000D01*
G01*
X257560D02*
G03*
X257560Y250394I-000080J000000D01*
G01*
X258348D02*
G03*
X258348Y250394I-000080J000000D01*
G01*
X259135D02*
G03*
X259135Y250394I-000080J000000D01*
G01*
X255198Y247638D02*
G03*
X255198Y247638I-000080J000000D01*
G01*
X255986D02*
G03*
X255986Y247638I-000080J000000D01*
G01*
X256773D02*
G03*
X256773Y247638I-000080J000000D01*
G01*
X255198Y244488D02*
G03*
X255198Y244488I-000080J000000D01*
G01*
X255986D02*
G03*
X255986Y244488I-000080J000000D01*
G01*
X256773D02*
G03*
X256773Y244488I-000080J000000D01*
G01*
X257560D02*
G03*
X257560Y244488I-000080J000000D01*
G01*
X258348D02*
G03*
X258348Y244488I-000080J000000D01*
G01*
Y245276D02*
G03*
X258348Y245276I-000080J000000D01*
G01*
X257560D02*
G03*
X257560Y245276I-000080J000000D01*
G01*
X256773D02*
G03*
X256773Y245276I-000080J000000D01*
G01*
X255986D02*
G03*
X255986Y245276I-000080J000000D01*
G01*
X255198D02*
G03*
X255198Y245276I-000080J000000D01*
G01*
Y242520D02*
G03*
X255198Y242520I-000080J000000D01*
G01*
X255986D02*
G03*
X255986Y242520I-000080J000000D01*
G01*
X256773D02*
G03*
X256773Y242520I-000080J000000D01*
G01*
X257560D02*
G03*
X257560Y242520I-000080J000000D01*
G01*
X258348D02*
G03*
X258348Y242520I-000080J000000D01*
G01*
X259135D02*
G03*
X259135Y242520I-000080J000000D01*
G01*
X255198Y236614D02*
G03*
X255198Y236614I-000080J000000D01*
G01*
X255986D02*
G03*
X255986Y236614I-000080J000000D01*
G01*
X256773D02*
G03*
X256773Y236614I-000080J000000D01*
G01*
X257560D02*
G03*
X257560Y236614I-000080J000000D01*
G01*
X258348D02*
G03*
X258348Y236614I-000080J000000D01*
G01*
Y237402D02*
G03*
X258348Y237402I-000080J000000D01*
G01*
X257560D02*
G03*
X257560Y237402I-000080J000000D01*
G01*
X256773D02*
G03*
X256773Y237402I-000080J000000D01*
G01*
X255986D02*
G03*
X255986Y237402I-000080J000000D01*
G01*
X255198D02*
G03*
X255198Y237402I-000080J000000D01*
G01*
Y239764D02*
G03*
X255198Y239764I-000080J000000D01*
G01*
X255986D02*
G03*
X255986Y239764I-000080J000000D01*
G01*
X256773D02*
G03*
X256773Y239764I-000080J000000D01*
G01*
X257560D02*
G03*
X257560Y239764I-000080J000000D01*
G01*
X255198Y228740D02*
G03*
X255198Y228740I-000080J000000D01*
G01*
X255986D02*
G03*
X255986Y228740I-000080J000000D01*
G01*
X256773D02*
G03*
X256773Y228740I-000080J000000D01*
G01*
X257560D02*
G03*
X257560Y228740I-000080J000000D01*
G01*
X258348D02*
G03*
X258348Y228740I-000080J000000D01*
G01*
Y229528D02*
G03*
X258348Y229528I-000080J000000D01*
G01*
X257560D02*
G03*
X257560Y229528I-000080J000000D01*
G01*
X256773D02*
G03*
X256773Y229528I-000080J000000D01*
G01*
X255986D02*
G03*
X255986Y229528I-000080J000000D01*
G01*
X255198D02*
G03*
X255198Y229528I-000080J000000D01*
G01*
Y234646D02*
G03*
X255198Y234646I-000080J000000D01*
G01*
X255986D02*
G03*
X255986Y234646I-000080J000000D01*
G01*
X256773D02*
G03*
X256773Y234646I-000080J000000D01*
G01*
X257560D02*
G03*
X257560Y234646I-000080J000000D01*
G01*
X258348D02*
G03*
X258348Y234646I-000080J000000D01*
G01*
X255198Y231890D02*
G03*
X255198Y231890I-000080J000000D01*
G01*
X255986D02*
G03*
X255986Y231890I-000080J000000D01*
G01*
X256773D02*
G03*
X256773Y231890I-000080J000000D01*
G01*
X257560D02*
G03*
X257560Y231890I-000080J000000D01*
G01*
X292245Y222047D02*
G03*
X292245Y222047I-000080J000000D01*
G01*
X291812Y220118D02*
G03*
X291812Y220118I-000080J000000D01*
G01*
X289608Y219961D02*
G03*
X289608Y219961I-000080J000000D01*
G01*
Y220276D02*
G03*
X289608Y220276I-000080J000000D01*
G01*
Y219213D02*
G03*
X289608Y219213I-000080J000000D01*
G01*
X244174Y183858D02*
G03*
X244174Y183858I-000080J000000D01*
G01*
Y182283D02*
G03*
X244174Y182283I-000080J000000D01*
G01*
Y180709D02*
G03*
X244174Y180709I-000080J000000D01*
G01*
Y179134D02*
G03*
X244174Y179134I-000080J000000D01*
G01*
Y177559D02*
G03*
X244174Y177559I-000080J000000D01*
G01*
X245749Y179134D02*
G03*
X245749Y179134I-000080J000000D01*
G01*
X247324D02*
G03*
X247324Y179134I-000080J000000D01*
G01*
Y177559D02*
G03*
X247324Y177559I-000080J000000D01*
G01*
X245749D02*
G03*
X245749Y177559I-000080J000000D01*
G01*
Y187402D02*
G03*
X245749Y187402I-000080J000000D01*
G01*
X245552Y195079D02*
G03*
X245552Y195079I-000080J000000D01*
G01*
Y202953D02*
G03*
X245552Y202953I-000080J000000D01*
G01*
Y234055D02*
G03*
X245552Y234055I-000080J000000D01*
G01*
Y249803D02*
G03*
X245552Y249803I-000080J000000D01*
G01*
D97*
X287442Y231890D02*
G03*
X287442Y231890I-000040J000000D01*
G01*
X285473Y229921D02*
G03*
X285473Y229921I-000040J000000D01*
G01*
X283505Y208661D02*
G03*
X283505Y208661I-000040J000000D01*
G01*
Y212598D02*
G03*
X283505Y212598I-000040J000000D01*
G01*
X279568D02*
G03*
X279568Y212598I-000040J000000D01*
G01*
Y208661D02*
G03*
X279568Y208661I-000040J000000D01*
G01*
Y204724D02*
G03*
X279568Y204724I-000040J000000D01*
G01*
X287442D02*
G03*
X287442Y204724I-000040J000000D01*
G01*
X291379D02*
G03*
X291379Y204724I-000040J000000D01*
G01*
X295316Y200787D02*
G03*
X295316Y200787I-000040J000000D01*
G01*
X291379D02*
G03*
X291379Y200787I-000040J000000D01*
G01*
X287442D02*
G03*
X287442Y200787I-000040J000000D01*
G01*
X283505D02*
G03*
X283505Y200787I-000040J000000D01*
G01*
X279568Y196850D02*
G03*
X279568Y196850I-000040J000000D01*
G01*
X283505D02*
G03*
X283505Y196850I-000040J000000D01*
G01*
X287442D02*
G03*
X287442Y196850I-000040J000000D01*
G01*
X291379D02*
G03*
X291379Y196850I-000040J000000D01*
G01*
X295316D02*
G03*
X295316Y196850I-000040J000000D01*
G01*
Y192913D02*
G03*
X295316Y192913I-000040J000000D01*
G01*
X291379D02*
G03*
X291379Y192913I-000040J000000D01*
G01*
X287442D02*
G03*
X287442Y192913I-000040J000000D01*
G01*
X283505D02*
G03*
X283505Y192913I-000040J000000D01*
G01*
X279568D02*
G03*
X279568Y192913I-000040J000000D01*
G01*
Y188976D02*
G03*
X279568Y188976I-000040J000000D01*
G01*
X283505D02*
G03*
X283505Y188976I-000040J000000D01*
G01*
X287442D02*
G03*
X287442Y188976I-000040J000000D01*
G01*
X291379D02*
G03*
X291379Y188976I-000040J000000D01*
G01*
X295316D02*
G03*
X295316Y188976I-000040J000000D01*
G01*
Y185039D02*
G03*
X295316Y185039I-000040J000000D01*
G01*
X291379D02*
G03*
X291379Y185039I-000040J000000D01*
G01*
X287442D02*
G03*
X287442Y185039I-000040J000000D01*
G01*
X283505D02*
G03*
X283505Y185039I-000040J000000D01*
G01*
X279568D02*
G03*
X279568Y185039I-000040J000000D01*
G01*
X283505Y181102D02*
G03*
X283505Y181102I-000040J000000D01*
G01*
X287442D02*
G03*
X287442Y181102I-000040J000000D01*
G01*
X291379D02*
G03*
X291379Y181102I-000040J000000D01*
G01*
X295316D02*
G03*
X295316Y181102I-000040J000000D01*
G01*
X291379Y177165D02*
G03*
X291379Y177165I-000040J000000D01*
G01*
X287442D02*
G03*
X287442Y177165I-000040J000000D01*
G01*
X283505D02*
G03*
X283505Y177165I-000040J000000D01*
G01*
X279568D02*
G03*
X279568Y177165I-000040J000000D01*
G01*
X289410Y238189D02*
G03*
X289410Y238189I-000040J000000D01*
G01*
X285473D02*
G03*
X285473Y238189I-000040J000000D01*
G01*
X281536D02*
G03*
X281536Y238189I-000040J000000D01*
G01*
X293347Y242126D02*
G03*
X293347Y242126I-000040J000000D01*
G01*
X289410D02*
G03*
X289410Y242126I-000040J000000D01*
G01*
X285473D02*
G03*
X285473Y242126I-000040J000000D01*
G01*
X281536Y246063D02*
G03*
X281536Y246063I-000040J000000D01*
G01*
X285473D02*
G03*
X285473Y246063I-000040J000000D01*
G01*
X289410D02*
G03*
X289410Y246063I-000040J000000D01*
G01*
X293347D02*
G03*
X293347Y246063I-000040J000000D01*
G01*
Y250000D02*
G03*
X293347Y250000I-000040J000000D01*
G01*
X289410D02*
G03*
X289410Y250000I-000040J000000D01*
G01*
X285473D02*
G03*
X285473Y250000I-000040J000000D01*
G01*
X281536D02*
G03*
X281536Y250000I-000040J000000D01*
G01*
Y253937D02*
G03*
X281536Y253937I-000040J000000D01*
G01*
X285473D02*
G03*
X285473Y253937I-000040J000000D01*
G01*
X289410D02*
G03*
X289410Y253937I-000040J000000D01*
G01*
X293347D02*
G03*
X293347Y253937I-000040J000000D01*
G01*
Y257874D02*
G03*
X293347Y257874I-000040J000000D01*
G01*
X289410D02*
G03*
X289410Y257874I-000040J000000D01*
G01*
X285473D02*
G03*
X285473Y257874I-000040J000000D01*
G01*
X281536D02*
G03*
X281536Y257874I-000040J000000D01*
G01*
X277599D02*
G03*
X277599Y257874I-000040J000000D01*
G01*
X292166Y224213D02*
G03*
X292166Y224213I-000040J000000D01*
G01*
X292560Y223976D02*
G03*
X292560Y223976I-000040J000000D01*
G01*
X293741Y224016D02*
G03*
X293741Y224016I-000040J000000D01*
G01*
X293662Y222835D02*
G03*
X293662Y222835I-000040J000000D01*
G01*
X285040Y224016D02*
G03*
X285040Y224016I-000040J000000D01*
G01*
X273544Y221201D02*
G03*
X273544Y221201I-000040J000000D01*
G01*
X273583Y220118D02*
G03*
X273583Y220118I-000040J000000D01*
G01*
X289016Y218465D02*
G03*
X289016Y218465I-000040J000000D01*
G01*
X287993Y219882D02*
G03*
X287993Y219882I-000040J000000D01*
G01*
X293071Y224016D02*
G03*
X293071Y224016I-000040J000000D01*
G01*
X294725Y237913D02*
G03*
X294725Y237913I-000040J000000D01*
G01*
Y228346D02*
G03*
X294725Y228346I-000040J000000D01*
G01*
Y224016D02*
G03*
X294725Y224016I-000040J000000D01*
G01*
X291772Y222047D02*
G03*
X291772Y222047I-000040J000000D01*
G01*
Y223228D02*
G03*
X291772Y223228I-000040J000000D01*
G01*
X292166Y223032D02*
G03*
X292166Y223032I-000040J000000D01*
G01*
X289410Y228346D02*
G03*
X289410Y228346I-000040J000000D01*
G01*
X288111Y229134D02*
G03*
X288111Y229134I-000040J000000D01*
G01*
X287127Y229213D02*
G03*
X287127Y229213I-000040J000000D01*
G01*
X287599D02*
G03*
X287599Y229213I-000040J000000D01*
G01*
X290001Y224213D02*
G03*
X290001Y224213I-000040J000000D01*
G01*
X276024Y201181D02*
G03*
X276024Y201181I-000040J000000D01*
G01*
X267757Y179134D02*
G03*
X267757Y179134I-000040J000000D01*
G01*
Y179528D02*
G03*
X267757Y179528I-000040J000000D01*
G01*
Y179921D02*
G03*
X267757Y179921I-000040J000000D01*
G01*
Y180315D02*
G03*
X267757Y180315I-000040J000000D01*
G01*
Y180709D02*
G03*
X267757Y180709I-000040J000000D01*
G01*
X267363D02*
G03*
X267363Y180709I-000040J000000D01*
G01*
Y180315D02*
G03*
X267363Y180315I-000040J000000D01*
G01*
Y179921D02*
G03*
X267363Y179921I-000040J000000D01*
G01*
Y179528D02*
G03*
X267363Y179528I-000040J000000D01*
G01*
Y179134D02*
G03*
X267363Y179134I-000040J000000D01*
G01*
X266969D02*
G03*
X266969Y179134I-000040J000000D01*
G01*
Y179528D02*
G03*
X266969Y179528I-000040J000000D01*
G01*
Y179921D02*
G03*
X266969Y179921I-000040J000000D01*
G01*
Y180315D02*
G03*
X266969Y180315I-000040J000000D01*
G01*
Y180709D02*
G03*
X266969Y180709I-000040J000000D01*
G01*
X267757Y187008D02*
G03*
X267757Y187008I-000040J000000D01*
G01*
Y187402D02*
G03*
X267757Y187402I-000040J000000D01*
G01*
Y187795D02*
G03*
X267757Y187795I-000040J000000D01*
G01*
Y188189D02*
G03*
X267757Y188189I-000040J000000D01*
G01*
Y188583D02*
G03*
X267757Y188583I-000040J000000D01*
G01*
X267363D02*
G03*
X267363Y188583I-000040J000000D01*
G01*
Y188189D02*
G03*
X267363Y188189I-000040J000000D01*
G01*
Y187795D02*
G03*
X267363Y187795I-000040J000000D01*
G01*
Y187402D02*
G03*
X267363Y187402I-000040J000000D01*
G01*
Y187008D02*
G03*
X267363Y187008I-000040J000000D01*
G01*
X266969D02*
G03*
X266969Y187008I-000040J000000D01*
G01*
Y187402D02*
G03*
X266969Y187402I-000040J000000D01*
G01*
Y187795D02*
G03*
X266969Y187795I-000040J000000D01*
G01*
Y188189D02*
G03*
X266969Y188189I-000040J000000D01*
G01*
Y188583D02*
G03*
X266969Y188583I-000040J000000D01*
G01*
X267757Y194882D02*
G03*
X267757Y194882I-000040J000000D01*
G01*
Y195276D02*
G03*
X267757Y195276I-000040J000000D01*
G01*
Y195669D02*
G03*
X267757Y195669I-000040J000000D01*
G01*
Y196063D02*
G03*
X267757Y196063I-000040J000000D01*
G01*
Y196457D02*
G03*
X267757Y196457I-000040J000000D01*
G01*
X267363D02*
G03*
X267363Y196457I-000040J000000D01*
G01*
Y196063D02*
G03*
X267363Y196063I-000040J000000D01*
G01*
Y195669D02*
G03*
X267363Y195669I-000040J000000D01*
G01*
Y195276D02*
G03*
X267363Y195276I-000040J000000D01*
G01*
Y194882D02*
G03*
X267363Y194882I-000040J000000D01*
G01*
X266969D02*
G03*
X266969Y194882I-000040J000000D01*
G01*
Y195276D02*
G03*
X266969Y195276I-000040J000000D01*
G01*
Y195669D02*
G03*
X266969Y195669I-000040J000000D01*
G01*
Y196063D02*
G03*
X266969Y196063I-000040J000000D01*
G01*
Y196457D02*
G03*
X266969Y196457I-000040J000000D01*
G01*
X267757Y202756D02*
G03*
X267757Y202756I-000040J000000D01*
G01*
Y203150D02*
G03*
X267757Y203150I-000040J000000D01*
G01*
Y203543D02*
G03*
X267757Y203543I-000040J000000D01*
G01*
Y203937D02*
G03*
X267757Y203937I-000040J000000D01*
G01*
Y204331D02*
G03*
X267757Y204331I-000040J000000D01*
G01*
X267363D02*
G03*
X267363Y204331I-000040J000000D01*
G01*
Y203937D02*
G03*
X267363Y203937I-000040J000000D01*
G01*
Y203543D02*
G03*
X267363Y203543I-000040J000000D01*
G01*
Y203150D02*
G03*
X267363Y203150I-000040J000000D01*
G01*
Y202756D02*
G03*
X267363Y202756I-000040J000000D01*
G01*
X266969D02*
G03*
X266969Y202756I-000040J000000D01*
G01*
Y203150D02*
G03*
X266969Y203150I-000040J000000D01*
G01*
Y203543D02*
G03*
X266969Y203543I-000040J000000D01*
G01*
Y203937D02*
G03*
X266969Y203937I-000040J000000D01*
G01*
Y204331D02*
G03*
X266969Y204331I-000040J000000D01*
G01*
X294528Y219843D02*
G03*
X294528Y219843I-000040J000000D01*
G01*
X281890Y224803D02*
G03*
X281890Y224803I-000040J000000D01*
G01*
X279449Y224134D02*
G03*
X279449Y224134I-000040J000000D01*
G01*
X280394Y223819D02*
G03*
X280394Y223819I-000040J000000D01*
G01*
X281221Y222087D02*
G03*
X281221Y222087I-000040J000000D01*
G01*
X293623Y220787D02*
G03*
X293623Y220787I-000040J000000D01*
G01*
X288820Y221063D02*
G03*
X288820Y221063I-000040J000000D01*
G01*
X288229Y221299D02*
G03*
X288229Y221299I-000040J000000D01*
G01*
X283229Y225276D02*
G03*
X283229Y225276I-000040J000000D01*
G01*
X285040Y223583D02*
G03*
X285040Y223583I-000040J000000D01*
G01*
X283701Y222047D02*
G03*
X283701Y222047I-000040J000000D01*
G01*
X283623Y221535D02*
G03*
X283623Y221535I-000040J000000D01*
G01*
X277068Y221358D02*
G03*
X277068Y221358I-000040J000000D01*
G01*
X278780Y221575D02*
G03*
X278780Y221575I-000040J000000D01*
G01*
X287835Y221929D02*
G03*
X287835Y221929I-000040J000000D01*
G01*
X286379Y222047D02*
G03*
X286379Y222047I-000040J000000D01*
G01*
X286654Y220157D02*
G03*
X286654Y220157I-000040J000000D01*
G01*
X283583Y224370D02*
G03*
X283583Y224370I-000040J000000D01*
G01*
X282481Y224803D02*
G03*
X282481Y224803I-000040J000000D01*
G01*
X285631D02*
G03*
X285631Y224803I-000040J000000D01*
G01*
X288741Y222205D02*
G03*
X288741Y222205I-000040J000000D01*
G01*
X288131Y222224D02*
G03*
X288131Y222224I-000040J000000D01*
G01*
X287599Y223110D02*
G03*
X287599Y223110I-000040J000000D01*
G01*
X283406Y222441D02*
G03*
X283406Y222441I-000040J000000D01*
G01*
X281831Y220768D02*
G03*
X281831Y220768I-000040J000000D01*
G01*
X284981Y222638D02*
G03*
X284981Y222638I-000040J000000D01*
G01*
X281536Y221654D02*
G03*
X281536Y221654I-000040J000000D01*
G01*
X278780Y222638D02*
G03*
X278780Y222638I-000040J000000D01*
G01*
X277894Y223720D02*
G03*
X277894Y223720I-000040J000000D01*
G01*
X260079Y202953D02*
G03*
X260079Y202953I-000040J000000D01*
G01*
Y204134D02*
G03*
X260079Y204134I-000040J000000D01*
G01*
X264804Y203543D02*
G03*
X264804Y203543I-000040J000000D01*
G01*
X265788Y200787D02*
G03*
X265788Y200787I-000040J000000D01*
G01*
X260079Y195079D02*
G03*
X260079Y195079I-000040J000000D01*
G01*
X252796Y195669D02*
G03*
X252796Y195669I-000040J000000D01*
G01*
X252402D02*
G03*
X252402Y195669I-000040J000000D01*
G01*
X252008D02*
G03*
X252008Y195669I-000040J000000D01*
G01*
Y196063D02*
G03*
X252008Y196063I-000040J000000D01*
G01*
X260079D02*
G03*
X260079Y196063I-000040J000000D01*
G01*
X264804Y195669D02*
G03*
X264804Y195669I-000040J000000D01*
G01*
Y187795D02*
G03*
X264804Y187795I-000040J000000D01*
G01*
X260079Y187205D02*
G03*
X260079Y187205I-000040J000000D01*
G01*
X252796Y187795D02*
G03*
X252796Y187795I-000040J000000D01*
G01*
X252402D02*
G03*
X252402Y187795I-000040J000000D01*
G01*
Y188189D02*
G03*
X252402Y188189I-000040J000000D01*
G01*
X252008Y187795D02*
G03*
X252008Y187795I-000040J000000D01*
G01*
Y188189D02*
G03*
X252008Y188189I-000040J000000D01*
G01*
X260079D02*
G03*
X260079Y188189I-000040J000000D01*
G01*
Y179528D02*
G03*
X260079Y179528I-000040J000000D01*
G01*
X264804Y179921D02*
G03*
X264804Y179921I-000040J000000D01*
G01*
X252796D02*
G03*
X252796Y179921I-000040J000000D01*
G01*
Y180315D02*
G03*
X252796Y180315I-000040J000000D01*
G01*
X252402Y179921D02*
G03*
X252402Y179921I-000040J000000D01*
G01*
X260079Y180315D02*
G03*
X260079Y180315I-000040J000000D01*
G01*
X265788Y177165D02*
G03*
X265788Y177165I-000040J000000D01*
G01*
X267757Y230315D02*
G03*
X267757Y230315I-000040J000000D01*
G01*
X267363D02*
G03*
X267363Y230315I-000040J000000D01*
G01*
X266969D02*
G03*
X266969Y230315I-000040J000000D01*
G01*
Y230709D02*
G03*
X266969Y230709I-000040J000000D01*
G01*
X267363D02*
G03*
X267363Y230709I-000040J000000D01*
G01*
X267757D02*
G03*
X267757Y230709I-000040J000000D01*
G01*
Y231102D02*
G03*
X267757Y231102I-000040J000000D01*
G01*
X267363D02*
G03*
X267363Y231102I-000040J000000D01*
G01*
X266969D02*
G03*
X266969Y231102I-000040J000000D01*
G01*
Y231496D02*
G03*
X266969Y231496I-000040J000000D01*
G01*
X267363D02*
G03*
X267363Y231496I-000040J000000D01*
G01*
X267757D02*
G03*
X267757Y231496I-000040J000000D01*
G01*
Y231890D02*
G03*
X267757Y231890I-000040J000000D01*
G01*
X267363D02*
G03*
X267363Y231890I-000040J000000D01*
G01*
X266969D02*
G03*
X266969Y231890I-000040J000000D01*
G01*
X267757Y238189D02*
G03*
X267757Y238189I-000040J000000D01*
G01*
Y238583D02*
G03*
X267757Y238583I-000040J000000D01*
G01*
Y238976D02*
G03*
X267757Y238976I-000040J000000D01*
G01*
Y239370D02*
G03*
X267757Y239370I-000040J000000D01*
G01*
Y239764D02*
G03*
X267757Y239764I-000040J000000D01*
G01*
X267363D02*
G03*
X267363Y239764I-000040J000000D01*
G01*
Y239370D02*
G03*
X267363Y239370I-000040J000000D01*
G01*
Y238976D02*
G03*
X267363Y238976I-000040J000000D01*
G01*
Y238583D02*
G03*
X267363Y238583I-000040J000000D01*
G01*
Y238189D02*
G03*
X267363Y238189I-000040J000000D01*
G01*
X266969D02*
G03*
X266969Y238189I-000040J000000D01*
G01*
Y238583D02*
G03*
X266969Y238583I-000040J000000D01*
G01*
Y238976D02*
G03*
X266969Y238976I-000040J000000D01*
G01*
Y239370D02*
G03*
X266969Y239370I-000040J000000D01*
G01*
Y239764D02*
G03*
X266969Y239764I-000040J000000D01*
G01*
X267757Y246063D02*
G03*
X267757Y246063I-000040J000000D01*
G01*
Y246457D02*
G03*
X267757Y246457I-000040J000000D01*
G01*
Y246850D02*
G03*
X267757Y246850I-000040J000000D01*
G01*
Y247244D02*
G03*
X267757Y247244I-000040J000000D01*
G01*
Y247638D02*
G03*
X267757Y247638I-000040J000000D01*
G01*
X267363D02*
G03*
X267363Y247638I-000040J000000D01*
G01*
Y247244D02*
G03*
X267363Y247244I-000040J000000D01*
G01*
Y246850D02*
G03*
X267363Y246850I-000040J000000D01*
G01*
Y246457D02*
G03*
X267363Y246457I-000040J000000D01*
G01*
Y246063D02*
G03*
X267363Y246063I-000040J000000D01*
G01*
X266969D02*
G03*
X266969Y246063I-000040J000000D01*
G01*
Y246457D02*
G03*
X266969Y246457I-000040J000000D01*
G01*
Y246850D02*
G03*
X266969Y246850I-000040J000000D01*
G01*
Y247244D02*
G03*
X266969Y247244I-000040J000000D01*
G01*
Y247638D02*
G03*
X266969Y247638I-000040J000000D01*
G01*
X267757Y253937D02*
G03*
X267757Y253937I-000040J000000D01*
G01*
Y254331D02*
G03*
X267757Y254331I-000040J000000D01*
G01*
Y254724D02*
G03*
X267757Y254724I-000040J000000D01*
G01*
Y255118D02*
G03*
X267757Y255118I-000040J000000D01*
G01*
Y255512D02*
G03*
X267757Y255512I-000040J000000D01*
G01*
X267363Y255118D02*
G03*
X267363Y255118I-000040J000000D01*
G01*
Y255512D02*
G03*
X267363Y255512I-000040J000000D01*
G01*
Y254724D02*
G03*
X267363Y254724I-000040J000000D01*
G01*
Y254331D02*
G03*
X267363Y254331I-000040J000000D01*
G01*
Y253937D02*
G03*
X267363Y253937I-000040J000000D01*
G01*
X266969D02*
G03*
X266969Y253937I-000040J000000D01*
G01*
Y254331D02*
G03*
X266969Y254331I-000040J000000D01*
G01*
Y254724D02*
G03*
X266969Y254724I-000040J000000D01*
G01*
Y255118D02*
G03*
X266969Y255118I-000040J000000D01*
G01*
Y255512D02*
G03*
X266969Y255512I-000040J000000D01*
G01*
X264804Y231102D02*
G03*
X264804Y231102I-000040J000000D01*
G01*
X265788Y228346D02*
G03*
X265788Y228346I-000040J000000D01*
G01*
X260079Y230512D02*
G03*
X260079Y230512I-000040J000000D01*
G01*
Y231496D02*
G03*
X260079Y231496I-000040J000000D01*
G01*
Y238386D02*
G03*
X260079Y238386I-000040J000000D01*
G01*
X252796Y238976D02*
G03*
X252796Y238976I-000040J000000D01*
G01*
Y238583D02*
G03*
X252796Y238583I-000040J000000D01*
G01*
X252402D02*
G03*
X252402Y238583I-000040J000000D01*
G01*
Y238976D02*
G03*
X252402Y238976I-000040J000000D01*
G01*
X252008D02*
G03*
X252008Y238976I-000040J000000D01*
G01*
Y239370D02*
G03*
X252008Y239370I-000040J000000D01*
G01*
X260079D02*
G03*
X260079Y239370I-000040J000000D01*
G01*
X264804Y238976D02*
G03*
X264804Y238976I-000040J000000D01*
G01*
X265788Y251968D02*
G03*
X265788Y251968I-000040J000000D01*
G01*
Y244094D02*
G03*
X265788Y244094I-000040J000000D01*
G01*
X252796Y254331D02*
G03*
X252796Y254331I-000040J000000D01*
G01*
Y255118D02*
G03*
X252796Y255118I-000040J000000D01*
G01*
X252402Y254331D02*
G03*
X252402Y254331I-000040J000000D01*
G01*
X252796Y254724D02*
G03*
X252796Y254724I-000040J000000D01*
G01*
X252402Y255118D02*
G03*
X252402Y255118I-000040J000000D01*
G01*
Y254724D02*
G03*
X252402Y254724I-000040J000000D01*
G01*
X251615Y254331D02*
G03*
X251615Y254331I-000040J000000D01*
G01*
X251221D02*
G03*
X251221Y254331I-000040J000000D01*
G01*
X252008Y255118D02*
G03*
X252008Y255118I-000040J000000D01*
G01*
Y254724D02*
G03*
X252008Y254724I-000040J000000D01*
G01*
Y254331D02*
G03*
X252008Y254331I-000040J000000D01*
G01*
X251615Y254724D02*
G03*
X251615Y254724I-000040J000000D01*
G01*
X251221D02*
G03*
X251221Y254724I-000040J000000D01*
G01*
X251615Y255118D02*
G03*
X251615Y255118I-000040J000000D01*
G01*
X250827Y254724D02*
G03*
X250827Y254724I-000040J000000D01*
G01*
X251221Y255118D02*
G03*
X251221Y255118I-000040J000000D01*
G01*
X250827Y254331D02*
G03*
X250827Y254331I-000040J000000D01*
G01*
X252796Y257087D02*
G03*
X252796Y257087I-000040J000000D01*
G01*
Y256693D02*
G03*
X252796Y256693I-000040J000000D01*
G01*
X252008D02*
G03*
X252008Y256693I-000040J000000D01*
G01*
Y257480D02*
G03*
X252008Y257480I-000040J000000D01*
G01*
X251615Y257087D02*
G03*
X251615Y257087I-000040J000000D01*
G01*
X252402D02*
G03*
X252402Y257087I-000040J000000D01*
G01*
Y256693D02*
G03*
X252402Y256693I-000040J000000D01*
G01*
X251221Y257087D02*
G03*
X251221Y257087I-000040J000000D01*
G01*
X251615Y256693D02*
G03*
X251615Y256693I-000040J000000D01*
G01*
Y257480D02*
G03*
X251615Y257480I-000040J000000D01*
G01*
X252008Y257087D02*
G03*
X252008Y257087I-000040J000000D01*
G01*
X252796Y257480D02*
G03*
X252796Y257480I-000040J000000D01*
G01*
Y179528D02*
G03*
X252796Y179528I-000040J000000D01*
G01*
X252402D02*
G03*
X252402Y179528I-000040J000000D01*
G01*
X252008D02*
G03*
X252008Y179528I-000040J000000D01*
G01*
X251615D02*
G03*
X251615Y179528I-000040J000000D01*
G01*
X251221D02*
G03*
X251221Y179528I-000040J000000D01*
G01*
X250827D02*
G03*
X250827Y179528I-000040J000000D01*
G01*
Y179921D02*
G03*
X250827Y179921I-000040J000000D01*
G01*
X251221D02*
G03*
X251221Y179921I-000040J000000D01*
G01*
X251615D02*
G03*
X251615Y179921I-000040J000000D01*
G01*
X252008D02*
G03*
X252008Y179921I-000040J000000D01*
G01*
X252402Y180315D02*
G03*
X252402Y180315I-000040J000000D01*
G01*
X252008D02*
G03*
X252008Y180315I-000040J000000D01*
G01*
X251615D02*
G03*
X251615Y180315I-000040J000000D01*
G01*
X251221D02*
G03*
X251221Y180315I-000040J000000D01*
G01*
X250827D02*
G03*
X250827Y180315I-000040J000000D01*
G01*
X252796Y181890D02*
G03*
X252796Y181890I-000040J000000D01*
G01*
X252402D02*
G03*
X252402Y181890I-000040J000000D01*
G01*
X252008D02*
G03*
X252008Y181890I-000040J000000D01*
G01*
X251615D02*
G03*
X251615Y181890I-000040J000000D01*
G01*
X251221D02*
G03*
X251221Y181890I-000040J000000D01*
G01*
X250827D02*
G03*
X250827Y181890I-000040J000000D01*
G01*
Y182283D02*
G03*
X250827Y182283I-000040J000000D01*
G01*
X251221D02*
G03*
X251221Y182283I-000040J000000D01*
G01*
X251615D02*
G03*
X251615Y182283I-000040J000000D01*
G01*
X252008D02*
G03*
X252008Y182283I-000040J000000D01*
G01*
X252402D02*
G03*
X252402Y182283I-000040J000000D01*
G01*
X252796D02*
G03*
X252796Y182283I-000040J000000D01*
G01*
Y182677D02*
G03*
X252796Y182677I-000040J000000D01*
G01*
X252402D02*
G03*
X252402Y182677I-000040J000000D01*
G01*
X252008D02*
G03*
X252008Y182677I-000040J000000D01*
G01*
X251615D02*
G03*
X251615Y182677I-000040J000000D01*
G01*
X251221D02*
G03*
X251221Y182677I-000040J000000D01*
G01*
X250827D02*
G03*
X250827Y182677I-000040J000000D01*
G01*
X252402Y187402D02*
G03*
X252402Y187402I-000040J000000D01*
G01*
X252796D02*
G03*
X252796Y187402I-000040J000000D01*
G01*
X252008D02*
G03*
X252008Y187402I-000040J000000D01*
G01*
X251615D02*
G03*
X251615Y187402I-000040J000000D01*
G01*
X251221D02*
G03*
X251221Y187402I-000040J000000D01*
G01*
X250827D02*
G03*
X250827Y187402I-000040J000000D01*
G01*
Y187795D02*
G03*
X250827Y187795I-000040J000000D01*
G01*
X251221D02*
G03*
X251221Y187795I-000040J000000D01*
G01*
X251615D02*
G03*
X251615Y187795I-000040J000000D01*
G01*
X252796Y188189D02*
G03*
X252796Y188189I-000040J000000D01*
G01*
X251615D02*
G03*
X251615Y188189I-000040J000000D01*
G01*
X251221D02*
G03*
X251221Y188189I-000040J000000D01*
G01*
X250827D02*
G03*
X250827Y188189I-000040J000000D01*
G01*
X252796Y189764D02*
G03*
X252796Y189764I-000040J000000D01*
G01*
X252402D02*
G03*
X252402Y189764I-000040J000000D01*
G01*
X252008D02*
G03*
X252008Y189764I-000040J000000D01*
G01*
X251615D02*
G03*
X251615Y189764I-000040J000000D01*
G01*
X251221D02*
G03*
X251221Y189764I-000040J000000D01*
G01*
X250827D02*
G03*
X250827Y189764I-000040J000000D01*
G01*
Y190157D02*
G03*
X250827Y190157I-000040J000000D01*
G01*
X251221D02*
G03*
X251221Y190157I-000040J000000D01*
G01*
X251615D02*
G03*
X251615Y190157I-000040J000000D01*
G01*
X252008D02*
G03*
X252008Y190157I-000040J000000D01*
G01*
X252402D02*
G03*
X252402Y190157I-000040J000000D01*
G01*
X252796D02*
G03*
X252796Y190157I-000040J000000D01*
G01*
Y190551D02*
G03*
X252796Y190551I-000040J000000D01*
G01*
X252402D02*
G03*
X252402Y190551I-000040J000000D01*
G01*
X252008D02*
G03*
X252008Y190551I-000040J000000D01*
G01*
X251615D02*
G03*
X251615Y190551I-000040J000000D01*
G01*
X251221D02*
G03*
X251221Y190551I-000040J000000D01*
G01*
X250827D02*
G03*
X250827Y190551I-000040J000000D01*
G01*
X252796Y195276D02*
G03*
X252796Y195276I-000040J000000D01*
G01*
X252402D02*
G03*
X252402Y195276I-000040J000000D01*
G01*
X252008D02*
G03*
X252008Y195276I-000040J000000D01*
G01*
X251615D02*
G03*
X251615Y195276I-000040J000000D01*
G01*
X251221D02*
G03*
X251221Y195276I-000040J000000D01*
G01*
X250827D02*
G03*
X250827Y195276I-000040J000000D01*
G01*
Y195669D02*
G03*
X250827Y195669I-000040J000000D01*
G01*
X251221D02*
G03*
X251221Y195669I-000040J000000D01*
G01*
X251615D02*
G03*
X251615Y195669I-000040J000000D01*
G01*
X252796Y196063D02*
G03*
X252796Y196063I-000040J000000D01*
G01*
X252402D02*
G03*
X252402Y196063I-000040J000000D01*
G01*
X251615D02*
G03*
X251615Y196063I-000040J000000D01*
G01*
X251221D02*
G03*
X251221Y196063I-000040J000000D01*
G01*
X250827D02*
G03*
X250827Y196063I-000040J000000D01*
G01*
X252796Y197638D02*
G03*
X252796Y197638I-000040J000000D01*
G01*
X252402D02*
G03*
X252402Y197638I-000040J000000D01*
G01*
X252008D02*
G03*
X252008Y197638I-000040J000000D01*
G01*
X251615D02*
G03*
X251615Y197638I-000040J000000D01*
G01*
X251221D02*
G03*
X251221Y197638I-000040J000000D01*
G01*
X250827D02*
G03*
X250827Y197638I-000040J000000D01*
G01*
Y198032D02*
G03*
X250827Y198032I-000040J000000D01*
G01*
X251221D02*
G03*
X251221Y198032I-000040J000000D01*
G01*
X251615D02*
G03*
X251615Y198032I-000040J000000D01*
G01*
X252008D02*
G03*
X252008Y198032I-000040J000000D01*
G01*
X252402D02*
G03*
X252402Y198032I-000040J000000D01*
G01*
X252796D02*
G03*
X252796Y198032I-000040J000000D01*
G01*
Y198425D02*
G03*
X252796Y198425I-000040J000000D01*
G01*
X252008D02*
G03*
X252008Y198425I-000040J000000D01*
G01*
X252402D02*
G03*
X252402Y198425I-000040J000000D01*
G01*
X251615D02*
G03*
X251615Y198425I-000040J000000D01*
G01*
X251221D02*
G03*
X251221Y198425I-000040J000000D01*
G01*
X250827D02*
G03*
X250827Y198425I-000040J000000D01*
G01*
X252796Y203150D02*
G03*
X252796Y203150I-000040J000000D01*
G01*
X252402D02*
G03*
X252402Y203150I-000040J000000D01*
G01*
X252008D02*
G03*
X252008Y203150I-000040J000000D01*
G01*
X251615D02*
G03*
X251615Y203150I-000040J000000D01*
G01*
X251221D02*
G03*
X251221Y203150I-000040J000000D01*
G01*
X250827D02*
G03*
X250827Y203150I-000040J000000D01*
G01*
Y203543D02*
G03*
X250827Y203543I-000040J000000D01*
G01*
X251221D02*
G03*
X251221Y203543I-000040J000000D01*
G01*
X251615D02*
G03*
X251615Y203543I-000040J000000D01*
G01*
X252008D02*
G03*
X252008Y203543I-000040J000000D01*
G01*
X252402D02*
G03*
X252402Y203543I-000040J000000D01*
G01*
X252796D02*
G03*
X252796Y203543I-000040J000000D01*
G01*
Y203937D02*
G03*
X252796Y203937I-000040J000000D01*
G01*
X252402D02*
G03*
X252402Y203937I-000040J000000D01*
G01*
X252008D02*
G03*
X252008Y203937I-000040J000000D01*
G01*
X251221D02*
G03*
X251221Y203937I-000040J000000D01*
G01*
X251615D02*
G03*
X251615Y203937I-000040J000000D01*
G01*
X250827D02*
G03*
X250827Y203937I-000040J000000D01*
G01*
X252796Y205512D02*
G03*
X252796Y205512I-000040J000000D01*
G01*
X252402D02*
G03*
X252402Y205512I-000040J000000D01*
G01*
X252008D02*
G03*
X252008Y205512I-000040J000000D01*
G01*
X251615D02*
G03*
X251615Y205512I-000040J000000D01*
G01*
X251221D02*
G03*
X251221Y205512I-000040J000000D01*
G01*
X250827D02*
G03*
X250827Y205512I-000040J000000D01*
G01*
Y205906D02*
G03*
X250827Y205906I-000040J000000D01*
G01*
X251221D02*
G03*
X251221Y205906I-000040J000000D01*
G01*
X251615D02*
G03*
X251615Y205906I-000040J000000D01*
G01*
X252008D02*
G03*
X252008Y205906I-000040J000000D01*
G01*
X252402D02*
G03*
X252402Y205906I-000040J000000D01*
G01*
X252796D02*
G03*
X252796Y205906I-000040J000000D01*
G01*
Y206299D02*
G03*
X252796Y206299I-000040J000000D01*
G01*
X252402D02*
G03*
X252402Y206299I-000040J000000D01*
G01*
X252008D02*
G03*
X252008Y206299I-000040J000000D01*
G01*
X251615D02*
G03*
X251615Y206299I-000040J000000D01*
G01*
X251221D02*
G03*
X251221Y206299I-000040J000000D01*
G01*
X250827D02*
G03*
X250827Y206299I-000040J000000D01*
G01*
X252796Y230709D02*
G03*
X252796Y230709I-000040J000000D01*
G01*
X252402D02*
G03*
X252402Y230709I-000040J000000D01*
G01*
X252008D02*
G03*
X252008Y230709I-000040J000000D01*
G01*
X251615D02*
G03*
X251615Y230709I-000040J000000D01*
G01*
X251221D02*
G03*
X251221Y230709I-000040J000000D01*
G01*
X250827D02*
G03*
X250827Y230709I-000040J000000D01*
G01*
Y231102D02*
G03*
X250827Y231102I-000040J000000D01*
G01*
X251221D02*
G03*
X251221Y231102I-000040J000000D01*
G01*
X251615D02*
G03*
X251615Y231102I-000040J000000D01*
G01*
X252008D02*
G03*
X252008Y231102I-000040J000000D01*
G01*
X252402D02*
G03*
X252402Y231102I-000040J000000D01*
G01*
X252796D02*
G03*
X252796Y231102I-000040J000000D01*
G01*
Y231496D02*
G03*
X252796Y231496I-000040J000000D01*
G01*
X252402D02*
G03*
X252402Y231496I-000040J000000D01*
G01*
X252008D02*
G03*
X252008Y231496I-000040J000000D01*
G01*
X251615D02*
G03*
X251615Y231496I-000040J000000D01*
G01*
X251221D02*
G03*
X251221Y231496I-000040J000000D01*
G01*
X250827D02*
G03*
X250827Y231496I-000040J000000D01*
G01*
X252796Y233071D02*
G03*
X252796Y233071I-000040J000000D01*
G01*
X252402D02*
G03*
X252402Y233071I-000040J000000D01*
G01*
X252008D02*
G03*
X252008Y233071I-000040J000000D01*
G01*
X251615D02*
G03*
X251615Y233071I-000040J000000D01*
G01*
X251221D02*
G03*
X251221Y233071I-000040J000000D01*
G01*
X250827D02*
G03*
X250827Y233071I-000040J000000D01*
G01*
Y233465D02*
G03*
X250827Y233465I-000040J000000D01*
G01*
X251221D02*
G03*
X251221Y233465I-000040J000000D01*
G01*
X251615D02*
G03*
X251615Y233465I-000040J000000D01*
G01*
X252008D02*
G03*
X252008Y233465I-000040J000000D01*
G01*
X252402D02*
G03*
X252402Y233465I-000040J000000D01*
G01*
X252796D02*
G03*
X252796Y233465I-000040J000000D01*
G01*
Y233858D02*
G03*
X252796Y233858I-000040J000000D01*
G01*
X252402D02*
G03*
X252402Y233858I-000040J000000D01*
G01*
X252008D02*
G03*
X252008Y233858I-000040J000000D01*
G01*
X251615D02*
G03*
X251615Y233858I-000040J000000D01*
G01*
X251221D02*
G03*
X251221Y233858I-000040J000000D01*
G01*
X250827D02*
G03*
X250827Y233858I-000040J000000D01*
G01*
X252008Y238583D02*
G03*
X252008Y238583I-000040J000000D01*
G01*
X251615D02*
G03*
X251615Y238583I-000040J000000D01*
G01*
X251221D02*
G03*
X251221Y238583I-000040J000000D01*
G01*
X250827D02*
G03*
X250827Y238583I-000040J000000D01*
G01*
Y238976D02*
G03*
X250827Y238976I-000040J000000D01*
G01*
X251221D02*
G03*
X251221Y238976I-000040J000000D01*
G01*
X251615D02*
G03*
X251615Y238976I-000040J000000D01*
G01*
X252796Y239370D02*
G03*
X252796Y239370I-000040J000000D01*
G01*
X252402D02*
G03*
X252402Y239370I-000040J000000D01*
G01*
X251615D02*
G03*
X251615Y239370I-000040J000000D01*
G01*
X251221D02*
G03*
X251221Y239370I-000040J000000D01*
G01*
X250827D02*
G03*
X250827Y239370I-000040J000000D01*
G01*
X252796Y241732D02*
G03*
X252796Y241732I-000040J000000D01*
G01*
X252402D02*
G03*
X252402Y241732I-000040J000000D01*
G01*
X252008D02*
G03*
X252008Y241732I-000040J000000D01*
G01*
X251615D02*
G03*
X251615Y241732I-000040J000000D01*
G01*
X251221D02*
G03*
X251221Y241732I-000040J000000D01*
G01*
Y241339D02*
G03*
X251221Y241339I-000040J000000D01*
G01*
X251615D02*
G03*
X251615Y241339I-000040J000000D01*
G01*
X252008D02*
G03*
X252008Y241339I-000040J000000D01*
G01*
X252402D02*
G03*
X252402Y241339I-000040J000000D01*
G01*
X252796D02*
G03*
X252796Y241339I-000040J000000D01*
G01*
Y240945D02*
G03*
X252796Y240945I-000040J000000D01*
G01*
X252402D02*
G03*
X252402Y240945I-000040J000000D01*
G01*
X252008D02*
G03*
X252008Y240945I-000040J000000D01*
G01*
X251615D02*
G03*
X251615Y240945I-000040J000000D01*
G01*
X251221D02*
G03*
X251221Y240945I-000040J000000D01*
G01*
X250827D02*
G03*
X250827Y240945I-000040J000000D01*
G01*
Y241339D02*
G03*
X250827Y241339I-000040J000000D01*
G01*
Y241732D02*
G03*
X250827Y241732I-000040J000000D01*
G01*
X252402Y246457D02*
G03*
X252402Y246457I-000040J000000D01*
G01*
X252008D02*
G03*
X252008Y246457I-000040J000000D01*
G01*
X251615D02*
G03*
X251615Y246457I-000040J000000D01*
G01*
X251221D02*
G03*
X251221Y246457I-000040J000000D01*
G01*
X250827D02*
G03*
X250827Y246457I-000040J000000D01*
G01*
Y246850D02*
G03*
X250827Y246850I-000040J000000D01*
G01*
X251221D02*
G03*
X251221Y246850I-000040J000000D01*
G01*
X251615D02*
G03*
X251615Y246850I-000040J000000D01*
G01*
X252008D02*
G03*
X252008Y246850I-000040J000000D01*
G01*
X252402D02*
G03*
X252402Y246850I-000040J000000D01*
G01*
X252796D02*
G03*
X252796Y246850I-000040J000000D01*
G01*
Y246457D02*
G03*
X252796Y246457I-000040J000000D01*
G01*
Y247244D02*
G03*
X252796Y247244I-000040J000000D01*
G01*
X252402D02*
G03*
X252402Y247244I-000040J000000D01*
G01*
X252008D02*
G03*
X252008Y247244I-000040J000000D01*
G01*
X251615D02*
G03*
X251615Y247244I-000040J000000D01*
G01*
X251221D02*
G03*
X251221Y247244I-000040J000000D01*
G01*
X250827D02*
G03*
X250827Y247244I-000040J000000D01*
G01*
X252796Y248819D02*
G03*
X252796Y248819I-000040J000000D01*
G01*
X252402D02*
G03*
X252402Y248819I-000040J000000D01*
G01*
X252008D02*
G03*
X252008Y248819I-000040J000000D01*
G01*
X251221D02*
G03*
X251221Y248819I-000040J000000D01*
G01*
X251615D02*
G03*
X251615Y248819I-000040J000000D01*
G01*
Y249213D02*
G03*
X251615Y249213I-000040J000000D01*
G01*
X252008D02*
G03*
X252008Y249213I-000040J000000D01*
G01*
X252402D02*
G03*
X252402Y249213I-000040J000000D01*
G01*
X252796D02*
G03*
X252796Y249213I-000040J000000D01*
G01*
Y249606D02*
G03*
X252796Y249606I-000040J000000D01*
G01*
X252402D02*
G03*
X252402Y249606I-000040J000000D01*
G01*
X252008D02*
G03*
X252008Y249606I-000040J000000D01*
G01*
X251615D02*
G03*
X251615Y249606I-000040J000000D01*
G01*
X251221Y249213D02*
G03*
X251221Y249213I-000040J000000D01*
G01*
X250827D02*
G03*
X250827Y249213I-000040J000000D01*
G01*
Y248819D02*
G03*
X250827Y248819I-000040J000000D01*
G01*
X251221Y249606D02*
G03*
X251221Y249606I-000040J000000D01*
G01*
X250827D02*
G03*
X250827Y249606I-000040J000000D01*
G01*
Y255118D02*
G03*
X250827Y255118I-000040J000000D01*
G01*
Y256693D02*
G03*
X250827Y256693I-000040J000000D01*
G01*
X251221D02*
G03*
X251221Y256693I-000040J000000D01*
G01*
X250827Y257087D02*
G03*
X250827Y257087I-000040J000000D01*
G01*
Y257480D02*
G03*
X250827Y257480I-000040J000000D01*
G01*
X251221D02*
G03*
X251221Y257480I-000040J000000D01*
G01*
X252402D02*
G03*
X252402Y257480I-000040J000000D01*
G01*
X245512Y180906D02*
G03*
X245512Y180906I-000040J000000D01*
G01*
Y188583D02*
G03*
X245512Y188583I-000040J000000D01*
G01*
Y196457D02*
G03*
X245512Y196457I-000040J000000D01*
G01*
Y204331D02*
G03*
X245512Y204331I-000040J000000D01*
G01*
Y240551D02*
G03*
X245512Y240551I-000040J000000D01*
G01*
Y248425D02*
G03*
X245512Y248425I-000040J000000D01*
G01*
Y256299D02*
G03*
X245512Y256299I-000040J000000D01*
G01*
Y232677D02*
G03*
X245512Y232677I-000040J000000D01*
G01*
X247678Y212598D02*
G03*
X247678Y212598I-000040J000000D01*
G01*
X244134Y211024D02*
G03*
X244134Y211024I-000040J000000D01*
G01*
X247284Y212598D02*
G03*
X247284Y212598I-000040J000000D01*
G01*
X246497D02*
G03*
X246497Y212598I-000040J000000D01*
G01*
X246890D02*
G03*
X246890Y212598I-000040J000000D01*
G01*
X248859D02*
G03*
X248859Y212598I-000040J000000D01*
G01*
X255316Y222323D02*
G03*
X255316Y222323I-000040J000000D01*
G01*
Y223858D02*
G03*
X255316Y223858I-000040J000000D01*
G01*
X250237Y226968D02*
G03*
X250237Y226968I-000040J000000D01*
G01*
X264213Y222047D02*
G03*
X264213Y222047I-000040J000000D01*
G01*
X246497Y226968D02*
G03*
X246497Y226968I-000040J000000D01*
G01*
X292323Y221299D02*
G03*
X292323Y221299I-000040J000000D01*
G01*
X276103Y221425D02*
G03*
X276103Y221425I-000040J000000D01*
G01*
X275040Y224409D02*
G03*
X275040Y224409I-000040J000000D01*
G01*
X273859Y220472D02*
G03*
X273859Y220472I-000040J000000D01*
G01*
X274253D02*
G03*
X274253Y220472I-000040J000000D01*
G01*
X273859Y225197D02*
G03*
X273859Y225197I-000040J000000D01*
G01*
X274253D02*
G03*
X274253Y225197I-000040J000000D01*
G01*
X267757Y221457D02*
G03*
X267757Y221457I-000040J000000D01*
G01*
X269528Y224409D02*
G03*
X269528Y224409I-000040J000000D01*
G01*
X274646Y220472D02*
G03*
X274646Y220472I-000040J000000D01*
G01*
X286182Y219488D02*
G03*
X286182Y219488I-000040J000000D01*
G01*
X285985Y221339D02*
G03*
X285985Y221339I-000040J000000D01*
G01*
X278386Y216299D02*
G03*
X278386Y216299I-000040J000000D01*
G01*
X255749Y223071D02*
G03*
X255749Y223071I-000040J000000D01*
G01*
X268977D02*
G03*
X268977Y223071I-000040J000000D01*
G01*
X277008Y252165D02*
G03*
X277008Y252165I-000040J000000D01*
G01*
X291772Y220551D02*
G03*
X291772Y220551I-000040J000000D01*
G01*
X290788Y222480D02*
G03*
X290788Y222480I-000040J000000D01*
G01*
X289410Y222323D02*
G03*
X289410Y222323I-000040J000000D01*
G01*
X290985Y222087D02*
G03*
X290985Y222087I-000040J000000D01*
G01*
X281064Y236181D02*
G03*
X281064Y236181I-000040J000000D01*
G01*
X277245Y244291D02*
G03*
X277245Y244291I-000040J000000D01*
G01*
X291182Y221732D02*
G03*
X291182Y221732I-000040J000000D01*
G01*
X275591Y194370D02*
G03*
X275591Y194370I-000040J000000D01*
G01*
X275827Y185945D02*
G03*
X275827Y185945I-000040J000000D01*
G01*
X276103Y178425D02*
G03*
X276103Y178425I-000040J000000D01*
G01*
X273032Y205984D02*
G03*
X273032Y205984I-000040J000000D01*
G01*
X272993Y202795D02*
G03*
X272993Y202795I-000040J000000D01*
G01*
Y195000D02*
G03*
X272993Y195000I-000040J000000D01*
G01*
X273032Y198110D02*
G03*
X273032Y198110I-000040J000000D01*
G01*
Y187008D02*
G03*
X273032Y187008I-000040J000000D01*
G01*
X272953Y190236D02*
G03*
X272953Y190236I-000040J000000D01*
G01*
X273032Y182323D02*
G03*
X273032Y182323I-000040J000000D01*
G01*
X272993Y179213D02*
G03*
X272993Y179213I-000040J000000D01*
G01*
X272914Y257165D02*
G03*
X272914Y257165I-000040J000000D01*
G01*
X273032Y253937D02*
G03*
X273032Y253937I-000040J000000D01*
G01*
X272953Y249291D02*
G03*
X272953Y249291I-000040J000000D01*
G01*
X273032Y246181D02*
G03*
X273032Y246181I-000040J000000D01*
G01*
X273150Y241417D02*
G03*
X273150Y241417I-000040J000000D01*
G01*
X272993Y238307D02*
G03*
X272993Y238307I-000040J000000D01*
G01*
X273111Y233504D02*
G03*
X273111Y233504I-000040J000000D01*
G01*
X273032Y230394D02*
G03*
X273032Y230394I-000040J000000D01*
G01*
X277875Y219685D02*
G03*
X277875Y219685I-000040J000000D01*
G01*
X290473Y218228D02*
G03*
X290473Y218228I-000040J000000D01*
G01*
X292402Y218268D02*
G03*
X292402Y218268I-000040J000000D01*
G01*
X295316Y220236D02*
G03*
X295316Y220236I-000040J000000D01*
G01*
X287914Y220394D02*
G03*
X287914Y220394I-000040J000000D01*
G01*
X280316Y215512D02*
G03*
X280316Y215512I-000040J000000D01*
G01*
X272914Y220472D02*
G03*
X272914Y220472I-000040J000000D01*
G01*
Y225197D02*
G03*
X272914Y225197I-000040J000000D01*
G01*
X273268Y220472D02*
G03*
X273268Y220472I-000040J000000D01*
G01*
Y225197D02*
G03*
X273268Y225197I-000040J000000D01*
G01*
X281418Y225669D02*
G03*
X281418Y225669I-000040J000000D01*
G01*
X280119Y216535D02*
G03*
X280119Y216535I-000040J000000D01*
G01*
X279331Y217992D02*
G03*
X279331Y217992I-000040J000000D01*
G01*
X247087Y244094D02*
G03*
X247087Y244094I-000040J000000D01*
G01*
X247973D02*
G03*
X247973Y244094I-000040J000000D01*
G01*
X246595Y236220D02*
G03*
X246595Y236220I-000040J000000D01*
G01*
X247973D02*
G03*
X247973Y236220I-000040J000000D01*
G01*
X246890Y227854D02*
G03*
X246890Y227854I-000040J000000D01*
G01*
X247284D02*
G03*
X247284Y227854I-000040J000000D01*
G01*
X247678D02*
G03*
X247678Y227854I-000040J000000D01*
G01*
X246398Y228346D02*
G03*
X246398Y228346I-000040J000000D01*
G01*
X247973D02*
G03*
X247973Y228346I-000040J000000D01*
G01*
X264804Y246850D02*
G03*
X264804Y246850I-000040J000000D01*
G01*
X260079Y246457D02*
G03*
X260079Y246457I-000040J000000D01*
G01*
Y247244D02*
G03*
X260079Y247244I-000040J000000D01*
G01*
X246379Y200787D02*
G03*
X246379Y200787I-000040J000000D01*
G01*
X247953D02*
G03*
X247953Y200787I-000040J000000D01*
G01*
X246418Y192913D02*
G03*
X246418Y192913I-000040J000000D01*
G01*
X247953D02*
G03*
X247953Y192913I-000040J000000D01*
G01*
X246379Y208661D02*
G03*
X246379Y208661I-000040J000000D01*
G01*
X247953D02*
G03*
X247953Y208661I-000040J000000D01*
G01*
X242560Y183071D02*
G03*
X242560Y183071I-000040J000000D01*
G01*
Y182283D02*
G03*
X242560Y182283I-000040J000000D01*
G01*
Y181496D02*
G03*
X242560Y181496I-000040J000000D01*
G01*
Y180709D02*
G03*
X242560Y180709I-000040J000000D01*
G01*
Y179921D02*
G03*
X242560Y179921I-000040J000000D01*
G01*
Y179134D02*
G03*
X242560Y179134I-000040J000000D01*
G01*
Y178346D02*
G03*
X242560Y178346I-000040J000000D01*
G01*
Y177559D02*
G03*
X242560Y177559I-000040J000000D01*
G01*
Y176772D02*
G03*
X242560Y176772I-000040J000000D01*
G01*
Y183858D02*
G03*
X242560Y183858I-000040J000000D01*
G01*
Y186220D02*
G03*
X242560Y186220I-000040J000000D01*
G01*
Y187008D02*
G03*
X242560Y187008I-000040J000000D01*
G01*
Y187795D02*
G03*
X242560Y187795I-000040J000000D01*
G01*
Y190157D02*
G03*
X242560Y190157I-000040J000000D01*
G01*
Y190945D02*
G03*
X242560Y190945I-000040J000000D01*
G01*
X240591D02*
G03*
X240591Y190945I-000040J000000D01*
G01*
Y190157D02*
G03*
X240591Y190157I-000040J000000D01*
G01*
Y189370D02*
G03*
X240591Y189370I-000040J000000D01*
G01*
Y188583D02*
G03*
X240591Y188583I-000040J000000D01*
G01*
Y187795D02*
G03*
X240591Y187795I-000040J000000D01*
G01*
Y187008D02*
G03*
X240591Y187008I-000040J000000D01*
G01*
Y186220D02*
G03*
X240591Y186220I-000040J000000D01*
G01*
Y183858D02*
G03*
X240591Y183858I-000040J000000D01*
G01*
Y183071D02*
G03*
X240591Y183071I-000040J000000D01*
G01*
Y182283D02*
G03*
X240591Y182283I-000040J000000D01*
G01*
Y181496D02*
G03*
X240591Y181496I-000040J000000D01*
G01*
Y180709D02*
G03*
X240591Y180709I-000040J000000D01*
G01*
Y179921D02*
G03*
X240591Y179921I-000040J000000D01*
G01*
Y179134D02*
G03*
X240591Y179134I-000040J000000D01*
G01*
Y178346D02*
G03*
X240591Y178346I-000040J000000D01*
G01*
Y177559D02*
G03*
X240591Y177559I-000040J000000D01*
G01*
Y176772D02*
G03*
X240591Y176772I-000040J000000D01*
G01*
X239016Y197638D02*
G03*
X239016Y197638I-000040J000000D01*
G01*
Y198425D02*
G03*
X239016Y198425I-000040J000000D01*
G01*
Y199213D02*
G03*
X239016Y199213I-000040J000000D01*
G01*
Y196063D02*
G03*
X239016Y196063I-000040J000000D01*
G01*
Y195276D02*
G03*
X239016Y195276I-000040J000000D01*
G01*
X242560D02*
G03*
X242560Y195276I-000040J000000D01*
G01*
Y196063D02*
G03*
X242560Y196063I-000040J000000D01*
G01*
Y197638D02*
G03*
X242560Y197638I-000040J000000D01*
G01*
Y198425D02*
G03*
X242560Y198425I-000040J000000D01*
G01*
Y199213D02*
G03*
X242560Y199213I-000040J000000D01*
G01*
X239016Y203937D02*
G03*
X239016Y203937I-000040J000000D01*
G01*
Y203150D02*
G03*
X239016Y203150I-000040J000000D01*
G01*
Y205512D02*
G03*
X239016Y205512I-000040J000000D01*
G01*
Y206299D02*
G03*
X239016Y206299I-000040J000000D01*
G01*
X242560Y205512D02*
G03*
X242560Y205512I-000040J000000D01*
G01*
Y206299D02*
G03*
X242560Y206299I-000040J000000D01*
G01*
Y203937D02*
G03*
X242560Y203937I-000040J000000D01*
G01*
Y203150D02*
G03*
X242560Y203150I-000040J000000D01*
G01*
X277304Y222736D02*
G03*
X277304Y222736I-000040J000000D01*
G01*
X240197Y257874D02*
G03*
X240197Y257874I-000040J000000D01*
G01*
X241772D02*
G03*
X241772Y257874I-000040J000000D01*
G01*
X243347D02*
G03*
X243347Y257874I-000040J000000D01*
G01*
X246497D02*
G03*
X246497Y257874I-000040J000000D01*
G01*
X248071D02*
G03*
X248071Y257874I-000040J000000D01*
G01*
Y256299D02*
G03*
X248071Y256299I-000040J000000D01*
G01*
Y254724D02*
G03*
X248071Y254724I-000040J000000D01*
G01*
X240197Y256299D02*
G03*
X240197Y256299I-000040J000000D01*
G01*
Y254724D02*
G03*
X240197Y254724I-000040J000000D01*
G01*
X241772D02*
G03*
X241772Y254724I-000040J000000D01*
G01*
X243347D02*
G03*
X243347Y254724I-000040J000000D01*
G01*
X239016Y248819D02*
G03*
X239016Y248819I-000040J000000D01*
G01*
Y247244D02*
G03*
X239016Y247244I-000040J000000D01*
G01*
Y246457D02*
G03*
X239016Y246457I-000040J000000D01*
G01*
Y249606D02*
G03*
X239016Y249606I-000040J000000D01*
G01*
X242560Y247244D02*
G03*
X242560Y247244I-000040J000000D01*
G01*
Y246457D02*
G03*
X242560Y246457I-000040J000000D01*
G01*
Y245669D02*
G03*
X242560Y245669I-000040J000000D01*
G01*
X239016D02*
G03*
X239016Y245669I-000040J000000D01*
G01*
Y237795D02*
G03*
X239016Y237795I-000040J000000D01*
G01*
Y238583D02*
G03*
X239016Y238583I-000040J000000D01*
G01*
Y239370D02*
G03*
X239016Y239370I-000040J000000D01*
G01*
Y240945D02*
G03*
X239016Y240945I-000040J000000D01*
G01*
X242560D02*
G03*
X242560Y240945I-000040J000000D01*
G01*
Y241732D02*
G03*
X242560Y241732I-000040J000000D01*
G01*
Y239370D02*
G03*
X242560Y239370I-000040J000000D01*
G01*
Y238583D02*
G03*
X242560Y238583I-000040J000000D01*
G01*
Y237795D02*
G03*
X242560Y237795I-000040J000000D01*
G01*
X239016Y241732D02*
G03*
X239016Y241732I-000040J000000D01*
G01*
X245512Y241929D02*
G03*
X245512Y241929I-000040J000000D01*
G01*
X239016Y231496D02*
G03*
X239016Y231496I-000040J000000D01*
G01*
Y230709D02*
G03*
X239016Y230709I-000040J000000D01*
G01*
Y229921D02*
G03*
X239016Y229921I-000040J000000D01*
G01*
Y233071D02*
G03*
X239016Y233071I-000040J000000D01*
G01*
Y233858D02*
G03*
X239016Y233858I-000040J000000D01*
G01*
X242560Y233071D02*
G03*
X242560Y233071I-000040J000000D01*
G01*
Y231496D02*
G03*
X242560Y231496I-000040J000000D01*
G01*
Y230709D02*
G03*
X242560Y230709I-000040J000000D01*
G01*
Y229921D02*
G03*
X242560Y229921I-000040J000000D01*
G01*
Y232283D02*
G03*
X242560Y232283I-000040J000000D01*
G01*
Y233858D02*
G03*
X242560Y233858I-000040J000000D01*
G01*
X256142Y222441D02*
G03*
X256142Y222441I-000040J000000D01*
G01*
X268977Y222520D02*
G03*
X268977Y222520I-000040J000000D01*
G01*
X254292Y224606D02*
G03*
X254292Y224606I-000040J000000D01*
G01*
X253780Y223425D02*
G03*
X253780Y223425I-000040J000000D01*
G01*
Y223819D02*
G03*
X253780Y223819I-000040J000000D01*
G01*
X265552Y236220D02*
G03*
X265552Y236220I-000040J000000D01*
G01*
X265631Y192913D02*
G03*
X265631Y192913I-000040J000000D01*
G01*
Y185000D02*
G03*
X265631Y185000I-000040J000000D01*
G01*
X255158Y183465D02*
G03*
X255158Y183465I-000040J000000D01*
G01*
X255946D02*
G03*
X255946Y183465I-000040J000000D01*
G01*
X256733D02*
G03*
X256733Y183465I-000040J000000D01*
G01*
X257520D02*
G03*
X257520Y183465I-000040J000000D01*
G01*
X258308D02*
G03*
X258308Y183465I-000040J000000D01*
G01*
Y176772D02*
G03*
X258308Y176772I-000040J000000D01*
G01*
X257520D02*
G03*
X257520Y176772I-000040J000000D01*
G01*
X256733D02*
G03*
X256733Y176772I-000040J000000D01*
G01*
X255946D02*
G03*
X255946Y176772I-000040J000000D01*
G01*
X255158D02*
G03*
X255158Y176772I-000040J000000D01*
G01*
Y177559D02*
G03*
X255158Y177559I-000040J000000D01*
G01*
X255946D02*
G03*
X255946Y177559I-000040J000000D01*
G01*
X256733D02*
G03*
X256733Y177559I-000040J000000D01*
G01*
X257520D02*
G03*
X257520Y177559I-000040J000000D01*
G01*
X258308D02*
G03*
X258308Y177559I-000040J000000D01*
G01*
Y178346D02*
G03*
X258308Y178346I-000040J000000D01*
G01*
X257520D02*
G03*
X257520Y178346I-000040J000000D01*
G01*
X256733D02*
G03*
X256733Y178346I-000040J000000D01*
G01*
X255946D02*
G03*
X255946Y178346I-000040J000000D01*
G01*
X255158D02*
G03*
X255158Y178346I-000040J000000D01*
G01*
Y180709D02*
G03*
X255158Y180709I-000040J000000D01*
G01*
X255946D02*
G03*
X255946Y180709I-000040J000000D01*
G01*
X256733D02*
G03*
X256733Y180709I-000040J000000D01*
G01*
X257520D02*
G03*
X257520Y180709I-000040J000000D01*
G01*
X263820Y182677D02*
G03*
X263820Y182677I-000040J000000D01*
G01*
Y181890D02*
G03*
X263820Y181890I-000040J000000D01*
G01*
X264607D02*
G03*
X264607Y181890I-000040J000000D01*
G01*
Y182677D02*
G03*
X264607Y182677I-000040J000000D01*
G01*
X265394D02*
G03*
X265394Y182677I-000040J000000D01*
G01*
Y181890D02*
G03*
X265394Y181890I-000040J000000D01*
G01*
Y189764D02*
G03*
X265394Y189764I-000040J000000D01*
G01*
Y190551D02*
G03*
X265394Y190551I-000040J000000D01*
G01*
X264607D02*
G03*
X264607Y190551I-000040J000000D01*
G01*
X263820D02*
G03*
X263820Y190551I-000040J000000D01*
G01*
Y189764D02*
G03*
X263820Y189764I-000040J000000D01*
G01*
X264607D02*
G03*
X264607Y189764I-000040J000000D01*
G01*
X255158Y191339D02*
G03*
X255158Y191339I-000040J000000D01*
G01*
X255946D02*
G03*
X255946Y191339I-000040J000000D01*
G01*
X256733D02*
G03*
X256733Y191339I-000040J000000D01*
G01*
X257520D02*
G03*
X257520Y191339I-000040J000000D01*
G01*
X258308D02*
G03*
X258308Y191339I-000040J000000D01*
G01*
X257127Y188583D02*
G03*
X257127Y188583I-000040J000000D01*
G01*
X256339D02*
G03*
X256339Y188583I-000040J000000D01*
G01*
X255552D02*
G03*
X255552Y188583I-000040J000000D01*
G01*
X255158Y185433D02*
G03*
X255158Y185433I-000040J000000D01*
G01*
X255946D02*
G03*
X255946Y185433I-000040J000000D01*
G01*
X256733D02*
G03*
X256733Y185433I-000040J000000D01*
G01*
X257520D02*
G03*
X257520Y185433I-000040J000000D01*
G01*
X258308D02*
G03*
X258308Y185433I-000040J000000D01*
G01*
X255158Y193307D02*
G03*
X255158Y193307I-000040J000000D01*
G01*
X255946D02*
G03*
X255946Y193307I-000040J000000D01*
G01*
X256733D02*
G03*
X256733Y193307I-000040J000000D01*
G01*
X257520D02*
G03*
X257520Y193307I-000040J000000D01*
G01*
X258308D02*
G03*
X258308Y193307I-000040J000000D01*
G01*
Y194094D02*
G03*
X258308Y194094I-000040J000000D01*
G01*
X257520D02*
G03*
X257520Y194094I-000040J000000D01*
G01*
X256733D02*
G03*
X256733Y194094I-000040J000000D01*
G01*
X255946D02*
G03*
X255946Y194094I-000040J000000D01*
G01*
X255158D02*
G03*
X255158Y194094I-000040J000000D01*
G01*
Y199213D02*
G03*
X255158Y199213I-000040J000000D01*
G01*
X255946D02*
G03*
X255946Y199213I-000040J000000D01*
G01*
X256733D02*
G03*
X256733Y199213I-000040J000000D01*
G01*
X257520D02*
G03*
X257520Y199213I-000040J000000D01*
G01*
X258308D02*
G03*
X258308Y199213I-000040J000000D01*
G01*
X257914Y196063D02*
G03*
X257914Y196063I-000040J000000D01*
G01*
X257127D02*
G03*
X257127Y196063I-000040J000000D01*
G01*
X256339D02*
G03*
X256339Y196063I-000040J000000D01*
G01*
X255552D02*
G03*
X255552Y196063I-000040J000000D01*
G01*
X255158Y207087D02*
G03*
X255158Y207087I-000040J000000D01*
G01*
X255946D02*
G03*
X255946Y207087I-000040J000000D01*
G01*
X256733D02*
G03*
X256733Y207087I-000040J000000D01*
G01*
X257520D02*
G03*
X257520Y207087I-000040J000000D01*
G01*
X258308D02*
G03*
X258308Y207087I-000040J000000D01*
G01*
X259095D02*
G03*
X259095Y207087I-000040J000000D01*
G01*
X259883D02*
G03*
X259883Y207087I-000040J000000D01*
G01*
X266182D02*
G03*
X266182Y207087I-000040J000000D01*
G01*
Y206299D02*
G03*
X266182Y206299I-000040J000000D01*
G01*
Y205512D02*
G03*
X266182Y205512I-000040J000000D01*
G01*
X256733Y204331D02*
G03*
X256733Y204331I-000040J000000D01*
G01*
X255946D02*
G03*
X255946Y204331I-000040J000000D01*
G01*
X255158D02*
G03*
X255158Y204331I-000040J000000D01*
G01*
Y201181D02*
G03*
X255158Y201181I-000040J000000D01*
G01*
X255946D02*
G03*
X255946Y201181I-000040J000000D01*
G01*
X256733D02*
G03*
X256733Y201181I-000040J000000D01*
G01*
X257520D02*
G03*
X257520Y201181I-000040J000000D01*
G01*
X258308D02*
G03*
X258308Y201181I-000040J000000D01*
G01*
Y201968D02*
G03*
X258308Y201968I-000040J000000D01*
G01*
X257520D02*
G03*
X257520Y201968I-000040J000000D01*
G01*
X256733D02*
G03*
X256733Y201968I-000040J000000D01*
G01*
X255946D02*
G03*
X255946Y201968I-000040J000000D01*
G01*
X255158D02*
G03*
X255158Y201968I-000040J000000D01*
G01*
Y258268D02*
G03*
X255158Y258268I-000040J000000D01*
G01*
X255946D02*
G03*
X255946Y258268I-000040J000000D01*
G01*
X256733D02*
G03*
X256733Y258268I-000040J000000D01*
G01*
X257520D02*
G03*
X257520Y258268I-000040J000000D01*
G01*
X258308D02*
G03*
X258308Y258268I-000040J000000D01*
G01*
X259095D02*
G03*
X259095Y258268I-000040J000000D01*
G01*
X255158Y252362D02*
G03*
X255158Y252362I-000040J000000D01*
G01*
X255946D02*
G03*
X255946Y252362I-000040J000000D01*
G01*
X256733D02*
G03*
X256733Y252362I-000040J000000D01*
G01*
X257520D02*
G03*
X257520Y252362I-000040J000000D01*
G01*
X258308D02*
G03*
X258308Y252362I-000040J000000D01*
G01*
X259095D02*
G03*
X259095Y252362I-000040J000000D01*
G01*
Y253150D02*
G03*
X259095Y253150I-000040J000000D01*
G01*
X258308D02*
G03*
X258308Y253150I-000040J000000D01*
G01*
X257520D02*
G03*
X257520Y253150I-000040J000000D01*
G01*
X256733D02*
G03*
X256733Y253150I-000040J000000D01*
G01*
X255946D02*
G03*
X255946Y253150I-000040J000000D01*
G01*
X255158D02*
G03*
X255158Y253150I-000040J000000D01*
G01*
Y253937D02*
G03*
X255158Y253937I-000040J000000D01*
G01*
X255946D02*
G03*
X255946Y253937I-000040J000000D01*
G01*
X256733D02*
G03*
X256733Y253937I-000040J000000D01*
G01*
X257520D02*
G03*
X257520Y253937I-000040J000000D01*
G01*
X258308D02*
G03*
X258308Y253937I-000040J000000D01*
G01*
X259095D02*
G03*
X259095Y253937I-000040J000000D01*
G01*
X255158Y250394D02*
G03*
X255158Y250394I-000040J000000D01*
G01*
X255946D02*
G03*
X255946Y250394I-000040J000000D01*
G01*
X256733D02*
G03*
X256733Y250394I-000040J000000D01*
G01*
X257520D02*
G03*
X257520Y250394I-000040J000000D01*
G01*
X258308D02*
G03*
X258308Y250394I-000040J000000D01*
G01*
X259095D02*
G03*
X259095Y250394I-000040J000000D01*
G01*
X255158Y247638D02*
G03*
X255158Y247638I-000040J000000D01*
G01*
X255946D02*
G03*
X255946Y247638I-000040J000000D01*
G01*
X256733D02*
G03*
X256733Y247638I-000040J000000D01*
G01*
X255158Y244488D02*
G03*
X255158Y244488I-000040J000000D01*
G01*
X255946D02*
G03*
X255946Y244488I-000040J000000D01*
G01*
X256733D02*
G03*
X256733Y244488I-000040J000000D01*
G01*
X257520D02*
G03*
X257520Y244488I-000040J000000D01*
G01*
X258308D02*
G03*
X258308Y244488I-000040J000000D01*
G01*
Y245276D02*
G03*
X258308Y245276I-000040J000000D01*
G01*
X257520D02*
G03*
X257520Y245276I-000040J000000D01*
G01*
X256733D02*
G03*
X256733Y245276I-000040J000000D01*
G01*
X255946D02*
G03*
X255946Y245276I-000040J000000D01*
G01*
X255158D02*
G03*
X255158Y245276I-000040J000000D01*
G01*
Y242520D02*
G03*
X255158Y242520I-000040J000000D01*
G01*
X255946D02*
G03*
X255946Y242520I-000040J000000D01*
G01*
X256733D02*
G03*
X256733Y242520I-000040J000000D01*
G01*
X257520D02*
G03*
X257520Y242520I-000040J000000D01*
G01*
X258308D02*
G03*
X258308Y242520I-000040J000000D01*
G01*
X259095D02*
G03*
X259095Y242520I-000040J000000D01*
G01*
X255158Y236614D02*
G03*
X255158Y236614I-000040J000000D01*
G01*
X255946D02*
G03*
X255946Y236614I-000040J000000D01*
G01*
X256733D02*
G03*
X256733Y236614I-000040J000000D01*
G01*
X257520D02*
G03*
X257520Y236614I-000040J000000D01*
G01*
X258308D02*
G03*
X258308Y236614I-000040J000000D01*
G01*
Y237402D02*
G03*
X258308Y237402I-000040J000000D01*
G01*
X257520D02*
G03*
X257520Y237402I-000040J000000D01*
G01*
X256733D02*
G03*
X256733Y237402I-000040J000000D01*
G01*
X255946D02*
G03*
X255946Y237402I-000040J000000D01*
G01*
X255158D02*
G03*
X255158Y237402I-000040J000000D01*
G01*
Y239764D02*
G03*
X255158Y239764I-000040J000000D01*
G01*
X255946D02*
G03*
X255946Y239764I-000040J000000D01*
G01*
X256733D02*
G03*
X256733Y239764I-000040J000000D01*
G01*
X257520D02*
G03*
X257520Y239764I-000040J000000D01*
G01*
X255158Y228740D02*
G03*
X255158Y228740I-000040J000000D01*
G01*
X255946D02*
G03*
X255946Y228740I-000040J000000D01*
G01*
X256733D02*
G03*
X256733Y228740I-000040J000000D01*
G01*
X257520D02*
G03*
X257520Y228740I-000040J000000D01*
G01*
X258308D02*
G03*
X258308Y228740I-000040J000000D01*
G01*
Y229528D02*
G03*
X258308Y229528I-000040J000000D01*
G01*
X257520D02*
G03*
X257520Y229528I-000040J000000D01*
G01*
X256733D02*
G03*
X256733Y229528I-000040J000000D01*
G01*
X255946D02*
G03*
X255946Y229528I-000040J000000D01*
G01*
X255158D02*
G03*
X255158Y229528I-000040J000000D01*
G01*
Y234646D02*
G03*
X255158Y234646I-000040J000000D01*
G01*
X255946D02*
G03*
X255946Y234646I-000040J000000D01*
G01*
X256733D02*
G03*
X256733Y234646I-000040J000000D01*
G01*
X257520D02*
G03*
X257520Y234646I-000040J000000D01*
G01*
X258308D02*
G03*
X258308Y234646I-000040J000000D01*
G01*
X255158Y231890D02*
G03*
X255158Y231890I-000040J000000D01*
G01*
X255946D02*
G03*
X255946Y231890I-000040J000000D01*
G01*
X256733D02*
G03*
X256733Y231890I-000040J000000D01*
G01*
X257520D02*
G03*
X257520Y231890I-000040J000000D01*
G01*
X292205Y222047D02*
G03*
X292205Y222047I-000040J000000D01*
G01*
X291772Y220118D02*
G03*
X291772Y220118I-000040J000000D01*
G01*
X289568Y219961D02*
G03*
X289568Y219961I-000040J000000D01*
G01*
Y220276D02*
G03*
X289568Y220276I-000040J000000D01*
G01*
Y219213D02*
G03*
X289568Y219213I-000040J000000D01*
G01*
X244134Y183858D02*
G03*
X244134Y183858I-000040J000000D01*
G01*
Y182283D02*
G03*
X244134Y182283I-000040J000000D01*
G01*
Y180709D02*
G03*
X244134Y180709I-000040J000000D01*
G01*
Y179134D02*
G03*
X244134Y179134I-000040J000000D01*
G01*
Y177559D02*
G03*
X244134Y177559I-000040J000000D01*
G01*
X245709Y179134D02*
G03*
X245709Y179134I-000040J000000D01*
G01*
X247284D02*
G03*
X247284Y179134I-000040J000000D01*
G01*
Y177559D02*
G03*
X247284Y177559I-000040J000000D01*
G01*
X245709D02*
G03*
X245709Y177559I-000040J000000D01*
G01*
Y187402D02*
G03*
X245709Y187402I-000040J000000D01*
G01*
X245512Y195079D02*
G03*
X245512Y195079I-000040J000000D01*
G01*
Y202953D02*
G03*
X245512Y202953I-000040J000000D01*
G01*
Y234055D02*
G03*
X245512Y234055I-000040J000000D01*
G01*
Y249803D02*
G03*
X245512Y249803I-000040J000000D01*
G01*
M02*
