G04 Layer_Color=8388736*
%FSAX24Y24*%
%MOIN*%
G70*
G01*
G75*
%ADD59R,0.0375X0.0394*%
%ADD60R,0.0394X0.0375*%
%ADD61R,0.3879X0.4764*%
%ADD62R,0.1418X0.0670*%
%ADD63R,0.0414X0.0414*%
%ADD64R,0.0414X0.0414*%
%ADD65R,0.0394X0.0552*%
%ADD66R,0.0552X0.0394*%
%ADD67R,0.0532X0.0729*%
%ADD68O,0.0611X0.0276*%
%ADD69O,0.0788X0.0276*%
%ADD70O,0.0669X0.0217*%
%ADD71R,0.1024X0.0552*%
%ADD72R,0.0729X0.0532*%
%ADD73R,0.0434X0.0276*%
%ADD74R,0.0434X0.0804*%
%ADD75R,0.0355X0.0434*%
G04:AMPARAMS|DCode=76|XSize=82.7mil|YSize=82.7mil|CornerRadius=21.7mil|HoleSize=0mil|Usage=FLASHONLY|Rotation=0.000|XOffset=0mil|YOffset=0mil|HoleType=Round|Shape=RoundedRectangle|*
%AMROUNDEDRECTD76*
21,1,0.0827,0.0394,0,0,0.0*
21,1,0.0394,0.0827,0,0,0.0*
1,1,0.0434,0.0197,-0.0197*
1,1,0.0434,-0.0197,-0.0197*
1,1,0.0434,-0.0197,0.0197*
1,1,0.0434,0.0197,0.0197*
%
%ADD76ROUNDEDRECTD76*%
G04:AMPARAMS|DCode=77|XSize=82.7mil|YSize=82.7mil|CornerRadius=21.7mil|HoleSize=0mil|Usage=FLASHONLY|Rotation=90.000|XOffset=0mil|YOffset=0mil|HoleType=Round|Shape=RoundedRectangle|*
%AMROUNDEDRECTD77*
21,1,0.0827,0.0394,0,0,90.0*
21,1,0.0394,0.0827,0,0,90.0*
1,1,0.0434,0.0197,0.0197*
1,1,0.0434,0.0197,-0.0197*
1,1,0.0434,-0.0197,-0.0197*
1,1,0.0434,-0.0197,0.0197*
%
%ADD77ROUNDEDRECTD77*%
%ADD78C,0.0660*%
%ADD79R,0.0660X0.0660*%
%ADD80R,0.0827X0.0827*%
%ADD81C,0.0827*%
%ADD82C,0.0512*%
%ADD83C,0.0631*%
%ADD84C,0.0489*%
%ADD85R,0.0631X0.0631*%
%ADD86R,0.0631X0.0631*%
%ADD87C,0.2796*%
%ADD88C,0.1221*%
D59*
X290945Y240059D02*
D03*
Y239469D02*
D03*
Y241634D02*
D03*
Y241043D02*
D03*
X281496Y240059D02*
D03*
Y239469D02*
D03*
Y241634D02*
D03*
Y241043D02*
D03*
X294488Y221949D02*
D03*
Y221358D02*
D03*
X287303Y220571D02*
D03*
Y219980D02*
D03*
X286122Y219980D02*
D03*
Y220571D02*
D03*
X285532Y220571D02*
D03*
Y219980D02*
D03*
X248228Y209350D02*
D03*
Y208760D02*
D03*
Y193602D02*
D03*
Y193012D02*
D03*
Y201476D02*
D03*
Y200886D02*
D03*
Y185728D02*
D03*
Y185138D02*
D03*
Y227657D02*
D03*
Y228248D02*
D03*
Y235532D02*
D03*
Y236122D02*
D03*
Y243406D02*
D03*
Y243996D02*
D03*
Y251280D02*
D03*
Y251870D02*
D03*
X278150Y221358D02*
D03*
Y220768D02*
D03*
X276870Y223228D02*
D03*
Y223819D02*
D03*
X278445Y226083D02*
D03*
Y225492D02*
D03*
X281004Y225689D02*
D03*
Y226280D02*
D03*
X279429Y223819D02*
D03*
Y223228D02*
D03*
D60*
X252067Y248032D02*
D03*
X252657D02*
D03*
X250787D02*
D03*
X251378D02*
D03*
X252067Y240157D02*
D03*
X252657D02*
D03*
X250689D02*
D03*
X251280D02*
D03*
X252165Y196850D02*
D03*
X252756D02*
D03*
X250787D02*
D03*
X251378D02*
D03*
X252165Y188976D02*
D03*
X252756D02*
D03*
X250787D02*
D03*
X251378D02*
D03*
X252264Y181102D02*
D03*
X252854D02*
D03*
X250689D02*
D03*
X251280D02*
D03*
X252165Y232283D02*
D03*
X252756D02*
D03*
X250787D02*
D03*
X251378D02*
D03*
X252264Y204724D02*
D03*
X252854D02*
D03*
X250787D02*
D03*
X251378D02*
D03*
X252264Y255906D02*
D03*
X252854D02*
D03*
X250886D02*
D03*
X251476D02*
D03*
X293091Y212598D02*
D03*
X293681D02*
D03*
X279429Y221457D02*
D03*
X280020D02*
D03*
X288091Y222539D02*
D03*
X288681D02*
D03*
X245965Y208661D02*
D03*
X245374D02*
D03*
X245965Y192913D02*
D03*
X245374D02*
D03*
X245965Y200787D02*
D03*
X245374D02*
D03*
X246161Y185039D02*
D03*
X245571D02*
D03*
X245965Y228346D02*
D03*
X245374D02*
D03*
X245965Y236220D02*
D03*
X245374D02*
D03*
X245965Y244094D02*
D03*
X245374D02*
D03*
X288091Y223130D02*
D03*
X288681D02*
D03*
X245965Y251968D02*
D03*
X245374D02*
D03*
X272343Y251575D02*
D03*
X272933D02*
D03*
X272441Y227756D02*
D03*
X273032D02*
D03*
X272343Y235433D02*
D03*
X272933D02*
D03*
X272539Y243504D02*
D03*
X273130D02*
D03*
X272539Y200394D02*
D03*
X273130D02*
D03*
X272539Y176575D02*
D03*
X273130D02*
D03*
X272539Y192323D02*
D03*
X273130D02*
D03*
X272539Y184449D02*
D03*
X273130D02*
D03*
X279429Y222047D02*
D03*
X280020D02*
D03*
X285236Y224803D02*
D03*
X284646D02*
D03*
D61*
X256693Y204724D02*
D03*
Y181102D02*
D03*
Y188976D02*
D03*
Y196850D02*
D03*
X256693Y255906D02*
D03*
X256693Y232283D02*
D03*
Y240157D02*
D03*
X256693Y248032D02*
D03*
D62*
X252648Y203724D02*
D03*
Y205724D02*
D03*
Y182102D02*
D03*
Y180102D02*
D03*
Y187976D02*
D03*
Y189976D02*
D03*
Y197850D02*
D03*
Y195850D02*
D03*
X252648Y254906D02*
D03*
Y256906D02*
D03*
X252648Y233283D02*
D03*
Y231283D02*
D03*
Y239157D02*
D03*
Y241157D02*
D03*
X252648Y249032D02*
D03*
Y247031D02*
D03*
D63*
X294488Y220768D02*
D03*
Y220177D02*
D03*
X284941Y220571D02*
D03*
Y219980D02*
D03*
X282480Y223524D02*
D03*
Y224114D02*
D03*
D64*
X284547Y223228D02*
D03*
X283957D02*
D03*
X289764Y219587D02*
D03*
X289173D02*
D03*
X245374Y209449D02*
D03*
X245965D02*
D03*
X245374Y193701D02*
D03*
X245965D02*
D03*
X245374Y201575D02*
D03*
X245965D02*
D03*
X245571Y185827D02*
D03*
X246161D02*
D03*
X245965Y227559D02*
D03*
X245374D02*
D03*
X245965Y235433D02*
D03*
X245374D02*
D03*
X245965Y243307D02*
D03*
X245374D02*
D03*
X245965Y251181D02*
D03*
X245374D02*
D03*
X277461Y222047D02*
D03*
X276870D02*
D03*
X278740D02*
D03*
X278150D02*
D03*
X277657Y225492D02*
D03*
X277067D02*
D03*
X277067Y226083D02*
D03*
X277657D02*
D03*
X281004Y223032D02*
D03*
X281594D02*
D03*
X285433Y223228D02*
D03*
X286024D02*
D03*
X287343Y221654D02*
D03*
X286752D02*
D03*
X285433Y223917D02*
D03*
X286024D02*
D03*
X293504Y223622D02*
D03*
X294094D02*
D03*
D65*
X246043Y207874D02*
D03*
X245295D02*
D03*
X246043Y192126D02*
D03*
X245295D02*
D03*
X246043Y200000D02*
D03*
X245295D02*
D03*
X246220Y184252D02*
D03*
X245472D02*
D03*
X246043Y229134D02*
D03*
X245295D02*
D03*
X246043Y237008D02*
D03*
X245295D02*
D03*
X246043Y244882D02*
D03*
X245295D02*
D03*
X246043Y252756D02*
D03*
X245295D02*
D03*
D66*
X245472Y207067D02*
D03*
Y206319D02*
D03*
Y205492D02*
D03*
Y204744D02*
D03*
X245472Y191319D02*
D03*
Y190571D02*
D03*
Y189744D02*
D03*
Y188996D02*
D03*
X245472Y199213D02*
D03*
Y198465D02*
D03*
Y197638D02*
D03*
Y196890D02*
D03*
Y183445D02*
D03*
Y182697D02*
D03*
Y182067D02*
D03*
Y181319D02*
D03*
Y231319D02*
D03*
Y232067D02*
D03*
Y229941D02*
D03*
Y230689D02*
D03*
Y239193D02*
D03*
Y239941D02*
D03*
Y237815D02*
D03*
Y238563D02*
D03*
Y245689D02*
D03*
Y246437D02*
D03*
Y247067D02*
D03*
Y247815D02*
D03*
Y253563D02*
D03*
Y254311D02*
D03*
Y254941D02*
D03*
Y255689D02*
D03*
D67*
X264341Y200591D02*
D03*
X263219D02*
D03*
X264341Y184843D02*
D03*
X263219D02*
D03*
X264341Y176968D02*
D03*
X263219D02*
D03*
X264341Y192717D02*
D03*
X263219D02*
D03*
X264341Y243898D02*
D03*
X263219D02*
D03*
X264341Y236024D02*
D03*
X263219D02*
D03*
X264341Y228150D02*
D03*
X263219D02*
D03*
X272963Y254626D02*
D03*
X274085D02*
D03*
X264341Y251772D02*
D03*
X263219D02*
D03*
X272963Y246752D02*
D03*
X274085D02*
D03*
X272963Y238878D02*
D03*
X274085D02*
D03*
X272963Y187697D02*
D03*
X274085D02*
D03*
X272963Y231004D02*
D03*
X274085D02*
D03*
X272963Y195571D02*
D03*
X274085D02*
D03*
X272963Y179823D02*
D03*
X274085D02*
D03*
X272963Y203445D02*
D03*
X274085D02*
D03*
X280738Y223819D02*
D03*
X281860D02*
D03*
D68*
X271152Y176415D02*
D03*
Y176915D02*
D03*
Y177415D02*
D03*
Y177915D02*
D03*
X269006Y176415D02*
D03*
Y176915D02*
D03*
Y177415D02*
D03*
Y177915D02*
D03*
X271152Y184289D02*
D03*
Y184789D02*
D03*
Y185289D02*
D03*
Y185789D02*
D03*
X269006Y184289D02*
D03*
Y184789D02*
D03*
Y185289D02*
D03*
Y185789D02*
D03*
X271152Y192163D02*
D03*
Y192663D02*
D03*
Y193163D02*
D03*
Y193663D02*
D03*
X269006Y192163D02*
D03*
Y192663D02*
D03*
Y193163D02*
D03*
Y193663D02*
D03*
X271152Y200037D02*
D03*
Y200537D02*
D03*
Y201037D02*
D03*
Y201537D02*
D03*
X269006Y200037D02*
D03*
Y200537D02*
D03*
Y201037D02*
D03*
Y201537D02*
D03*
X271152Y235470D02*
D03*
Y235970D02*
D03*
Y236470D02*
D03*
Y236970D02*
D03*
X269006Y235470D02*
D03*
Y235970D02*
D03*
Y236470D02*
D03*
Y236970D02*
D03*
X271152Y243344D02*
D03*
Y243844D02*
D03*
Y244344D02*
D03*
Y244844D02*
D03*
X269006Y243344D02*
D03*
Y243844D02*
D03*
Y244344D02*
D03*
Y244844D02*
D03*
X271152Y251218D02*
D03*
Y251719D02*
D03*
Y252218D02*
D03*
Y252719D02*
D03*
X269006Y251218D02*
D03*
Y251719D02*
D03*
Y252218D02*
D03*
Y252719D02*
D03*
X271260Y227559D02*
D03*
Y228059D02*
D03*
Y228559D02*
D03*
Y229059D02*
D03*
X269114Y227559D02*
D03*
Y228059D02*
D03*
Y228559D02*
D03*
Y229059D02*
D03*
D69*
X268209Y241907D02*
D03*
Y241407D02*
D03*
Y240907D02*
D03*
Y240407D02*
D03*
Y239907D02*
D03*
Y239407D02*
D03*
Y238907D02*
D03*
Y238407D02*
D03*
X271949Y241907D02*
D03*
Y241407D02*
D03*
Y240907D02*
D03*
Y240407D02*
D03*
Y239907D02*
D03*
Y239407D02*
D03*
Y238907D02*
D03*
Y238407D02*
D03*
X268209Y257656D02*
D03*
Y257156D02*
D03*
Y256656D02*
D03*
Y256156D02*
D03*
Y255656D02*
D03*
Y255156D02*
D03*
Y254656D02*
D03*
Y254156D02*
D03*
X271949Y257656D02*
D03*
Y257156D02*
D03*
Y256656D02*
D03*
Y256156D02*
D03*
Y255656D02*
D03*
Y255156D02*
D03*
Y254656D02*
D03*
Y254156D02*
D03*
X268209Y249781D02*
D03*
Y249282D02*
D03*
Y248782D02*
D03*
Y248281D02*
D03*
Y247782D02*
D03*
Y247281D02*
D03*
Y246782D02*
D03*
Y246282D02*
D03*
X271949Y249781D02*
D03*
Y249282D02*
D03*
Y248782D02*
D03*
Y248281D02*
D03*
Y247782D02*
D03*
Y247281D02*
D03*
Y246782D02*
D03*
Y246282D02*
D03*
X268209Y234033D02*
D03*
Y233533D02*
D03*
Y233033D02*
D03*
Y232533D02*
D03*
Y232033D02*
D03*
Y231533D02*
D03*
Y231033D02*
D03*
Y230533D02*
D03*
X271949Y234033D02*
D03*
Y233533D02*
D03*
Y233033D02*
D03*
Y232533D02*
D03*
Y232033D02*
D03*
Y231533D02*
D03*
Y231033D02*
D03*
Y230533D02*
D03*
X268209Y206474D02*
D03*
Y205974D02*
D03*
Y205474D02*
D03*
Y204974D02*
D03*
Y204474D02*
D03*
Y203974D02*
D03*
Y203474D02*
D03*
Y202974D02*
D03*
X271949Y206474D02*
D03*
Y205974D02*
D03*
Y205474D02*
D03*
Y204974D02*
D03*
Y204474D02*
D03*
Y203974D02*
D03*
Y203474D02*
D03*
Y202974D02*
D03*
X268209Y198600D02*
D03*
Y198100D02*
D03*
Y197600D02*
D03*
Y197100D02*
D03*
Y196600D02*
D03*
Y196100D02*
D03*
Y195600D02*
D03*
Y195100D02*
D03*
X271949Y198600D02*
D03*
Y198100D02*
D03*
Y197600D02*
D03*
Y197100D02*
D03*
Y196600D02*
D03*
Y196100D02*
D03*
Y195600D02*
D03*
Y195100D02*
D03*
X268209Y190726D02*
D03*
Y190226D02*
D03*
Y189726D02*
D03*
Y189226D02*
D03*
Y188726D02*
D03*
Y188226D02*
D03*
Y187726D02*
D03*
Y187226D02*
D03*
X271949Y190726D02*
D03*
Y190226D02*
D03*
Y189726D02*
D03*
Y189226D02*
D03*
Y188726D02*
D03*
Y188226D02*
D03*
Y187726D02*
D03*
Y187226D02*
D03*
X268209Y182852D02*
D03*
Y182352D02*
D03*
Y181852D02*
D03*
Y181352D02*
D03*
Y180852D02*
D03*
Y180352D02*
D03*
Y179852D02*
D03*
Y179352D02*
D03*
X271949Y182852D02*
D03*
Y182352D02*
D03*
Y181852D02*
D03*
Y181352D02*
D03*
Y180852D02*
D03*
Y180352D02*
D03*
Y179852D02*
D03*
Y179352D02*
D03*
D70*
X292756Y220285D02*
D03*
Y220541D02*
D03*
Y220797D02*
D03*
Y221053D02*
D03*
Y221309D02*
D03*
Y221565D02*
D03*
Y221821D02*
D03*
Y222077D02*
D03*
Y222333D02*
D03*
Y222589D02*
D03*
Y222844D02*
D03*
Y223100D02*
D03*
Y223356D02*
D03*
Y223612D02*
D03*
X289921Y220285D02*
D03*
Y220541D02*
D03*
Y220797D02*
D03*
Y221053D02*
D03*
Y221309D02*
D03*
Y221565D02*
D03*
Y221821D02*
D03*
Y222077D02*
D03*
Y222333D02*
D03*
Y222589D02*
D03*
Y222844D02*
D03*
Y223100D02*
D03*
Y223356D02*
D03*
Y223612D02*
D03*
D71*
X275000Y221425D02*
D03*
Y222425D02*
D03*
Y223425D02*
D03*
Y224425D02*
D03*
X270236D02*
D03*
Y223425D02*
D03*
Y222425D02*
D03*
Y221425D02*
D03*
D72*
X263386Y222894D02*
D03*
Y224016D02*
D03*
D73*
X272362Y252559D02*
D03*
X273307Y252933D02*
D03*
Y252185D02*
D03*
X272362Y228740D02*
D03*
X273307Y229114D02*
D03*
Y228366D02*
D03*
X272362Y236614D02*
D03*
X273307Y236988D02*
D03*
Y236240D02*
D03*
X272362Y244685D02*
D03*
X273307Y245059D02*
D03*
Y244311D02*
D03*
X272362Y177756D02*
D03*
X273307Y178130D02*
D03*
Y177382D02*
D03*
X272362Y201575D02*
D03*
X273307Y201949D02*
D03*
Y201201D02*
D03*
X272362Y193504D02*
D03*
X273307Y193878D02*
D03*
Y193130D02*
D03*
X272362Y185630D02*
D03*
X273307Y186004D02*
D03*
Y185256D02*
D03*
X281890Y222441D02*
D03*
Y222067D02*
D03*
Y221693D02*
D03*
X280807D02*
D03*
Y222067D02*
D03*
Y222441D02*
D03*
X282923Y222421D02*
D03*
Y222047D02*
D03*
Y221673D02*
D03*
X284006D02*
D03*
Y222047D02*
D03*
Y222421D02*
D03*
X285974D02*
D03*
Y222047D02*
D03*
Y221673D02*
D03*
X284892D02*
D03*
Y222047D02*
D03*
Y222421D02*
D03*
D74*
X277827Y224606D02*
D03*
X276898D02*
D03*
D75*
X279350Y225423D02*
D03*
X280098D02*
D03*
X279724Y226348D02*
D03*
X283937Y224774D02*
D03*
X283189D02*
D03*
X283563Y223848D02*
D03*
D76*
X289764Y208268D02*
D03*
Y206299D02*
D03*
X281496Y244094D02*
D03*
X290945D02*
D03*
X288583D02*
D03*
X286220D02*
D03*
X283858D02*
D03*
D77*
X273622Y204724D02*
D03*
Y181102D02*
D03*
Y188976D02*
D03*
Y196850D02*
D03*
Y255906D02*
D03*
Y232283D02*
D03*
Y240157D02*
D03*
Y248032D02*
D03*
D78*
X291576Y215985D02*
D03*
X293346D02*
D03*
X291576Y213425D02*
D03*
X295472Y209528D02*
D03*
Y210528D02*
D03*
Y211528D02*
D03*
Y208528D02*
D03*
Y215748D02*
D03*
Y216748D02*
D03*
Y217748D02*
D03*
Y214748D02*
D03*
D79*
X293346Y213425D02*
D03*
X295472Y207528D02*
D03*
Y213748D02*
D03*
D80*
X242520Y236130D02*
D03*
Y193004D02*
D03*
Y251878D02*
D03*
Y208752D02*
D03*
Y244004D02*
D03*
Y200878D02*
D03*
D81*
Y240248D02*
D03*
Y188886D02*
D03*
Y255996D02*
D03*
Y204634D02*
D03*
Y248122D02*
D03*
Y196760D02*
D03*
X242913Y217323D02*
D03*
X260913Y221323D02*
D03*
X242913Y225323D02*
D03*
X260913D02*
D03*
X284535Y217717D02*
D03*
X266535D02*
D03*
X284535Y213717D02*
D03*
X266535Y209717D02*
D03*
D82*
X262303Y213091D02*
D03*
Y211122D02*
D03*
X238780Y223622D02*
D03*
Y225591D02*
D03*
X256299Y211122D02*
D03*
Y213091D02*
D03*
X238780Y217520D02*
D03*
Y219488D02*
D03*
D83*
X236976Y181102D02*
D03*
X238976D02*
D03*
X236976Y196850D02*
D03*
X238976D02*
D03*
X236976Y232283D02*
D03*
X238976D02*
D03*
X237008Y248032D02*
D03*
X239008D02*
D03*
X237008Y188976D02*
D03*
X239008D02*
D03*
X237008Y204724D02*
D03*
X239008D02*
D03*
X236976Y240157D02*
D03*
X238976D02*
D03*
X237008Y255906D02*
D03*
X239008D02*
D03*
X266339Y226142D02*
D03*
Y220236D02*
D03*
X287697Y215240D02*
D03*
Y214240D02*
D03*
X262189Y201968D02*
D03*
X263189D02*
D03*
X264189D02*
D03*
Y178346D02*
D03*
X263189D02*
D03*
X262189D02*
D03*
Y186220D02*
D03*
X263189D02*
D03*
X264189D02*
D03*
Y194094D02*
D03*
X263189D02*
D03*
X262189D02*
D03*
X262220Y253150D02*
D03*
X263220D02*
D03*
X264220D02*
D03*
X264205Y229528D02*
D03*
X263205D02*
D03*
X262205D02*
D03*
X262189Y237402D02*
D03*
X263189D02*
D03*
X264189D02*
D03*
Y245276D02*
D03*
X263189D02*
D03*
X262189D02*
D03*
X295646Y205197D02*
D03*
X291968Y210512D02*
D03*
X273228Y242520D02*
D03*
Y191339D02*
D03*
X276283Y235433D02*
D03*
X273268Y183465D02*
D03*
X276244Y227677D02*
D03*
X274197Y176575D02*
D03*
X273213Y250591D02*
D03*
X272425Y199409D02*
D03*
X295768Y228740D02*
D03*
Y227740D02*
D03*
Y226740D02*
D03*
Y225740D02*
D03*
Y238567D02*
D03*
Y239567D02*
D03*
Y240567D02*
D03*
Y241567D02*
D03*
Y231071D02*
D03*
Y232071D02*
D03*
Y233071D02*
D03*
Y234071D02*
D03*
D84*
X291092Y219193D02*
D03*
X291642D02*
D03*
D85*
X287697Y216240D02*
D03*
X291968Y209512D02*
D03*
X295768Y224740D02*
D03*
Y237567D02*
D03*
Y235071D02*
D03*
D86*
X261189Y201968D02*
D03*
Y178346D02*
D03*
Y186220D02*
D03*
Y194094D02*
D03*
X261220Y253150D02*
D03*
X261205Y229528D02*
D03*
X261189Y237402D02*
D03*
Y245276D02*
D03*
X294646Y205197D02*
D03*
X274228Y242520D02*
D03*
Y191339D02*
D03*
X277283Y235433D02*
D03*
X274268Y183465D02*
D03*
X277244Y227677D02*
D03*
X275197Y176575D02*
D03*
X274213Y250591D02*
D03*
X273425Y199409D02*
D03*
D87*
X234331Y181102D02*
D03*
X234252Y216535D02*
D03*
Y232283D02*
D03*
Y196850D02*
D03*
Y212598D02*
D03*
Y248032D02*
D03*
Y188976D02*
D03*
Y224409D02*
D03*
Y240157D02*
D03*
Y204724D02*
D03*
Y220472D02*
D03*
Y255906D02*
D03*
D88*
X232283Y258858D02*
D03*
X296260D02*
D03*
Y176181D02*
D03*
X232283D02*
D03*
M02*
