G04 Layer_Physical_Order=1*
G04 Layer_Color=255*
%FSAX24Y24*%
%MOIN*%
G70*
G01*
G75*
%ADD10R,0.0335X0.0354*%
%ADD11R,0.0354X0.0335*%
%ADD12R,0.3839X0.4724*%
%ADD13R,0.1378X0.0630*%
%ADD14R,0.0374X0.0374*%
%ADD15R,0.0374X0.0374*%
%ADD16R,0.0354X0.0512*%
%ADD17R,0.0512X0.0354*%
%ADD18R,0.0492X0.0689*%
%ADD19O,0.0571X0.0236*%
%ADD20O,0.0748X0.0236*%
%ADD21O,0.0630X0.0177*%
%ADD22R,0.0984X0.0512*%
%ADD23R,0.0689X0.0492*%
%ADD24R,0.0394X0.0236*%
%ADD25R,0.0394X0.0764*%
%ADD26R,0.0315X0.0394*%
%ADD27C,0.0250*%
%ADD28C,0.0200*%
%ADD29C,0.0100*%
%ADD30C,0.0120*%
%ADD31C,0.0080*%
%ADD32C,0.0500*%
G04:AMPARAMS|DCode=33|XSize=78.7mil|YSize=78.7mil|CornerRadius=19.7mil|HoleSize=0mil|Usage=FLASHONLY|Rotation=0.000|XOffset=0mil|YOffset=0mil|HoleType=Round|Shape=RoundedRectangle|*
%AMROUNDEDRECTD33*
21,1,0.0787,0.0394,0,0,0.0*
21,1,0.0394,0.0787,0,0,0.0*
1,1,0.0394,0.0197,-0.0197*
1,1,0.0394,-0.0197,-0.0197*
1,1,0.0394,-0.0197,0.0197*
1,1,0.0394,0.0197,0.0197*
%
%ADD33ROUNDEDRECTD33*%
G04:AMPARAMS|DCode=34|XSize=78.7mil|YSize=78.7mil|CornerRadius=19.7mil|HoleSize=0mil|Usage=FLASHONLY|Rotation=90.000|XOffset=0mil|YOffset=0mil|HoleType=Round|Shape=RoundedRectangle|*
%AMROUNDEDRECTD34*
21,1,0.0787,0.0394,0,0,90.0*
21,1,0.0394,0.0787,0,0,90.0*
1,1,0.0394,0.0197,0.0197*
1,1,0.0394,0.0197,-0.0197*
1,1,0.0394,-0.0197,-0.0197*
1,1,0.0394,-0.0197,0.0197*
%
%ADD34ROUNDEDRECTD34*%
%ADD35C,0.0620*%
%ADD36R,0.0620X0.0620*%
%ADD37R,0.0787X0.0787*%
%ADD38C,0.0787*%
%ADD39C,0.0472*%
%ADD40C,0.0591*%
%ADD41C,0.0450*%
%ADD42R,0.0591X0.0591*%
%ADD43R,0.0591X0.0591*%
%ADD44C,0.2756*%
%ADD45C,0.1181*%
%ADD46C,0.0180*%
G36*
X268701Y239843D02*
X268701Y238228D01*
X268531Y238058D01*
X266903D01*
X266732Y238228D01*
Y239843D01*
X266968Y240079D01*
X268465Y240079D01*
X268701Y239843D01*
D02*
G37*
G36*
X253458Y239734D02*
X253513Y239678D01*
X253540Y239613D01*
X253543Y239567D01*
Y239567D01*
X253543Y239567D01*
X253543Y239567D01*
X253543Y238386D01*
X253543Y238347D01*
X253513Y238274D01*
X253458Y238219D01*
X253395Y238193D01*
X253346Y238189D01*
Y238189D01*
X250197Y238189D01*
X250158Y238189D01*
X250085Y238219D01*
X250030Y238274D01*
X250004Y238338D01*
X250000Y238386D01*
D01*
X250000Y238433D01*
X250000Y239606D01*
X250030Y239678D01*
X250085Y239734D01*
X250158Y239764D01*
X250197D01*
X250197Y239764D01*
X253346Y239764D01*
X253386D01*
X253458Y239734D01*
D02*
G37*
G36*
X268465Y196772D02*
X268701Y196535D01*
X268701Y194921D01*
X268531Y194751D01*
X266903D01*
X266732Y194921D01*
X266732Y196535D01*
X266968Y196772D01*
X268465Y196772D01*
D02*
G37*
G36*
X253346Y196457D02*
X253386Y196457D01*
X253458Y196427D01*
X253513Y196371D01*
X253540Y196306D01*
X253543Y196260D01*
Y196260D01*
X253543Y196260D01*
X253543Y196260D01*
X253543Y195079D01*
Y195040D01*
X253513Y194967D01*
X253458Y194912D01*
X253386Y194882D01*
X253346Y194882D01*
X250197Y194882D01*
X250158D01*
X250085Y194912D01*
X250030Y194967D01*
X250000Y195040D01*
X250000Y195079D01*
X250000Y196260D01*
X250000Y196299D01*
X250030Y196371D01*
X250085Y196427D01*
X250158Y196457D01*
X250197Y196457D01*
X250197Y196457D01*
X253346Y196457D01*
D02*
G37*
G36*
X259055Y242874D02*
X259055Y242756D01*
X259291Y242520D01*
X268465Y242520D01*
X268701Y242283D01*
X268701Y240394D01*
X268465Y240157D01*
X259291Y240157D01*
X259055Y239921D01*
X259055Y236457D01*
X258819Y236220D01*
X254764Y236220D01*
X254528Y236457D01*
X254528Y242874D01*
X254764Y243110D01*
X258819Y243110D01*
X259055Y242874D01*
D02*
G37*
G36*
X237165Y242598D02*
X237402Y242362D01*
X237402Y237756D01*
X237165Y237520D01*
X232520Y237520D01*
X232283Y237756D01*
X232283Y242362D01*
X232520Y242598D01*
X237165Y242598D01*
D02*
G37*
G36*
X237402Y199252D02*
X237402Y194646D01*
X237165Y194409D01*
X232520Y194409D01*
X232283Y194646D01*
X232283Y199252D01*
X232520Y199488D01*
X237165D01*
X237402Y199252D01*
D02*
G37*
G36*
X253346Y188583D02*
X253386Y188583D01*
X253458Y188553D01*
X253513Y188497D01*
X253540Y188432D01*
X253543Y188386D01*
Y188386D01*
X253543Y188386D01*
X253543Y188386D01*
X253543Y187205D01*
X253543Y187166D01*
X253513Y187093D01*
X253458Y187038D01*
X253393Y187011D01*
X253346Y187008D01*
X253346Y187008D01*
Y187008D01*
X250197Y187008D01*
X250158Y187008D01*
X250085Y187038D01*
X250030Y187093D01*
X250000Y187166D01*
X250000Y187205D01*
X250000Y188386D01*
X250000Y188425D01*
X250030Y188497D01*
X250085Y188553D01*
X250158Y188583D01*
X250197Y188583D01*
X250197Y188583D01*
X253346Y188583D01*
D02*
G37*
G36*
X259252Y250748D02*
X259252Y250630D01*
X259488Y250394D01*
X260258Y250394D01*
X268465Y250394D01*
X268701Y250157D01*
X268701Y248268D01*
X268465Y248031D01*
X259291Y248031D01*
X259055Y247795D01*
X259055Y244331D01*
X258819Y244094D01*
X254764Y244095D01*
X254528Y244331D01*
X254528Y250787D01*
X254724Y250984D01*
X258661Y250984D01*
X259016Y250984D01*
X259252Y250748D01*
D02*
G37*
G36*
X237165Y250472D02*
X237402Y250236D01*
X237402Y245630D01*
X237165Y245394D01*
X232520Y245394D01*
X232283Y245630D01*
X232283Y250236D01*
X232520Y250472D01*
X237165Y250472D01*
D02*
G37*
G36*
X253458Y190915D02*
X253513Y190860D01*
X253540Y190794D01*
X253543Y190748D01*
Y190748D01*
X253543Y190748D01*
X253543Y190748D01*
X253543Y189567D01*
X253543Y189528D01*
X253513Y189455D01*
X253458Y189400D01*
X253393Y189373D01*
X253346Y189370D01*
X253346Y189370D01*
X253346Y189370D01*
X250197Y189370D01*
X250158Y189370D01*
X250085Y189400D01*
X250030Y189455D01*
X250000Y189528D01*
X250000Y189567D01*
X250000Y189567D01*
X250000Y190748D01*
X250000Y190787D01*
X250030Y190860D01*
X250085Y190915D01*
X250158Y190945D01*
X250197Y190945D01*
X250197Y190945D01*
X253346Y190945D01*
X253386Y190945D01*
X253458Y190915D01*
D02*
G37*
G36*
X253458Y242096D02*
X253513Y242041D01*
X253540Y241975D01*
X253543Y241929D01*
Y241929D01*
X253543Y241929D01*
X253543Y241929D01*
X253543Y240748D01*
X253543Y240709D01*
X253513Y240637D01*
X253458Y240581D01*
X253395Y240555D01*
X253346Y240551D01*
X250197Y240551D01*
X250158Y240551D01*
X250085Y240581D01*
X250030Y240637D01*
X250000Y240709D01*
X250000Y240748D01*
X250000Y240748D01*
X250000Y241929D01*
X250000Y241968D01*
X250030Y242041D01*
X250085Y242096D01*
X250158Y242126D01*
X250197Y242126D01*
X250197Y242126D01*
X253346D01*
X253386Y242126D01*
X253458Y242096D01*
D02*
G37*
G36*
X259055Y191693D02*
X259055Y191575D01*
X259291Y191339D01*
X268465Y191339D01*
X268701Y191102D01*
X268701Y189213D01*
X268465Y188976D01*
X259291Y188976D01*
X259055Y188740D01*
X259055Y185276D01*
X258819Y185039D01*
X254764Y185039D01*
X254528Y185276D01*
X254528Y191693D01*
X254764Y191929D01*
X258819Y191929D01*
X259055Y191693D01*
D02*
G37*
G36*
X259055Y199567D02*
Y199449D01*
X259291Y199213D01*
X268465Y199213D01*
X268701Y198976D01*
X268701Y197087D01*
X268465Y196850D01*
X259291Y196850D01*
X259055Y196614D01*
X259055Y193150D01*
X258819Y192913D01*
X254764D01*
X254528Y193150D01*
X254528Y199567D01*
X254764Y199803D01*
X258819Y199803D01*
X259055Y199567D01*
D02*
G37*
G36*
X253346Y204331D02*
X253386Y204331D01*
X253458Y204301D01*
X253513Y204245D01*
X253540Y204180D01*
X253543Y204134D01*
Y204134D01*
X253543Y204134D01*
X253543Y204134D01*
X253543Y202953D01*
X253543Y202914D01*
X253513Y202841D01*
X253458Y202786D01*
X253393Y202759D01*
X253346Y202756D01*
X253346Y202756D01*
X253346Y202756D01*
X250197Y202756D01*
X250158D01*
X250085Y202786D01*
X250030Y202841D01*
X250000Y202914D01*
X250000Y202953D01*
X250000Y202953D01*
X250000Y204134D01*
X250000Y204173D01*
X250030Y204245D01*
X250085Y204301D01*
X250158Y204331D01*
X250197Y204331D01*
X250197Y204331D01*
X253346Y204331D01*
D02*
G37*
G36*
X237402Y234488D02*
X237402Y229882D01*
X237165Y229646D01*
X232520Y229646D01*
X232283Y229882D01*
X232283Y234488D01*
X232520Y234724D01*
X237165Y234724D01*
X237402Y234488D01*
D02*
G37*
G36*
X268701Y204409D02*
X268701Y202795D01*
X268531Y202625D01*
X266903D01*
X266732Y202795D01*
X266732Y204409D01*
X266968Y204646D01*
X268465Y204646D01*
X268701Y204409D01*
D02*
G37*
G36*
X237165Y184646D02*
X237402Y184409D01*
X237402Y176417D01*
X237165Y176181D01*
X235236Y176181D01*
X232283Y179134D01*
X232283Y184409D01*
X232520Y184646D01*
X237165Y184646D01*
D02*
G37*
G36*
X253458Y206663D02*
X253513Y206608D01*
X253540Y206543D01*
X253543Y206496D01*
Y206496D01*
X253543Y206496D01*
X253543Y206496D01*
X253543Y205315D01*
X253543Y205276D01*
X253513Y205203D01*
X253458Y205148D01*
X253395Y205122D01*
X253346Y205118D01*
X253346Y205118D01*
X253346Y205118D01*
X250197Y205118D01*
X250158Y205118D01*
X250085Y205148D01*
X250030Y205203D01*
X250000Y205276D01*
X250000Y205315D01*
X250000Y205315D01*
X250000Y206496D01*
X250000Y206535D01*
X250030Y206608D01*
X250085Y206663D01*
X250158Y206693D01*
X250197Y206693D01*
X250197Y206693D01*
X253346Y206693D01*
X253386Y206693D01*
X253458Y206663D01*
D02*
G37*
G36*
X296260Y255906D02*
X296260Y179134D01*
X293307Y176181D01*
X275650Y176181D01*
X275562Y176210D01*
X275562Y176281D01*
Y176940D01*
X274832D01*
Y176281D01*
X274743Y176181D01*
X274448D01*
X274414Y176281D01*
X274457Y176314D01*
X274516Y176391D01*
X274553Y176479D01*
X274565Y176575D01*
X274553Y176670D01*
X274516Y176759D01*
X274457Y176835D01*
X274381Y176894D01*
X274292Y176931D01*
X274197Y176943D01*
X274101Y176931D01*
X274013Y176894D01*
X273936Y176835D01*
X273878Y176759D01*
X273873Y176748D01*
X273377D01*
Y176812D01*
X272887D01*
X272883Y176812D01*
X272787D01*
X272783Y176812D01*
X272292D01*
Y176748D01*
X271922D01*
X271632Y177038D01*
X271576Y177075D01*
X271510Y177089D01*
X271398D01*
X271392Y177093D01*
X271319Y177107D01*
X270984D01*
X270911Y177093D01*
X270849Y177051D01*
X270807Y176989D01*
X270792Y176915D01*
X270807Y176842D01*
X270849Y176780D01*
X270911Y176738D01*
X270984Y176724D01*
X271319D01*
X271392Y176738D01*
X271398Y176742D01*
X271438D01*
X271728Y176452D01*
X271784Y176415D01*
X271850Y176401D01*
X272292D01*
Y176337D01*
X272783D01*
X272787Y176337D01*
X272883D01*
X272887Y176337D01*
X273377D01*
Y176401D01*
X273873D01*
X273878Y176391D01*
X273936Y176314D01*
X273980Y176281D01*
X273946Y176181D01*
X271487Y176181D01*
X271455Y176280D01*
X271496Y176342D01*
X271511Y176415D01*
X271496Y176489D01*
X271455Y176551D01*
X271392Y176593D01*
X271319Y176607D01*
X270984D01*
X270911Y176593D01*
X270849Y176551D01*
X270807Y176489D01*
X270792Y176415D01*
X270807Y176342D01*
X270849Y176280D01*
X270816Y176181D01*
X270669D01*
X270669Y219488D01*
X272638Y219488D01*
Y220366D01*
X272738Y220388D01*
X272759Y220357D01*
X272812Y220322D01*
X272874Y220309D01*
X272936Y220322D01*
X272989Y220357D01*
X272993Y220362D01*
X273109D01*
X273113Y220357D01*
X273166Y220322D01*
X273228Y220309D01*
X273291Y220322D01*
X273344Y220357D01*
X273379Y220410D01*
X273391Y220472D01*
X273379Y220535D01*
X273344Y220588D01*
X273291Y220623D01*
X273228Y220636D01*
X273166Y220623D01*
X273113Y220588D01*
X273109Y220583D01*
X272993D01*
X272989Y220588D01*
X272936Y220623D01*
X272874Y220636D01*
X272812Y220623D01*
X272759Y220588D01*
X272738Y220557D01*
X272638Y220579D01*
X272638Y225091D01*
X272738Y225113D01*
X272759Y225082D01*
X272812Y225046D01*
X272874Y225034D01*
X272936Y225046D01*
X272989Y225082D01*
X272993Y225087D01*
X273109D01*
X273113Y225082D01*
X273166Y225046D01*
X273228Y225034D01*
X273291Y225046D01*
X273344Y225082D01*
X273379Y225134D01*
X273391Y225197D01*
X273379Y225259D01*
X273344Y225312D01*
X273291Y225348D01*
X273228Y225360D01*
X273166Y225348D01*
X273113Y225312D01*
X273109Y225307D01*
X272993D01*
X272989Y225312D01*
X272936Y225348D01*
X272874Y225360D01*
X272812Y225348D01*
X272759Y225312D01*
X272738Y225281D01*
X272638Y225303D01*
Y226378D01*
X270669Y226378D01*
X270669Y258858D01*
X293307Y258858D01*
X296260Y255906D01*
D02*
G37*
G36*
X268701Y231969D02*
X268701Y230354D01*
X268465Y230118D01*
X266968Y230118D01*
X266732Y230354D01*
X266732Y231968D01*
X266968Y232205D01*
X268465Y232205D01*
X268701Y231969D01*
D02*
G37*
G36*
X258819Y235236D02*
X259055Y235000D01*
X259055Y234882D01*
X259291Y234646D01*
X268465Y234646D01*
X268701Y234409D01*
X268701Y232520D01*
X268465Y232283D01*
X259291Y232283D01*
X259055Y232047D01*
X259055Y228583D01*
X258819Y228346D01*
X254764Y228346D01*
X254528Y228583D01*
X254528Y235000D01*
X254764Y235236D01*
X258819Y235236D01*
D02*
G37*
G36*
X253458Y234222D02*
X253513Y234167D01*
X253540Y234103D01*
X253543Y234055D01*
D01*
X253543Y234008D01*
X253543Y232874D01*
X253543Y232835D01*
X253513Y232763D01*
X253458Y232707D01*
X253395Y232681D01*
X253346Y232677D01*
Y232677D01*
X250197Y232677D01*
X250158D01*
X250085Y232707D01*
X250030Y232763D01*
X250000Y232835D01*
X250000Y232874D01*
X250000Y232874D01*
X250000Y234055D01*
X250000Y234094D01*
X250030Y234167D01*
X250085Y234222D01*
X250158Y234252D01*
X250197Y234252D01*
X250197Y234252D01*
X253346Y234252D01*
X253386D01*
X253458Y234222D01*
D02*
G37*
G36*
X253458Y198789D02*
X253513Y198734D01*
X253540Y198668D01*
X253543Y198622D01*
Y198622D01*
X253543D01*
X253543Y198622D01*
X253543Y197402D01*
X253513Y197329D01*
X253458Y197274D01*
X253393Y197247D01*
X253346Y197244D01*
X253346Y197244D01*
X253346Y197244D01*
X250197Y197244D01*
X250158Y197244D01*
X250085Y197274D01*
X250030Y197329D01*
X250000Y197402D01*
X250000Y197441D01*
X250000Y198622D01*
X250000Y198661D01*
X250030Y198734D01*
X250085Y198789D01*
X250158Y198819D01*
X250197Y198819D01*
X250197Y198819D01*
X253346Y198819D01*
X253386Y198819D01*
X253458Y198789D01*
D02*
G37*
G36*
X253386Y231890D02*
X253458Y231860D01*
X253513Y231804D01*
X253540Y231739D01*
X253543Y231693D01*
Y231693D01*
X253543Y231693D01*
X253543Y231693D01*
X253543Y230473D01*
X253513Y230400D01*
X253458Y230345D01*
X253386Y230315D01*
X253346D01*
Y230315D01*
X250197Y230315D01*
X250158Y230315D01*
X250085Y230345D01*
X250030Y230400D01*
X250000Y230473D01*
X250000Y230512D01*
X250000Y231693D01*
X250000Y231732D01*
X250030Y231804D01*
X250085Y231860D01*
X250158Y231890D01*
X250197Y231890D01*
X250197Y231890D01*
X253346Y231890D01*
X253386Y231890D01*
D02*
G37*
G36*
X237402Y206929D02*
X237402Y202520D01*
X237165Y202283D01*
X232520Y202283D01*
X232283Y202520D01*
X232283Y206929D01*
X232520Y207165D01*
X237165Y207165D01*
X237402Y206929D01*
D02*
G37*
G36*
X268465Y207677D02*
X268701Y207441D01*
X268701Y204961D01*
X268465Y204724D01*
X259291Y204724D01*
X259055Y204488D01*
X259055Y201024D01*
X258819Y200787D01*
X254764Y200787D01*
X254528Y201024D01*
X254528Y207441D01*
X254764Y207677D01*
X258858Y207677D01*
X268465Y207677D01*
D02*
G37*
G36*
X268701Y247717D02*
X268701Y246161D01*
X268484Y245945D01*
X266949Y245945D01*
X266732Y246161D01*
X266732Y247717D01*
X266968Y247953D01*
X268465D01*
X268701Y247717D01*
D02*
G37*
G36*
X268701Y258622D02*
X268701Y256181D01*
X268465Y255945D01*
X259488Y255945D01*
X259252Y255709D01*
X259252Y252205D01*
X259016Y251968D01*
X254764Y251968D01*
X254528Y252205D01*
X254528Y258622D01*
X254764Y258858D01*
X268465Y258858D01*
X268701Y258622D01*
D02*
G37*
G36*
X253346Y180709D02*
X253386Y180709D01*
X253458Y180679D01*
X253513Y180623D01*
X253540Y180559D01*
X253543Y180512D01*
Y180512D01*
X253543Y180512D01*
X253543Y180512D01*
X253543Y179331D01*
X253543Y179292D01*
X253513Y179219D01*
X253458Y179164D01*
X253386Y179134D01*
X253346Y179134D01*
Y179134D01*
X250197Y179134D01*
X250158Y179134D01*
X250085Y179164D01*
X250030Y179219D01*
X250000Y179292D01*
X250000Y179331D01*
X250000Y180512D01*
X250000Y180551D01*
X250030Y180623D01*
X250085Y180679D01*
X250158Y180709D01*
X250197Y180709D01*
X250197Y180709D01*
X253346Y180709D01*
D02*
G37*
G36*
X253458Y249970D02*
X253513Y249915D01*
X253540Y249849D01*
X253543Y249803D01*
Y249803D01*
X253543Y249803D01*
X253543Y249803D01*
X253543Y248622D01*
X253543Y248583D01*
X253513Y248511D01*
X253458Y248455D01*
X253395Y248429D01*
X253346Y248425D01*
Y248425D01*
X250197Y248425D01*
X250158Y248425D01*
X250085Y248455D01*
X250030Y248511D01*
X250004Y248574D01*
X250000Y248622D01*
D01*
X250000Y248669D01*
X250000Y249803D01*
Y249842D01*
X250030Y249915D01*
X250085Y249970D01*
X250158Y250000D01*
X250197D01*
X250197Y250000D01*
X253346Y250000D01*
X253386D01*
X253458Y249970D01*
D02*
G37*
G36*
X268701Y180787D02*
X268701Y179173D01*
X268531Y179003D01*
X266903D01*
X266732Y179173D01*
X266732Y180787D01*
X266968Y181024D01*
X268465Y181024D01*
X268701Y180787D01*
D02*
G37*
G36*
X253458Y257844D02*
X253513Y257789D01*
X253543Y257716D01*
X253543Y257677D01*
X253543D01*
X253543Y257677D01*
X253543Y256496D01*
X253543Y256457D01*
X253513Y256385D01*
X253458Y256329D01*
X253386Y256299D01*
X253346Y256299D01*
X250197Y256299D01*
X250158Y256299D01*
X250085Y256329D01*
X250030Y256385D01*
X250000Y256457D01*
X250000Y256496D01*
X250000Y256496D01*
X250000Y257677D01*
X250000Y257716D01*
X250030Y257789D01*
X250085Y257844D01*
X250158Y257874D01*
X250197Y257874D01*
X250197Y257874D01*
X253346Y257874D01*
X253386D01*
X253458Y257844D01*
D02*
G37*
G36*
X268465Y255866D02*
X268701Y255630D01*
X268701Y253976D01*
X268531Y253806D01*
X266903D01*
X266732Y253976D01*
X266732Y255630D01*
X266969Y255866D01*
X268465Y255866D01*
D02*
G37*
G36*
X237402Y258622D02*
X237402Y253504D01*
X237165Y253268D01*
X232520Y253268D01*
X232283Y253504D01*
X232283Y255906D01*
X235236Y258858D01*
X237165Y258858D01*
X237402Y258622D01*
D02*
G37*
G36*
X253458Y255482D02*
X253513Y255426D01*
X253540Y255361D01*
X253543Y255315D01*
Y255315D01*
X253543Y255315D01*
X253543Y255315D01*
X253543Y254134D01*
X253543Y254095D01*
X253513Y254022D01*
X253458Y253967D01*
X253395Y253941D01*
X253346Y253937D01*
X253346Y253937D01*
X253346Y253937D01*
X250197Y253937D01*
X250158D01*
X250085Y253967D01*
X250030Y254022D01*
X250000Y254095D01*
X250000Y254134D01*
X250000Y255315D01*
X250000Y255354D01*
X250030Y255426D01*
X250085Y255482D01*
X250158Y255512D01*
X250197Y255512D01*
X250197Y255512D01*
X253346Y255512D01*
X253386Y255512D01*
X253458Y255482D01*
D02*
G37*
G36*
X259055Y183819D02*
X259055Y183701D01*
X259291Y183465D01*
X268465Y183465D01*
X268701Y183228D01*
X268701Y181339D01*
X268465Y181102D01*
X259291Y181102D01*
X259055Y180866D01*
X259055Y176417D01*
X258819Y176181D01*
X254764Y176181D01*
X254528Y176417D01*
X254528Y183819D01*
X254764Y184055D01*
X258819Y184055D01*
X259055Y183819D01*
D02*
G37*
G36*
X253458Y183041D02*
X253513Y182986D01*
X253540Y182920D01*
X253543Y182874D01*
Y182874D01*
X253543Y182874D01*
X253543Y182874D01*
X253543Y181693D01*
X253543Y181654D01*
X253513Y181581D01*
X253458Y181526D01*
X253395Y181500D01*
X253346Y181496D01*
X253346Y181496D01*
X253346Y181496D01*
X250197Y181496D01*
X250158Y181496D01*
X250085Y181526D01*
X250030Y181581D01*
X250000Y181654D01*
X250000Y181693D01*
X250000Y182874D01*
X250000Y182913D01*
X250030Y182986D01*
X250085Y183041D01*
X250158Y183071D01*
X250197Y183071D01*
X250197Y183071D01*
X253346Y183071D01*
X253386Y183071D01*
X253458Y183041D01*
D02*
G37*
G36*
X242913Y191378D02*
X242913Y185866D01*
X242677Y185630D01*
X238819Y185630D01*
X238583Y185866D01*
X238583Y191378D01*
X238819Y191614D01*
X242677Y191614D01*
X242913Y191378D01*
D02*
G37*
G36*
X253458Y247608D02*
X253513Y247552D01*
X253540Y247487D01*
X253543Y247441D01*
Y247441D01*
X253543D01*
X253543Y247441D01*
X253543Y246260D01*
X253543Y246221D01*
X253513Y246148D01*
X253458Y246093D01*
X253386Y246063D01*
X253346Y246063D01*
X250197Y246063D01*
X250158Y246063D01*
X250085Y246093D01*
X250030Y246148D01*
X250000Y246221D01*
Y246260D01*
X250000Y247441D01*
X250000Y247480D01*
X250030Y247552D01*
X250085Y247608D01*
X250158Y247638D01*
X250197Y247638D01*
X250197Y247638D01*
X253346Y247638D01*
X253386Y247638D01*
X253458Y247608D01*
D02*
G37*
G36*
X237402Y191378D02*
X237402Y185866D01*
X237165Y185630D01*
X232520Y185630D01*
X232283Y185866D01*
X232283Y191378D01*
X232520Y191614D01*
X237165Y191614D01*
X237402Y191378D01*
D02*
G37*
G36*
X268701Y188661D02*
X268701Y187047D01*
X268531Y186877D01*
X266903D01*
X266732Y187047D01*
X266732Y188661D01*
X266968Y188898D01*
X268465Y188898D01*
X268701Y188661D01*
D02*
G37*
%LPC*%
G36*
X287697Y214609D02*
X287601Y214596D01*
X287513Y214559D01*
X287436Y214501D01*
X287378Y214424D01*
X287341Y214336D01*
X287328Y214240D01*
X287341Y214145D01*
X287378Y214056D01*
X287436Y213980D01*
X287513Y213921D01*
X287601Y213884D01*
X287697Y213872D01*
X287792Y213884D01*
X287881Y213921D01*
X287957Y213980D01*
X288016Y214056D01*
X288053Y214145D01*
X288065Y214240D01*
X288053Y214336D01*
X288016Y214424D01*
X287957Y214501D01*
X287881Y214559D01*
X287792Y214596D01*
X287697Y214609D01*
D02*
G37*
G36*
X288062Y216605D02*
X287332D01*
Y215875D01*
X288062D01*
Y216605D01*
D02*
G37*
G36*
X273279Y203859D02*
X272647D01*
Y203648D01*
X272284D01*
X272278Y203652D01*
X272205Y203666D01*
X271693D01*
X271620Y203652D01*
X271557Y203610D01*
X271516Y203548D01*
X271501Y203474D01*
X271516Y203401D01*
X271557Y203339D01*
X271620Y203297D01*
X271693Y203283D01*
X272205D01*
X272278Y203297D01*
X272284Y203301D01*
X272647D01*
Y203030D01*
X272789D01*
Y202845D01*
X272779Y202795D01*
X272793Y202729D01*
X272830Y202673D01*
X272886Y202635D01*
X272953Y202622D01*
X273019Y202635D01*
X273075Y202673D01*
X273085Y202683D01*
X273123Y202739D01*
X273136Y202805D01*
Y203030D01*
X273279D01*
Y203859D01*
D02*
G37*
G36*
X272205Y203166D02*
X271693D01*
X271620Y203152D01*
X271557Y203110D01*
X271516Y203048D01*
X271501Y202974D01*
X271516Y202901D01*
X271557Y202839D01*
X271620Y202797D01*
X271693Y202783D01*
X272205D01*
X272278Y202797D01*
X272340Y202839D01*
X272382Y202901D01*
X272397Y202974D01*
X272382Y203048D01*
X272340Y203110D01*
X272278Y203152D01*
X272205Y203166D01*
D02*
G37*
G36*
Y180544D02*
X271693D01*
X271620Y180530D01*
X271557Y180488D01*
X271516Y180426D01*
X271501Y180352D01*
X271516Y180279D01*
X271557Y180217D01*
X271620Y180175D01*
X271693Y180161D01*
X272205D01*
X272278Y180175D01*
X272340Y180217D01*
X272382Y180279D01*
X272397Y180352D01*
X272382Y180426D01*
X272340Y180488D01*
X272278Y180530D01*
X272205Y180544D01*
D02*
G37*
G36*
X293346Y216368D02*
X293247Y216355D01*
X293155Y216317D01*
X293075Y216256D01*
X293015Y216177D01*
X292976Y216084D01*
X292963Y215985D01*
X292976Y215886D01*
X293015Y215794D01*
X293075Y215714D01*
X293155Y215653D01*
X293247Y215615D01*
X293346Y215602D01*
X293446Y215615D01*
X293538Y215653D01*
X293617Y215714D01*
X293678Y215794D01*
X293717Y215886D01*
X293730Y215985D01*
X293717Y216084D01*
X293678Y216177D01*
X293617Y216256D01*
X293538Y216317D01*
X293446Y216355D01*
X293346Y216368D01*
D02*
G37*
G36*
X271319Y201729D02*
X270984D01*
X270911Y201715D01*
X270849Y201673D01*
X270807Y201611D01*
X270792Y201537D01*
X270807Y201464D01*
X270849Y201402D01*
X270911Y201360D01*
X270984Y201346D01*
X271319D01*
X271392Y201360D01*
X271455Y201402D01*
X271496Y201464D01*
X271511Y201537D01*
X271496Y201611D01*
X271455Y201673D01*
X271392Y201715D01*
X271319Y201729D01*
D02*
G37*
G36*
X272629Y201763D02*
X272095D01*
Y201748D01*
X272047D01*
X271981Y201735D01*
X271925Y201697D01*
X271438Y201211D01*
X271398D01*
X271392Y201215D01*
X271319Y201229D01*
X270984D01*
X270911Y201215D01*
X270849Y201173D01*
X270807Y201111D01*
X270792Y201037D01*
X270807Y200964D01*
X270849Y200902D01*
X270911Y200860D01*
X270984Y200846D01*
X271319D01*
X271392Y200860D01*
X271398Y200864D01*
X271510D01*
X271576Y200877D01*
X271632Y200915D01*
X272104Y201387D01*
X272629D01*
Y201763D01*
D02*
G37*
G36*
X273819Y181568D02*
X273425D01*
X273356Y181559D01*
X273291Y181532D01*
X273235Y181490D01*
X273192Y181434D01*
X273165Y181369D01*
X273156Y181299D01*
Y180985D01*
X272342D01*
X272340Y180988D01*
X272278Y181030D01*
X272205Y181044D01*
X271693D01*
X271620Y181030D01*
X271557Y180988D01*
X271516Y180926D01*
X271501Y180852D01*
X271516Y180779D01*
X271557Y180717D01*
X271620Y180675D01*
X271693Y180661D01*
X272205D01*
X272278Y180675D01*
X272340Y180717D01*
X272342Y180720D01*
X273231D01*
X273235Y180715D01*
X273291Y180672D01*
X273356Y180646D01*
X273425Y180636D01*
X273819D01*
X273889Y180646D01*
X273953Y180672D01*
X274009Y180715D01*
X274052Y180771D01*
X274079Y180836D01*
X274088Y180906D01*
Y181299D01*
X274079Y181369D01*
X274052Y181434D01*
X274009Y181490D01*
X273953Y181532D01*
X273889Y181559D01*
X273819Y181568D01*
D02*
G37*
G36*
X273574Y201389D02*
X273040D01*
Y201013D01*
X273574D01*
Y201059D01*
X275879D01*
X275922Y201030D01*
X275984Y201018D01*
X276047Y201030D01*
X276100Y201066D01*
X276135Y201119D01*
X276147Y201181D01*
X276135Y201244D01*
X276100Y201296D01*
X276047Y201332D01*
X275984Y201344D01*
X275922Y201332D01*
X275879Y201303D01*
X273574D01*
Y201389D01*
D02*
G37*
G36*
X295472Y216131D02*
X295373Y216118D01*
X295281Y216080D01*
X295201Y216019D01*
X295141Y215940D01*
X295102Y215847D01*
X295089Y215748D01*
X295102Y215649D01*
X295141Y215556D01*
X295201Y215477D01*
X295281Y215416D01*
X295373Y215378D01*
X295472Y215365D01*
X295572Y215378D01*
X295664Y215416D01*
X295743Y215477D01*
X295804Y215556D01*
X295843Y215649D01*
X295856Y215748D01*
X295843Y215847D01*
X295804Y215940D01*
X295743Y216019D01*
X295664Y216080D01*
X295572Y216118D01*
X295472Y216131D01*
D02*
G37*
G36*
X289961Y206765D02*
X289567D01*
X289497Y206756D01*
X289432Y206729D01*
X289377Y206686D01*
X289334Y206631D01*
X289307Y206566D01*
X289298Y206496D01*
Y206102D01*
X289307Y206033D01*
X289334Y205968D01*
X289377Y205912D01*
X289432Y205869D01*
X289497Y205842D01*
X289567Y205833D01*
X289961D01*
X290030Y205842D01*
X290095Y205869D01*
X290151Y205912D01*
X290194Y205968D01*
X290221Y206033D01*
X290230Y206102D01*
Y206496D01*
X290221Y206566D01*
X290194Y206631D01*
X290151Y206686D01*
X290095Y206729D01*
X290030Y206756D01*
X289961Y206765D01*
D02*
G37*
G36*
X272205Y205666D02*
X271693D01*
X271620Y205652D01*
X271557Y205610D01*
X271516Y205548D01*
X271501Y205474D01*
X271516Y205401D01*
X271557Y205339D01*
X271620Y205297D01*
X271693Y205283D01*
X272205D01*
X272278Y205297D01*
X272340Y205339D01*
X272382Y205401D01*
X272397Y205474D01*
X272382Y205548D01*
X272340Y205610D01*
X272278Y205652D01*
X272205Y205666D01*
D02*
G37*
G36*
Y179544D02*
X271693D01*
X271620Y179530D01*
X271557Y179488D01*
X271516Y179426D01*
X271501Y179352D01*
X271516Y179279D01*
X271557Y179217D01*
X271620Y179175D01*
X271693Y179161D01*
X272205D01*
X272278Y179175D01*
X272340Y179217D01*
X272382Y179279D01*
X272397Y179352D01*
X272382Y179426D01*
X272340Y179488D01*
X272278Y179530D01*
X272205Y179544D01*
D02*
G37*
G36*
Y206666D02*
X271693D01*
X271620Y206652D01*
X271557Y206610D01*
X271516Y206548D01*
X271501Y206474D01*
X271516Y206401D01*
X271557Y206339D01*
X271620Y206297D01*
X271693Y206283D01*
X272205D01*
X272278Y206297D01*
X272340Y206339D01*
X272382Y206401D01*
X272397Y206474D01*
X272382Y206548D01*
X272340Y206610D01*
X272278Y206652D01*
X272205Y206666D01*
D02*
G37*
G36*
X279528Y208825D02*
X279465Y208812D01*
X279412Y208777D01*
X279377Y208724D01*
X279364Y208661D01*
X279377Y208599D01*
X279412Y208546D01*
X279465Y208511D01*
X279528Y208498D01*
X279590Y208511D01*
X279643Y208546D01*
X279678Y208599D01*
X279691Y208661D01*
X279678Y208724D01*
X279643Y208777D01*
X279590Y208812D01*
X279528Y208825D01*
D02*
G37*
G36*
X289961Y208734D02*
X289567D01*
X289497Y208725D01*
X289432Y208698D01*
X289377Y208655D01*
X289334Y208599D01*
X289307Y208534D01*
X289298Y208465D01*
Y208071D01*
X289307Y208001D01*
X289334Y207936D01*
X289377Y207881D01*
X289432Y207838D01*
X289497Y207811D01*
X289567Y207802D01*
X289961D01*
X290030Y207811D01*
X290095Y207838D01*
X290151Y207881D01*
X290194Y207936D01*
X290221Y208001D01*
X290230Y208071D01*
Y208465D01*
X290221Y208534D01*
X290194Y208599D01*
X290151Y208655D01*
X290095Y208698D01*
X290030Y208725D01*
X289961Y208734D01*
D02*
G37*
G36*
X295472Y209911D02*
X295373Y209898D01*
X295281Y209859D01*
X295201Y209799D01*
X295141Y209719D01*
X295110Y209644D01*
X292334D01*
Y209877D01*
X291603D01*
Y209147D01*
X292334D01*
Y209379D01*
X295123D01*
X295141Y209336D01*
X295201Y209257D01*
X295281Y209196D01*
X295373Y209157D01*
X295472Y209144D01*
X295572Y209157D01*
X295664Y209196D01*
X295743Y209257D01*
X295804Y209336D01*
X295843Y209428D01*
X295856Y209528D01*
X295843Y209627D01*
X295804Y209719D01*
X295743Y209799D01*
X295664Y209859D01*
X295572Y209898D01*
X295472Y209911D01*
D02*
G37*
G36*
X273819Y205190D02*
X273425D01*
X273356Y205181D01*
X273291Y205154D01*
X273235Y205112D01*
X273192Y205056D01*
X273165Y204991D01*
X273156Y204921D01*
Y204607D01*
X272342D01*
X272340Y204610D01*
X272278Y204652D01*
X272205Y204666D01*
X271693D01*
X271620Y204652D01*
X271557Y204610D01*
X271516Y204548D01*
X271501Y204474D01*
X271516Y204401D01*
X271557Y204339D01*
X271620Y204297D01*
X271693Y204283D01*
X272205D01*
X272278Y204297D01*
X272340Y204339D01*
X272342Y204342D01*
X273231D01*
X273235Y204337D01*
X273291Y204294D01*
X273356Y204268D01*
X273425Y204258D01*
X273819D01*
X273889Y204268D01*
X273953Y204294D01*
X274009Y204337D01*
X274052Y204393D01*
X274079Y204458D01*
X274088Y204528D01*
Y204921D01*
X274079Y204991D01*
X274052Y205056D01*
X274009Y205112D01*
X273953Y205154D01*
X273889Y205181D01*
X273819Y205190D01*
D02*
G37*
G36*
X273279Y180237D02*
X272647D01*
Y180026D01*
X272284D01*
X272278Y180030D01*
X272205Y180044D01*
X271693D01*
X271620Y180030D01*
X271557Y179988D01*
X271516Y179926D01*
X271501Y179852D01*
X271516Y179779D01*
X271557Y179717D01*
X271620Y179675D01*
X271693Y179661D01*
X272205D01*
X272278Y179675D01*
X272284Y179679D01*
X272647D01*
Y179408D01*
X272789D01*
Y179262D01*
X272779Y179213D01*
X272793Y179146D01*
X272830Y179090D01*
X272886Y179052D01*
X272953Y179039D01*
X273019Y179052D01*
X273075Y179090D01*
X273085Y179100D01*
X273123Y179156D01*
X273136Y179222D01*
Y179408D01*
X273279D01*
Y180237D01*
D02*
G37*
G36*
X272205Y204166D02*
X271693D01*
X271620Y204152D01*
X271557Y204110D01*
X271516Y204048D01*
X271501Y203974D01*
X271516Y203901D01*
X271557Y203839D01*
X271620Y203797D01*
X271693Y203783D01*
X272205D01*
X272278Y203797D01*
X272340Y203839D01*
X272382Y203901D01*
X272397Y203974D01*
X272382Y204048D01*
X272340Y204110D01*
X272278Y204152D01*
X272205Y204166D01*
D02*
G37*
G36*
Y205166D02*
X271693D01*
X271620Y205152D01*
X271557Y205110D01*
X271516Y205048D01*
X271501Y204974D01*
X271516Y204901D01*
X271557Y204839D01*
X271620Y204797D01*
X271693Y204783D01*
X272205D01*
X272278Y204797D01*
X272340Y204839D01*
X272382Y204901D01*
X272397Y204974D01*
X272382Y205048D01*
X272340Y205110D01*
X272278Y205152D01*
X272205Y205166D01*
D02*
G37*
G36*
X291576Y213808D02*
X291477Y213795D01*
X291385Y213757D01*
X291305Y213696D01*
X291245Y213617D01*
X291206Y213524D01*
X291193Y213425D01*
X291206Y213326D01*
X291245Y213234D01*
X291305Y213154D01*
X291385Y213093D01*
X291444Y213069D01*
Y210904D01*
X291454Y210853D01*
X291483Y210810D01*
X291634Y210659D01*
X291613Y210607D01*
X291600Y210512D01*
X291613Y210416D01*
X291649Y210328D01*
X291708Y210251D01*
X291784Y210193D01*
X291873Y210156D01*
X291968Y210143D01*
X292064Y210156D01*
X292153Y210193D01*
X292229Y210251D01*
X292288Y210328D01*
X292324Y210416D01*
X292337Y210512D01*
X292324Y210607D01*
X292288Y210696D01*
X292229Y210772D01*
X292153Y210831D01*
X292064Y210868D01*
X291968Y210880D01*
X291873Y210868D01*
X291821Y210846D01*
X291709Y210959D01*
Y213069D01*
X291768Y213093D01*
X291847Y213154D01*
X291908Y213234D01*
X291947Y213326D01*
X291960Y213425D01*
X291947Y213524D01*
X291908Y213617D01*
X291847Y213696D01*
X291768Y213757D01*
X291676Y213795D01*
X291576Y213808D01*
D02*
G37*
G36*
X295011Y205562D02*
X294280D01*
Y204832D01*
X295011D01*
Y205562D01*
D02*
G37*
G36*
X295852Y207908D02*
X295092D01*
Y207148D01*
X295513D01*
Y205537D01*
X295461Y205516D01*
X295385Y205457D01*
X295327Y205381D01*
X295290Y205292D01*
X295277Y205197D01*
X295290Y205101D01*
X295327Y205013D01*
X295385Y204936D01*
X295461Y204878D01*
X295550Y204841D01*
X295646Y204828D01*
X295741Y204841D01*
X295830Y204878D01*
X295906Y204936D01*
X295965Y205013D01*
X296002Y205101D01*
X296014Y205197D01*
X296002Y205292D01*
X295965Y205381D01*
X295906Y205457D01*
X295830Y205516D01*
X295778Y205537D01*
Y207148D01*
X295852D01*
Y207908D01*
D02*
G37*
G36*
X274594Y191704D02*
X273863D01*
Y190973D01*
X274594D01*
Y191704D01*
D02*
G37*
G36*
X271319Y192855D02*
X270984D01*
X270911Y192841D01*
X270849Y192799D01*
X270807Y192737D01*
X270792Y192663D01*
X270807Y192590D01*
X270849Y192528D01*
X270911Y192486D01*
X270984Y192472D01*
X271319D01*
X271392Y192486D01*
X271398Y192490D01*
X272127D01*
X272292Y192325D01*
Y192086D01*
X272783D01*
X272787Y192086D01*
X272883D01*
X272887Y192086D01*
X273055D01*
Y191662D01*
X273044Y191658D01*
X272968Y191599D01*
X272909Y191523D01*
X272872Y191434D01*
X272860Y191339D01*
X272872Y191243D01*
X272909Y191154D01*
X272968Y191078D01*
X273044Y191020D01*
X273133Y190983D01*
X273228Y190970D01*
X273324Y190983D01*
X273413Y191020D01*
X273489Y191078D01*
X273547Y191154D01*
X273584Y191243D01*
X273597Y191339D01*
X273584Y191434D01*
X273547Y191523D01*
X273489Y191599D01*
X273413Y191658D01*
X273402Y191662D01*
Y192224D01*
X273402Y192224D01*
X273388Y192291D01*
X273377Y192308D01*
Y192560D01*
X272887D01*
X272883Y192560D01*
X272787D01*
X272783Y192560D01*
X272547D01*
X272321Y192786D01*
X272265Y192824D01*
X272199Y192837D01*
X271398D01*
X271392Y192841D01*
X271319Y192855D01*
D02*
G37*
G36*
X272205Y190918D02*
X271693D01*
X271620Y190904D01*
X271557Y190862D01*
X271516Y190800D01*
X271501Y190726D01*
X271516Y190653D01*
X271557Y190591D01*
X271620Y190549D01*
X271693Y190535D01*
X272205D01*
X272278Y190549D01*
X272340Y190591D01*
X272382Y190653D01*
X272397Y190726D01*
X272382Y190800D01*
X272340Y190862D01*
X272278Y190904D01*
X272205Y190918D01*
D02*
G37*
G36*
X271319Y192355D02*
X270984D01*
X270911Y192341D01*
X270849Y192299D01*
X270807Y192237D01*
X270792Y192163D01*
X270807Y192090D01*
X270849Y192028D01*
X270911Y191986D01*
X270984Y191972D01*
X271319D01*
X271392Y191986D01*
X271455Y192028D01*
X271496Y192090D01*
X271511Y192163D01*
X271496Y192237D01*
X271455Y192299D01*
X271392Y192341D01*
X271319Y192355D01*
D02*
G37*
G36*
Y193855D02*
X270984D01*
X270911Y193841D01*
X270849Y193799D01*
X270807Y193737D01*
X270792Y193663D01*
X270807Y193590D01*
X270849Y193528D01*
X270911Y193486D01*
X270984Y193472D01*
X271319D01*
X271392Y193486D01*
X271455Y193528D01*
X271496Y193590D01*
X271511Y193663D01*
X271496Y193737D01*
X271455Y193799D01*
X271392Y193841D01*
X271319Y193855D01*
D02*
G37*
G36*
X272629Y193692D02*
X272095D01*
Y193677D01*
X271850D01*
X271784Y193664D01*
X271728Y193626D01*
X271438Y193337D01*
X271398D01*
X271392Y193341D01*
X271319Y193355D01*
X270984D01*
X270911Y193341D01*
X270849Y193299D01*
X270807Y193237D01*
X270792Y193163D01*
X270807Y193090D01*
X270849Y193028D01*
X270911Y192986D01*
X270984Y192972D01*
X271319D01*
X271392Y192986D01*
X271398Y192990D01*
X271510D01*
X271576Y193003D01*
X271632Y193041D01*
X271922Y193331D01*
X272095D01*
Y193316D01*
X272629D01*
Y193692D01*
D02*
G37*
G36*
X275551Y194533D02*
X275489Y194521D01*
X275436Y194485D01*
X275400Y194433D01*
X275388Y194370D01*
X275400Y194308D01*
X275429Y194265D01*
Y193751D01*
X274930Y193252D01*
X273574D01*
Y193318D01*
X273040D01*
Y192942D01*
X273574D01*
Y193008D01*
X274980D01*
X275027Y193017D01*
X275067Y193043D01*
X275638Y193614D01*
X275664Y193654D01*
X275674Y193701D01*
Y194265D01*
X275702Y194308D01*
X275714Y194370D01*
X275702Y194433D01*
X275667Y194485D01*
X275614Y194521D01*
X275551Y194533D01*
D02*
G37*
G36*
X272205Y189918D02*
X271693D01*
X271620Y189904D01*
X271557Y189862D01*
X271516Y189800D01*
X271501Y189726D01*
X271516Y189653D01*
X271557Y189591D01*
X271620Y189549D01*
X271693Y189535D01*
X272205D01*
X272278Y189549D01*
X272340Y189591D01*
X272382Y189653D01*
X272397Y189726D01*
X272382Y189800D01*
X272340Y189862D01*
X272278Y189904D01*
X272205Y189918D01*
D02*
G37*
G36*
Y188418D02*
X271693D01*
X271620Y188404D01*
X271557Y188362D01*
X271516Y188300D01*
X271501Y188226D01*
X271516Y188153D01*
X271557Y188091D01*
X271620Y188049D01*
X271693Y188035D01*
X272205D01*
X272278Y188049D01*
X272340Y188091D01*
X272382Y188153D01*
X272397Y188226D01*
X272382Y188300D01*
X272340Y188362D01*
X272278Y188404D01*
X272205Y188418D01*
D02*
G37*
G36*
X273279Y188111D02*
X272647D01*
Y187900D01*
X272284D01*
X272278Y187904D01*
X272205Y187918D01*
X271693D01*
X271620Y187904D01*
X271557Y187862D01*
X271516Y187800D01*
X271501Y187726D01*
X271516Y187653D01*
X271557Y187591D01*
X271620Y187549D01*
X271693Y187535D01*
X272205D01*
X272278Y187549D01*
X272284Y187553D01*
X272647D01*
Y187282D01*
X272789D01*
Y187037D01*
X272802Y186971D01*
X272840Y186915D01*
X272870Y186885D01*
X272926Y186848D01*
X272992Y186835D01*
X273058Y186848D01*
X273115Y186885D01*
X273152Y186942D01*
X273165Y187008D01*
X273152Y187074D01*
X273136Y187099D01*
Y187282D01*
X273279D01*
Y188111D01*
D02*
G37*
G36*
X272205Y187418D02*
X271693D01*
X271620Y187404D01*
X271557Y187362D01*
X271516Y187300D01*
X271501Y187226D01*
X271516Y187153D01*
X271557Y187091D01*
X271620Y187049D01*
X271693Y187035D01*
X272205D01*
X272278Y187049D01*
X272340Y187091D01*
X272382Y187153D01*
X272397Y187226D01*
X272382Y187300D01*
X272340Y187362D01*
X272278Y187404D01*
X272205Y187418D01*
D02*
G37*
G36*
X273819Y189442D02*
X273425D01*
X273356Y189433D01*
X273291Y189406D01*
X273235Y189364D01*
X273192Y189308D01*
X273165Y189243D01*
X273156Y189173D01*
Y188859D01*
X272342D01*
X272340Y188862D01*
X272278Y188904D01*
X272205Y188918D01*
X271693D01*
X271620Y188904D01*
X271557Y188862D01*
X271516Y188800D01*
X271501Y188726D01*
X271516Y188653D01*
X271557Y188591D01*
X271620Y188549D01*
X271693Y188535D01*
X272205D01*
X272278Y188549D01*
X272340Y188591D01*
X272342Y188594D01*
X273231D01*
X273235Y188589D01*
X273291Y188546D01*
X273356Y188520D01*
X273425Y188510D01*
X273819D01*
X273889Y188520D01*
X273953Y188546D01*
X274009Y188589D01*
X274052Y188645D01*
X274079Y188710D01*
X274088Y188780D01*
Y189173D01*
X274079Y189243D01*
X274052Y189308D01*
X274009Y189364D01*
X273953Y189406D01*
X273889Y189433D01*
X273819Y189442D01*
D02*
G37*
G36*
X272629Y185818D02*
X272095D01*
Y185803D01*
X271850D01*
X271784Y185790D01*
X271728Y185752D01*
X271438Y185463D01*
X271398D01*
X271392Y185467D01*
X271319Y185481D01*
X270984D01*
X270911Y185467D01*
X270849Y185425D01*
X270807Y185363D01*
X270792Y185289D01*
X270807Y185216D01*
X270849Y185154D01*
X270911Y185112D01*
X270984Y185098D01*
X271319D01*
X271392Y185112D01*
X271398Y185116D01*
X271510D01*
X271576Y185129D01*
X271632Y185167D01*
X271922Y185457D01*
X272095D01*
Y185442D01*
X272629D01*
Y185818D01*
D02*
G37*
G36*
X272205Y189418D02*
X271693D01*
X271620Y189404D01*
X271557Y189362D01*
X271516Y189300D01*
X271501Y189226D01*
X271516Y189153D01*
X271557Y189091D01*
X271620Y189049D01*
X271693Y189035D01*
X272205D01*
X272278Y189049D01*
X272340Y189091D01*
X272382Y189153D01*
X272397Y189226D01*
X272382Y189300D01*
X272340Y189362D01*
X272278Y189404D01*
X272205Y189418D01*
D02*
G37*
G36*
X271319Y185981D02*
X270984D01*
X270911Y185967D01*
X270849Y185925D01*
X270807Y185863D01*
X270792Y185789D01*
X270807Y185716D01*
X270849Y185654D01*
X270911Y185612D01*
X270984Y185598D01*
X271319D01*
X271392Y185612D01*
X271455Y185654D01*
X271496Y185716D01*
X271511Y185789D01*
X271496Y185863D01*
X271455Y185925D01*
X271392Y185967D01*
X271319Y185981D01*
D02*
G37*
G36*
X275787Y186108D02*
X275725Y186096D01*
X275672Y186060D01*
X275637Y186007D01*
X275627Y185957D01*
X275028Y185359D01*
X273574D01*
Y185444D01*
X273040D01*
Y185068D01*
X273574D01*
Y185114D01*
X275079D01*
X275126Y185123D01*
X275165Y185150D01*
X275800Y185784D01*
X275850Y185794D01*
X275903Y185830D01*
X275938Y185882D01*
X275951Y185945D01*
X275938Y186007D01*
X275903Y186060D01*
X275850Y186096D01*
X275787Y186108D01*
D02*
G37*
G36*
X272205Y181544D02*
X271693D01*
X271620Y181530D01*
X271557Y181488D01*
X271516Y181426D01*
X271501Y181352D01*
X271516Y181279D01*
X271557Y181217D01*
X271620Y181175D01*
X271693Y181161D01*
X272205D01*
X272278Y181175D01*
X272340Y181217D01*
X272382Y181279D01*
X272397Y181352D01*
X272382Y181426D01*
X272340Y181488D01*
X272278Y181530D01*
X272205Y181544D01*
D02*
G37*
G36*
Y197292D02*
X271693D01*
X271620Y197278D01*
X271557Y197236D01*
X271516Y197174D01*
X271501Y197100D01*
X271516Y197027D01*
X271557Y196965D01*
X271620Y196923D01*
X271693Y196909D01*
X272205D01*
X272278Y196923D01*
X272340Y196965D01*
X272382Y197027D01*
X272397Y197100D01*
X272382Y197174D01*
X272340Y197236D01*
X272278Y197278D01*
X272205Y197292D01*
D02*
G37*
G36*
Y182044D02*
X271693D01*
X271620Y182030D01*
X271557Y181988D01*
X271516Y181926D01*
X271501Y181852D01*
X271516Y181779D01*
X271557Y181717D01*
X271620Y181675D01*
X271693Y181661D01*
X272205D01*
X272278Y181675D01*
X272340Y181717D01*
X272382Y181779D01*
X272397Y181852D01*
X272382Y181926D01*
X272340Y181988D01*
X272278Y182030D01*
X272205Y182044D01*
D02*
G37*
G36*
Y197792D02*
X271693D01*
X271620Y197778D01*
X271557Y197736D01*
X271516Y197674D01*
X271501Y197600D01*
X271516Y197527D01*
X271557Y197465D01*
X271620Y197423D01*
X271693Y197409D01*
X272205D01*
X272278Y197423D01*
X272340Y197465D01*
X272382Y197527D01*
X272397Y197600D01*
X272382Y197674D01*
X272340Y197736D01*
X272278Y197778D01*
X272205Y197792D01*
D02*
G37*
G36*
X271319Y200229D02*
X270984D01*
X270911Y200215D01*
X270849Y200173D01*
X270807Y200111D01*
X270792Y200037D01*
X270807Y199964D01*
X270849Y199902D01*
X270911Y199860D01*
X270984Y199846D01*
X271319D01*
X271392Y199860D01*
X271455Y199902D01*
X271496Y199964D01*
X271511Y200037D01*
X271496Y200111D01*
X271455Y200173D01*
X271392Y200215D01*
X271319Y200229D01*
D02*
G37*
G36*
Y200729D02*
X270984D01*
X270911Y200715D01*
X270849Y200673D01*
X270807Y200611D01*
X270792Y200537D01*
X270807Y200464D01*
X270849Y200402D01*
X270911Y200360D01*
X270984Y200346D01*
X271319D01*
X271392Y200360D01*
X271398Y200364D01*
X271438D01*
X271531Y200271D01*
X271587Y200234D01*
X271654Y200220D01*
X272292D01*
Y200156D01*
X272783D01*
X272787Y200156D01*
X272845D01*
X272886Y200058D01*
X272572Y199744D01*
X272521Y199765D01*
X272425Y199778D01*
X272330Y199765D01*
X272241Y199729D01*
X272165Y199670D01*
X272106Y199594D01*
X272069Y199505D01*
X272057Y199409D01*
X272069Y199314D01*
X272106Y199225D01*
X272165Y199149D01*
X272241Y199090D01*
X272330Y199054D01*
X272425Y199041D01*
X272521Y199054D01*
X272609Y199090D01*
X272686Y199149D01*
X272744Y199225D01*
X272781Y199314D01*
X272794Y199409D01*
X272781Y199505D01*
X272760Y199556D01*
X272960Y199757D01*
X273060Y199715D01*
X273060Y199703D01*
X273060Y199703D01*
X273060Y199699D01*
Y199044D01*
X273790D01*
Y199775D01*
X273135Y199775D01*
X273131D01*
X273131D01*
X273119Y199775D01*
X273111Y199795D01*
X273078Y199875D01*
X273224Y200020D01*
X273252Y200063D01*
X273262Y200114D01*
Y200156D01*
X273377D01*
Y200631D01*
X272887D01*
X272883Y200631D01*
X272787D01*
X272783Y200631D01*
X272292D01*
Y200567D01*
X271725D01*
X271632Y200660D01*
X271576Y200698D01*
X271510Y200711D01*
X271398D01*
X271392Y200715D01*
X271319Y200729D01*
D02*
G37*
G36*
X272205Y198792D02*
X271693D01*
X271620Y198778D01*
X271557Y198736D01*
X271516Y198674D01*
X271501Y198600D01*
X271516Y198527D01*
X271557Y198465D01*
X271620Y198423D01*
X271693Y198409D01*
X272205D01*
X272278Y198423D01*
X272340Y198465D01*
X272382Y198527D01*
X272397Y198600D01*
X272382Y198674D01*
X272340Y198736D01*
X272278Y198778D01*
X272205Y198792D01*
D02*
G37*
G36*
X273819Y197316D02*
X273425D01*
X273356Y197307D01*
X273291Y197280D01*
X273235Y197238D01*
X273192Y197182D01*
X273165Y197117D01*
X273156Y197047D01*
Y196733D01*
X272342D01*
X272340Y196736D01*
X272278Y196778D01*
X272205Y196792D01*
X271693D01*
X271620Y196778D01*
X271557Y196736D01*
X271516Y196674D01*
X271501Y196600D01*
X271516Y196527D01*
X271557Y196465D01*
X271620Y196423D01*
X271693Y196409D01*
X272205D01*
X272278Y196423D01*
X272340Y196465D01*
X272342Y196468D01*
X273231D01*
X273235Y196463D01*
X273291Y196420D01*
X273356Y196394D01*
X273425Y196384D01*
X273819D01*
X273889Y196394D01*
X273953Y196420D01*
X274009Y196463D01*
X274052Y196519D01*
X274079Y196584D01*
X274088Y196654D01*
Y197047D01*
X274079Y197117D01*
X274052Y197182D01*
X274009Y197238D01*
X273953Y197280D01*
X273889Y197307D01*
X273819Y197316D01*
D02*
G37*
G36*
X271319Y184981D02*
X270984D01*
X270911Y184967D01*
X270849Y184925D01*
X270807Y184863D01*
X270792Y184789D01*
X270807Y184716D01*
X270849Y184654D01*
X270911Y184612D01*
X270984Y184598D01*
X271319D01*
X271392Y184612D01*
X271398Y184616D01*
X271438D01*
X271728Y184326D01*
X271784Y184289D01*
X271850Y184275D01*
X272292D01*
Y184212D01*
X272783D01*
X272787Y184211D01*
X272883D01*
X272887Y184212D01*
X273094D01*
Y183788D01*
X273083Y183784D01*
X273007Y183725D01*
X272949Y183649D01*
X272912Y183560D01*
X272899Y183465D01*
X272912Y183369D01*
X272949Y183280D01*
X273007Y183204D01*
X273083Y183146D01*
X273172Y183109D01*
X273268Y183096D01*
X273363Y183109D01*
X273452Y183146D01*
X273528Y183204D01*
X273587Y183280D01*
X273624Y183369D01*
X273636Y183465D01*
X273624Y183560D01*
X273587Y183649D01*
X273528Y183725D01*
X273452Y183784D01*
X273441Y183788D01*
Y184311D01*
X273441Y184311D01*
X273428Y184377D01*
X273390Y184434D01*
X273377Y184447D01*
Y184686D01*
X272887D01*
X272883Y184686D01*
X272787D01*
X272783Y184686D01*
X272292D01*
Y184622D01*
X271922D01*
X271632Y184912D01*
X271576Y184950D01*
X271510Y184963D01*
X271398D01*
X271392Y184967D01*
X271319Y184981D01*
D02*
G37*
G36*
X274633Y183830D02*
X273902D01*
Y183099D01*
X274633D01*
Y183830D01*
D02*
G37*
G36*
X271319Y184481D02*
X270984D01*
X270911Y184467D01*
X270849Y184425D01*
X270807Y184363D01*
X270792Y184289D01*
X270807Y184216D01*
X270849Y184154D01*
X270911Y184112D01*
X270984Y184098D01*
X271319D01*
X271392Y184112D01*
X271455Y184154D01*
X271496Y184216D01*
X271511Y184289D01*
X271496Y184363D01*
X271455Y184425D01*
X271392Y184467D01*
X271319Y184481D01*
D02*
G37*
G36*
X272205Y195292D02*
X271693D01*
X271620Y195278D01*
X271557Y195236D01*
X271516Y195174D01*
X271501Y195100D01*
X271516Y195027D01*
X271557Y194965D01*
X271620Y194923D01*
X271693Y194909D01*
X272205D01*
X272278Y194923D01*
X272340Y194965D01*
X272382Y195027D01*
X272397Y195100D01*
X272382Y195174D01*
X272340Y195236D01*
X272278Y195278D01*
X272205Y195292D01*
D02*
G37*
G36*
Y183044D02*
X271693D01*
X271620Y183030D01*
X271557Y182988D01*
X271516Y182926D01*
X271501Y182852D01*
X271516Y182779D01*
X271557Y182717D01*
X271620Y182675D01*
X271693Y182661D01*
X272205D01*
X272278Y182675D01*
X272340Y182717D01*
X272382Y182779D01*
X272397Y182852D01*
X272382Y182926D01*
X272340Y182988D01*
X272278Y183030D01*
X272205Y183044D01*
D02*
G37*
G36*
Y196292D02*
X271693D01*
X271620Y196278D01*
X271557Y196236D01*
X271516Y196174D01*
X271501Y196100D01*
X271516Y196027D01*
X271557Y195965D01*
X271620Y195923D01*
X271693Y195909D01*
X272205D01*
X272278Y195923D01*
X272340Y195965D01*
X272382Y196027D01*
X272397Y196100D01*
X272382Y196174D01*
X272340Y196236D01*
X272278Y196278D01*
X272205Y196292D01*
D02*
G37*
G36*
X273279Y195985D02*
X272647D01*
Y195774D01*
X272284D01*
X272278Y195778D01*
X272205Y195792D01*
X271693D01*
X271620Y195778D01*
X271557Y195736D01*
X271516Y195674D01*
X271501Y195600D01*
X271516Y195527D01*
X271557Y195465D01*
X271620Y195423D01*
X271693Y195409D01*
X272205D01*
X272278Y195423D01*
X272284Y195427D01*
X272647D01*
Y195156D01*
X272789D01*
Y195049D01*
X272779Y195000D01*
X272793Y194934D01*
X272830Y194877D01*
X272886Y194840D01*
X272953Y194827D01*
X273019Y194840D01*
X273075Y194877D01*
X273085Y194887D01*
X273123Y194944D01*
X273136Y195010D01*
Y195156D01*
X273279D01*
Y195985D01*
D02*
G37*
G36*
X280079Y216699D02*
X280016Y216686D01*
X279963Y216651D01*
X279928Y216598D01*
X279916Y216535D01*
X279928Y216473D01*
X279963Y216420D01*
X280016Y216385D01*
X280079Y216372D01*
X280141Y216385D01*
X280194Y216420D01*
X280229Y216473D01*
X280242Y216535D01*
X280229Y216598D01*
X280194Y216651D01*
X280141Y216686D01*
X280079Y216699D01*
D02*
G37*
G36*
X271319Y244036D02*
X270984D01*
X270911Y244022D01*
X270849Y243980D01*
X270807Y243918D01*
X270792Y243844D01*
X270807Y243771D01*
X270849Y243709D01*
X270911Y243667D01*
X270984Y243653D01*
X271319D01*
X271392Y243667D01*
X271398Y243671D01*
X271635D01*
X271925Y243381D01*
X271981Y243344D01*
X272047Y243331D01*
X272292D01*
Y243267D01*
X272783D01*
X272787Y243267D01*
X272883D01*
X272887Y243267D01*
X273055D01*
Y242843D01*
X273044Y242839D01*
X272968Y242780D01*
X272909Y242704D01*
X272872Y242615D01*
X272860Y242520D01*
X272872Y242424D01*
X272909Y242335D01*
X272968Y242259D01*
X273044Y242201D01*
X273133Y242164D01*
X273228Y242151D01*
X273324Y242164D01*
X273413Y242201D01*
X273489Y242259D01*
X273547Y242335D01*
X273584Y242424D01*
X273597Y242520D01*
X273584Y242615D01*
X273547Y242704D01*
X273489Y242780D01*
X273413Y242839D01*
X273402Y242843D01*
Y243406D01*
X273402Y243406D01*
X273388Y243472D01*
X273377Y243489D01*
Y243741D01*
X272887D01*
X272883Y243741D01*
X272787D01*
X272783Y243741D01*
X272292D01*
Y243677D01*
X272119D01*
X271829Y243967D01*
X271773Y244005D01*
X271707Y244018D01*
X271398D01*
X271392Y244022D01*
X271319Y244036D01*
D02*
G37*
G36*
X274594Y242885D02*
X273863D01*
Y242154D01*
X274594D01*
Y242885D01*
D02*
G37*
G36*
X272205Y241099D02*
X271693D01*
X271620Y241085D01*
X271557Y241043D01*
X271516Y240981D01*
X271501Y240907D01*
X271516Y240834D01*
X271557Y240772D01*
X271620Y240730D01*
X271693Y240716D01*
X272205D01*
X272278Y240730D01*
X272340Y240772D01*
X272382Y240834D01*
X272397Y240907D01*
X272382Y240981D01*
X272340Y241043D01*
X272278Y241085D01*
X272205Y241099D01*
D02*
G37*
G36*
Y242099D02*
X271693D01*
X271620Y242085D01*
X271557Y242043D01*
X271516Y241981D01*
X271501Y241907D01*
X271516Y241834D01*
X271557Y241772D01*
X271620Y241730D01*
X271693Y241716D01*
X272205D01*
X272278Y241730D01*
X272340Y241772D01*
X272382Y241834D01*
X272397Y241907D01*
X272382Y241981D01*
X272340Y242043D01*
X272278Y242085D01*
X272205Y242099D01*
D02*
G37*
G36*
X271319Y243536D02*
X270984D01*
X270911Y243522D01*
X270849Y243480D01*
X270807Y243418D01*
X270792Y243344D01*
X270807Y243271D01*
X270849Y243209D01*
X270911Y243167D01*
X270984Y243153D01*
X271319D01*
X271392Y243167D01*
X271455Y243209D01*
X271496Y243271D01*
X271511Y243344D01*
X271496Y243418D01*
X271455Y243480D01*
X271392Y243522D01*
X271319Y243536D01*
D02*
G37*
G36*
Y245036D02*
X270984D01*
X270911Y245022D01*
X270849Y244980D01*
X270807Y244918D01*
X270792Y244844D01*
X270807Y244771D01*
X270849Y244709D01*
X270911Y244667D01*
X270984Y244653D01*
X271319D01*
X271392Y244667D01*
X271455Y244709D01*
X271496Y244771D01*
X271511Y244844D01*
X271496Y244918D01*
X271455Y244980D01*
X271392Y245022D01*
X271319Y245036D01*
D02*
G37*
G36*
X272205Y246473D02*
X271693D01*
X271620Y246459D01*
X271557Y246417D01*
X271516Y246355D01*
X271501Y246282D01*
X271516Y246208D01*
X271557Y246146D01*
X271620Y246104D01*
X271693Y246090D01*
X272205D01*
X272278Y246104D01*
X272340Y246146D01*
X272382Y246208D01*
X272397Y246282D01*
X272382Y246355D01*
X272340Y246417D01*
X272278Y246459D01*
X272205Y246473D01*
D02*
G37*
G36*
X273574Y244499D02*
X273040D01*
Y244123D01*
X273574D01*
Y244169D01*
X277100D01*
X277142Y244141D01*
X277205Y244128D01*
X277267Y244141D01*
X277320Y244176D01*
X277355Y244229D01*
X277368Y244291D01*
X277355Y244354D01*
X277320Y244407D01*
X277267Y244442D01*
X277205Y244454D01*
X277142Y244442D01*
X277100Y244414D01*
X273574D01*
Y244499D01*
D02*
G37*
G36*
X272629Y244873D02*
X272095D01*
Y244858D01*
X271850D01*
X271784Y244845D01*
X271728Y244808D01*
X271438Y244518D01*
X271398D01*
X271392Y244522D01*
X271319Y244536D01*
X270984D01*
X270911Y244522D01*
X270849Y244480D01*
X270807Y244418D01*
X270792Y244344D01*
X270807Y244271D01*
X270849Y244209D01*
X270911Y244167D01*
X270984Y244153D01*
X271319D01*
X271392Y244167D01*
X271398Y244171D01*
X271510D01*
X271576Y244184D01*
X271632Y244222D01*
X271922Y244512D01*
X272095D01*
Y244497D01*
X272629D01*
Y244873D01*
D02*
G37*
G36*
X272205Y240599D02*
X271693D01*
X271620Y240585D01*
X271557Y240543D01*
X271516Y240481D01*
X271501Y240407D01*
X271516Y240334D01*
X271557Y240272D01*
X271620Y240230D01*
X271693Y240216D01*
X272205D01*
X272278Y240230D01*
X272340Y240272D01*
X272382Y240334D01*
X272397Y240407D01*
X272382Y240481D01*
X272340Y240543D01*
X272278Y240585D01*
X272205Y240599D01*
D02*
G37*
G36*
X273279Y239292D02*
X272647D01*
Y239081D01*
X272284D01*
X272278Y239085D01*
X272205Y239099D01*
X271693D01*
X271620Y239085D01*
X271557Y239043D01*
X271516Y238981D01*
X271501Y238907D01*
X271516Y238834D01*
X271557Y238772D01*
X271620Y238730D01*
X271693Y238716D01*
X272205D01*
X272278Y238730D01*
X272284Y238734D01*
X272647D01*
Y238463D01*
X272789D01*
Y238357D01*
X272779Y238307D01*
X272793Y238241D01*
X272830Y238185D01*
X272886Y238147D01*
X272953Y238134D01*
X273019Y238147D01*
X273075Y238185D01*
X273085Y238194D01*
X273123Y238251D01*
X273136Y238317D01*
Y238463D01*
X273279D01*
Y239292D01*
D02*
G37*
G36*
X295768Y239935D02*
X295672Y239923D01*
X295583Y239886D01*
X295507Y239827D01*
X295449Y239751D01*
X295412Y239662D01*
X295399Y239567D01*
X295412Y239472D01*
X295449Y239383D01*
X295507Y239306D01*
X295583Y239248D01*
X295672Y239211D01*
X295768Y239198D01*
X295863Y239211D01*
X295952Y239248D01*
X296028Y239306D01*
X296087Y239383D01*
X296124Y239472D01*
X296136Y239567D01*
X296124Y239662D01*
X296087Y239751D01*
X296028Y239827D01*
X295952Y239886D01*
X295863Y239923D01*
X295768Y239935D01*
D02*
G37*
G36*
Y238935D02*
X295672Y238923D01*
X295583Y238886D01*
X295507Y238827D01*
X295449Y238751D01*
X295412Y238662D01*
X295399Y238567D01*
X295412Y238472D01*
X295449Y238383D01*
X295507Y238306D01*
X295583Y238248D01*
X295672Y238211D01*
X295768Y238199D01*
X295863Y238211D01*
X295952Y238248D01*
X296028Y238306D01*
X296087Y238383D01*
X296124Y238472D01*
X296136Y238567D01*
X296124Y238662D01*
X296087Y238751D01*
X296028Y238827D01*
X295952Y238886D01*
X295863Y238923D01*
X295768Y238935D01*
D02*
G37*
G36*
X272205Y238599D02*
X271693D01*
X271620Y238585D01*
X271557Y238543D01*
X271516Y238481D01*
X271501Y238407D01*
X271516Y238334D01*
X271557Y238272D01*
X271620Y238230D01*
X271693Y238216D01*
X272205D01*
X272278Y238230D01*
X272340Y238272D01*
X272382Y238334D01*
X272397Y238407D01*
X272382Y238481D01*
X272340Y238543D01*
X272278Y238585D01*
X272205Y238599D01*
D02*
G37*
G36*
Y239599D02*
X271693D01*
X271620Y239585D01*
X271557Y239543D01*
X271516Y239481D01*
X271501Y239407D01*
X271516Y239334D01*
X271557Y239272D01*
X271620Y239230D01*
X271693Y239216D01*
X272205D01*
X272278Y239230D01*
X272340Y239272D01*
X272382Y239334D01*
X272397Y239407D01*
X272382Y239481D01*
X272340Y239543D01*
X272278Y239585D01*
X272205Y239599D01*
D02*
G37*
G36*
X273819Y240623D02*
X273425D01*
X273356Y240614D01*
X273291Y240587D01*
X273235Y240545D01*
X273192Y240489D01*
X273165Y240424D01*
X273156Y240354D01*
Y240040D01*
X272342D01*
X272340Y240043D01*
X272278Y240085D01*
X272205Y240099D01*
X271693D01*
X271620Y240085D01*
X271557Y240043D01*
X271516Y239981D01*
X271501Y239907D01*
X271516Y239834D01*
X271557Y239772D01*
X271620Y239730D01*
X271693Y239716D01*
X272205D01*
X272278Y239730D01*
X272340Y239772D01*
X272342Y239775D01*
X273231D01*
X273235Y239770D01*
X273291Y239728D01*
X273356Y239701D01*
X273425Y239691D01*
X273819D01*
X273889Y239701D01*
X273953Y239728D01*
X274009Y239770D01*
X274052Y239826D01*
X274079Y239891D01*
X274088Y239961D01*
Y240354D01*
X274079Y240424D01*
X274052Y240489D01*
X274009Y240545D01*
X273953Y240587D01*
X273889Y240614D01*
X273819Y240623D01*
D02*
G37*
G36*
X295768Y240935D02*
X295672Y240923D01*
X295583Y240886D01*
X295507Y240827D01*
X295449Y240751D01*
X295412Y240662D01*
X295399Y240567D01*
X295412Y240472D01*
X295437Y240410D01*
X294599Y239571D01*
X294572Y239531D01*
X294563Y239484D01*
Y238018D01*
X294534Y237976D01*
X294522Y237913D01*
X294534Y237851D01*
X294570Y237798D01*
X294623Y237763D01*
X294685Y237750D01*
X294747Y237763D01*
X294800Y237798D01*
X294836Y237851D01*
X294848Y237913D01*
X294836Y237976D01*
X294807Y238018D01*
Y239434D01*
X295611Y240237D01*
X295672Y240211D01*
X295768Y240198D01*
X295863Y240211D01*
X295952Y240248D01*
X296028Y240306D01*
X296087Y240383D01*
X296124Y240472D01*
X296136Y240567D01*
X296124Y240662D01*
X296087Y240751D01*
X296028Y240827D01*
X295952Y240886D01*
X295863Y240923D01*
X295768Y240935D01*
D02*
G37*
G36*
X281693Y244560D02*
X281299D01*
X281230Y244551D01*
X281165Y244524D01*
X281109Y244482D01*
X281066Y244426D01*
X281039Y244361D01*
X281030Y244291D01*
Y243898D01*
X281039Y243828D01*
X281066Y243763D01*
X281109Y243707D01*
X281165Y243665D01*
X281230Y243638D01*
X281297Y243629D01*
Y241881D01*
X281259D01*
Y241390D01*
X281259Y241387D01*
Y241290D01*
X281259Y241287D01*
Y240796D01*
X281297D01*
Y240306D01*
X281259D01*
Y239812D01*
X281733D01*
Y240306D01*
X281695D01*
Y240796D01*
X281733D01*
Y241287D01*
X281733Y241290D01*
Y241387D01*
X281733Y241390D01*
Y241881D01*
X281695D01*
Y243629D01*
X281763Y243638D01*
X281827Y243665D01*
X281883Y243707D01*
X281926Y243763D01*
X281953Y243828D01*
X281962Y243898D01*
Y244291D01*
X281953Y244361D01*
X281926Y244426D01*
X281883Y244482D01*
X281827Y244524D01*
X281763Y244551D01*
X281693Y244560D01*
D02*
G37*
G36*
X291142D02*
X290748D01*
X290678Y244551D01*
X290613Y244524D01*
X290558Y244482D01*
X290515Y244426D01*
X290488Y244361D01*
X290479Y244291D01*
Y243898D01*
X290488Y243828D01*
X290515Y243763D01*
X290558Y243707D01*
X290613Y243665D01*
X290678Y243638D01*
X290746Y243629D01*
Y241881D01*
X290708D01*
Y241390D01*
X290708Y241387D01*
Y241290D01*
X290708Y241287D01*
Y240796D01*
X290746D01*
Y240306D01*
X290708D01*
Y239812D01*
X291182D01*
Y240306D01*
X291144D01*
Y240796D01*
X291182D01*
Y241287D01*
X291182Y241290D01*
Y241387D01*
X291182Y241390D01*
Y241881D01*
X291144D01*
Y243629D01*
X291211Y243638D01*
X291276Y243665D01*
X291332Y243707D01*
X291375Y243763D01*
X291402Y243828D01*
X291411Y243898D01*
Y244291D01*
X291402Y244361D01*
X291375Y244426D01*
X291332Y244482D01*
X291276Y244524D01*
X291211Y244551D01*
X291142Y244560D01*
D02*
G37*
G36*
X272205Y254347D02*
X271693D01*
X271620Y254333D01*
X271557Y254291D01*
X271516Y254229D01*
X271501Y254156D01*
X271516Y254082D01*
X271557Y254020D01*
X271620Y253978D01*
X271693Y253964D01*
X272205D01*
X272278Y253978D01*
X272340Y254020D01*
X272382Y254082D01*
X272397Y254156D01*
X272382Y254229D01*
X272340Y254291D01*
X272278Y254333D01*
X272205Y254347D01*
D02*
G37*
G36*
X273279Y255040D02*
X272647D01*
Y254829D01*
X272284D01*
X272278Y254833D01*
X272205Y254847D01*
X271693D01*
X271620Y254833D01*
X271557Y254791D01*
X271516Y254729D01*
X271501Y254656D01*
X271516Y254582D01*
X271557Y254520D01*
X271620Y254478D01*
X271693Y254464D01*
X272205D01*
X272278Y254478D01*
X272284Y254482D01*
X272647D01*
Y254212D01*
X272789D01*
Y253967D01*
X272802Y253900D01*
X272840Y253844D01*
X272870Y253814D01*
X272926Y253777D01*
X272992Y253764D01*
X273058Y253777D01*
X273115Y253814D01*
X273152Y253871D01*
X273165Y253937D01*
X273152Y254003D01*
X273136Y254028D01*
Y254212D01*
X273279D01*
Y255040D01*
D02*
G37*
G36*
X272629Y252747D02*
X272095D01*
Y252732D01*
X271850D01*
X271784Y252719D01*
X271728Y252682D01*
X271438Y252392D01*
X271398D01*
X271392Y252396D01*
X271319Y252410D01*
X270984D01*
X270911Y252396D01*
X270849Y252354D01*
X270807Y252292D01*
X270792Y252218D01*
X270807Y252145D01*
X270849Y252083D01*
X270911Y252041D01*
X270984Y252027D01*
X271319D01*
X271392Y252041D01*
X271398Y252045D01*
X271510D01*
X271576Y252058D01*
X271632Y252096D01*
X271922Y252386D01*
X272095D01*
Y252371D01*
X272629D01*
Y252747D01*
D02*
G37*
G36*
X271319Y252910D02*
X270984D01*
X270911Y252896D01*
X270849Y252854D01*
X270807Y252792D01*
X270792Y252719D01*
X270807Y252645D01*
X270849Y252583D01*
X270911Y252541D01*
X270984Y252527D01*
X271319D01*
X271392Y252541D01*
X271455Y252583D01*
X271496Y252645D01*
X271511Y252719D01*
X271496Y252792D01*
X271455Y252854D01*
X271392Y252896D01*
X271319Y252910D01*
D02*
G37*
G36*
X272205Y255347D02*
X271693D01*
X271620Y255333D01*
X271557Y255291D01*
X271516Y255229D01*
X271501Y255156D01*
X271516Y255082D01*
X271557Y255020D01*
X271620Y254978D01*
X271693Y254964D01*
X272205D01*
X272278Y254978D01*
X272340Y255020D01*
X272382Y255082D01*
X272397Y255156D01*
X272382Y255229D01*
X272340Y255291D01*
X272278Y255333D01*
X272205Y255347D01*
D02*
G37*
G36*
Y256847D02*
X271693D01*
X271620Y256833D01*
X271557Y256791D01*
X271516Y256729D01*
X271501Y256656D01*
X271516Y256582D01*
X271557Y256520D01*
X271620Y256478D01*
X271693Y256464D01*
X272205D01*
X272278Y256478D01*
X272340Y256520D01*
X272382Y256582D01*
X272397Y256656D01*
X272382Y256729D01*
X272340Y256791D01*
X272278Y256833D01*
X272205Y256847D01*
D02*
G37*
G36*
Y257847D02*
X271693D01*
X271620Y257833D01*
X271557Y257791D01*
X271516Y257729D01*
X271501Y257656D01*
X271516Y257582D01*
X271557Y257520D01*
X271620Y257478D01*
X271693Y257464D01*
X272205D01*
X272278Y257478D01*
X272340Y257520D01*
X272382Y257582D01*
X272397Y257656D01*
X272382Y257729D01*
X272340Y257791D01*
X272278Y257833D01*
X272205Y257847D01*
D02*
G37*
G36*
X273819Y256372D02*
X273425D01*
X273356Y256362D01*
X273291Y256335D01*
X273235Y256293D01*
X273192Y256237D01*
X273165Y256172D01*
X273156Y256102D01*
Y255788D01*
X272342D01*
X272340Y255791D01*
X272278Y255833D01*
X272205Y255847D01*
X271693D01*
X271620Y255833D01*
X271557Y255791D01*
X271516Y255729D01*
X271501Y255656D01*
X271516Y255582D01*
X271557Y255520D01*
X271620Y255478D01*
X271693Y255464D01*
X272205D01*
X272278Y255478D01*
X272340Y255520D01*
X272342Y255523D01*
X273231D01*
X273235Y255518D01*
X273291Y255476D01*
X273356Y255449D01*
X273425Y255440D01*
X273819D01*
X273889Y255449D01*
X273953Y255476D01*
X274009Y255518D01*
X274052Y255574D01*
X274079Y255639D01*
X274088Y255709D01*
Y256102D01*
X274079Y256172D01*
X274052Y256237D01*
X274009Y256293D01*
X273953Y256335D01*
X273889Y256362D01*
X273819Y256372D01*
D02*
G37*
G36*
X272205Y256347D02*
X271693D01*
X271620Y256333D01*
X271557Y256291D01*
X271516Y256229D01*
X271501Y256156D01*
X271516Y256082D01*
X271557Y256020D01*
X271620Y255978D01*
X271693Y255964D01*
X272205D01*
X272278Y255978D01*
X272340Y256020D01*
X272382Y256082D01*
X272397Y256156D01*
X272382Y256229D01*
X272340Y256291D01*
X272278Y256333D01*
X272205Y256347D01*
D02*
G37*
G36*
X273574Y252373D02*
X273040D01*
Y251997D01*
X273574D01*
Y252052D01*
X276851D01*
X276853Y252050D01*
X276906Y252015D01*
X276968Y252002D01*
X277031Y252015D01*
X277084Y252050D01*
X277119Y252103D01*
X277132Y252165D01*
X277119Y252228D01*
X277084Y252281D01*
X277031Y252316D01*
X276968Y252328D01*
X276914Y252318D01*
X273574D01*
Y252373D01*
D02*
G37*
G36*
X273819Y248498D02*
X273425D01*
X273356Y248488D01*
X273291Y248461D01*
X273235Y248419D01*
X273192Y248363D01*
X273165Y248298D01*
X273156Y248228D01*
Y247914D01*
X272342D01*
X272340Y247917D01*
X272278Y247959D01*
X272205Y247973D01*
X271693D01*
X271620Y247959D01*
X271557Y247917D01*
X271516Y247855D01*
X271501Y247782D01*
X271516Y247708D01*
X271557Y247646D01*
X271620Y247604D01*
X271693Y247590D01*
X272205D01*
X272278Y247604D01*
X272340Y247646D01*
X272342Y247649D01*
X273231D01*
X273235Y247644D01*
X273291Y247602D01*
X273356Y247575D01*
X273425Y247565D01*
X273819D01*
X273889Y247575D01*
X273953Y247602D01*
X274009Y247644D01*
X274052Y247700D01*
X274079Y247765D01*
X274088Y247835D01*
Y248228D01*
X274079Y248298D01*
X274052Y248363D01*
X274009Y248419D01*
X273953Y248461D01*
X273889Y248488D01*
X273819Y248498D01*
D02*
G37*
G36*
X272205Y248473D02*
X271693D01*
X271620Y248459D01*
X271557Y248417D01*
X271516Y248355D01*
X271501Y248281D01*
X271516Y248208D01*
X271557Y248146D01*
X271620Y248104D01*
X271693Y248090D01*
X272205D01*
X272278Y248104D01*
X272340Y248146D01*
X272382Y248208D01*
X272397Y248281D01*
X272382Y248355D01*
X272340Y248417D01*
X272278Y248459D01*
X272205Y248473D01*
D02*
G37*
G36*
X273279Y247166D02*
X272647D01*
Y246955D01*
X272284D01*
X272278Y246959D01*
X272205Y246973D01*
X271693D01*
X271620Y246959D01*
X271557Y246917D01*
X271516Y246855D01*
X271501Y246782D01*
X271516Y246708D01*
X271557Y246646D01*
X271620Y246604D01*
X271693Y246590D01*
X272205D01*
X272278Y246604D01*
X272284Y246608D01*
X272647D01*
Y246337D01*
X272789D01*
Y246211D01*
X272802Y246144D01*
X272840Y246088D01*
X272870Y246059D01*
X272926Y246021D01*
X272992Y246008D01*
X273058Y246021D01*
X273115Y246059D01*
X273152Y246115D01*
X273165Y246181D01*
X273154Y246237D01*
X273158Y246257D01*
X273204Y246337D01*
X273279D01*
Y247166D01*
D02*
G37*
G36*
X272205Y247473D02*
X271693D01*
X271620Y247459D01*
X271557Y247417D01*
X271516Y247355D01*
X271501Y247281D01*
X271516Y247208D01*
X271557Y247146D01*
X271620Y247104D01*
X271693Y247090D01*
X272205D01*
X272278Y247104D01*
X272340Y247146D01*
X272382Y247208D01*
X272397Y247281D01*
X272382Y247355D01*
X272340Y247417D01*
X272278Y247459D01*
X272205Y247473D01*
D02*
G37*
G36*
Y248973D02*
X271693D01*
X271620Y248959D01*
X271557Y248917D01*
X271516Y248855D01*
X271501Y248782D01*
X271516Y248708D01*
X271557Y248646D01*
X271620Y248604D01*
X271693Y248590D01*
X272205D01*
X272278Y248604D01*
X272340Y248646D01*
X272382Y248708D01*
X272397Y248782D01*
X272382Y248855D01*
X272340Y248917D01*
X272278Y248959D01*
X272205Y248973D01*
D02*
G37*
G36*
X274578Y250956D02*
X273847D01*
Y250225D01*
X274578D01*
Y250956D01*
D02*
G37*
G36*
X271319Y251410D02*
X270984D01*
X270911Y251396D01*
X270849Y251354D01*
X270807Y251292D01*
X270792Y251218D01*
X270807Y251145D01*
X270849Y251083D01*
X270911Y251041D01*
X270984Y251027D01*
X271319D01*
X271392Y251041D01*
X271455Y251083D01*
X271496Y251145D01*
X271511Y251218D01*
X271496Y251292D01*
X271455Y251354D01*
X271392Y251396D01*
X271319Y251410D01*
D02*
G37*
G36*
X272205Y249973D02*
X271693D01*
X271620Y249959D01*
X271557Y249917D01*
X271516Y249855D01*
X271501Y249781D01*
X271516Y249708D01*
X271557Y249646D01*
X271620Y249604D01*
X271693Y249590D01*
X272205D01*
X272278Y249604D01*
X272340Y249646D01*
X272382Y249708D01*
X272397Y249781D01*
X272382Y249855D01*
X272340Y249917D01*
X272278Y249959D01*
X272205Y249973D01*
D02*
G37*
G36*
X271319Y251910D02*
X270984D01*
X270911Y251896D01*
X270849Y251854D01*
X270807Y251792D01*
X270792Y251719D01*
X270807Y251645D01*
X270849Y251583D01*
X270911Y251541D01*
X270984Y251527D01*
X271319D01*
X271392Y251541D01*
X271398Y251545D01*
X271635D01*
X271728Y251452D01*
X271784Y251415D01*
X271850Y251401D01*
X272095D01*
Y251337D01*
X272586D01*
X272590Y251337D01*
X272686D01*
X272690Y251337D01*
X272925D01*
X273039Y251223D01*
Y250914D01*
X273028Y250910D01*
X272952Y250851D01*
X272894Y250775D01*
X272857Y250686D01*
X272844Y250591D01*
X272857Y250495D01*
X272894Y250406D01*
X272952Y250330D01*
X273028Y250271D01*
X273117Y250235D01*
X273213Y250222D01*
X273308Y250235D01*
X273397Y250271D01*
X273473Y250330D01*
X273532Y250406D01*
X273568Y250495D01*
X273581Y250591D01*
X273568Y250686D01*
X273532Y250775D01*
X273473Y250851D01*
X273397Y250910D01*
X273386Y250914D01*
Y251295D01*
X273373Y251362D01*
X273335Y251418D01*
X273180Y251573D01*
Y251812D01*
X272690D01*
X272686Y251812D01*
X272590D01*
X272586Y251812D01*
X272095D01*
Y251748D01*
X271922D01*
X271829Y251841D01*
X271773Y251879D01*
X271707Y251892D01*
X271398D01*
X271392Y251896D01*
X271319Y251910D01*
D02*
G37*
G36*
X274213Y225360D02*
X274150Y225348D01*
X274097Y225312D01*
X274069Y225270D01*
X274016Y225264D01*
X273962Y225270D01*
X273934Y225312D01*
X273881Y225348D01*
X273819Y225360D01*
X273756Y225348D01*
X273704Y225312D01*
X273668Y225259D01*
X273656Y225197D01*
X273668Y225134D01*
X273704Y225082D01*
X273756Y225046D01*
X273819Y225034D01*
X273881Y225046D01*
X273934Y225082D01*
X273962Y225123D01*
X274016Y225129D01*
X274069Y225123D01*
X274097Y225082D01*
X274150Y225046D01*
X274213Y225034D01*
X274275Y225046D01*
X274328Y225082D01*
X274363Y225134D01*
X274376Y225197D01*
X274363Y225259D01*
X274328Y225312D01*
X274275Y225348D01*
X274213Y225360D01*
D02*
G37*
G36*
X295768Y226109D02*
X295672Y226096D01*
X295583Y226059D01*
X295507Y226001D01*
X295449Y225924D01*
X295412Y225836D01*
X295399Y225740D01*
X295412Y225645D01*
X295449Y225556D01*
X295507Y225480D01*
X295583Y225421D01*
X295672Y225384D01*
X295768Y225372D01*
X295863Y225384D01*
X295952Y225421D01*
X296028Y225480D01*
X296087Y225556D01*
X296124Y225645D01*
X296136Y225740D01*
X296124Y225836D01*
X296087Y225924D01*
X296028Y226001D01*
X295952Y226059D01*
X295863Y226096D01*
X295768Y226109D01*
D02*
G37*
G36*
X296133Y225105D02*
X295402D01*
Y224375D01*
X296133D01*
Y225105D01*
D02*
G37*
G36*
X284989Y225040D02*
X284893D01*
X284889Y225040D01*
X284398D01*
Y224925D01*
X284164D01*
Y225040D01*
X283710D01*
X283710Y224584D01*
Y224583D01*
Y224583D01*
X283710Y224572D01*
X283610Y224518D01*
X283606Y224521D01*
X283543Y224533D01*
X283481Y224521D01*
X283428Y224485D01*
X283393Y224433D01*
X283380Y224370D01*
X283393Y224308D01*
X283428Y224255D01*
X283441Y224246D01*
Y224115D01*
X283336D01*
Y223794D01*
X283188Y223646D01*
X282737D01*
Y223781D01*
X282737D01*
Y223857D01*
X282737D01*
Y224371D01*
X282603D01*
Y224764D01*
X282599Y224780D01*
X282604Y224803D01*
X282592Y224866D01*
X282556Y224918D01*
X282503Y224954D01*
X282441Y224966D01*
X282379Y224954D01*
X282326Y224918D01*
X282290Y224866D01*
X282278Y224803D01*
X282290Y224741D01*
X282326Y224688D01*
X282358Y224666D01*
Y224371D01*
X282223D01*
Y224371D01*
X282138Y224345D01*
X282059Y224407D01*
Y224803D01*
X282044Y224879D01*
X282001Y224944D01*
X281936Y224987D01*
X281860Y225002D01*
X281784Y224987D01*
X281720Y224944D01*
X281677Y224879D01*
X281661Y224803D01*
Y224233D01*
X281544D01*
Y223784D01*
X281454Y223694D01*
X281411Y223629D01*
X281396Y223553D01*
Y223288D01*
X281337D01*
Y222774D01*
X281570D01*
X281640Y222688D01*
X281623Y222629D01*
X281623D01*
Y222253D01*
Y221815D01*
X281535D01*
X281519Y221812D01*
X281496Y221817D01*
X281434Y221804D01*
X281381Y221769D01*
X281345Y221716D01*
X281333Y221654D01*
X281345Y221591D01*
X281381Y221538D01*
X281434Y221503D01*
X281496Y221490D01*
X281526Y221496D01*
X281623Y221505D01*
X281623Y221505D01*
X281623Y221505D01*
X282157D01*
Y221945D01*
X282205D01*
X282252Y221954D01*
X282291Y221980D01*
X282556Y222246D01*
X282656Y222233D01*
X282672Y222233D01*
X283190D01*
Y222259D01*
X283290Y222299D01*
X283304Y222290D01*
X283366Y222278D01*
X283429Y222290D01*
X283482Y222326D01*
X283517Y222379D01*
X283529Y222441D01*
X283517Y222503D01*
X283482Y222556D01*
X283429Y222592D01*
X283366Y222604D01*
X283304Y222592D01*
X283290Y222583D01*
X283190Y222609D01*
Y222609D01*
X282703D01*
X282656Y222609D01*
X282603Y222687D01*
Y223267D01*
X282737D01*
Y223401D01*
X283238D01*
X283285Y223411D01*
X283325Y223437D01*
X283469Y223582D01*
X283595D01*
X283691Y223573D01*
X283691Y223573D01*
X283700Y223482D01*
X283700Y223482D01*
Y222971D01*
X283834D01*
Y222609D01*
X283739D01*
Y222297D01*
X283661Y222210D01*
X283599Y222198D01*
X283546Y222163D01*
X283511Y222110D01*
X283498Y222047D01*
X283511Y221985D01*
X283546Y221932D01*
X283599Y221897D01*
X283661Y221884D01*
X283708Y221832D01*
X283699Y221758D01*
X283605Y221694D01*
X283583Y221699D01*
X283520Y221686D01*
X283467Y221651D01*
X283432Y221598D01*
X283420Y221535D01*
X283432Y221473D01*
X283467Y221420D01*
X283520Y221385D01*
X283525Y221384D01*
X283515Y221284D01*
X283046D01*
Y221485D01*
X283190D01*
Y221861D01*
X282656D01*
Y221485D01*
X282801D01*
Y221284D01*
X281055D01*
X280934Y221405D01*
X280939Y221505D01*
X281074D01*
Y221881D01*
X280540D01*
Y221505D01*
X280685D01*
Y221358D01*
X280694Y221311D01*
X280721Y221272D01*
X280917Y221075D01*
X280957Y221048D01*
X281004Y221039D01*
X284819D01*
Y220828D01*
X284684D01*
Y220314D01*
X285198D01*
Y220315D01*
X285294Y220324D01*
Y220324D01*
X285769D01*
Y220449D01*
X285885D01*
Y220327D01*
X285885Y220324D01*
Y220227D01*
X285885Y220224D01*
Y219733D01*
X286019D01*
Y219593D01*
X285991Y219551D01*
X285979Y219488D01*
X285991Y219426D01*
X286026Y219373D01*
X286062Y219349D01*
X286079Y219337D01*
X286093Y219327D01*
X286059Y219227D01*
X276039D01*
X274763Y220503D01*
X274757Y220535D01*
X274722Y220588D01*
X274669Y220623D01*
X274606Y220636D01*
X274544Y220623D01*
X274491Y220588D01*
X274463Y220546D01*
X274409Y220540D01*
X274356Y220546D01*
X274328Y220588D01*
X274275Y220623D01*
X274213Y220636D01*
X274150Y220623D01*
X274097Y220588D01*
X274069Y220546D01*
X274016Y220540D01*
X273962Y220546D01*
X273934Y220588D01*
X273881Y220623D01*
X273819Y220636D01*
X273756Y220623D01*
X273704Y220588D01*
X273668Y220535D01*
X273656Y220472D01*
X273668Y220410D01*
X273704Y220357D01*
X273756Y220322D01*
X273819Y220309D01*
X273881Y220322D01*
X273934Y220357D01*
X273962Y220399D01*
X274016Y220405D01*
X274069Y220399D01*
X274097Y220357D01*
X274150Y220322D01*
X274213Y220309D01*
X274275Y220322D01*
X274328Y220357D01*
X274356Y220399D01*
X274409Y220405D01*
X274463Y220399D01*
X274491Y220357D01*
X274544Y220322D01*
X274576Y220315D01*
X275891Y219001D01*
X275934Y218972D01*
X275984Y218962D01*
X277702D01*
Y216811D01*
X277712Y216760D01*
X277741Y216717D01*
X278189Y216269D01*
X278196Y216237D01*
X278231Y216184D01*
X278284Y216148D01*
X278346Y216136D01*
X278409Y216148D01*
X278462Y216184D01*
X278497Y216237D01*
X278510Y216299D01*
X278497Y216362D01*
X278462Y216415D01*
X278409Y216450D01*
X278377Y216456D01*
X277967Y216866D01*
Y218962D01*
X287598D01*
X287649Y218972D01*
X287692Y219001D01*
X288476Y219784D01*
X288568Y219746D01*
Y219213D01*
X288578Y219162D01*
X288607Y219119D01*
X289001Y218725D01*
X288989Y218675D01*
X288960Y218624D01*
X288914Y218615D01*
X288861Y218580D01*
X288826Y218527D01*
X288813Y218465D01*
X288826Y218402D01*
X288861Y218349D01*
X288914Y218314D01*
X288964Y218304D01*
X290071Y217197D01*
X290111Y217170D01*
X290157Y217161D01*
X290658D01*
X290901Y216918D01*
Y215394D01*
X290911Y215347D01*
X290937Y215307D01*
X292122Y214123D01*
Y211732D01*
X292131Y211685D01*
X292158Y211646D01*
X293362Y210441D01*
X293402Y210415D01*
X293449Y210405D01*
X295112D01*
X295141Y210336D01*
X295201Y210257D01*
X295281Y210196D01*
X295373Y210157D01*
X295472Y210144D01*
X295572Y210157D01*
X295664Y210196D01*
X295743Y210257D01*
X295804Y210336D01*
X295843Y210428D01*
X295856Y210528D01*
X295843Y210627D01*
X295804Y210719D01*
X295743Y210799D01*
X295664Y210859D01*
X295572Y210898D01*
X295472Y210911D01*
X295373Y210898D01*
X295281Y210859D01*
X295201Y210799D01*
X295141Y210719D01*
X295112Y210650D01*
X293500D01*
X292366Y211783D01*
Y214173D01*
X292357Y214220D01*
X292331Y214260D01*
X291146Y215444D01*
Y215770D01*
X291240Y215792D01*
X291246Y215792D01*
X291305Y215714D01*
X291385Y215653D01*
X291477Y215615D01*
X291576Y215602D01*
X291676Y215615D01*
X291768Y215653D01*
X291847Y215714D01*
X291908Y215794D01*
X291947Y215886D01*
X291960Y215985D01*
X291947Y216084D01*
X291908Y216177D01*
X291847Y216256D01*
X291768Y216317D01*
X291676Y216355D01*
X291576Y216368D01*
X291477Y216355D01*
X291385Y216317D01*
X291305Y216256D01*
X291246Y216179D01*
X291240Y216178D01*
X291146Y216200D01*
Y216968D01*
X291137Y217015D01*
X291110Y217055D01*
X290795Y217370D01*
X290755Y217397D01*
X290709Y217406D01*
X290208D01*
X290106Y217508D01*
X290119Y217535D01*
X290165Y217590D01*
X290197Y217584D01*
X290929D01*
X292545Y215969D01*
Y212126D01*
X292555Y212075D01*
X292583Y212032D01*
X293182Y211434D01*
X293225Y211405D01*
X293276Y211395D01*
X295116D01*
X295141Y211336D01*
X295201Y211257D01*
X295281Y211196D01*
X295373Y211157D01*
X295472Y211144D01*
X295572Y211157D01*
X295664Y211196D01*
X295743Y211257D01*
X295804Y211336D01*
X295843Y211428D01*
X295856Y211528D01*
X295843Y211627D01*
X295804Y211719D01*
X295743Y211799D01*
X295664Y211859D01*
X295572Y211898D01*
X295472Y211911D01*
X295373Y211898D01*
X295281Y211859D01*
X295201Y211799D01*
X295141Y211719D01*
X295116Y211660D01*
X293330D01*
X292810Y212181D01*
Y212275D01*
X292843Y212361D01*
X292910Y212361D01*
X293334D01*
X293338Y212361D01*
X293434D01*
X293438Y212361D01*
X293928D01*
Y212466D01*
X294323D01*
X294374Y212476D01*
X294417Y212505D01*
X295280Y213368D01*
X295852D01*
Y214128D01*
X295092D01*
Y213555D01*
X294268Y212731D01*
X293928D01*
Y212836D01*
X293438D01*
X293434Y212836D01*
X293338D01*
X293334Y212836D01*
X293223D01*
Y213045D01*
X293726D01*
Y213805D01*
X292966D01*
Y213212D01*
X292958Y213169D01*
Y212906D01*
X292933Y212881D01*
X292816Y212905D01*
X292810Y212922D01*
Y216024D01*
X292810Y216024D01*
X292800Y216074D01*
X292771Y216117D01*
X292370Y216518D01*
X292374Y216544D01*
X292414Y216615D01*
X295116D01*
X295141Y216556D01*
X295201Y216477D01*
X295281Y216416D01*
X295373Y216378D01*
X295472Y216365D01*
X295572Y216378D01*
X295664Y216416D01*
X295743Y216477D01*
X295804Y216556D01*
X295843Y216649D01*
X295856Y216748D01*
X295843Y216847D01*
X295804Y216940D01*
X295743Y217019D01*
X295664Y217080D01*
X295572Y217118D01*
X295472Y217131D01*
X295373Y217118D01*
X295281Y217080D01*
X295201Y217019D01*
X295141Y216940D01*
X295116Y216881D01*
X292441D01*
X291224Y218097D01*
Y218929D01*
X291241Y218935D01*
X291302Y218983D01*
X291304Y218985D01*
X291429D01*
X291431Y218983D01*
X291493Y218935D01*
X291565Y218906D01*
X291642Y218895D01*
X291719Y218906D01*
X291791Y218935D01*
X291852Y218983D01*
X291899Y219044D01*
X291906Y219060D01*
X293973D01*
X295127Y217906D01*
X295102Y217847D01*
X295089Y217748D01*
X295102Y217649D01*
X295141Y217556D01*
X295201Y217477D01*
X295281Y217416D01*
X295373Y217378D01*
X295472Y217365D01*
X295572Y217378D01*
X295664Y217416D01*
X295743Y217477D01*
X295804Y217556D01*
X295843Y217649D01*
X295856Y217748D01*
X295843Y217847D01*
X295804Y217940D01*
X295743Y218019D01*
X295664Y218080D01*
X295572Y218118D01*
X295472Y218131D01*
X295373Y218118D01*
X295314Y218094D01*
X294121Y219287D01*
X294078Y219315D01*
X294028Y219325D01*
X291906D01*
X291899Y219342D01*
X291852Y219403D01*
X291845Y219532D01*
X292457Y220143D01*
X292468Y220136D01*
X292530Y220124D01*
X292982D01*
X293044Y220136D01*
X293097Y220171D01*
X293132Y220224D01*
X293144Y220285D01*
X293132Y220347D01*
X293103Y220413D01*
X293132Y220479D01*
X293144Y220541D01*
X293139Y220565D01*
X293193Y220651D01*
X293211Y220665D01*
X293478D01*
X293520Y220637D01*
X293583Y220624D01*
X293645Y220637D01*
X293698Y220672D01*
X293733Y220725D01*
X293746Y220787D01*
X293733Y220850D01*
X293698Y220903D01*
X293645Y220938D01*
X293583Y220951D01*
X293520Y220938D01*
X293508Y220930D01*
X293211D01*
X293193Y220944D01*
X293139Y221030D01*
X293144Y221053D01*
X293132Y221115D01*
X293103Y221181D01*
X293132Y221247D01*
X293144Y221309D01*
X293139Y221332D01*
X293193Y221419D01*
X293211Y221432D01*
X294227D01*
X294251Y221408D01*
Y221111D01*
X294251Y221111D01*
X294231Y221025D01*
X294231Y221025D01*
X294231Y221019D01*
Y220511D01*
X294745D01*
Y221019D01*
X294745Y221025D01*
X294745Y221025D01*
X294726Y221111D01*
X294726Y221111D01*
Y221602D01*
X294726Y221605D01*
X294726D01*
Y221702D01*
X294726D01*
Y222196D01*
X294251D01*
Y221953D01*
X293069D01*
X293044Y221970D01*
X292982Y221983D01*
X292530D01*
X292468Y221970D01*
X292415Y221935D01*
X292380Y221883D01*
X292368Y221821D01*
X292380Y221759D01*
X292409Y221693D01*
X292380Y221627D01*
X292368Y221565D01*
X292372Y221544D01*
X292302Y221464D01*
X292294Y221460D01*
X292283Y221462D01*
X292221Y221450D01*
X292168Y221415D01*
X292133Y221362D01*
X292120Y221299D01*
X292125Y221276D01*
X292071Y221189D01*
X292053Y221175D01*
X291911D01*
X291855Y221232D01*
Y221942D01*
X291883Y221985D01*
X291895Y222047D01*
X291883Y222110D01*
X291848Y222163D01*
X291795Y222198D01*
X291732Y222210D01*
X291670Y222198D01*
X291617Y222163D01*
X291582Y222110D01*
X291569Y222047D01*
X291582Y221985D01*
X291610Y221942D01*
Y221181D01*
X291619Y221134D01*
X291646Y221095D01*
X291774Y220967D01*
X291813Y220940D01*
X291860Y220931D01*
X292308D01*
X292329Y220910D01*
X292375Y220831D01*
X292368Y220797D01*
X292375Y220764D01*
X292329Y220685D01*
X292308Y220664D01*
X291850D01*
X291848Y220667D01*
X291795Y220702D01*
X291732Y220714D01*
X291670Y220702D01*
X291617Y220667D01*
X291582Y220614D01*
X291569Y220551D01*
X291582Y220489D01*
X291617Y220436D01*
X291670Y220400D01*
X291732Y220388D01*
X291795Y220400D01*
X291822Y220419D01*
X292216D01*
X292258Y220319D01*
X291548Y219609D01*
X291519Y219566D01*
X291509Y219516D01*
Y219457D01*
X291493Y219451D01*
X291431Y219403D01*
X291429Y219401D01*
X291304D01*
X291302Y219403D01*
X291241Y219451D01*
X291224Y219457D01*
Y220207D01*
X291224Y220207D01*
X291214Y220258D01*
X291185Y220301D01*
X290852Y220635D01*
X290809Y220664D01*
X290758Y220674D01*
X290376D01*
X290358Y220688D01*
X290305Y220774D01*
X290309Y220797D01*
X290297Y220859D01*
X290268Y220925D01*
X290297Y220991D01*
X290309Y221053D01*
X290297Y221115D01*
X290268Y221181D01*
X290297Y221247D01*
X290309Y221309D01*
X290297Y221371D01*
X290268Y221437D01*
X290297Y221503D01*
X290309Y221565D01*
X290303Y221599D01*
X290348Y221677D01*
X290369Y221699D01*
X290766D01*
X290819Y221646D01*
X290859Y221619D01*
X290906Y221610D01*
X291037D01*
X291079Y221582D01*
X291142Y221569D01*
X291204Y221582D01*
X291257Y221617D01*
X291292Y221670D01*
X291305Y221732D01*
X291292Y221795D01*
X291257Y221848D01*
X291204Y221883D01*
X291142Y221895D01*
X291117Y221891D01*
X291083Y221939D01*
X291068Y221983D01*
X291096Y222024D01*
X291108Y222087D01*
X291096Y222149D01*
X291060Y222202D01*
X291007Y222237D01*
X290945Y222250D01*
X290899Y222241D01*
X290867Y222264D01*
X290863Y222365D01*
X290899Y222418D01*
X290911Y222480D01*
X290899Y222543D01*
X290863Y222596D01*
X290810Y222631D01*
X290804Y222632D01*
X290814Y222732D01*
X291348D01*
X291348Y222732D01*
X291391Y222741D01*
X291428Y222765D01*
X291729Y223066D01*
X291732Y223065D01*
X291795Y223078D01*
X291848Y223113D01*
X291883Y223166D01*
X291895Y223228D01*
X291883Y223291D01*
X291848Y223344D01*
X291795Y223379D01*
X291732Y223391D01*
X291670Y223379D01*
X291617Y223344D01*
X291582Y223291D01*
X291569Y223228D01*
X291570Y223225D01*
X291302Y222957D01*
X290363D01*
X290336Y222990D01*
X290301Y223057D01*
X290309Y223100D01*
X290297Y223162D01*
X290268Y223228D01*
X290297Y223294D01*
X290309Y223356D01*
X290297Y223418D01*
X290268Y223484D01*
X290297Y223550D01*
X290309Y223612D01*
X290297Y223674D01*
X290262Y223727D01*
X290210Y223762D01*
X290148Y223774D01*
X290033D01*
Y224069D01*
X290076Y224097D01*
X290111Y224150D01*
X290124Y224213D01*
X290111Y224275D01*
X290076Y224328D01*
X290023Y224363D01*
X289961Y224376D01*
X289898Y224363D01*
X289845Y224328D01*
X289810Y224275D01*
X289797Y224213D01*
X289809Y224154D01*
Y223774D01*
X289695D01*
X289633Y223762D01*
X289581Y223727D01*
X289545Y223674D01*
X289533Y223612D01*
X289545Y223550D01*
X289575Y223484D01*
X289545Y223418D01*
X289533Y223356D01*
X289534Y223352D01*
X289463Y223252D01*
X288928D01*
Y223367D01*
X288438D01*
X288434Y223367D01*
X288338D01*
X288334Y223367D01*
X287843D01*
Y223252D01*
X287634D01*
X287621Y223261D01*
X287559Y223273D01*
X287497Y223261D01*
X287444Y223226D01*
X287408Y223173D01*
X287396Y223110D01*
X287408Y223048D01*
X287444Y222995D01*
X287497Y222960D01*
X287559Y222947D01*
X287621Y222960D01*
X287674Y222995D01*
X287683Y223008D01*
X287843D01*
Y222893D01*
X288334D01*
X288338Y222893D01*
X288434D01*
X288438Y222893D01*
X288928D01*
Y223008D01*
X289493D01*
X289546Y222908D01*
X289545Y222906D01*
X289533Y222844D01*
X289540Y222811D01*
X289494Y222732D01*
X289473Y222711D01*
X288928D01*
Y222777D01*
X288438D01*
X288434Y222777D01*
X288338D01*
X288334Y222777D01*
X287843D01*
Y222302D01*
X287843D01*
X287927Y222224D01*
X287938Y222169D01*
X287940Y222162D01*
X287943Y222156D01*
X287958Y222130D01*
X287890Y222062D01*
X287863Y222077D01*
X287858Y222080D01*
X287852Y222081D01*
X287795Y222092D01*
X287733Y222080D01*
X287680Y222044D01*
X287645Y221992D01*
X287607Y221924D01*
X287534Y221911D01*
X287109D01*
X287086Y221911D01*
X287009D01*
X286986Y221911D01*
X286560D01*
X286537Y221934D01*
X286494Y222010D01*
X286502Y222047D01*
X286489Y222110D01*
X286454Y222163D01*
X286401Y222198D01*
X286339Y222210D01*
X286326Y222213D01*
X286241Y222286D01*
Y222609D01*
X286146D01*
Y222971D01*
X286281D01*
Y223485D01*
X286146D01*
Y223660D01*
X286281D01*
Y224174D01*
X285767D01*
Y223660D01*
X285901D01*
Y223485D01*
X285767D01*
Y222971D01*
X285901D01*
Y222609D01*
X285708D01*
Y222233D01*
Y221859D01*
Y221485D01*
X285730D01*
X285766Y221438D01*
X285791Y221385D01*
X285782Y221339D01*
X285794Y221276D01*
X285830Y221223D01*
X285882Y221188D01*
X285945Y221175D01*
X286007Y221188D01*
X286060Y221223D01*
X286096Y221276D01*
X286108Y221339D01*
X286099Y221385D01*
X286124Y221438D01*
X286160Y221485D01*
X286241D01*
Y221551D01*
X286495D01*
Y221397D01*
X286986D01*
X287009Y221397D01*
X287086D01*
X287181Y221329D01*
Y220818D01*
X287066D01*
Y220324D01*
X287540D01*
Y220818D01*
X287425D01*
Y221397D01*
X287600D01*
Y221531D01*
X287677D01*
X287724Y221541D01*
X287764Y221567D01*
X287882Y221685D01*
X287908Y221725D01*
X287918Y221772D01*
Y221824D01*
X287946Y221867D01*
X287958Y221929D01*
X287947Y221984D01*
X287946Y221992D01*
X287942Y221998D01*
X287928Y222024D01*
X287996Y222092D01*
X288022Y222077D01*
X288028Y222074D01*
X288034Y222072D01*
X288091Y222061D01*
X288153Y222074D01*
X288206Y222109D01*
X288241Y222162D01*
X288254Y222224D01*
X288338Y222302D01*
X288434D01*
X288438Y222302D01*
X288462D01*
X288538Y222205D01*
X288550Y222142D01*
X288585Y222089D01*
X288638Y222054D01*
X288701Y222042D01*
X288763Y222054D01*
X288816Y222089D01*
X288852Y222142D01*
X288864Y222205D01*
X288928Y222302D01*
X288928D01*
Y222466D01*
X289153D01*
X289179Y222434D01*
X289216Y222366D01*
X289207Y222323D01*
X289219Y222260D01*
X289255Y222207D01*
X289308Y222172D01*
X289370Y222160D01*
X289433Y222172D01*
X289531Y222128D01*
X289540Y222110D01*
X289533Y222077D01*
X289545Y222015D01*
X289575Y221949D01*
X289545Y221883D01*
X289533Y221821D01*
X289545Y221759D01*
X289575Y221693D01*
X289545Y221627D01*
X289533Y221565D01*
X289540Y221531D01*
X289494Y221453D01*
X289473Y221431D01*
X288279D01*
X288251Y221450D01*
X288189Y221462D01*
X288127Y221450D01*
X288074Y221415D01*
X288038Y221362D01*
X288026Y221299D01*
X288038Y221237D01*
X288067Y221194D01*
Y220569D01*
X288045Y220552D01*
X287967Y220524D01*
X287936Y220544D01*
X287874Y220557D01*
X287812Y220544D01*
X287759Y220509D01*
X287723Y220456D01*
X287711Y220394D01*
X287723Y220331D01*
X287759Y220278D01*
X287812Y220243D01*
X287874Y220231D01*
X287936Y220243D01*
X288028Y220189D01*
X288035Y220163D01*
X288031Y220133D01*
X287940Y220043D01*
X287890Y220033D01*
X287837Y219997D01*
X287802Y219944D01*
X287790Y219882D01*
X287802Y219819D01*
X287837Y219767D01*
X287890Y219731D01*
X287904Y219729D01*
X287938Y219622D01*
X287544Y219227D01*
X286225D01*
X286191Y219327D01*
X286204Y219337D01*
X286212Y219343D01*
X286257Y219373D01*
X286292Y219426D01*
X286305Y219488D01*
X286292Y219551D01*
X286264Y219593D01*
Y219733D01*
X286359D01*
Y219858D01*
X286437D01*
X286484Y219867D01*
X286524Y219894D01*
X286627Y219997D01*
X286677Y220007D01*
X286730Y220042D01*
X286765Y220095D01*
X286777Y220157D01*
X286765Y220220D01*
X286730Y220273D01*
X286677Y220308D01*
X286614Y220321D01*
X286552Y220308D01*
X286499Y220273D01*
X286463Y220220D01*
X286459Y220220D01*
X286456Y220220D01*
X286359Y220316D01*
Y220324D01*
X286359Y220327D01*
Y220818D01*
X285885D01*
Y220693D01*
X285769D01*
Y220818D01*
X285294D01*
Y220818D01*
X285198Y220827D01*
Y220828D01*
X285063D01*
Y221161D01*
X285054Y221208D01*
X285027Y221248D01*
X285014Y221261D01*
Y221485D01*
X285159D01*
Y221861D01*
X284625D01*
Y221485D01*
X284769D01*
Y221284D01*
X283741D01*
X283700Y221384D01*
X283729Y221413D01*
X283868D01*
X283915Y221422D01*
X283955Y221449D01*
X283991Y221485D01*
X284273D01*
Y221859D01*
Y222233D01*
Y222609D01*
X284079D01*
Y222971D01*
X284214D01*
Y223485D01*
X283895D01*
X283799Y223493D01*
X283799Y223494D01*
X283790Y223585D01*
X283790Y223585D01*
Y224115D01*
X283685D01*
Y224295D01*
X283694Y224308D01*
X283706Y224370D01*
X283698Y224411D01*
X283734Y224472D01*
X283740Y224481D01*
X283765Y224507D01*
X283776Y224507D01*
X283776Y224507D01*
X283783Y224507D01*
X284164D01*
Y224681D01*
X284398D01*
Y224566D01*
X284889D01*
X284893Y224566D01*
X284989D01*
X284993Y224566D01*
X285483D01*
Y224567D01*
X285487Y224574D01*
X285583Y224641D01*
X285591Y224640D01*
X285653Y224652D01*
X285706Y224688D01*
X285741Y224741D01*
X285754Y224803D01*
X285741Y224866D01*
X285706Y224918D01*
X285653Y224954D01*
X285591Y224966D01*
X285583Y224965D01*
X285487Y225033D01*
X285483Y225039D01*
Y225040D01*
X284993D01*
X284989Y225040D01*
D02*
G37*
G36*
X271427Y228251D02*
X271093D01*
X271019Y228236D01*
X270957Y228195D01*
X270915Y228132D01*
X270901Y228059D01*
X270915Y227986D01*
X270957Y227923D01*
X271019Y227882D01*
X271093Y227867D01*
X271427D01*
X271456Y227873D01*
X271479Y227843D01*
X271434Y227764D01*
X271422Y227751D01*
X271093D01*
X271019Y227736D01*
X270957Y227695D01*
X270915Y227632D01*
X270901Y227559D01*
X270915Y227486D01*
X270957Y227423D01*
X271019Y227382D01*
X271093Y227367D01*
X271427D01*
X271501Y227382D01*
X271563Y227423D01*
X271604Y227486D01*
X271619Y227559D01*
X271609Y227611D01*
X271679Y227665D01*
X271691Y227670D01*
X271728Y227633D01*
X271784Y227596D01*
X271850Y227583D01*
X272194D01*
Y227519D01*
X272684D01*
X272688Y227519D01*
X272784D01*
X272788Y227519D01*
X273279D01*
Y227583D01*
X275888D01*
X275888Y227582D01*
X275925Y227493D01*
X275984Y227417D01*
X276060Y227358D01*
X276149Y227321D01*
X276244Y227309D01*
X276339Y227321D01*
X276428Y227358D01*
X276505Y227417D01*
X276563Y227493D01*
X276600Y227582D01*
X276613Y227677D01*
X276600Y227773D01*
X276563Y227861D01*
X276505Y227938D01*
X276428Y227996D01*
X276339Y228033D01*
X276244Y228046D01*
X276149Y228033D01*
X276060Y227996D01*
X275984Y227938D01*
X275977Y227929D01*
X273279D01*
Y227993D01*
X272788D01*
X272784Y227993D01*
X272688D01*
X272684Y227993D01*
X272194D01*
Y227929D01*
X271922D01*
X271670Y228182D01*
X271614Y228219D01*
X271547Y228232D01*
X271506D01*
X271501Y228236D01*
X271427Y228251D01*
D02*
G37*
G36*
X295768Y229109D02*
X295672Y229096D01*
X295583Y229059D01*
X295507Y229001D01*
X295449Y228924D01*
X295423Y228863D01*
X294252D01*
X294205Y228853D01*
X294165Y228827D01*
X292433Y227094D01*
X292407Y227055D01*
X292397Y227008D01*
Y224081D01*
X292369Y224039D01*
X292357Y223976D01*
X292369Y223914D01*
X292404Y223861D01*
X292425Y223847D01*
X292430Y223743D01*
X292427Y223735D01*
X292415Y223727D01*
X292380Y223674D01*
X292368Y223615D01*
X292355Y223606D01*
X292275Y223568D01*
X289476Y226366D01*
X289437Y226393D01*
X289390Y226402D01*
X281241D01*
Y226527D01*
X280767D01*
Y226522D01*
X279952D01*
Y226615D01*
X279497D01*
Y226366D01*
X279387Y226256D01*
X278682D01*
Y226330D01*
X278208D01*
Y226256D01*
X277914D01*
Y226340D01*
X277424D01*
X277400Y226340D01*
X277324D01*
X277300Y226340D01*
X276810D01*
Y225826D01*
X276810D01*
X276810Y225749D01*
X276810D01*
Y225480D01*
X276775Y225445D01*
X276737Y225389D01*
X276724Y225323D01*
Y225058D01*
X276631D01*
Y224165D01*
X276631Y224154D01*
X276631D01*
X276633Y224066D01*
X276633D01*
Y223799D01*
X276309D01*
Y223372D01*
X276223Y223285D01*
X276144Y223182D01*
X276094Y223062D01*
X276077Y222933D01*
X276077Y222933D01*
Y222441D01*
X276077Y222441D01*
X276094Y222312D01*
X276144Y222192D01*
X276216Y222097D01*
X276042Y221923D01*
X275886D01*
Y222075D01*
X275652D01*
X275562Y222099D01*
X275562Y222175D01*
Y222751D01*
X274438D01*
Y222175D01*
X274438Y222099D01*
X274348Y222075D01*
X274114D01*
Y220776D01*
X275886D01*
Y220927D01*
X276248D01*
X276248Y220927D01*
X276377Y220944D01*
X276497Y220994D01*
X276600Y221073D01*
X276789Y221262D01*
X276912Y221243D01*
X276912Y221243D01*
X276965Y221208D01*
X277028Y221195D01*
X277090Y221208D01*
X277132Y221236D01*
X277912D01*
Y221115D01*
X277912Y221111D01*
Y221015D01*
X277912Y221011D01*
Y220521D01*
X278387D01*
Y220645D01*
X281686D01*
X281729Y220617D01*
X281791Y220605D01*
X281854Y220617D01*
X281907Y220652D01*
X281942Y220705D01*
X281954Y220768D01*
X281942Y220830D01*
X281907Y220883D01*
X281854Y220918D01*
X281791Y220931D01*
X281729Y220918D01*
X281686Y220890D01*
X278387D01*
Y221011D01*
X278387Y221015D01*
Y221111D01*
X278387Y221115D01*
Y221605D01*
X278272D01*
Y221790D01*
X278383D01*
X278407Y221790D01*
X278483D01*
X278507Y221790D01*
X278618D01*
Y221680D01*
X278589Y221637D01*
X278577Y221575D01*
X278589Y221512D01*
X278625Y221459D01*
X278678Y221424D01*
X278740Y221412D01*
X278803Y221424D01*
X278856Y221459D01*
X278891Y221512D01*
X278903Y221575D01*
X278891Y221637D01*
X278863Y221680D01*
Y221790D01*
X278997D01*
Y221925D01*
X279182D01*
Y221810D01*
X279307D01*
Y221694D01*
X279182D01*
Y221219D01*
X279676D01*
Y221694D01*
X279551D01*
Y221810D01*
X279673D01*
X279676Y221810D01*
X279773D01*
X279776Y221810D01*
X280267D01*
Y222121D01*
X280440Y222295D01*
X280540Y222261D01*
Y222253D01*
X281074D01*
Y222629D01*
X280540D01*
Y222563D01*
X280413D01*
X280367Y222554D01*
X280327Y222527D01*
X280084Y222285D01*
X279776D01*
X279773Y222285D01*
X279676D01*
X279673Y222285D01*
X279551D01*
Y222981D01*
X279666D01*
Y223472D01*
X279666Y223476D01*
Y223572D01*
X279666Y223576D01*
Y224066D01*
X279661D01*
X279573Y224134D01*
X279560Y224196D01*
X279525Y224249D01*
X279472Y224285D01*
X279409Y224297D01*
X279347Y224285D01*
X279294Y224249D01*
X279259Y224196D01*
X279248Y224143D01*
X279192Y224066D01*
X279192Y224066D01*
X279192Y224066D01*
Y223576D01*
X279192Y223572D01*
Y223476D01*
X279192Y223472D01*
Y222981D01*
X279307D01*
Y222285D01*
X279182D01*
Y222170D01*
X278997D01*
Y222304D01*
X278863D01*
Y222533D01*
X278891Y222575D01*
X278903Y222638D01*
X278891Y222700D01*
X278856Y222753D01*
X278803Y222789D01*
X278740Y222801D01*
X278678Y222789D01*
X278625Y222753D01*
X278589Y222700D01*
X278577Y222638D01*
X278589Y222575D01*
X278618Y222533D01*
Y222304D01*
X278507D01*
X278483Y222304D01*
X278407D01*
X278383Y222304D01*
X277893D01*
Y222170D01*
X277718D01*
Y222304D01*
X277583D01*
Y222539D01*
X277574Y222586D01*
X277547Y222626D01*
X277431Y222742D01*
Y223799D01*
X277107D01*
Y224066D01*
X277107D01*
X277136Y224154D01*
X277164D01*
Y225058D01*
X277071D01*
Y225235D01*
X277324D01*
Y225726D01*
X277362Y225793D01*
X277395Y225826D01*
X277424Y225826D01*
X277914D01*
Y225909D01*
X278208D01*
Y225836D01*
X278682D01*
Y225909D01*
X279459D01*
X279525Y225923D01*
X279581Y225960D01*
X279703Y226082D01*
X279952D01*
Y226175D01*
X280767D01*
Y226036D01*
X280767Y226032D01*
Y225936D01*
X280767Y225932D01*
Y225625D01*
X280688Y225546D01*
X280326D01*
Y225690D01*
X279871D01*
Y225156D01*
X280326D01*
Y225301D01*
X280738D01*
X280785Y225310D01*
X280825Y225337D01*
X280930Y225442D01*
X281241D01*
Y225448D01*
X281265Y225470D01*
X281341Y225513D01*
X281378Y225506D01*
X281440Y225519D01*
X281493Y225554D01*
X281529Y225607D01*
X281541Y225669D01*
X281529Y225732D01*
X281493Y225785D01*
X281440Y225820D01*
X281378Y225832D01*
X281341Y225825D01*
X281255Y225874D01*
X281241Y225886D01*
Y225932D01*
X281241Y225936D01*
Y226032D01*
X281241Y226036D01*
Y226157D01*
X289339D01*
X292175Y223321D01*
X292148Y223215D01*
X292144Y223211D01*
X292117Y223193D01*
X292064Y223182D01*
X292011Y223147D01*
X291975Y223094D01*
X291963Y223032D01*
X291975Y222969D01*
X292011Y222916D01*
X292064Y222881D01*
X292126Y222868D01*
X292188Y222881D01*
X292241Y222916D01*
X292287Y222913D01*
X292368Y222844D01*
X292380Y222783D01*
X292409Y222717D01*
X292380Y222650D01*
X292368Y222589D01*
X292380Y222527D01*
X292409Y222461D01*
X292380Y222395D01*
X292368Y222333D01*
X292380Y222271D01*
X292415Y222218D01*
X292468Y222183D01*
X292530Y222171D01*
X292982D01*
X293044Y222183D01*
X293085Y222210D01*
X294065D01*
X294112Y222220D01*
X294151Y222246D01*
X295264Y223358D01*
X295290Y223398D01*
X295300Y223445D01*
Y226099D01*
X295611Y226410D01*
X295672Y226384D01*
X295768Y226372D01*
X295863Y226384D01*
X295952Y226421D01*
X296028Y226480D01*
X296087Y226556D01*
X296124Y226645D01*
X296136Y226740D01*
X296124Y226836D01*
X296087Y226924D01*
X296028Y227001D01*
X295952Y227059D01*
X295863Y227096D01*
X295768Y227109D01*
X295672Y227096D01*
X295583Y227059D01*
X295507Y227001D01*
X295449Y226924D01*
X295412Y226836D01*
X295399Y226740D01*
X295412Y226645D01*
X295437Y226583D01*
X295144Y226289D01*
X295044Y226331D01*
Y226843D01*
X295611Y227410D01*
X295672Y227384D01*
X295768Y227372D01*
X295863Y227384D01*
X295952Y227421D01*
X296028Y227480D01*
X296087Y227556D01*
X296124Y227645D01*
X296136Y227740D01*
X296124Y227836D01*
X296087Y227924D01*
X296028Y228001D01*
X295952Y228059D01*
X295863Y228096D01*
X295768Y228109D01*
X295672Y228096D01*
X295583Y228059D01*
X295507Y228001D01*
X295449Y227924D01*
X295412Y227836D01*
X295399Y227740D01*
X295412Y227645D01*
X295437Y227583D01*
X294907Y227053D01*
X294807Y227094D01*
Y228242D01*
X294836Y228284D01*
X294848Y228346D01*
X294836Y228409D01*
X294800Y228462D01*
X294747Y228497D01*
X294685Y228510D01*
X294623Y228497D01*
X294570Y228462D01*
X294534Y228409D01*
X294522Y228346D01*
X294534Y228284D01*
X294563Y228242D01*
Y224121D01*
X294534Y224078D01*
X294522Y224016D01*
X294534Y223953D01*
X294570Y223900D01*
X294623Y223865D01*
X294685Y223853D01*
X294699Y223855D01*
X294799Y223788D01*
Y223555D01*
X293891Y222647D01*
X293790Y222651D01*
X293781Y222663D01*
X293753Y222742D01*
X293773Y222772D01*
X293785Y222835D01*
X293773Y222897D01*
X293737Y222950D01*
X293684Y222985D01*
X293652Y222992D01*
X293636Y223008D01*
Y223365D01*
X293761D01*
Y223865D01*
X293763Y223865D01*
X293816Y223900D01*
X293852Y223953D01*
X293864Y224016D01*
X293852Y224078D01*
X293816Y224131D01*
X293763Y224166D01*
X293701Y224179D01*
X293638Y224166D01*
X293585Y224131D01*
X293550Y224078D01*
X293544Y224046D01*
X293410Y223913D01*
X293388Y223879D01*
X293326Y223879D01*
X293252Y223882D01*
X293207Y223931D01*
X293189Y223965D01*
X293195Y224016D01*
X293193Y224025D01*
X293182Y224078D01*
X293147Y224131D01*
X293094Y224166D01*
X293032Y224179D01*
X292969Y224166D01*
X292916Y224131D01*
X292881Y224078D01*
X292874Y224046D01*
X292780Y223952D01*
X292730Y223964D01*
X292680Y223993D01*
X292670Y224039D01*
X292642Y224081D01*
Y226957D01*
X294303Y228618D01*
X295423D01*
X295449Y228556D01*
X295507Y228480D01*
X295583Y228421D01*
X295672Y228384D01*
X295768Y228372D01*
X295863Y228384D01*
X295952Y228421D01*
X296028Y228480D01*
X296087Y228556D01*
X296124Y228645D01*
X296136Y228740D01*
X296124Y228836D01*
X296087Y228924D01*
X296028Y229001D01*
X295952Y229059D01*
X295863Y229096D01*
X295768Y229109D01*
D02*
G37*
G36*
X272629Y228928D02*
X272095D01*
Y228913D01*
X271850D01*
X271784Y228900D01*
X271728Y228863D01*
X271597Y228732D01*
X271506D01*
X271501Y228736D01*
X271427Y228751D01*
X271093D01*
X271019Y228736D01*
X270957Y228695D01*
X270915Y228632D01*
X270901Y228559D01*
X270915Y228486D01*
X270957Y228423D01*
X271019Y228382D01*
X271093Y228367D01*
X271427D01*
X271501Y228382D01*
X271506Y228386D01*
X271669D01*
X271736Y228399D01*
X271792Y228436D01*
X271922Y228567D01*
X272095D01*
Y228552D01*
X272629D01*
Y228928D01*
D02*
G37*
G36*
X277609Y228042D02*
X276879D01*
Y227312D01*
X277609D01*
Y228042D01*
D02*
G37*
G36*
X273574Y228554D02*
X273040D01*
Y228178D01*
X273574D01*
Y228224D01*
X289265D01*
X289308Y228196D01*
X289370Y228183D01*
X289433Y228196D01*
X289485Y228231D01*
X289521Y228284D01*
X289533Y228346D01*
X289521Y228409D01*
X289485Y228462D01*
X289433Y228497D01*
X289370Y228510D01*
X289308Y228497D01*
X289265Y228469D01*
X273574D01*
Y228554D01*
D02*
G37*
G36*
X292126Y224376D02*
X292064Y224363D01*
X292011Y224328D01*
X291975Y224275D01*
X291963Y224213D01*
X291975Y224150D01*
X292011Y224097D01*
X292064Y224062D01*
X292126Y224049D01*
X292188Y224062D01*
X292241Y224097D01*
X292277Y224150D01*
X292289Y224213D01*
X292277Y224275D01*
X292241Y224328D01*
X292188Y224363D01*
X292126Y224376D01*
D02*
G37*
G36*
X272629Y177944D02*
X272095D01*
Y177929D01*
X271850D01*
X271784Y177916D01*
X271728Y177878D01*
X271438Y177589D01*
X271398D01*
X271392Y177593D01*
X271319Y177607D01*
X270984D01*
X270911Y177593D01*
X270849Y177551D01*
X270807Y177489D01*
X270792Y177415D01*
X270807Y177342D01*
X270849Y177280D01*
X270911Y177238D01*
X270984Y177224D01*
X271319D01*
X271392Y177238D01*
X271398Y177242D01*
X271510D01*
X271576Y177255D01*
X271632Y177293D01*
X271922Y177583D01*
X272095D01*
Y177568D01*
X272629D01*
Y177944D01*
D02*
G37*
G36*
X292362Y218431D02*
X292300Y218418D01*
X292247Y218383D01*
X292211Y218330D01*
X292199Y218268D01*
X292211Y218205D01*
X292247Y218152D01*
X292300Y218117D01*
X292362Y218105D01*
X292425Y218117D01*
X292478Y218152D01*
X292513Y218205D01*
X292525Y218268D01*
X292513Y218330D01*
X292478Y218383D01*
X292425Y218418D01*
X292362Y218431D01*
D02*
G37*
G36*
X284535Y218184D02*
X284414Y218168D01*
X284302Y218122D01*
X284205Y218047D01*
X284130Y217950D01*
X284084Y217838D01*
X284068Y217717D01*
X284084Y217595D01*
X284130Y217483D01*
X284205Y217386D01*
X284302Y217311D01*
X284414Y217265D01*
X284535Y217249D01*
X284656Y217265D01*
X284769Y217311D01*
X284866Y217386D01*
X284940Y217483D01*
X284987Y217595D01*
X285003Y217717D01*
X284987Y217838D01*
X284940Y217950D01*
X284866Y218047D01*
X284769Y218122D01*
X284656Y218168D01*
X284535Y218184D01*
D02*
G37*
G36*
X271319Y178107D02*
X270984D01*
X270911Y178093D01*
X270849Y178051D01*
X270807Y177989D01*
X270792Y177915D01*
X270807Y177842D01*
X270849Y177780D01*
X270911Y177738D01*
X270984Y177724D01*
X271319D01*
X271392Y177738D01*
X271455Y177780D01*
X271496Y177842D01*
X271511Y177915D01*
X271496Y177989D01*
X271455Y178051D01*
X271392Y178093D01*
X271319Y178107D01*
D02*
G37*
G36*
X277835Y219848D02*
X277772Y219836D01*
X277719Y219800D01*
X277684Y219747D01*
X277672Y219685D01*
X277684Y219623D01*
X277719Y219570D01*
X277772Y219534D01*
X277835Y219522D01*
X277897Y219534D01*
X277950Y219570D01*
X277985Y219623D01*
X277998Y219685D01*
X277985Y219747D01*
X277950Y219800D01*
X277897Y219836D01*
X277835Y219848D01*
D02*
G37*
G36*
X284941Y222801D02*
X284879Y222789D01*
X284826Y222753D01*
X284790Y222700D01*
X284778Y222638D01*
X284754Y222609D01*
X284625D01*
Y222233D01*
X285159D01*
Y222609D01*
X285127D01*
X285104Y222638D01*
X285092Y222700D01*
X285056Y222753D01*
X285003Y222789D01*
X284941Y222801D01*
D02*
G37*
G36*
X275562Y223751D02*
X274438D01*
Y223099D01*
X275562D01*
Y223751D01*
D02*
G37*
G36*
X273543Y220281D02*
X273481Y220269D01*
X273428Y220233D01*
X273393Y220181D01*
X273380Y220118D01*
X273393Y220056D01*
X273428Y220003D01*
X273481Y219967D01*
X273543Y219955D01*
X273606Y219967D01*
X273659Y220003D01*
X273694Y220056D01*
X273706Y220118D01*
X273694Y220181D01*
X273659Y220233D01*
X273606Y220269D01*
X273543Y220281D01*
D02*
G37*
G36*
X276063Y178588D02*
X276001Y178576D01*
X275948Y178541D01*
X275912Y178488D01*
X275900Y178425D01*
X275912Y178363D01*
X275941Y178320D01*
Y178043D01*
X275402Y177504D01*
X273574Y177504D01*
Y177570D01*
X273040D01*
Y177194D01*
X273574D01*
Y177260D01*
X275453Y177260D01*
X275500Y177269D01*
X275539Y177295D01*
X276150Y177906D01*
X276176Y177945D01*
X276185Y177992D01*
Y178320D01*
X276214Y178363D01*
X276226Y178425D01*
X276214Y178488D01*
X276178Y178541D01*
X276125Y178576D01*
X276063Y178588D01*
D02*
G37*
G36*
X271319Y236162D02*
X270984D01*
X270911Y236148D01*
X270849Y236106D01*
X270807Y236044D01*
X270792Y235970D01*
X270807Y235897D01*
X270849Y235835D01*
X270911Y235793D01*
X270984Y235779D01*
X271319D01*
X271392Y235793D01*
X271398Y235797D01*
X271438D01*
X271925Y235311D01*
X271981Y235273D01*
X272047Y235260D01*
X272095D01*
Y235196D01*
X272586D01*
X272590Y235196D01*
X272686D01*
X272690Y235196D01*
X273180D01*
Y235260D01*
X275960D01*
X275964Y235249D01*
X276023Y235173D01*
X276099Y235114D01*
X276188Y235077D01*
X276283Y235065D01*
X276379Y235077D01*
X276468Y235114D01*
X276544Y235173D01*
X276603Y235249D01*
X276639Y235338D01*
X276652Y235433D01*
X276639Y235528D01*
X276603Y235617D01*
X276544Y235694D01*
X276468Y235752D01*
X276379Y235789D01*
X276283Y235802D01*
X276188Y235789D01*
X276099Y235752D01*
X276023Y235694D01*
X275964Y235617D01*
X275960Y235606D01*
X273180D01*
Y235670D01*
X272690D01*
X272686Y235670D01*
X272590D01*
X272586Y235670D01*
X272095D01*
Y235670D01*
X272067Y235659D01*
X271632Y236093D01*
X271576Y236131D01*
X271510Y236144D01*
X271398D01*
X271392Y236148D01*
X271319Y236162D01*
D02*
G37*
G36*
X277649Y235798D02*
X276918D01*
Y235068D01*
X277649D01*
Y235798D01*
D02*
G37*
G36*
X272205Y234225D02*
X271693D01*
X271620Y234211D01*
X271557Y234169D01*
X271516Y234107D01*
X271501Y234033D01*
X271516Y233960D01*
X271557Y233898D01*
X271620Y233856D01*
X271693Y233842D01*
X272205D01*
X272278Y233856D01*
X272340Y233898D01*
X272382Y233960D01*
X272397Y234033D01*
X272382Y234107D01*
X272340Y234169D01*
X272278Y234211D01*
X272205Y234225D01*
D02*
G37*
G36*
X296133Y235436D02*
X295402D01*
Y234706D01*
X296133D01*
Y235436D01*
D02*
G37*
G36*
X271319Y235662D02*
X270984D01*
X270911Y235648D01*
X270849Y235606D01*
X270807Y235544D01*
X270792Y235470D01*
X270807Y235397D01*
X270849Y235335D01*
X270911Y235293D01*
X270984Y235279D01*
X271319D01*
X271392Y235293D01*
X271455Y235335D01*
X271496Y235397D01*
X271511Y235470D01*
X271496Y235544D01*
X271455Y235606D01*
X271392Y235648D01*
X271319Y235662D01*
D02*
G37*
G36*
Y237162D02*
X270984D01*
X270911Y237148D01*
X270849Y237106D01*
X270807Y237044D01*
X270792Y236970D01*
X270807Y236897D01*
X270849Y236835D01*
X270911Y236793D01*
X270984Y236779D01*
X271319D01*
X271392Y236793D01*
X271455Y236835D01*
X271496Y236897D01*
X271511Y236970D01*
X271496Y237044D01*
X271455Y237106D01*
X271392Y237148D01*
X271319Y237162D01*
D02*
G37*
G36*
X296133Y237932D02*
X295402D01*
Y237202D01*
X296133D01*
Y237932D01*
D02*
G37*
G36*
X273574Y236428D02*
X273040D01*
Y236052D01*
X273574D01*
Y236059D01*
X280919D01*
X280961Y236030D01*
X281024Y236018D01*
X281086Y236030D01*
X281139Y236066D01*
X281174Y236119D01*
X281187Y236181D01*
X281174Y236244D01*
X281139Y236296D01*
X281086Y236332D01*
X281024Y236344D01*
X280961Y236332D01*
X280919Y236303D01*
X273574D01*
Y236428D01*
D02*
G37*
G36*
X272629Y236802D02*
X272095D01*
Y236787D01*
X271850D01*
X271784Y236774D01*
X271728Y236737D01*
X271635Y236644D01*
X271398D01*
X271392Y236648D01*
X271319Y236662D01*
X270984D01*
X270911Y236648D01*
X270849Y236606D01*
X270807Y236544D01*
X270792Y236470D01*
X270807Y236397D01*
X270849Y236335D01*
X270911Y236293D01*
X270984Y236279D01*
X271319D01*
X271392Y236293D01*
X271398Y236297D01*
X271707D01*
X271773Y236310D01*
X271829Y236348D01*
X271922Y236441D01*
X272095D01*
Y236426D01*
X272629D01*
Y236802D01*
D02*
G37*
G36*
X295768Y234439D02*
X295672Y234427D01*
X295583Y234390D01*
X295507Y234331D01*
X295449Y234255D01*
X295412Y234166D01*
X295408Y234138D01*
X291890D01*
X291843Y234129D01*
X291803Y234102D01*
X287074Y229373D01*
X287024Y229363D01*
X286971Y229328D01*
X286936Y229275D01*
X286923Y229213D01*
X286936Y229150D01*
X286971Y229097D01*
X287024Y229062D01*
X287087Y229049D01*
X287149Y229062D01*
X287202Y229097D01*
X287237Y229150D01*
X287244Y229183D01*
X287306Y229223D01*
X287403Y229179D01*
X287408Y229150D01*
X287444Y229097D01*
X287497Y229062D01*
X287559Y229049D01*
X287621Y229062D01*
X287674Y229097D01*
X287710Y229150D01*
X287722Y229213D01*
X287710Y229275D01*
X287681Y229317D01*
Y229319D01*
X287854Y229492D01*
X287946Y229454D01*
X287948Y229238D01*
X287920Y229196D01*
X287908Y229134D01*
X287920Y229071D01*
X287956Y229018D01*
X288008Y228983D01*
X288071Y228971D01*
X288133Y228983D01*
X288186Y229018D01*
X288222Y229071D01*
X288234Y229134D01*
X288222Y229196D01*
X288193Y229240D01*
X288191Y229539D01*
X290545Y231925D01*
X295433D01*
X295449Y231887D01*
X295507Y231810D01*
X295583Y231752D01*
X295672Y231715D01*
X295768Y231702D01*
X295863Y231715D01*
X295952Y231752D01*
X296028Y231810D01*
X296087Y231887D01*
X296124Y231976D01*
X296136Y232071D01*
X296124Y232166D01*
X296087Y232255D01*
X296028Y232331D01*
X295952Y232390D01*
X295863Y232427D01*
X295768Y232439D01*
X295672Y232427D01*
X295583Y232390D01*
X295507Y232331D01*
X295449Y232255D01*
X295413Y232170D01*
X290662D01*
X290624Y232262D01*
X291271Y232909D01*
X295439D01*
X295449Y232887D01*
X295507Y232810D01*
X295583Y232752D01*
X295672Y232715D01*
X295768Y232702D01*
X295863Y232715D01*
X295952Y232752D01*
X296028Y232810D01*
X296087Y232887D01*
X296124Y232976D01*
X296136Y233071D01*
X296124Y233166D01*
X296087Y233255D01*
X296028Y233331D01*
X295952Y233390D01*
X295863Y233427D01*
X295768Y233439D01*
X295672Y233427D01*
X295583Y233390D01*
X295507Y233331D01*
X295449Y233255D01*
X295412Y233166D01*
X295410Y233154D01*
X291342D01*
X291301Y233254D01*
X291940Y233893D01*
X295446D01*
X295449Y233887D01*
X295507Y233810D01*
X295583Y233752D01*
X295672Y233715D01*
X295768Y233702D01*
X295863Y233715D01*
X295952Y233752D01*
X296028Y233810D01*
X296087Y233887D01*
X296124Y233976D01*
X296136Y234071D01*
X296124Y234166D01*
X296087Y234255D01*
X296028Y234331D01*
X295952Y234390D01*
X295863Y234427D01*
X295768Y234439D01*
D02*
G37*
G36*
X272205Y230725D02*
X271693D01*
X271620Y230711D01*
X271557Y230669D01*
X271516Y230607D01*
X271501Y230533D01*
X271516Y230460D01*
X271557Y230398D01*
X271620Y230356D01*
X271693Y230342D01*
X272205D01*
X272278Y230356D01*
X272340Y230398D01*
X272382Y230460D01*
X272397Y230533D01*
X272382Y230607D01*
X272340Y230669D01*
X272278Y230711D01*
X272205Y230725D01*
D02*
G37*
G36*
X273279Y231418D02*
X272647D01*
Y231207D01*
X272284D01*
X272278Y231211D01*
X272205Y231225D01*
X271693D01*
X271620Y231211D01*
X271557Y231169D01*
X271516Y231107D01*
X271501Y231033D01*
X271516Y230960D01*
X271557Y230898D01*
X271620Y230856D01*
X271693Y230842D01*
X272205D01*
X272278Y230856D01*
X272284Y230860D01*
X272647D01*
Y230589D01*
X272789D01*
Y230423D01*
X272802Y230357D01*
X272840Y230301D01*
X272870Y230271D01*
X272926Y230234D01*
X272992Y230220D01*
X273058Y230234D01*
X273115Y230271D01*
X273152Y230327D01*
X273165Y230394D01*
X273152Y230460D01*
X273136Y230484D01*
Y230589D01*
X273279D01*
Y231418D01*
D02*
G37*
G36*
X271427Y229251D02*
X271093D01*
X271019Y229236D01*
X270957Y229195D01*
X270915Y229132D01*
X270901Y229059D01*
X270915Y228986D01*
X270957Y228923D01*
X271019Y228882D01*
X271093Y228867D01*
X271427D01*
X271501Y228882D01*
X271563Y228923D01*
X271604Y228986D01*
X271619Y229059D01*
X271604Y229132D01*
X271563Y229195D01*
X271501Y229236D01*
X271427Y229251D01*
D02*
G37*
G36*
X285433Y230084D02*
X285371Y230072D01*
X285318Y230037D01*
X285282Y229984D01*
X285270Y229921D01*
X285282Y229859D01*
X285318Y229806D01*
X285371Y229771D01*
X285433Y229758D01*
X285495Y229771D01*
X285548Y229806D01*
X285584Y229859D01*
X285596Y229921D01*
X285584Y229984D01*
X285548Y230037D01*
X285495Y230072D01*
X285433Y230084D01*
D02*
G37*
G36*
X272205Y231725D02*
X271693D01*
X271620Y231711D01*
X271557Y231669D01*
X271516Y231607D01*
X271501Y231533D01*
X271516Y231460D01*
X271557Y231398D01*
X271620Y231356D01*
X271693Y231342D01*
X272205D01*
X272278Y231356D01*
X272340Y231398D01*
X272382Y231460D01*
X272397Y231533D01*
X272382Y231607D01*
X272340Y231669D01*
X272278Y231711D01*
X272205Y231725D01*
D02*
G37*
G36*
Y232725D02*
X271693D01*
X271620Y232711D01*
X271557Y232669D01*
X271516Y232607D01*
X271501Y232533D01*
X271516Y232460D01*
X271557Y232398D01*
X271620Y232356D01*
X271693Y232342D01*
X272205D01*
X272278Y232356D01*
X272340Y232398D01*
X272382Y232460D01*
X272397Y232533D01*
X272382Y232607D01*
X272340Y232669D01*
X272278Y232711D01*
X272205Y232725D01*
D02*
G37*
G36*
Y233225D02*
X271693D01*
X271620Y233211D01*
X271557Y233169D01*
X271516Y233107D01*
X271501Y233033D01*
X271516Y232960D01*
X271557Y232898D01*
X271620Y232856D01*
X271693Y232842D01*
X272205D01*
X272278Y232856D01*
X272340Y232898D01*
X272382Y232960D01*
X272397Y233033D01*
X272382Y233107D01*
X272340Y233169D01*
X272278Y233211D01*
X272205Y233225D01*
D02*
G37*
G36*
X287402Y232053D02*
X287339Y232040D01*
X287286Y232005D01*
X287251Y231952D01*
X287238Y231890D01*
X287251Y231827D01*
X287286Y231774D01*
X287339Y231739D01*
X287402Y231727D01*
X287464Y231739D01*
X287517Y231774D01*
X287552Y231827D01*
X287565Y231890D01*
X287552Y231952D01*
X287517Y232005D01*
X287464Y232040D01*
X287402Y232053D01*
D02*
G37*
G36*
X273819Y232749D02*
X273425D01*
X273356Y232740D01*
X273291Y232713D01*
X273235Y232671D01*
X273192Y232615D01*
X273165Y232550D01*
X273156Y232480D01*
Y232166D01*
X272342D01*
X272340Y232169D01*
X272278Y232211D01*
X272205Y232225D01*
X271693D01*
X271620Y232211D01*
X271557Y232169D01*
X271516Y232107D01*
X271501Y232033D01*
X271516Y231960D01*
X271557Y231898D01*
X271620Y231856D01*
X271693Y231842D01*
X272205D01*
X272278Y231856D01*
X272340Y231898D01*
X272342Y231901D01*
X273231D01*
X273235Y231896D01*
X273291Y231854D01*
X273356Y231827D01*
X273425Y231817D01*
X273819D01*
X273889Y231827D01*
X273953Y231854D01*
X274009Y231896D01*
X274052Y231952D01*
X274079Y232017D01*
X274088Y232087D01*
Y232480D01*
X274079Y232550D01*
X274052Y232615D01*
X274009Y232671D01*
X273953Y232713D01*
X273889Y232740D01*
X273819Y232749D01*
D02*
G37*
%LPD*%
G36*
X288569Y221172D02*
X288614Y221106D01*
X288616Y221087D01*
X288607Y221078D01*
X288578Y221035D01*
X288568Y220984D01*
Y220252D01*
X288408Y220092D01*
X288355Y220106D01*
X288311Y220136D01*
Y221187D01*
X288549D01*
X288569Y221172D01*
D02*
G37*
G36*
X282176Y223404D02*
X282223Y223324D01*
Y223267D01*
X282358D01*
Y222393D01*
X282257Y222292D01*
X282157Y222333D01*
Y222629D01*
X282063D01*
Y222736D01*
X282050Y222803D01*
X282012Y222859D01*
X281852Y223020D01*
Y223288D01*
X281793D01*
Y223404D01*
X282176D01*
D02*
G37*
G36*
X289494Y220654D02*
X289540Y220575D01*
X289533Y220541D01*
X289545Y220479D01*
X289581Y220427D01*
X289633Y220392D01*
X289695Y220380D01*
X290148D01*
X290210Y220392D01*
X290235Y220409D01*
X290703D01*
X290959Y220153D01*
Y219457D01*
X290943Y219451D01*
X290881Y219403D01*
X290834Y219342D01*
X290804Y219270D01*
X290794Y219193D01*
X290804Y219116D01*
X290834Y219044D01*
X290881Y218983D01*
X290943Y218935D01*
X290959Y218929D01*
Y218042D01*
X290969Y217991D01*
X290998Y217948D01*
X291000Y217946D01*
X290996Y217921D01*
X290956Y217849D01*
X290252D01*
X288894Y219207D01*
X288914Y219328D01*
X288916Y219330D01*
X289430D01*
Y219844D01*
X289296D01*
Y220619D01*
X289352Y220675D01*
X289473D01*
X289494Y220654D01*
D02*
G37*
%LPC*%
G36*
X290433Y218391D02*
X290371Y218379D01*
X290318Y218344D01*
X290282Y218291D01*
X290270Y218228D01*
X290282Y218166D01*
X290318Y218113D01*
X290371Y218078D01*
X290433Y218065D01*
X290495Y218078D01*
X290548Y218113D01*
X290584Y218166D01*
X290596Y218228D01*
X290584Y218291D01*
X290548Y218344D01*
X290495Y218379D01*
X290433Y218391D01*
D02*
G37*
%LPD*%
D10*
X290945Y240059D02*
D03*
Y239469D02*
D03*
Y241634D02*
D03*
Y241043D02*
D03*
X281496Y240059D02*
D03*
Y239469D02*
D03*
Y241634D02*
D03*
Y241043D02*
D03*
X294488Y221949D02*
D03*
Y221358D02*
D03*
X287303Y220571D02*
D03*
Y219980D02*
D03*
X286122Y219980D02*
D03*
Y220571D02*
D03*
X285532Y220571D02*
D03*
Y219980D02*
D03*
X248228Y209350D02*
D03*
Y208760D02*
D03*
Y193602D02*
D03*
Y193012D02*
D03*
Y201476D02*
D03*
Y200886D02*
D03*
Y185728D02*
D03*
Y185138D02*
D03*
Y227657D02*
D03*
Y228248D02*
D03*
Y235532D02*
D03*
Y236122D02*
D03*
Y243406D02*
D03*
Y243996D02*
D03*
Y251280D02*
D03*
Y251870D02*
D03*
X278150Y221358D02*
D03*
Y220768D02*
D03*
X276870Y223228D02*
D03*
Y223819D02*
D03*
X278445Y226083D02*
D03*
Y225492D02*
D03*
X281004Y225689D02*
D03*
Y226280D02*
D03*
X279429Y223819D02*
D03*
Y223228D02*
D03*
D11*
X252067Y248032D02*
D03*
X252657D02*
D03*
X250787D02*
D03*
X251378D02*
D03*
X252067Y240157D02*
D03*
X252657D02*
D03*
X250689D02*
D03*
X251280D02*
D03*
X252165Y196850D02*
D03*
X252756D02*
D03*
X250787D02*
D03*
X251378D02*
D03*
X252165Y188976D02*
D03*
X252756D02*
D03*
X250787D02*
D03*
X251378D02*
D03*
X252264Y181102D02*
D03*
X252854D02*
D03*
X250689D02*
D03*
X251280D02*
D03*
X252165Y232283D02*
D03*
X252756D02*
D03*
X250787D02*
D03*
X251378D02*
D03*
X252264Y204724D02*
D03*
X252854D02*
D03*
X250787D02*
D03*
X251378D02*
D03*
X252264Y255906D02*
D03*
X252854D02*
D03*
X250886D02*
D03*
X251476D02*
D03*
X293091Y212598D02*
D03*
X293681D02*
D03*
X279429Y221457D02*
D03*
X280020D02*
D03*
X288091Y222539D02*
D03*
X288681D02*
D03*
X245965Y208661D02*
D03*
X245374D02*
D03*
X245965Y192913D02*
D03*
X245374D02*
D03*
X245965Y200787D02*
D03*
X245374D02*
D03*
X246161Y185039D02*
D03*
X245571D02*
D03*
X245965Y228346D02*
D03*
X245374D02*
D03*
X245965Y236220D02*
D03*
X245374D02*
D03*
X245965Y244094D02*
D03*
X245374D02*
D03*
X288091Y223130D02*
D03*
X288681D02*
D03*
X245965Y251968D02*
D03*
X245374D02*
D03*
X272343Y251575D02*
D03*
X272933D02*
D03*
X272441Y227756D02*
D03*
X273032D02*
D03*
X272343Y235433D02*
D03*
X272933D02*
D03*
X272539Y243504D02*
D03*
X273130D02*
D03*
X272539Y200394D02*
D03*
X273130D02*
D03*
X272539Y176575D02*
D03*
X273130D02*
D03*
X272539Y192323D02*
D03*
X273130D02*
D03*
X272539Y184449D02*
D03*
X273130D02*
D03*
X279429Y222047D02*
D03*
X280020D02*
D03*
X285236Y224803D02*
D03*
X284646D02*
D03*
D12*
X256693Y204724D02*
D03*
Y181102D02*
D03*
Y188976D02*
D03*
Y196850D02*
D03*
X256693Y255906D02*
D03*
X256693Y232283D02*
D03*
Y240157D02*
D03*
X256693Y248032D02*
D03*
D13*
X252648Y203724D02*
D03*
Y205724D02*
D03*
Y182102D02*
D03*
Y180102D02*
D03*
Y187976D02*
D03*
Y189976D02*
D03*
Y197850D02*
D03*
Y195850D02*
D03*
X252648Y254906D02*
D03*
Y256906D02*
D03*
X252648Y233283D02*
D03*
Y231283D02*
D03*
Y239157D02*
D03*
Y241157D02*
D03*
X252648Y249032D02*
D03*
Y247031D02*
D03*
D14*
X294488Y220768D02*
D03*
Y220177D02*
D03*
X284941Y220571D02*
D03*
Y219980D02*
D03*
X282480Y223524D02*
D03*
Y224114D02*
D03*
D15*
X284547Y223228D02*
D03*
X283957D02*
D03*
X289764Y219587D02*
D03*
X289173D02*
D03*
X245374Y209449D02*
D03*
X245965D02*
D03*
X245374Y193701D02*
D03*
X245965D02*
D03*
X245374Y201575D02*
D03*
X245965D02*
D03*
X245571Y185827D02*
D03*
X246161D02*
D03*
X245965Y227559D02*
D03*
X245374D02*
D03*
X245965Y235433D02*
D03*
X245374D02*
D03*
X245965Y243307D02*
D03*
X245374D02*
D03*
X245965Y251181D02*
D03*
X245374D02*
D03*
X277461Y222047D02*
D03*
X276870D02*
D03*
X278740D02*
D03*
X278150D02*
D03*
X277657Y225492D02*
D03*
X277067D02*
D03*
X277067Y226083D02*
D03*
X277657D02*
D03*
X281004Y223032D02*
D03*
X281594D02*
D03*
X285433Y223228D02*
D03*
X286024D02*
D03*
X287343Y221654D02*
D03*
X286752D02*
D03*
X285433Y223917D02*
D03*
X286024D02*
D03*
X293504Y223622D02*
D03*
X294094D02*
D03*
D16*
X246043Y207874D02*
D03*
X245295D02*
D03*
X246043Y192126D02*
D03*
X245295D02*
D03*
X246043Y200000D02*
D03*
X245295D02*
D03*
X246220Y184252D02*
D03*
X245472D02*
D03*
X246043Y229134D02*
D03*
X245295D02*
D03*
X246043Y237008D02*
D03*
X245295D02*
D03*
X246043Y244882D02*
D03*
X245295D02*
D03*
X246043Y252756D02*
D03*
X245295D02*
D03*
D17*
X245472Y207067D02*
D03*
Y206319D02*
D03*
Y205492D02*
D03*
Y204744D02*
D03*
X245472Y191319D02*
D03*
Y190571D02*
D03*
Y189744D02*
D03*
Y188996D02*
D03*
X245472Y199213D02*
D03*
Y198465D02*
D03*
Y197638D02*
D03*
Y196890D02*
D03*
Y183445D02*
D03*
Y182697D02*
D03*
Y182067D02*
D03*
Y181319D02*
D03*
Y231319D02*
D03*
Y232067D02*
D03*
Y229941D02*
D03*
Y230689D02*
D03*
Y239193D02*
D03*
Y239941D02*
D03*
Y237815D02*
D03*
Y238563D02*
D03*
Y245689D02*
D03*
Y246437D02*
D03*
Y247067D02*
D03*
Y247815D02*
D03*
Y253563D02*
D03*
Y254311D02*
D03*
Y254941D02*
D03*
Y255689D02*
D03*
D18*
X264341Y200591D02*
D03*
X263219D02*
D03*
X264341Y184843D02*
D03*
X263219D02*
D03*
X264341Y176968D02*
D03*
X263219D02*
D03*
X264341Y192717D02*
D03*
X263219D02*
D03*
X264341Y243898D02*
D03*
X263219D02*
D03*
X264341Y236024D02*
D03*
X263219D02*
D03*
X264341Y228150D02*
D03*
X263219D02*
D03*
X272963Y254626D02*
D03*
X274085D02*
D03*
X264341Y251772D02*
D03*
X263219D02*
D03*
X272963Y246752D02*
D03*
X274085D02*
D03*
X272963Y238878D02*
D03*
X274085D02*
D03*
X272963Y187697D02*
D03*
X274085D02*
D03*
X272963Y231004D02*
D03*
X274085D02*
D03*
X272963Y195571D02*
D03*
X274085D02*
D03*
X272963Y179823D02*
D03*
X274085D02*
D03*
X272963Y203445D02*
D03*
X274085D02*
D03*
X280738Y223819D02*
D03*
X281860D02*
D03*
D19*
X271152Y176415D02*
D03*
Y176915D02*
D03*
Y177415D02*
D03*
Y177915D02*
D03*
X269006Y176415D02*
D03*
Y176915D02*
D03*
Y177415D02*
D03*
Y177915D02*
D03*
X271152Y184289D02*
D03*
Y184789D02*
D03*
Y185289D02*
D03*
Y185789D02*
D03*
X269006Y184289D02*
D03*
Y184789D02*
D03*
Y185289D02*
D03*
Y185789D02*
D03*
X271152Y192163D02*
D03*
Y192663D02*
D03*
Y193163D02*
D03*
Y193663D02*
D03*
X269006Y192163D02*
D03*
Y192663D02*
D03*
Y193163D02*
D03*
Y193663D02*
D03*
X271152Y200037D02*
D03*
Y200537D02*
D03*
Y201037D02*
D03*
Y201537D02*
D03*
X269006Y200037D02*
D03*
Y200537D02*
D03*
Y201037D02*
D03*
Y201537D02*
D03*
X271152Y235470D02*
D03*
Y235970D02*
D03*
Y236470D02*
D03*
Y236970D02*
D03*
X269006Y235470D02*
D03*
Y235970D02*
D03*
Y236470D02*
D03*
Y236970D02*
D03*
X271152Y243344D02*
D03*
Y243844D02*
D03*
Y244344D02*
D03*
Y244844D02*
D03*
X269006Y243344D02*
D03*
Y243844D02*
D03*
Y244344D02*
D03*
Y244844D02*
D03*
X271152Y251218D02*
D03*
Y251719D02*
D03*
Y252218D02*
D03*
Y252719D02*
D03*
X269006Y251218D02*
D03*
Y251719D02*
D03*
Y252218D02*
D03*
Y252719D02*
D03*
X271260Y227559D02*
D03*
Y228059D02*
D03*
Y228559D02*
D03*
Y229059D02*
D03*
X269114Y227559D02*
D03*
Y228059D02*
D03*
Y228559D02*
D03*
Y229059D02*
D03*
D20*
X268209Y241907D02*
D03*
Y241407D02*
D03*
Y240907D02*
D03*
Y240407D02*
D03*
Y239907D02*
D03*
Y239407D02*
D03*
Y238907D02*
D03*
Y238407D02*
D03*
X271949Y241907D02*
D03*
Y241407D02*
D03*
Y240907D02*
D03*
Y240407D02*
D03*
Y239907D02*
D03*
Y239407D02*
D03*
Y238907D02*
D03*
Y238407D02*
D03*
X268209Y257656D02*
D03*
Y257156D02*
D03*
Y256656D02*
D03*
Y256156D02*
D03*
Y255656D02*
D03*
Y255156D02*
D03*
Y254656D02*
D03*
Y254156D02*
D03*
X271949Y257656D02*
D03*
Y257156D02*
D03*
Y256656D02*
D03*
Y256156D02*
D03*
Y255656D02*
D03*
Y255156D02*
D03*
Y254656D02*
D03*
Y254156D02*
D03*
X268209Y249781D02*
D03*
Y249282D02*
D03*
Y248782D02*
D03*
Y248281D02*
D03*
Y247782D02*
D03*
Y247281D02*
D03*
Y246782D02*
D03*
Y246282D02*
D03*
X271949Y249781D02*
D03*
Y249282D02*
D03*
Y248782D02*
D03*
Y248281D02*
D03*
Y247782D02*
D03*
Y247281D02*
D03*
Y246782D02*
D03*
Y246282D02*
D03*
X268209Y234033D02*
D03*
Y233533D02*
D03*
Y233033D02*
D03*
Y232533D02*
D03*
Y232033D02*
D03*
Y231533D02*
D03*
Y231033D02*
D03*
Y230533D02*
D03*
X271949Y234033D02*
D03*
Y233533D02*
D03*
Y233033D02*
D03*
Y232533D02*
D03*
Y232033D02*
D03*
Y231533D02*
D03*
Y231033D02*
D03*
Y230533D02*
D03*
X268209Y206474D02*
D03*
Y205974D02*
D03*
Y205474D02*
D03*
Y204974D02*
D03*
Y204474D02*
D03*
Y203974D02*
D03*
Y203474D02*
D03*
Y202974D02*
D03*
X271949Y206474D02*
D03*
Y205974D02*
D03*
Y205474D02*
D03*
Y204974D02*
D03*
Y204474D02*
D03*
Y203974D02*
D03*
Y203474D02*
D03*
Y202974D02*
D03*
X268209Y198600D02*
D03*
Y198100D02*
D03*
Y197600D02*
D03*
Y197100D02*
D03*
Y196600D02*
D03*
Y196100D02*
D03*
Y195600D02*
D03*
Y195100D02*
D03*
X271949Y198600D02*
D03*
Y198100D02*
D03*
Y197600D02*
D03*
Y197100D02*
D03*
Y196600D02*
D03*
Y196100D02*
D03*
Y195600D02*
D03*
Y195100D02*
D03*
X268209Y190726D02*
D03*
Y190226D02*
D03*
Y189726D02*
D03*
Y189226D02*
D03*
Y188726D02*
D03*
Y188226D02*
D03*
Y187726D02*
D03*
Y187226D02*
D03*
X271949Y190726D02*
D03*
Y190226D02*
D03*
Y189726D02*
D03*
Y189226D02*
D03*
Y188726D02*
D03*
Y188226D02*
D03*
Y187726D02*
D03*
Y187226D02*
D03*
X268209Y182852D02*
D03*
Y182352D02*
D03*
Y181852D02*
D03*
Y181352D02*
D03*
Y180852D02*
D03*
Y180352D02*
D03*
Y179852D02*
D03*
Y179352D02*
D03*
X271949Y182852D02*
D03*
Y182352D02*
D03*
Y181852D02*
D03*
Y181352D02*
D03*
Y180852D02*
D03*
Y180352D02*
D03*
Y179852D02*
D03*
Y179352D02*
D03*
D21*
X292756Y220285D02*
D03*
Y220541D02*
D03*
Y220797D02*
D03*
Y221053D02*
D03*
Y221309D02*
D03*
Y221565D02*
D03*
Y221821D02*
D03*
Y222077D02*
D03*
Y222333D02*
D03*
Y222589D02*
D03*
Y222844D02*
D03*
Y223100D02*
D03*
Y223356D02*
D03*
Y223612D02*
D03*
X289921Y220285D02*
D03*
Y220541D02*
D03*
Y220797D02*
D03*
Y221053D02*
D03*
Y221309D02*
D03*
Y221565D02*
D03*
Y221821D02*
D03*
Y222077D02*
D03*
Y222333D02*
D03*
Y222589D02*
D03*
Y222844D02*
D03*
Y223100D02*
D03*
Y223356D02*
D03*
Y223612D02*
D03*
D22*
X275000Y221425D02*
D03*
Y222425D02*
D03*
Y223425D02*
D03*
Y224425D02*
D03*
X270236D02*
D03*
Y223425D02*
D03*
Y222425D02*
D03*
Y221425D02*
D03*
D23*
X263386Y222894D02*
D03*
Y224016D02*
D03*
D24*
X272362Y252559D02*
D03*
X273307Y252933D02*
D03*
Y252185D02*
D03*
X272362Y228740D02*
D03*
X273307Y229114D02*
D03*
Y228366D02*
D03*
X272362Y236614D02*
D03*
X273307Y236988D02*
D03*
Y236240D02*
D03*
X272362Y244685D02*
D03*
X273307Y245059D02*
D03*
Y244311D02*
D03*
X272362Y177756D02*
D03*
X273307Y178130D02*
D03*
Y177382D02*
D03*
X272362Y201575D02*
D03*
X273307Y201949D02*
D03*
Y201201D02*
D03*
X272362Y193504D02*
D03*
X273307Y193878D02*
D03*
Y193130D02*
D03*
X272362Y185630D02*
D03*
X273307Y186004D02*
D03*
Y185256D02*
D03*
X281890Y222441D02*
D03*
Y222067D02*
D03*
Y221693D02*
D03*
X280807D02*
D03*
Y222067D02*
D03*
Y222441D02*
D03*
X282923Y222421D02*
D03*
Y222047D02*
D03*
Y221673D02*
D03*
X284006D02*
D03*
Y222047D02*
D03*
Y222421D02*
D03*
X285974D02*
D03*
Y222047D02*
D03*
Y221673D02*
D03*
X284892D02*
D03*
Y222047D02*
D03*
Y222421D02*
D03*
D25*
X277827Y224606D02*
D03*
X276898D02*
D03*
D26*
X279350Y225423D02*
D03*
X280098D02*
D03*
X279724Y226348D02*
D03*
X283937Y224774D02*
D03*
X283189D02*
D03*
X283563Y223848D02*
D03*
D27*
X290945Y240059D02*
Y241043D01*
Y241634D02*
Y244094D01*
X281496Y240059D02*
Y241043D01*
Y241634D02*
Y244094D01*
X250787Y256693D02*
X250886Y256594D01*
Y255906D02*
Y256594D01*
X269047Y220236D02*
X270236Y221425D01*
X266339Y220236D02*
X269047D01*
X280354Y223819D02*
X280738D01*
X282156Y224114D02*
X282480D01*
X281860Y223819D02*
X282156Y224114D01*
X281594Y223553D02*
X281860Y223819D01*
X281594Y223032D02*
Y223553D01*
X280738Y223819D02*
X281004Y223553D01*
Y223032D02*
Y223553D01*
X279282Y225492D02*
X279350Y225423D01*
X278445Y225492D02*
X279282D01*
X277657D02*
X278445D01*
X277657D02*
X277827Y225323D01*
Y224606D02*
Y225323D01*
Y224606D02*
X277854Y224579D01*
Y223720D02*
Y224579D01*
X265748Y251968D02*
X268927D01*
X268967Y252008D01*
X269006Y251968D02*
Y252218D01*
Y251719D02*
Y251968D01*
X268967Y252008D02*
X269006Y251968D01*
X281860Y223819D02*
Y224803D01*
D28*
X251378Y188976D02*
X252165D01*
X252756Y188386D02*
Y188976D01*
X250787D02*
Y189764D01*
X252854Y255906D02*
X252953Y255807D01*
Y255315D02*
Y255807D01*
X252756Y255118D02*
X252953Y255315D01*
X252657Y247343D02*
X252756Y247244D01*
X252657Y247343D02*
Y248032D01*
X251378D02*
X252067D01*
X250787Y248819D02*
X250787Y248819D01*
X250787Y248032D02*
Y248819D01*
X252756Y239370D02*
Y240059D01*
X252657Y240157D02*
X252756Y240059D01*
X251280Y240157D02*
X252067D01*
X250689Y240846D02*
X250787Y240945D01*
X250689Y240157D02*
Y240846D01*
X252756Y196063D02*
X252756Y196063D01*
X252756Y196063D02*
Y196850D01*
X251378D02*
X252165D01*
X250787D02*
Y197638D01*
X252756Y180315D02*
X252854Y180413D01*
Y181102D01*
X251280D02*
X252264D01*
X250689Y181791D02*
X250787Y181890D01*
X250689Y181102D02*
Y181791D01*
X252953Y231693D02*
Y232087D01*
X252756Y232283D02*
X252953Y232087D01*
X251378Y232283D02*
X252165D01*
X250787D02*
Y233071D01*
X252953Y204134D02*
Y204626D01*
X252854Y204724D02*
X252953Y204626D01*
X251378Y204724D02*
X252264D01*
X250787D02*
Y205512D01*
X251476Y255906D02*
X252264D01*
X280935Y226348D02*
X281004Y226280D01*
X279724Y226348D02*
X280935D01*
X279459Y226083D02*
X279724Y226348D01*
X278445Y226083D02*
X279459D01*
X277657D02*
X278445D01*
X276898Y225323D02*
X277067Y225492D01*
X276898Y224606D02*
Y225323D01*
X273130Y184449D02*
X273268Y184311D01*
Y183465D02*
Y184311D01*
X272933Y235433D02*
X276283D01*
X276165Y227756D02*
X276244Y227677D01*
X273032Y227756D02*
X276165D01*
X273130Y192323D02*
X273228Y192224D01*
Y191339D02*
Y192224D01*
X273130Y176575D02*
X274197D01*
X273130Y243504D02*
X273228Y243406D01*
Y242520D02*
Y243406D01*
X272933Y251575D02*
X273213Y251295D01*
Y250591D02*
Y251295D01*
X272047Y201575D02*
X272362D01*
X271510Y201037D02*
X272047Y201575D01*
X271654Y200394D02*
X272539D01*
X271510Y200537D02*
X271654Y200394D01*
X268850Y184134D02*
X269006Y184289D01*
X263927Y184134D02*
X268850D01*
X263219Y184843D02*
X263927Y184134D01*
X268850Y192008D02*
X269006Y192163D01*
X263927Y192008D02*
X268850D01*
X263219Y192717D02*
X263927Y192008D01*
X268890Y199921D02*
X269006Y200037D01*
X263888Y199921D02*
X268890D01*
X263219Y200591D02*
X263888Y199921D01*
X268890Y235354D02*
X269006Y235470D01*
X263888Y235354D02*
X268890D01*
X263219Y236024D02*
X263888Y235354D01*
X268850Y243189D02*
X269006Y243344D01*
X263504Y243189D02*
X268850D01*
X263219Y243474D02*
X263504Y243189D01*
X268890Y251102D02*
X269006Y251218D01*
X263888Y251102D02*
X268890D01*
X263219Y251772D02*
X263888Y251102D01*
X294488Y219843D02*
Y220177D01*
X272933Y179852D02*
X272963Y179823D01*
X271949Y179852D02*
X272933D01*
X272933Y187726D02*
X272963Y187697D01*
X271949Y187726D02*
X272933D01*
Y195600D02*
X272963Y195571D01*
X271949Y195600D02*
X272933D01*
X272933Y203474D02*
X272963Y203445D01*
X271949Y203474D02*
X272933D01*
X272933Y254656D02*
X272963Y254626D01*
X271949Y254656D02*
X272933D01*
X272933Y246782D02*
X272963Y246752D01*
X271949Y246782D02*
X272933D01*
Y238907D02*
X272963Y238878D01*
X271949Y238907D02*
X272933D01*
X272933Y231033D02*
X272963Y231004D01*
X271949Y231033D02*
X272933D01*
X281594Y223032D02*
X281890Y222736D01*
Y222441D02*
Y222736D01*
X277067Y225492D02*
Y226083D01*
X276870Y223819D02*
Y224579D01*
X260039Y202953D02*
X263205D01*
X264189Y201968D01*
X269006Y200787D02*
Y201037D01*
Y200537D02*
Y200787D01*
X260039Y204134D02*
X264173D01*
X264764Y203543D01*
X264764D01*
X265748Y200787D02*
X269006D01*
X260039Y195079D02*
X263205D01*
X264189Y194094D01*
X260039Y196063D02*
X264370D01*
X264764Y195669D01*
X264370Y188189D02*
X264764Y187795D01*
X260039Y188189D02*
X264370D01*
X269006Y192913D02*
Y193163D01*
Y192663D02*
Y192913D01*
X264341Y193943D02*
X264620Y193663D01*
X269006D01*
X260039Y187205D02*
X263205D01*
X264189Y186220D01*
X269006Y185039D02*
Y185289D01*
Y184789D02*
Y185039D01*
X264341Y186069D02*
X264620Y185789D01*
X264189Y186220D02*
X264341Y186069D01*
X264620Y185789D02*
X269006D01*
X260039Y179528D02*
X263780D01*
X264189Y179118D01*
Y178346D02*
Y179118D01*
X260039Y180315D02*
X264370D01*
X264764Y179921D01*
X269006Y177165D02*
Y177415D01*
Y176915D02*
Y177165D01*
X264620Y177915D02*
X269006D01*
X265748Y177165D02*
X269006D01*
X264341Y178195D02*
X264620Y177915D01*
X264189Y178346D02*
X264341Y178195D01*
X268772Y176181D02*
X269006Y176415D01*
X264006Y176181D02*
X268772D01*
X263219Y176968D02*
X264006Y176181D01*
X264341Y201817D02*
X264620Y201537D01*
X269006D01*
X264370Y231496D02*
X264764Y231102D01*
X260039Y231496D02*
X264370D01*
X264189Y237402D02*
Y237976D01*
X263780Y238386D02*
X264189Y237976D01*
X260039Y238386D02*
X263780D01*
X264205Y229528D02*
Y230087D01*
X263780Y230512D02*
X264205Y230087D01*
X260039Y230512D02*
X263780D01*
X269114Y228059D02*
Y228346D01*
X264205Y229528D02*
X264341Y229392D01*
X260039Y239370D02*
X264370D01*
X264764Y238976D01*
X264341Y253030D02*
X264652Y252719D01*
X264220Y253150D02*
X264341Y253030D01*
X264652Y252719D02*
X269006D01*
X264341Y245124D02*
X264620Y244844D01*
X264189Y236175D02*
X264341Y236024D01*
X264189Y244049D02*
X264341Y243898D01*
X264620Y244844D02*
X269006D01*
X263219Y243474D02*
Y243898D01*
X265748Y244094D02*
X269006D01*
Y244344D01*
Y243844D02*
Y244094D01*
X271152Y193163D02*
X271510D01*
X271850Y193504D01*
X272362D01*
X271152Y192663D02*
X272199D01*
X272539Y192323D01*
X271152Y185289D02*
X271510D01*
X271850Y185630D01*
X272362D01*
X271152Y184789D02*
X271510D01*
X271850Y184449D01*
X272539D01*
X271152Y177415D02*
X271510D01*
X271850Y177756D01*
X272362D01*
X271152Y176915D02*
X271510D01*
X271850Y176575D01*
X272539D01*
X271152Y200537D02*
X271510D01*
X271152Y201037D02*
X271510D01*
X271260Y228559D02*
X271669D01*
X271850Y228740D01*
X272362D01*
X271260Y228059D02*
X271547D01*
X271850Y227756D01*
X272441D01*
X271152Y236470D02*
X271707D01*
X271850Y236614D01*
X272362D01*
X271152Y235970D02*
X271510D01*
X272047Y235433D01*
X272343D01*
X271152Y244344D02*
X271510D01*
X271850Y244685D01*
X272362D01*
X271152Y243844D02*
X271707D01*
X272047Y243504D01*
X272539D01*
X271152Y252218D02*
X271510D01*
X271850Y252559D01*
X272362D01*
X271152Y251719D02*
X271707D01*
X271850Y251575D01*
X272343D01*
X276248Y221425D02*
X276870Y222047D01*
X275000Y221425D02*
X276063D01*
X276248D01*
X272963Y202805D02*
Y203445D01*
X272953Y202795D02*
X272963Y202805D01*
Y195010D02*
Y195571D01*
X272953Y195000D02*
X272963Y195010D01*
Y187037D02*
Y187697D01*
Y187037D02*
X272992Y187008D01*
X272963Y179222D02*
Y179823D01*
X272953Y179213D02*
X272963Y179222D01*
Y253967D02*
Y254626D01*
Y253967D02*
X272992Y253937D01*
X272963Y246211D02*
Y246752D01*
Y246211D02*
X272992Y246181D01*
X272963Y238317D02*
Y238878D01*
X272953Y238307D02*
X272963Y238317D01*
Y230423D02*
Y231004D01*
Y230423D02*
X272992Y230394D01*
X264764Y246850D02*
X264764D01*
X264189Y245276D02*
Y245850D01*
X263583Y246457D02*
X264189Y245850D01*
X260039Y246457D02*
X263583D01*
X264370Y247244D02*
X264764Y246850D01*
X260039Y247244D02*
X264370D01*
X276870Y222047D02*
Y222146D01*
X276575Y222441D02*
X276870Y222146D01*
X276575Y222441D02*
Y222933D01*
X276870Y223228D01*
X269006Y235970D02*
Y236220D01*
Y236470D01*
X263219Y227844D02*
Y228150D01*
Y227844D02*
X263504Y227559D01*
X269114D01*
X264341Y229392D02*
X264756Y228976D01*
X269032D01*
X269114Y229059D01*
X265512Y236220D02*
X269006D01*
X264341Y237250D02*
X264620Y236970D01*
X269006D01*
X265591Y192913D02*
X269006D01*
X268967Y185000D02*
X269006Y185039D01*
X265591Y185000D02*
X268967D01*
X269114Y228346D02*
Y228559D01*
X265748Y228346D02*
X269114D01*
D29*
X292520Y223976D02*
Y227008D01*
X293937Y222520D02*
X294921Y223504D01*
X293425Y222520D02*
X293937D01*
X293100Y222844D02*
X293425Y222520D01*
X292756Y222844D02*
X293100D01*
X292756Y222333D02*
X294065D01*
X284990Y223228D02*
X285433D01*
X291890Y234016D02*
X295673D01*
X287087Y229213D02*
X291890Y234016D01*
X295728Y233032D02*
X295768Y233071D01*
X294921Y226894D02*
X295768Y227740D01*
X294921Y223504D02*
Y226894D01*
X294252Y228740D02*
X295768D01*
X292520Y227008D02*
X294252Y228740D01*
X294685Y239484D02*
X295768Y240567D01*
X294685Y237913D02*
Y239484D01*
X295177Y226150D02*
X295768Y226740D01*
X295177Y223445D02*
Y226150D01*
X294065Y222333D02*
X295177Y223445D01*
X288681Y222589D02*
X289921D01*
X287303Y220571D02*
Y221654D01*
X290709Y217283D02*
X291024Y216968D01*
X290157Y217283D02*
X290709D01*
X288976Y218465D02*
X290157Y217283D01*
X293449Y210528D02*
X295472D01*
X292244Y211732D02*
X293449Y210528D01*
X292244Y211732D02*
Y214173D01*
X291024Y215394D02*
X292244Y214173D01*
X291024Y215394D02*
Y216968D01*
X287953Y219882D02*
X288189Y220118D01*
Y221299D01*
X294685Y224016D02*
Y228346D01*
X291732Y221181D02*
Y222047D01*
X292313Y223356D02*
X292756D01*
X289390Y226280D02*
X292313Y223356D01*
X281004Y226280D02*
X289390D01*
X292126Y223032D02*
X292195Y223100D01*
X291732Y221181D02*
X291860Y221053D01*
X292756D01*
X292195Y223100D02*
X292756D01*
X273406Y228346D02*
X289370D01*
X273366Y228386D02*
X273406Y228346D01*
X279409Y224134D02*
X279429D01*
X281161Y222067D02*
X281181Y222087D01*
X280807Y222067D02*
X281161D01*
X288780Y221063D02*
X288789Y221053D01*
X288189Y221299D02*
X288199Y221309D01*
X283189Y225276D02*
X283189Y225276D01*
Y224774D02*
Y225276D01*
X284547Y223228D02*
X284990D01*
Y223573D02*
X285000Y223583D01*
X284990Y223228D02*
Y223573D01*
X283661Y222047D02*
X284006D01*
X283868Y221535D02*
X284006Y221673D01*
X283583Y221535D02*
X283868D01*
X284006Y222047D02*
Y222421D01*
X283957Y222470D02*
X284006Y222421D01*
X282923Y221211D02*
Y221673D01*
X277028Y221358D02*
X278150D01*
X278740Y221575D02*
X278740Y221575D01*
Y222047D01*
X284488Y223169D02*
X284547Y223228D01*
X284488Y222165D02*
Y223169D01*
Y222165D02*
X284606Y222047D01*
X284892D01*
X283957Y222470D02*
Y223228D01*
X287795Y221772D02*
Y221929D01*
X287677Y221654D02*
X287795Y221772D01*
X287343Y221654D02*
X287677D01*
X287303D02*
X287343D01*
X285974Y222047D02*
X286339D01*
X286437Y219980D02*
X286614Y220157D01*
X286122Y219980D02*
X286437D01*
X285531D02*
X285532Y219980D01*
X284941Y219980D02*
X285531D01*
X285974Y222421D02*
X286024Y222470D01*
Y223228D01*
Y223917D01*
X285433Y223228D02*
Y223917D01*
X283543Y224370D02*
X283563Y224350D01*
Y223848D02*
Y224350D01*
X282480Y224114D02*
Y224764D01*
X282441Y224803D02*
X282480Y224764D01*
X283937Y224774D02*
X283967Y224803D01*
X284646D01*
X285236D02*
X285591D01*
X288681Y222224D02*
X288701Y222205D01*
X288681Y222224D02*
Y222539D01*
X288091Y222224D02*
Y222539D01*
X287579Y223130D02*
X288091D01*
X287559Y223110D02*
X287579Y223130D01*
X288681D02*
X289892D01*
X288681Y222539D02*
Y222589D01*
X283238Y223524D02*
X283563Y223848D01*
X282480Y223524D02*
X283238D01*
X283002Y222441D02*
X283366D01*
X282923Y222421D02*
X282972Y222470D01*
X281791Y220768D02*
X281791Y220768D01*
X278150Y220768D02*
X281791D01*
X279429Y222047D02*
X279429Y222047D01*
X279429Y222047D02*
Y223228D01*
X286122Y220571D02*
X286122Y220571D01*
X285532Y220571D02*
X286122D01*
X285531Y220571D02*
X285532Y220571D01*
X284941Y220571D02*
X285531D01*
X285925Y221624D02*
X285974Y221673D01*
X286594D01*
X285974Y222047D02*
Y222421D01*
X284892D02*
X284941Y222470D01*
Y222638D01*
X281496Y221654D02*
X281535Y221693D01*
X282480Y222343D02*
Y223524D01*
X282205Y222067D02*
X282480Y222343D01*
X281890Y222067D02*
X282205D01*
X280738Y225423D02*
X281004Y225689D01*
X280098Y225423D02*
X280738D01*
X277067Y226083D02*
X277067Y226083D01*
X276870Y224579D02*
X276898Y224606D01*
X276870Y223228D02*
X276870Y223228D01*
X277461Y222047D02*
Y222539D01*
X278740Y222638D02*
X278740Y222638D01*
Y222047D02*
Y222638D01*
X284892Y221211D02*
Y221673D01*
X284941Y220669D02*
Y221161D01*
X282972D02*
X284941D01*
X284892Y221211D02*
X284941Y221161D01*
X280020Y221457D02*
X280630Y222067D01*
X279429Y222047D02*
X279429Y222047D01*
X279429Y221457D02*
Y222047D01*
X282923Y221211D02*
X282972Y221161D01*
X281004D02*
X282972D01*
X280807Y221358D02*
X281004Y221161D01*
X280020Y222047D02*
X280413Y222441D01*
X278740Y222047D02*
X279429D01*
X278150Y221358D02*
Y222047D01*
X277461D02*
X278150D01*
X245571Y185039D02*
Y185827D01*
X245571Y185039D02*
X245571Y185039D01*
X244094Y194291D02*
X244685Y193701D01*
X244094Y202165D02*
X244685Y201575D01*
X244094Y194291D02*
Y202165D01*
Y210039D02*
X244685Y209449D01*
X244094Y202165D02*
Y210039D01*
Y186417D02*
Y194291D01*
Y186417D02*
X244685Y185827D01*
X245571D01*
X245472Y207067D02*
X245512Y207106D01*
X245472Y191319D02*
X245492Y191339D01*
X245472Y183445D02*
Y184252D01*
X246220D02*
Y184980D01*
X246161Y185039D02*
X246220Y184980D01*
X246161Y185039D02*
Y185827D01*
X246161Y185827D01*
X248228Y193602D02*
X248819Y194193D01*
Y186319D02*
Y194193D01*
X246161Y185039D02*
X248130D01*
X248228Y185138D01*
Y185728D02*
X248819Y186319D01*
X248228Y201476D02*
X248819Y202067D01*
Y194193D02*
Y202067D01*
X248228Y209350D02*
X248819Y209941D01*
Y202067D02*
Y209941D01*
X244685Y209449D02*
X245374D01*
Y208661D02*
Y209449D01*
X245374Y208661D02*
X245374Y208661D01*
X245965Y208661D02*
Y209449D01*
X245965Y209449D01*
X246043Y207874D02*
Y208583D01*
X245965Y208661D02*
X246043Y208583D01*
X245374Y200787D02*
Y201575D01*
X244685Y201575D02*
X245374D01*
X245374Y201575D01*
X245965Y200079D02*
X246043Y200000D01*
X245965Y200079D02*
Y200787D01*
X244685Y193701D02*
X245374D01*
X245374Y192913D02*
Y193701D01*
X245374Y193701D01*
X246043Y192126D02*
Y192835D01*
X245965Y192913D02*
X246043Y192835D01*
X245965Y192913D02*
Y193701D01*
X245965Y193701D01*
X246161Y185827D02*
X247638Y187303D01*
X245965Y193701D02*
X247244Y194980D01*
X245965Y200787D02*
Y201575D01*
X245965Y201575D01*
X246850Y202461D01*
X245472Y182067D02*
Y182697D01*
X245472Y188583D02*
Y188996D01*
Y188583D02*
X245472Y188583D01*
X245472Y189744D02*
Y190571D01*
X245295Y191496D02*
X245472Y191319D01*
X245295Y191496D02*
Y192126D01*
X245472Y196457D02*
Y196890D01*
Y197638D02*
Y198465D01*
X245295Y199390D02*
X245472Y199213D01*
X245295Y199390D02*
Y200000D01*
X245472Y204331D02*
Y204744D01*
Y205492D02*
Y206319D01*
X245295Y207244D02*
X245472Y207067D01*
X245295Y207244D02*
Y207874D01*
X245472Y180906D02*
Y181319D01*
X248228Y251280D02*
X248819Y250689D01*
X248228Y243406D02*
X248819Y242815D01*
Y250689D01*
X248228Y235532D02*
X248819Y234941D01*
Y242815D01*
X244291Y227559D02*
X245374D01*
X244094Y227362D02*
X244291Y227559D01*
X244685Y235433D02*
X245374D01*
X244094Y234843D02*
X244685Y235433D01*
X244094Y227362D02*
Y234843D01*
X245295Y253386D02*
X245472Y253563D01*
X245295Y252756D02*
Y253386D01*
X246043Y252047D02*
Y252756D01*
X245965Y251968D02*
X246043Y252047D01*
X245374Y251181D02*
Y251968D01*
X245965Y251181D02*
Y251968D01*
X248130D01*
X248228Y251870D01*
X245295Y245512D02*
X245472Y245689D01*
X245295Y244882D02*
Y245512D01*
X246043Y244173D02*
Y244882D01*
X245965Y244094D02*
X246043Y244173D01*
X245965Y243307D02*
Y244094D01*
X245374Y243307D02*
Y244094D01*
X244685Y243307D02*
X245374D01*
X244094Y242717D02*
X244685Y243307D01*
X244094Y234843D02*
Y242717D01*
X245374Y235433D02*
Y236220D01*
X245295Y237008D02*
X245472Y237185D01*
Y237815D01*
X246043Y236299D02*
Y237008D01*
X245965Y236220D02*
X246043Y236299D01*
X245965Y235433D02*
Y236220D01*
Y251181D02*
X247638Y249508D01*
X245374Y227559D02*
Y228346D01*
X245965Y227559D02*
Y228346D01*
Y229055D01*
X246043Y229134D01*
X245472Y239941D02*
Y240551D01*
Y238563D02*
Y239193D01*
Y246437D02*
Y247067D01*
Y247815D02*
Y248425D01*
Y254311D02*
Y254941D01*
Y255689D02*
Y256299D01*
X245276Y229154D02*
X245295Y229134D01*
X245472Y230689D02*
Y231319D01*
Y232067D02*
Y232677D01*
X245295Y229764D02*
X245472Y229941D01*
X245295Y229134D02*
Y229764D01*
X245965Y243307D02*
X247244Y242028D01*
X245965Y235433D02*
X246850Y234547D01*
X245965Y227559D02*
X246457Y227067D01*
X248819Y229724D02*
Y234941D01*
X244094Y226504D02*
Y227362D01*
Y210039D02*
Y211024D01*
X247638Y187303D02*
Y212598D01*
X247244Y194980D02*
Y212598D01*
X246457Y209941D02*
Y212598D01*
X245965Y209449D02*
X246457Y209941D01*
X246850Y202461D02*
Y212598D01*
X248819Y209941D02*
Y212598D01*
X255276Y222323D02*
Y223858D01*
X248819Y229724D02*
X250197Y228346D01*
Y226968D02*
Y228346D01*
X242913Y225323D02*
X244094Y226504D01*
X246457Y226968D02*
Y227067D01*
X289173Y220669D02*
X289301Y220797D01*
X289173Y219587D02*
Y220669D01*
X286122Y219980D02*
X286220Y219882D01*
X286142Y219488D02*
Y219803D01*
X285945Y221339D02*
Y221604D01*
X273307Y252185D02*
X273327Y252165D01*
X291732Y220551D02*
X291742Y220541D01*
X273307Y244311D02*
X273327Y244291D01*
X290640Y222333D02*
X290748Y222441D01*
Y222480D01*
X273307Y228366D02*
X273327Y228346D01*
X289370Y222323D02*
X289380Y222333D01*
X289301Y220797D02*
X289921D01*
X291742Y220541D02*
X292756D01*
X289892Y223130D02*
X289921Y223100D01*
Y222333D02*
X290640D01*
X289380D02*
X289921D01*
X288199Y221309D02*
X289921D01*
X288789Y221053D02*
X289921D01*
Y222077D02*
X289931Y222087D01*
X290945D01*
X290958Y222073D01*
X273366Y236181D02*
X281024D01*
X273307Y236240D02*
X273366Y236181D01*
X273327Y244291D02*
X277205D01*
X290906Y221732D02*
X291142D01*
X289921Y221821D02*
X290817D01*
X290906Y221732D01*
X275551Y193701D02*
Y194370D01*
X274980Y193130D02*
X275551Y193701D01*
X273307Y193130D02*
X273307Y193130D01*
X274980D01*
X273307Y185256D02*
X273327Y185236D01*
X275079D01*
X275787Y185945D01*
X276063Y177992D02*
Y178425D01*
X275453Y177382D02*
X276063Y177992D01*
X273307Y177382D02*
X273307Y177382D01*
X275453Y177382D01*
X281004Y225689D02*
X281358D01*
X281378Y225669D01*
X245965Y244094D02*
X247047D01*
X247933D02*
X248130D01*
X248228Y243996D01*
X245965Y236220D02*
X246555D01*
X247933D02*
X248130D01*
X248228Y236122D01*
X246850Y227854D02*
Y234547D01*
X247244Y227854D02*
Y242028D01*
X247638Y227854D02*
Y249508D01*
X245965Y228346D02*
X246358D01*
X246358Y228346D01*
X247933D02*
X248130D01*
X248228Y228248D01*
X245965Y200787D02*
X246339D01*
X247913D02*
X248130D01*
X248228Y200886D01*
X245965Y192913D02*
X246378D01*
X247913D02*
X248130D01*
X248228Y193012D01*
X245965Y208661D02*
X246339D01*
X247913D02*
X248130D01*
X248228Y208760D01*
X277264Y222736D02*
X277461Y222539D01*
X281535Y221693D02*
X281890D01*
X280413Y222441D02*
X280807D01*
X280630Y222067D02*
X280807D01*
Y221358D02*
Y221693D01*
X286142Y219803D02*
X286220Y219882D01*
X285925Y221624D02*
X285945Y221604D01*
X286594Y221673D02*
X286713Y221555D01*
X282972Y222470D02*
X283002Y222441D01*
X287559Y229213D02*
Y229370D01*
X291220Y233032D01*
X295728D01*
X288068Y229589D02*
X288071Y229134D01*
X288068Y229589D02*
X290494Y232047D01*
X295705D01*
X244094Y242717D02*
Y250197D01*
X245079Y251181D01*
X245374D01*
X295705Y232047D02*
X295768Y232110D01*
X273307Y201181D02*
X275984D01*
X295673Y234016D02*
X295768Y234110D01*
X273327Y228346D02*
X273366Y228386D01*
X295748Y233091D02*
X295768Y233110D01*
X279429Y223819D02*
Y224134D01*
D30*
X293504Y223819D02*
X293701Y224016D01*
X293504Y222953D02*
X293622Y222835D01*
X288701Y220984D02*
X288780Y221063D01*
X288701Y220197D02*
Y220984D01*
X287598Y219094D02*
X288701Y220197D01*
Y219213D02*
Y220197D01*
Y219213D02*
X290197Y217717D01*
X292677Y212126D02*
Y216024D01*
Y212126D02*
X293276Y211528D01*
X290984Y217717D02*
X292677Y216024D01*
X293276Y211528D02*
X295472D01*
X290197Y217717D02*
X290984D01*
X292411Y220285D02*
X292756D01*
X291642Y219516D02*
X292411Y220285D01*
X291642Y219193D02*
Y219516D01*
X293504Y223622D02*
Y223819D01*
X292756Y223740D02*
X293032Y224016D01*
X292756Y223612D02*
Y223740D01*
X273130Y200114D02*
Y200394D01*
X272425Y199409D02*
X273130Y200114D01*
X295472Y207528D02*
X295646Y207354D01*
Y205197D02*
Y207354D01*
X294323Y212598D02*
X295472Y213748D01*
X293681Y212598D02*
X294323D01*
X293091Y213169D02*
X293346Y213425D01*
X293091Y212598D02*
Y213169D01*
X295457Y209512D02*
X295472Y209528D01*
X291968Y209512D02*
X295457D01*
X291576Y210904D02*
Y213425D01*
Y210904D02*
X291968Y210512D01*
X294488Y220768D02*
Y221358D01*
X294282Y221565D02*
X294488Y221358D01*
X294360Y221821D02*
X294488Y221949D01*
X281850Y224803D02*
X281860D01*
X293573Y220797D02*
X293583Y220787D01*
X293504Y222953D02*
Y223622D01*
X293494Y223612D02*
X293504Y223622D01*
X248228Y227657D02*
X248917Y226968D01*
X250197D01*
X289764Y219587D02*
X289921Y219744D01*
X292746Y221299D02*
X292756Y221309D01*
X292283Y221299D02*
X292746D01*
X271949Y204474D02*
X273569D01*
X271949Y196600D02*
X273372D01*
X273622Y196850D01*
X271949Y188726D02*
X273372D01*
X273622Y188976D01*
X271949Y180852D02*
X273372D01*
X273622Y181102D01*
X271949Y232033D02*
X273372D01*
X273622Y232283D01*
X271949Y239907D02*
X273372D01*
X273622Y240157D01*
X271949Y247782D02*
X273372D01*
X273622Y248032D01*
X271949Y255656D02*
X273372D01*
X273622Y255906D01*
X274606Y220472D02*
X275984Y219094D01*
X277835Y216811D02*
Y219094D01*
Y216811D02*
X278346Y216299D01*
X275984Y219094D02*
X277835D01*
X287598D01*
X273307Y252185D02*
X276949D01*
X276968Y252165D01*
X292756Y221565D02*
X294282D01*
X292756Y223612D02*
X293494D01*
X292756Y221821D02*
X294360D01*
X292756Y220797D02*
X293573D01*
X271949Y205974D02*
X272982D01*
X272992Y205984D01*
X271949Y198100D02*
X272982D01*
X272992Y198110D01*
X271949Y190226D02*
X272904D01*
X272913Y190236D01*
X271949Y182352D02*
X272963D01*
X272992Y182323D01*
X271949Y257156D02*
X272864D01*
X272874Y257165D01*
X271949Y249282D02*
X272904D01*
X272913Y249291D01*
X271949Y241407D02*
X273100D01*
X273110Y241417D01*
X271949Y233533D02*
X273041D01*
X273071Y233504D01*
X291642Y219193D02*
X294028D01*
X295472Y217748D01*
X291092Y218042D02*
Y219193D01*
Y218042D02*
X292386Y216748D01*
X295472D01*
X273569Y204474D02*
X273819Y204724D01*
X289921Y220541D02*
X290758D01*
X291092Y220207D01*
Y219193D02*
Y220207D01*
D31*
X291348Y222844D02*
X291732Y223228D01*
X289921Y222844D02*
X291348D01*
X289921Y224173D02*
X289961Y224213D01*
X289921Y223612D02*
Y224173D01*
D32*
X240551Y194972D02*
X242520Y193004D01*
X240551Y194972D02*
Y202846D01*
X242520Y200878D01*
X240892Y242376D02*
Y248796D01*
Y234502D02*
Y242376D01*
X242520Y244004D01*
X240892Y234502D02*
X242520Y236130D01*
X240892Y248796D02*
X242520Y250424D01*
Y251878D01*
X264341Y176968D02*
Y178195D01*
X263189Y176998D02*
X263219Y176968D01*
X263189Y176998D02*
Y178346D01*
X264341Y192717D02*
Y193943D01*
Y184843D02*
Y186069D01*
X263189Y184872D02*
X263219Y184843D01*
X263189Y184872D02*
Y186220D01*
Y192746D02*
X263219Y192717D01*
X263189Y192746D02*
Y194094D01*
X264341Y200591D02*
Y201817D01*
X263189Y200620D02*
X263219Y200591D01*
X263189Y200620D02*
Y201968D01*
X264341Y228150D02*
Y229392D01*
X263205Y228163D02*
X263219Y228150D01*
X263205Y228163D02*
Y229528D01*
X264341Y236024D02*
Y237250D01*
X264189Y237402D02*
X264341Y237250D01*
X263189Y236053D02*
X263219Y236024D01*
X263189Y236053D02*
Y237402D01*
X264341Y243898D02*
Y245124D01*
X264189Y245276D02*
X264341Y245124D01*
X263189Y243927D02*
X263219Y243898D01*
X263189Y243927D02*
Y245276D01*
X263219Y251772D02*
X263220Y251774D01*
Y253150D01*
X264341Y251772D02*
Y253030D01*
X270220Y224409D02*
X270236Y224425D01*
X240551Y202846D02*
Y211417D01*
X242520Y213386D01*
Y208752D02*
Y213386D01*
X260913Y221323D02*
X262661D01*
X263386Y222047D01*
Y222894D01*
X260913Y225323D02*
X262472D01*
X263386Y224409D01*
Y224016D02*
Y224409D01*
X259843Y222394D02*
Y225984D01*
X261205Y227346D01*
Y229528D01*
X263386Y222894D02*
X265807D01*
X267323Y224409D01*
X262175Y245262D02*
X262189Y245276D01*
X262175Y253104D02*
X262220Y253150D01*
X262175Y194081D02*
X262189Y194094D01*
X262175Y237388D02*
X262189Y237402D01*
X242520Y213386D02*
X242913Y213780D01*
Y217323D01*
X265130Y211122D02*
X266535Y209717D01*
X242913Y217323D02*
X249213D01*
X255413Y211122D01*
X262303D02*
X265130D01*
X259843Y222394D02*
X260913Y221323D01*
X267323Y224409D02*
X269488D01*
X270220D01*
X238780Y223622D02*
X239907D01*
X240892Y222638D01*
Y234502D01*
Y217520D02*
Y222638D01*
X242717Y217520D02*
X242913Y217323D01*
X256299Y211122D02*
X262303D01*
X255413D02*
X256299D01*
X238780Y217520D02*
X240892D01*
X242717D01*
D33*
X289764Y208268D02*
D03*
Y206299D02*
D03*
X281496Y244094D02*
D03*
X290945D02*
D03*
X288583D02*
D03*
X286220D02*
D03*
X283858D02*
D03*
D34*
X273622Y204724D02*
D03*
Y181102D02*
D03*
Y188976D02*
D03*
Y196850D02*
D03*
Y255906D02*
D03*
Y232283D02*
D03*
Y240157D02*
D03*
Y248032D02*
D03*
D35*
X291576Y215985D02*
D03*
X293346D02*
D03*
X291576Y213425D02*
D03*
X295472Y209528D02*
D03*
Y210528D02*
D03*
Y211528D02*
D03*
Y208528D02*
D03*
Y215748D02*
D03*
Y216748D02*
D03*
Y217748D02*
D03*
Y214748D02*
D03*
D36*
X293346Y213425D02*
D03*
X295472Y207528D02*
D03*
Y213748D02*
D03*
D37*
X242520Y236130D02*
D03*
Y193004D02*
D03*
Y251878D02*
D03*
Y208752D02*
D03*
Y244004D02*
D03*
Y200878D02*
D03*
D38*
Y240248D02*
D03*
Y188886D02*
D03*
Y255996D02*
D03*
Y204634D02*
D03*
Y248122D02*
D03*
Y196760D02*
D03*
X242913Y217323D02*
D03*
X260913Y221323D02*
D03*
X242913Y225323D02*
D03*
X260913D02*
D03*
X284535Y217717D02*
D03*
X266535D02*
D03*
X284535Y213717D02*
D03*
X266535Y209717D02*
D03*
D39*
X262303Y213091D02*
D03*
Y211122D02*
D03*
X238780Y223622D02*
D03*
Y225591D02*
D03*
X256299Y211122D02*
D03*
Y213091D02*
D03*
X238780Y217520D02*
D03*
Y219488D02*
D03*
D40*
X236976Y181102D02*
D03*
X238976D02*
D03*
X236976Y196850D02*
D03*
X238976D02*
D03*
X236976Y232283D02*
D03*
X238976D02*
D03*
X237008Y248032D02*
D03*
X239008D02*
D03*
X237008Y188976D02*
D03*
X239008D02*
D03*
X237008Y204724D02*
D03*
X239008D02*
D03*
X236976Y240157D02*
D03*
X238976D02*
D03*
X237008Y255906D02*
D03*
X239008D02*
D03*
X266339Y226142D02*
D03*
Y220236D02*
D03*
X287697Y215240D02*
D03*
Y214240D02*
D03*
X262189Y201968D02*
D03*
X263189D02*
D03*
X264189D02*
D03*
Y178346D02*
D03*
X263189D02*
D03*
X262189D02*
D03*
Y186220D02*
D03*
X263189D02*
D03*
X264189D02*
D03*
Y194094D02*
D03*
X263189D02*
D03*
X262189D02*
D03*
X262220Y253150D02*
D03*
X263220D02*
D03*
X264220D02*
D03*
X264205Y229528D02*
D03*
X263205D02*
D03*
X262205D02*
D03*
X262189Y237402D02*
D03*
X263189D02*
D03*
X264189D02*
D03*
Y245276D02*
D03*
X263189D02*
D03*
X262189D02*
D03*
X295646Y205197D02*
D03*
X291968Y210512D02*
D03*
X273228Y242520D02*
D03*
Y191339D02*
D03*
X276283Y235433D02*
D03*
X273268Y183465D02*
D03*
X276244Y227677D02*
D03*
X274197Y176575D02*
D03*
X273213Y250591D02*
D03*
X272425Y199409D02*
D03*
X295768Y228740D02*
D03*
Y227740D02*
D03*
Y226740D02*
D03*
Y225740D02*
D03*
Y238567D02*
D03*
Y239567D02*
D03*
Y240567D02*
D03*
Y241567D02*
D03*
Y231071D02*
D03*
Y232071D02*
D03*
Y233071D02*
D03*
Y234071D02*
D03*
D41*
X291092Y219193D02*
D03*
X291642D02*
D03*
D42*
X287697Y216240D02*
D03*
X291968Y209512D02*
D03*
X295768Y224740D02*
D03*
Y237567D02*
D03*
Y235071D02*
D03*
D43*
X261189Y201968D02*
D03*
Y178346D02*
D03*
Y186220D02*
D03*
Y194094D02*
D03*
X261220Y253150D02*
D03*
X261205Y229528D02*
D03*
X261189Y237402D02*
D03*
Y245276D02*
D03*
X294646Y205197D02*
D03*
X274228Y242520D02*
D03*
Y191339D02*
D03*
X277283Y235433D02*
D03*
X274268Y183465D02*
D03*
X277244Y227677D02*
D03*
X275197Y176575D02*
D03*
X274213Y250591D02*
D03*
X273425Y199409D02*
D03*
D44*
X234331Y181102D02*
D03*
X234252Y216535D02*
D03*
Y232283D02*
D03*
Y196850D02*
D03*
Y212598D02*
D03*
Y248032D02*
D03*
Y188976D02*
D03*
Y224409D02*
D03*
Y240157D02*
D03*
Y204724D02*
D03*
Y220472D02*
D03*
Y255906D02*
D03*
D45*
X232283Y258858D02*
D03*
X296260D02*
D03*
Y176181D02*
D03*
X232283D02*
D03*
D46*
X287402Y231890D02*
D03*
X285433Y229921D02*
D03*
X283465Y208661D02*
D03*
Y212598D02*
D03*
X279528D02*
D03*
Y208661D02*
D03*
Y204724D02*
D03*
X287402D02*
D03*
X291339D02*
D03*
X295276Y200787D02*
D03*
X291339D02*
D03*
X287402D02*
D03*
X283465D02*
D03*
X279528Y196850D02*
D03*
X283465D02*
D03*
X287402D02*
D03*
X291339D02*
D03*
X295276D02*
D03*
Y192913D02*
D03*
X291339D02*
D03*
X287402D02*
D03*
X283465D02*
D03*
X279528D02*
D03*
Y188976D02*
D03*
X283465D02*
D03*
X287402D02*
D03*
X291339D02*
D03*
X295276D02*
D03*
Y185039D02*
D03*
X291339D02*
D03*
X287402D02*
D03*
X283465D02*
D03*
X279528D02*
D03*
X283465Y181102D02*
D03*
X287402D02*
D03*
X291339D02*
D03*
X295276D02*
D03*
X291339Y177165D02*
D03*
X287402D02*
D03*
X283465D02*
D03*
X279528D02*
D03*
X289370Y238189D02*
D03*
X285433D02*
D03*
X281496D02*
D03*
X293307Y242126D02*
D03*
X289370D02*
D03*
X285433D02*
D03*
X281496Y246063D02*
D03*
X285433D02*
D03*
X289370D02*
D03*
X293307D02*
D03*
Y250000D02*
D03*
X289370D02*
D03*
X285433D02*
D03*
X281496D02*
D03*
Y253937D02*
D03*
X285433D02*
D03*
X289370D02*
D03*
X293307D02*
D03*
Y257874D02*
D03*
X289370D02*
D03*
X285433D02*
D03*
X281496D02*
D03*
X277559D02*
D03*
X292126Y224213D02*
D03*
X292520Y223976D02*
D03*
X293701Y224016D02*
D03*
X293622Y222835D02*
D03*
X285000Y224016D02*
D03*
X273504Y221201D02*
D03*
X273543Y220118D02*
D03*
X288976Y218465D02*
D03*
X287953Y219882D02*
D03*
X293032Y224016D02*
D03*
X294685Y237913D02*
D03*
Y228346D02*
D03*
Y224016D02*
D03*
X291732Y222047D02*
D03*
Y223228D02*
D03*
X292126Y223032D02*
D03*
X289370Y228346D02*
D03*
X288071Y229134D02*
D03*
X287087Y229213D02*
D03*
X287559D02*
D03*
X289961Y224213D02*
D03*
X275984Y201181D02*
D03*
X267717Y179134D02*
D03*
Y179528D02*
D03*
Y179921D02*
D03*
Y180315D02*
D03*
Y180709D02*
D03*
X267323D02*
D03*
Y180315D02*
D03*
Y179921D02*
D03*
Y179528D02*
D03*
Y179134D02*
D03*
X266929D02*
D03*
Y179528D02*
D03*
Y179921D02*
D03*
Y180315D02*
D03*
Y180709D02*
D03*
X267717Y187008D02*
D03*
Y187402D02*
D03*
Y187795D02*
D03*
Y188189D02*
D03*
Y188583D02*
D03*
X267323D02*
D03*
Y188189D02*
D03*
Y187795D02*
D03*
Y187402D02*
D03*
Y187008D02*
D03*
X266929D02*
D03*
Y187402D02*
D03*
Y187795D02*
D03*
Y188189D02*
D03*
Y188583D02*
D03*
X267717Y194882D02*
D03*
Y195276D02*
D03*
Y195669D02*
D03*
Y196063D02*
D03*
Y196457D02*
D03*
X267323D02*
D03*
Y196063D02*
D03*
Y195669D02*
D03*
Y195276D02*
D03*
Y194882D02*
D03*
X266929D02*
D03*
Y195276D02*
D03*
Y195669D02*
D03*
Y196063D02*
D03*
Y196457D02*
D03*
X267717Y202756D02*
D03*
Y203150D02*
D03*
Y203543D02*
D03*
Y203937D02*
D03*
Y204331D02*
D03*
X267323D02*
D03*
Y203937D02*
D03*
Y203543D02*
D03*
Y203150D02*
D03*
Y202756D02*
D03*
X266929D02*
D03*
Y203150D02*
D03*
Y203543D02*
D03*
Y203937D02*
D03*
Y204331D02*
D03*
X294488Y219843D02*
D03*
X281850Y224803D02*
D03*
X279409Y224134D02*
D03*
X280354Y223819D02*
D03*
X281181Y222087D02*
D03*
X293583Y220787D02*
D03*
X288780Y221063D02*
D03*
X288189Y221299D02*
D03*
X283189Y225276D02*
D03*
X285000Y223583D02*
D03*
X283661Y222047D02*
D03*
X283583Y221535D02*
D03*
X277028Y221358D02*
D03*
X278740Y221575D02*
D03*
X287795Y221929D02*
D03*
X286339Y222047D02*
D03*
X286614Y220157D02*
D03*
X283543Y224370D02*
D03*
X282441Y224803D02*
D03*
X285591D02*
D03*
X288701Y222205D02*
D03*
X288091Y222224D02*
D03*
X287559Y223110D02*
D03*
X283366Y222441D02*
D03*
X281791Y220768D02*
D03*
X284941Y222638D02*
D03*
X281496Y221654D02*
D03*
X278740Y222638D02*
D03*
X277854Y223720D02*
D03*
X260039Y202953D02*
D03*
Y204134D02*
D03*
X264764Y203543D02*
D03*
X265748Y200787D02*
D03*
X260039Y195079D02*
D03*
X252756Y195669D02*
D03*
X252362D02*
D03*
X251968D02*
D03*
Y196063D02*
D03*
X260039D02*
D03*
X264764Y195669D02*
D03*
Y187795D02*
D03*
X260039Y187205D02*
D03*
X252756Y187795D02*
D03*
X252362D02*
D03*
Y188189D02*
D03*
X251968Y187795D02*
D03*
Y188189D02*
D03*
X260039D02*
D03*
Y179528D02*
D03*
X264764Y179921D02*
D03*
X252756D02*
D03*
Y180315D02*
D03*
X252362Y179921D02*
D03*
X260039Y180315D02*
D03*
X265748Y177165D02*
D03*
X267717Y230315D02*
D03*
X267323D02*
D03*
X266929D02*
D03*
Y230709D02*
D03*
X267323D02*
D03*
X267717D02*
D03*
Y231102D02*
D03*
X267323D02*
D03*
X266929D02*
D03*
Y231496D02*
D03*
X267323D02*
D03*
X267717D02*
D03*
Y231890D02*
D03*
X267323D02*
D03*
X266929D02*
D03*
X267717Y238189D02*
D03*
Y238583D02*
D03*
Y238976D02*
D03*
Y239370D02*
D03*
Y239764D02*
D03*
X267323D02*
D03*
Y239370D02*
D03*
Y238976D02*
D03*
Y238583D02*
D03*
Y238189D02*
D03*
X266929D02*
D03*
Y238583D02*
D03*
Y238976D02*
D03*
Y239370D02*
D03*
Y239764D02*
D03*
X267717Y246063D02*
D03*
Y246457D02*
D03*
Y246850D02*
D03*
Y247244D02*
D03*
Y247638D02*
D03*
X267323D02*
D03*
Y247244D02*
D03*
Y246850D02*
D03*
Y246457D02*
D03*
Y246063D02*
D03*
X266929D02*
D03*
Y246457D02*
D03*
Y246850D02*
D03*
Y247244D02*
D03*
Y247638D02*
D03*
X267717Y253937D02*
D03*
Y254331D02*
D03*
Y254724D02*
D03*
Y255118D02*
D03*
Y255512D02*
D03*
X267323Y255118D02*
D03*
Y255512D02*
D03*
Y254724D02*
D03*
Y254331D02*
D03*
Y253937D02*
D03*
X266929D02*
D03*
Y254331D02*
D03*
Y254724D02*
D03*
Y255118D02*
D03*
Y255512D02*
D03*
X264764Y231102D02*
D03*
X265748Y228346D02*
D03*
X260039Y230512D02*
D03*
Y231496D02*
D03*
Y238386D02*
D03*
X252756Y238976D02*
D03*
Y238583D02*
D03*
X252362D02*
D03*
Y238976D02*
D03*
X251968D02*
D03*
Y239370D02*
D03*
X260039D02*
D03*
X264764Y238976D02*
D03*
X265748Y251968D02*
D03*
Y244094D02*
D03*
X252756Y254331D02*
D03*
Y255118D02*
D03*
X252362Y254331D02*
D03*
X252756Y254724D02*
D03*
X252362Y255118D02*
D03*
Y254724D02*
D03*
X251575Y254331D02*
D03*
X251181D02*
D03*
X251968Y255118D02*
D03*
Y254724D02*
D03*
Y254331D02*
D03*
X251575Y254724D02*
D03*
X251181D02*
D03*
X251575Y255118D02*
D03*
X250787Y254724D02*
D03*
X251181Y255118D02*
D03*
X250787Y254331D02*
D03*
X252756Y257087D02*
D03*
Y256693D02*
D03*
X251968D02*
D03*
Y257480D02*
D03*
X251575Y257087D02*
D03*
X252362D02*
D03*
Y256693D02*
D03*
X251181Y257087D02*
D03*
X251575Y256693D02*
D03*
Y257480D02*
D03*
X251968Y257087D02*
D03*
X252756Y257480D02*
D03*
Y179528D02*
D03*
X252362D02*
D03*
X251968D02*
D03*
X251575D02*
D03*
X251181D02*
D03*
X250787D02*
D03*
Y179921D02*
D03*
X251181D02*
D03*
X251575D02*
D03*
X251968D02*
D03*
X252362Y180315D02*
D03*
X251968D02*
D03*
X251575D02*
D03*
X251181D02*
D03*
X250787D02*
D03*
X252756Y181890D02*
D03*
X252362D02*
D03*
X251968D02*
D03*
X251575D02*
D03*
X251181D02*
D03*
X250787D02*
D03*
Y182283D02*
D03*
X251181D02*
D03*
X251575D02*
D03*
X251968D02*
D03*
X252362D02*
D03*
X252756D02*
D03*
Y182677D02*
D03*
X252362D02*
D03*
X251968D02*
D03*
X251575D02*
D03*
X251181D02*
D03*
X250787D02*
D03*
X252362Y187402D02*
D03*
X252756D02*
D03*
X251968D02*
D03*
X251575D02*
D03*
X251181D02*
D03*
X250787D02*
D03*
Y187795D02*
D03*
X251181D02*
D03*
X251575D02*
D03*
X252756Y188189D02*
D03*
X251575D02*
D03*
X251181D02*
D03*
X250787D02*
D03*
X252756Y189764D02*
D03*
X252362D02*
D03*
X251968D02*
D03*
X251575D02*
D03*
X251181D02*
D03*
X250787D02*
D03*
Y190157D02*
D03*
X251181D02*
D03*
X251575D02*
D03*
X251968D02*
D03*
X252362D02*
D03*
X252756D02*
D03*
Y190551D02*
D03*
X252362D02*
D03*
X251968D02*
D03*
X251575D02*
D03*
X251181D02*
D03*
X250787D02*
D03*
X252756Y195276D02*
D03*
X252362D02*
D03*
X251968D02*
D03*
X251575D02*
D03*
X251181D02*
D03*
X250787D02*
D03*
Y195669D02*
D03*
X251181D02*
D03*
X251575D02*
D03*
X252756Y196063D02*
D03*
X252362D02*
D03*
X251575D02*
D03*
X251181D02*
D03*
X250787D02*
D03*
X252756Y197638D02*
D03*
X252362D02*
D03*
X251968D02*
D03*
X251575D02*
D03*
X251181D02*
D03*
X250787D02*
D03*
Y198032D02*
D03*
X251181D02*
D03*
X251575D02*
D03*
X251968D02*
D03*
X252362D02*
D03*
X252756D02*
D03*
Y198425D02*
D03*
X251968D02*
D03*
X252362D02*
D03*
X251575D02*
D03*
X251181D02*
D03*
X250787D02*
D03*
X252756Y203150D02*
D03*
X252362D02*
D03*
X251968D02*
D03*
X251575D02*
D03*
X251181D02*
D03*
X250787D02*
D03*
Y203543D02*
D03*
X251181D02*
D03*
X251575D02*
D03*
X251968D02*
D03*
X252362D02*
D03*
X252756D02*
D03*
Y203937D02*
D03*
X252362D02*
D03*
X251968D02*
D03*
X251181D02*
D03*
X251575D02*
D03*
X250787D02*
D03*
X252756Y205512D02*
D03*
X252362D02*
D03*
X251968D02*
D03*
X251575D02*
D03*
X251181D02*
D03*
X250787D02*
D03*
Y205906D02*
D03*
X251181D02*
D03*
X251575D02*
D03*
X251968D02*
D03*
X252362D02*
D03*
X252756D02*
D03*
Y206299D02*
D03*
X252362D02*
D03*
X251968D02*
D03*
X251575D02*
D03*
X251181D02*
D03*
X250787D02*
D03*
X252756Y230709D02*
D03*
X252362D02*
D03*
X251968D02*
D03*
X251575D02*
D03*
X251181D02*
D03*
X250787D02*
D03*
Y231102D02*
D03*
X251181D02*
D03*
X251575D02*
D03*
X251968D02*
D03*
X252362D02*
D03*
X252756D02*
D03*
Y231496D02*
D03*
X252362D02*
D03*
X251968D02*
D03*
X251575D02*
D03*
X251181D02*
D03*
X250787D02*
D03*
X252756Y233071D02*
D03*
X252362D02*
D03*
X251968D02*
D03*
X251575D02*
D03*
X251181D02*
D03*
X250787D02*
D03*
Y233465D02*
D03*
X251181D02*
D03*
X251575D02*
D03*
X251968D02*
D03*
X252362D02*
D03*
X252756D02*
D03*
Y233858D02*
D03*
X252362D02*
D03*
X251968D02*
D03*
X251575D02*
D03*
X251181D02*
D03*
X250787D02*
D03*
X251968Y238583D02*
D03*
X251575D02*
D03*
X251181D02*
D03*
X250787D02*
D03*
Y238976D02*
D03*
X251181D02*
D03*
X251575D02*
D03*
X252756Y239370D02*
D03*
X252362D02*
D03*
X251575D02*
D03*
X251181D02*
D03*
X250787D02*
D03*
X252756Y241732D02*
D03*
X252362D02*
D03*
X251968D02*
D03*
X251575D02*
D03*
X251181D02*
D03*
Y241339D02*
D03*
X251575D02*
D03*
X251968D02*
D03*
X252362D02*
D03*
X252756D02*
D03*
Y240945D02*
D03*
X252362D02*
D03*
X251968D02*
D03*
X251575D02*
D03*
X251181D02*
D03*
X250787D02*
D03*
Y241339D02*
D03*
Y241732D02*
D03*
X252362Y246457D02*
D03*
X251968D02*
D03*
X251575D02*
D03*
X251181D02*
D03*
X250787D02*
D03*
Y246850D02*
D03*
X251181D02*
D03*
X251575D02*
D03*
X251968D02*
D03*
X252362D02*
D03*
X252756D02*
D03*
Y246457D02*
D03*
Y247244D02*
D03*
X252362D02*
D03*
X251968D02*
D03*
X251575D02*
D03*
X251181D02*
D03*
X250787D02*
D03*
X252756Y248819D02*
D03*
X252362D02*
D03*
X251968D02*
D03*
X251181D02*
D03*
X251575D02*
D03*
Y249213D02*
D03*
X251968D02*
D03*
X252362D02*
D03*
X252756D02*
D03*
Y249606D02*
D03*
X252362D02*
D03*
X251968D02*
D03*
X251575D02*
D03*
X251181Y249213D02*
D03*
X250787D02*
D03*
Y248819D02*
D03*
X251181Y249606D02*
D03*
X250787D02*
D03*
Y255118D02*
D03*
Y256693D02*
D03*
X251181D02*
D03*
X250787Y257087D02*
D03*
Y257480D02*
D03*
X251181D02*
D03*
X252362D02*
D03*
X245472Y180906D02*
D03*
Y188583D02*
D03*
Y196457D02*
D03*
Y204331D02*
D03*
Y240551D02*
D03*
Y248425D02*
D03*
Y256299D02*
D03*
Y232677D02*
D03*
X247638Y212598D02*
D03*
X244094Y211024D02*
D03*
X247244Y212598D02*
D03*
X246457D02*
D03*
X246850D02*
D03*
X248819D02*
D03*
X255276Y222323D02*
D03*
Y223858D02*
D03*
X250197Y226968D02*
D03*
X264173Y222047D02*
D03*
X246457Y226968D02*
D03*
X292283Y221299D02*
D03*
X276063Y221425D02*
D03*
X275000Y224409D02*
D03*
X273819Y220472D02*
D03*
X274213D02*
D03*
X273819Y225197D02*
D03*
X274213D02*
D03*
X267717Y221457D02*
D03*
X269488Y224409D02*
D03*
X274606Y220472D02*
D03*
X286142Y219488D02*
D03*
X285945Y221339D02*
D03*
X278346Y216299D02*
D03*
X255709Y223071D02*
D03*
X268937D02*
D03*
X276968Y252165D02*
D03*
X291732Y220551D02*
D03*
X290748Y222480D02*
D03*
X289370Y222323D02*
D03*
X290945Y222087D02*
D03*
X281024Y236181D02*
D03*
X277205Y244291D02*
D03*
X291142Y221732D02*
D03*
X275551Y194370D02*
D03*
X275787Y185945D02*
D03*
X276063Y178425D02*
D03*
X272992Y205984D02*
D03*
X272953Y202795D02*
D03*
Y195000D02*
D03*
X272992Y198110D02*
D03*
Y187008D02*
D03*
X272913Y190236D02*
D03*
X272992Y182323D02*
D03*
X272953Y179213D02*
D03*
X272874Y257165D02*
D03*
X272992Y253937D02*
D03*
X272913Y249291D02*
D03*
X272992Y246181D02*
D03*
X273110Y241417D02*
D03*
X272953Y238307D02*
D03*
X273071Y233504D02*
D03*
X272992Y230394D02*
D03*
X277835Y219685D02*
D03*
X290433Y218228D02*
D03*
X292362Y218268D02*
D03*
X295276Y220236D02*
D03*
X287874Y220394D02*
D03*
X280276Y215512D02*
D03*
X272874Y220472D02*
D03*
Y225197D02*
D03*
X273228Y220472D02*
D03*
Y225197D02*
D03*
X281378Y225669D02*
D03*
X280079Y216535D02*
D03*
X279291Y217992D02*
D03*
X247047Y244094D02*
D03*
X247933D02*
D03*
X246555Y236220D02*
D03*
X247933D02*
D03*
X246850Y227854D02*
D03*
X247244D02*
D03*
X247638D02*
D03*
X246358Y228346D02*
D03*
X247933D02*
D03*
X264764Y246850D02*
D03*
X260039Y246457D02*
D03*
Y247244D02*
D03*
X246339Y200787D02*
D03*
X247913D02*
D03*
X246378Y192913D02*
D03*
X247913D02*
D03*
X246339Y208661D02*
D03*
X247913D02*
D03*
X242520Y183071D02*
D03*
Y182283D02*
D03*
Y181496D02*
D03*
Y180709D02*
D03*
Y179921D02*
D03*
Y179134D02*
D03*
Y178346D02*
D03*
Y177559D02*
D03*
Y176772D02*
D03*
Y183858D02*
D03*
Y186220D02*
D03*
Y187008D02*
D03*
Y187795D02*
D03*
Y190157D02*
D03*
Y190945D02*
D03*
X240551D02*
D03*
Y190157D02*
D03*
Y189370D02*
D03*
Y188583D02*
D03*
Y187795D02*
D03*
Y187008D02*
D03*
Y186220D02*
D03*
Y183858D02*
D03*
Y183071D02*
D03*
Y182283D02*
D03*
Y181496D02*
D03*
Y180709D02*
D03*
Y179921D02*
D03*
Y179134D02*
D03*
Y178346D02*
D03*
Y177559D02*
D03*
Y176772D02*
D03*
X238976Y197638D02*
D03*
Y198425D02*
D03*
Y199213D02*
D03*
Y196063D02*
D03*
Y195276D02*
D03*
X242520D02*
D03*
Y196063D02*
D03*
Y197638D02*
D03*
Y198425D02*
D03*
Y199213D02*
D03*
X238976Y203937D02*
D03*
Y203150D02*
D03*
Y205512D02*
D03*
Y206299D02*
D03*
X242520Y205512D02*
D03*
Y206299D02*
D03*
Y203937D02*
D03*
Y203150D02*
D03*
X277264Y222736D02*
D03*
X240157Y257874D02*
D03*
X241732D02*
D03*
X243307D02*
D03*
X246457D02*
D03*
X248032D02*
D03*
Y256299D02*
D03*
Y254724D02*
D03*
X240157Y256299D02*
D03*
Y254724D02*
D03*
X241732D02*
D03*
X243307D02*
D03*
X238976Y248819D02*
D03*
Y247244D02*
D03*
Y246457D02*
D03*
Y249606D02*
D03*
X242520Y247244D02*
D03*
Y246457D02*
D03*
Y245669D02*
D03*
X238976D02*
D03*
Y237795D02*
D03*
Y238583D02*
D03*
Y239370D02*
D03*
Y240945D02*
D03*
X242520D02*
D03*
Y241732D02*
D03*
Y239370D02*
D03*
Y238583D02*
D03*
Y237795D02*
D03*
X238976Y241732D02*
D03*
X245472Y241929D02*
D03*
X238976Y231496D02*
D03*
Y230709D02*
D03*
Y229921D02*
D03*
Y233071D02*
D03*
Y233858D02*
D03*
X242520Y233071D02*
D03*
Y231496D02*
D03*
Y230709D02*
D03*
Y229921D02*
D03*
Y232283D02*
D03*
Y233858D02*
D03*
X256102Y222441D02*
D03*
X268937Y222520D02*
D03*
X254252Y224606D02*
D03*
X253740Y223425D02*
D03*
Y223819D02*
D03*
X265512Y236220D02*
D03*
X265591Y192913D02*
D03*
Y185000D02*
D03*
X255118Y183465D02*
D03*
X255906D02*
D03*
X256693D02*
D03*
X257480D02*
D03*
X258268D02*
D03*
Y176772D02*
D03*
X257480D02*
D03*
X256693D02*
D03*
X255906D02*
D03*
X255118D02*
D03*
Y177559D02*
D03*
X255906D02*
D03*
X256693D02*
D03*
X257480D02*
D03*
X258268D02*
D03*
Y178346D02*
D03*
X257480D02*
D03*
X256693D02*
D03*
X255906D02*
D03*
X255118D02*
D03*
Y180709D02*
D03*
X255906D02*
D03*
X256693D02*
D03*
X257480D02*
D03*
X263780Y182677D02*
D03*
Y181890D02*
D03*
X264567D02*
D03*
Y182677D02*
D03*
X265354D02*
D03*
Y181890D02*
D03*
Y189764D02*
D03*
Y190551D02*
D03*
X264567D02*
D03*
X263780D02*
D03*
Y189764D02*
D03*
X264567D02*
D03*
X255118Y191339D02*
D03*
X255906D02*
D03*
X256693D02*
D03*
X257480D02*
D03*
X258268D02*
D03*
X257087Y188583D02*
D03*
X256299D02*
D03*
X255512D02*
D03*
X255118Y185433D02*
D03*
X255906D02*
D03*
X256693D02*
D03*
X257480D02*
D03*
X258268D02*
D03*
X255118Y193307D02*
D03*
X255906D02*
D03*
X256693D02*
D03*
X257480D02*
D03*
X258268D02*
D03*
Y194094D02*
D03*
X257480D02*
D03*
X256693D02*
D03*
X255906D02*
D03*
X255118D02*
D03*
Y199213D02*
D03*
X255906D02*
D03*
X256693D02*
D03*
X257480D02*
D03*
X258268D02*
D03*
X257874Y196063D02*
D03*
X257087D02*
D03*
X256299D02*
D03*
X255512D02*
D03*
X255118Y207087D02*
D03*
X255906D02*
D03*
X256693D02*
D03*
X257480D02*
D03*
X258268D02*
D03*
X259055D02*
D03*
X259843D02*
D03*
X266142D02*
D03*
Y206299D02*
D03*
Y205512D02*
D03*
X256693Y204331D02*
D03*
X255906D02*
D03*
X255118D02*
D03*
Y201181D02*
D03*
X255906D02*
D03*
X256693D02*
D03*
X257480D02*
D03*
X258268D02*
D03*
Y201968D02*
D03*
X257480D02*
D03*
X256693D02*
D03*
X255906D02*
D03*
X255118D02*
D03*
Y258268D02*
D03*
X255906D02*
D03*
X256693D02*
D03*
X257480D02*
D03*
X258268D02*
D03*
X259055D02*
D03*
X255118Y252362D02*
D03*
X255906D02*
D03*
X256693D02*
D03*
X257480D02*
D03*
X258268D02*
D03*
X259055D02*
D03*
Y253150D02*
D03*
X258268D02*
D03*
X257480D02*
D03*
X256693D02*
D03*
X255906D02*
D03*
X255118D02*
D03*
Y253937D02*
D03*
X255906D02*
D03*
X256693D02*
D03*
X257480D02*
D03*
X258268D02*
D03*
X259055D02*
D03*
X255118Y250394D02*
D03*
X255906D02*
D03*
X256693D02*
D03*
X257480D02*
D03*
X258268D02*
D03*
X259055D02*
D03*
X255118Y247638D02*
D03*
X255906D02*
D03*
X256693D02*
D03*
X255118Y244488D02*
D03*
X255906D02*
D03*
X256693D02*
D03*
X257480D02*
D03*
X258268D02*
D03*
Y245276D02*
D03*
X257480D02*
D03*
X256693D02*
D03*
X255906D02*
D03*
X255118D02*
D03*
Y242520D02*
D03*
X255906D02*
D03*
X256693D02*
D03*
X257480D02*
D03*
X258268D02*
D03*
X259055D02*
D03*
X255118Y236614D02*
D03*
X255906D02*
D03*
X256693D02*
D03*
X257480D02*
D03*
X258268D02*
D03*
Y237402D02*
D03*
X257480D02*
D03*
X256693D02*
D03*
X255906D02*
D03*
X255118D02*
D03*
Y239764D02*
D03*
X255906D02*
D03*
X256693D02*
D03*
X257480D02*
D03*
X255118Y228740D02*
D03*
X255906D02*
D03*
X256693D02*
D03*
X257480D02*
D03*
X258268D02*
D03*
Y229528D02*
D03*
X257480D02*
D03*
X256693D02*
D03*
X255906D02*
D03*
X255118D02*
D03*
Y234646D02*
D03*
X255906D02*
D03*
X256693D02*
D03*
X257480D02*
D03*
X258268D02*
D03*
X255118Y231890D02*
D03*
X255906D02*
D03*
X256693D02*
D03*
X257480D02*
D03*
X292165Y222047D02*
D03*
X291732Y220118D02*
D03*
X289528Y219961D02*
D03*
Y220276D02*
D03*
Y219213D02*
D03*
X244094Y183858D02*
D03*
Y182283D02*
D03*
Y180709D02*
D03*
Y179134D02*
D03*
Y177559D02*
D03*
X245669Y179134D02*
D03*
X247244D02*
D03*
Y177559D02*
D03*
X245669D02*
D03*
Y187402D02*
D03*
X245472Y195079D02*
D03*
Y202953D02*
D03*
Y234055D02*
D03*
Y249803D02*
D03*
M02*
