G04 Layer_Color=32896*
%FSAX24Y24*%
%MOIN*%
G70*
G01*
G75*
%ADD29C,0.0100*%
%ADD30C,0.0120*%
%ADD52C,0.0394*%
%ADD53C,0.0098*%
%ADD54C,0.0236*%
%ADD56C,0.0079*%
D29*
X295315Y223425D02*
G03*
X295315Y223425I-000039J000000D01*
G01*
X294488Y220669D02*
Y221457D01*
X294094D02*
X294882D01*
X294094Y221654D02*
Y222047D01*
Y221654D02*
X294882D01*
Y222047D01*
X294094D02*
X294882D01*
X294488Y222244D02*
X294882D01*
X294094D02*
X294488D01*
Y223032D01*
X276693Y221890D02*
Y223937D01*
X275433Y221890D02*
Y223937D01*
X275512D01*
X276614D02*
X276693D01*
X276614Y221890D02*
X276693D01*
X275433D02*
X275512D01*
X290742Y219593D02*
X291992D01*
X290742Y222843D02*
X291992D01*
X290742Y219593D02*
Y222843D01*
X291992Y219593D02*
Y222843D01*
X279856Y215013D02*
X279921Y215079D01*
X280053D01*
X280118Y215013D01*
Y214751D01*
X280053Y214685D01*
X279921D01*
X279856Y214751D01*
X279528Y214685D02*
Y215079D01*
X279725Y214882D01*
X279462D01*
X279331Y215013D02*
X279265Y215079D01*
X279134D01*
X279069Y215013D01*
Y214751D01*
X279134Y214685D01*
X279265D01*
X279331Y214751D01*
Y215013D01*
X268745Y222392D02*
X268810Y222457D01*
X268942D01*
X269007Y222392D01*
Y222129D01*
X268942Y222064D01*
X268810D01*
X268745Y222129D01*
X268614Y222392D02*
X268548Y222457D01*
X268417D01*
X268351Y222392D01*
Y222326D01*
X268417Y222260D01*
X268482D01*
X268417D01*
X268351Y222195D01*
Y222129D01*
X268417Y222064D01*
X268548D01*
X268614Y222129D01*
X268220D02*
X268155Y222064D01*
X268023D01*
X267958Y222129D01*
Y222392D01*
X268023Y222457D01*
X268155D01*
X268220Y222392D01*
Y222326D01*
X268155Y222260D01*
X267958D01*
X255163Y225542D02*
X255229Y225607D01*
X255360D01*
X255426Y225542D01*
Y225279D01*
X255360Y225214D01*
X255229D01*
X255163Y225279D01*
X255032Y225542D02*
X254967Y225607D01*
X254835D01*
X254770Y225542D01*
Y225476D01*
X254835Y225410D01*
X254901D01*
X254835D01*
X254770Y225345D01*
Y225279D01*
X254835Y225214D01*
X254967D01*
X255032Y225279D01*
X254639Y225542D02*
X254573Y225607D01*
X254442D01*
X254376Y225542D01*
Y225476D01*
X254442Y225410D01*
X254376Y225345D01*
Y225279D01*
X254442Y225214D01*
X254573D01*
X254639Y225279D01*
Y225345D01*
X254573Y225410D01*
X254639Y225476D01*
Y225542D01*
X254573Y225410D02*
X254442D01*
X273753Y220997D02*
X273819Y221063D01*
X273950D01*
X274016Y220997D01*
Y220735D01*
X273950Y220669D01*
X273819D01*
X273753Y220735D01*
X273622Y220997D02*
X273557Y221063D01*
X273425D01*
X273360Y220997D01*
Y220932D01*
X273425Y220866D01*
X273491D01*
X273425D01*
X273360Y220800D01*
Y220735D01*
X273425Y220669D01*
X273557D01*
X273622Y220735D01*
X273229Y221063D02*
X272966D01*
Y220997D01*
X273229Y220735D01*
Y220669D01*
X251258Y251096D02*
Y251358D01*
X251323Y251424D01*
X251454D01*
X251520Y251358D01*
Y251096D01*
X251454Y251030D01*
X251323D01*
X251389Y251161D02*
X251258Y251030D01*
X251323D02*
X251258Y251096D01*
X250930Y251030D02*
Y251424D01*
X251126Y251227D01*
X250864D01*
X250733Y250964D02*
X250470D01*
X250339Y251424D02*
Y251030D01*
X250142D01*
X250077Y251096D01*
Y251161D01*
X250142Y251227D01*
X250339D01*
X250142D01*
X250077Y251292D01*
Y251358D01*
X250142Y251424D01*
X250339D01*
X249683Y251030D02*
X249946D01*
X249683Y251292D01*
Y251358D01*
X249749Y251424D01*
X249880D01*
X249946Y251358D01*
X251258Y243226D02*
Y243488D01*
X251323Y243554D01*
X251454D01*
X251520Y243488D01*
Y243226D01*
X251454Y243160D01*
X251323D01*
X251389Y243291D02*
X251258Y243160D01*
X251323D02*
X251258Y243226D01*
X250930Y243160D02*
Y243554D01*
X251126Y243357D01*
X250864D01*
X250733Y243094D02*
X250470D01*
X250077Y243488D02*
X250142Y243554D01*
X250274D01*
X250339Y243488D01*
Y243226D01*
X250274Y243160D01*
X250142D01*
X250077Y243226D01*
Y243357D01*
X250208D01*
X249683Y243160D02*
X249946D01*
X249683Y243422D01*
Y243488D01*
X249749Y243554D01*
X249880D01*
X249946Y243488D01*
X251258Y235346D02*
Y235608D01*
X251323Y235674D01*
X251454D01*
X251520Y235608D01*
Y235346D01*
X251454Y235280D01*
X251323D01*
X251389Y235411D02*
X251258Y235280D01*
X251323D02*
X251258Y235346D01*
X250930Y235280D02*
Y235674D01*
X251126Y235477D01*
X250864D01*
X250733Y235214D02*
X250470D01*
X250339Y235674D02*
Y235280D01*
X250077D01*
X249946Y235674D02*
Y235280D01*
X249749D01*
X249683Y235346D01*
Y235608D01*
X249749Y235674D01*
X249946D01*
X249290Y235280D02*
X249552D01*
X249290Y235542D01*
Y235608D01*
X249355Y235674D01*
X249487D01*
X249552Y235608D01*
X251258Y258976D02*
Y259238D01*
X251323Y259304D01*
X251454D01*
X251520Y259238D01*
Y258976D01*
X251454Y258910D01*
X251323D01*
X251389Y259041D02*
X251258Y258910D01*
X251323D02*
X251258Y258976D01*
X250930Y258910D02*
Y259304D01*
X251126Y259107D01*
X250864D01*
X250733Y258844D02*
X250470D01*
X250339Y258910D02*
Y259304D01*
X250142D01*
X250077Y259238D01*
Y259107D01*
X250142Y259041D01*
X250339D01*
X249946Y259304D02*
Y259041D01*
X249815Y258910D01*
X249683Y259041D01*
Y259304D01*
X249290Y258910D02*
X249552D01*
X249290Y259172D01*
Y259238D01*
X249355Y259304D01*
X249487D01*
X249552Y259238D01*
X251258Y199916D02*
Y200178D01*
X251323Y200244D01*
X251454D01*
X251520Y200178D01*
Y199916D01*
X251454Y199850D01*
X251323D01*
X251389Y199981D02*
X251258Y199850D01*
X251323D02*
X251258Y199916D01*
X250864Y200244D02*
X250995Y200178D01*
X251126Y200047D01*
Y199916D01*
X251061Y199850D01*
X250930D01*
X250864Y199916D01*
Y199981D01*
X250930Y200047D01*
X251126D01*
X250733Y199784D02*
X250470D01*
X250339Y200244D02*
Y199850D01*
X250142D01*
X250077Y199916D01*
Y199981D01*
X250142Y200047D01*
X250339D01*
X250142D01*
X250077Y200112D01*
Y200178D01*
X250142Y200244D01*
X250339D01*
X249683Y199850D02*
X249946D01*
X249683Y200112D01*
Y200178D01*
X249749Y200244D01*
X249880D01*
X249946Y200178D01*
X251258Y192046D02*
Y192308D01*
X251323Y192374D01*
X251454D01*
X251520Y192308D01*
Y192046D01*
X251454Y191980D01*
X251323D01*
X251389Y192111D02*
X251258Y191980D01*
X251323D02*
X251258Y192046D01*
X250864Y192374D02*
X250995Y192308D01*
X251126Y192177D01*
Y192046D01*
X251061Y191980D01*
X250930D01*
X250864Y192046D01*
Y192111D01*
X250930Y192177D01*
X251126D01*
X250733Y191914D02*
X250470D01*
X250077Y192308D02*
X250142Y192374D01*
X250274D01*
X250339Y192308D01*
Y192046D01*
X250274Y191980D01*
X250142D01*
X250077Y192046D01*
Y192177D01*
X250208D01*
X249683Y191980D02*
X249946D01*
X249683Y192242D01*
Y192308D01*
X249749Y192374D01*
X249880D01*
X249946Y192308D01*
X251258Y184166D02*
Y184428D01*
X251323Y184494D01*
X251454D01*
X251520Y184428D01*
Y184166D01*
X251454Y184100D01*
X251323D01*
X251389Y184231D02*
X251258Y184100D01*
X251323D02*
X251258Y184166D01*
X250864Y184494D02*
X250995Y184428D01*
X251126Y184297D01*
Y184166D01*
X251061Y184100D01*
X250930D01*
X250864Y184166D01*
Y184231D01*
X250930Y184297D01*
X251126D01*
X250733Y184034D02*
X250470D01*
X250339Y184494D02*
Y184100D01*
X250077D01*
X249946Y184494D02*
Y184100D01*
X249749D01*
X249683Y184166D01*
Y184428D01*
X249749Y184494D01*
X249946D01*
X249290Y184100D02*
X249552D01*
X249290Y184362D01*
Y184428D01*
X249355Y184494D01*
X249487D01*
X249552Y184428D01*
X251258Y207786D02*
Y208048D01*
X251323Y208114D01*
X251454D01*
X251520Y208048D01*
Y207786D01*
X251454Y207720D01*
X251323D01*
X251389Y207851D02*
X251258Y207720D01*
X251323D02*
X251258Y207786D01*
X250864Y208114D02*
X250995Y208048D01*
X251126Y207917D01*
Y207786D01*
X251061Y207720D01*
X250930D01*
X250864Y207786D01*
Y207851D01*
X250930Y207917D01*
X251126D01*
X250733Y207654D02*
X250470D01*
X250339Y207720D02*
Y208114D01*
X250142D01*
X250077Y208048D01*
Y207917D01*
X250142Y207851D01*
X250339D01*
X249946Y208114D02*
Y207851D01*
X249815Y207720D01*
X249683Y207851D01*
Y208114D01*
X249290Y207720D02*
X249552D01*
X249290Y207982D01*
Y208048D01*
X249355Y208114D01*
X249487D01*
X249552Y208048D01*
X287277Y221962D02*
X287343Y222027D01*
X287474D01*
X287539Y221962D01*
Y221699D01*
X287474Y221634D01*
X287343D01*
X287277Y221699D01*
X287146Y221634D02*
X287015D01*
X287080D01*
Y222027D01*
X287146Y221962D01*
X286555Y221634D02*
X286818D01*
X286555Y221896D01*
Y221962D01*
X286621Y222027D01*
X286752D01*
X286818Y221962D01*
X282415Y223950D02*
X282480Y224016D01*
X282612D01*
X282677Y223950D01*
Y223688D01*
X282612Y223622D01*
X282480D01*
X282415Y223688D01*
X282284Y223622D02*
X282152D01*
X282218D01*
Y224016D01*
X282284Y223950D01*
X281956D02*
X281890Y224016D01*
X281759D01*
X281693Y223950D01*
Y223884D01*
X281759Y223819D01*
X281824D01*
X281759D01*
X281693Y223753D01*
Y223688D01*
X281759Y223622D01*
X281890D01*
X281956Y223688D01*
X284777Y220604D02*
X284843Y220669D01*
X284974D01*
X285039Y220604D01*
Y220341D01*
X284974Y220276D01*
X284843D01*
X284777Y220341D01*
X284646Y220276D02*
X284515D01*
X284580D01*
Y220669D01*
X284646Y220604D01*
X284055Y220669D02*
X284318D01*
Y220472D01*
X284187Y220538D01*
X284121D01*
X284055Y220472D01*
Y220341D01*
X284121Y220276D01*
X284252D01*
X284318Y220341D01*
X282907Y222572D02*
X282973Y222638D01*
X283104D01*
X283169Y222572D01*
Y222310D01*
X283104Y222244D01*
X282973D01*
X282907Y222310D01*
X282776Y222244D02*
X282645D01*
X282710D01*
Y222638D01*
X282776Y222572D01*
X282185Y222638D02*
X282317Y222572D01*
X282448Y222441D01*
Y222310D01*
X282382Y222244D01*
X282251D01*
X282185Y222310D01*
Y222375D01*
X282251Y222441D01*
X282448D01*
X284974Y217060D02*
X285039Y217126D01*
X285171D01*
X285236Y217060D01*
Y216798D01*
X285171Y216732D01*
X285039D01*
X284974Y216798D01*
X284580Y216732D02*
X284843D01*
X284580Y216995D01*
Y217060D01*
X284646Y217126D01*
X284777D01*
X284843Y217060D01*
X284449D02*
X284383Y217126D01*
X284252D01*
X284187Y217060D01*
Y216798D01*
X284252Y216732D01*
X284383D01*
X284449Y216798D01*
Y217060D01*
X262238Y243241D02*
X262303Y243307D01*
X262434D01*
X262500Y243241D01*
Y242979D01*
X262434Y242913D01*
X262303D01*
X262238Y242979D01*
X261844Y242913D02*
X262106D01*
X261844Y243176D01*
Y243241D01*
X261910Y243307D01*
X262041D01*
X262106Y243241D01*
X261450Y242913D02*
X261713D01*
X261450Y243176D01*
Y243241D01*
X261516Y243307D01*
X261647D01*
X261713Y243241D01*
X261319Y242848D02*
X261057D01*
X260926Y243307D02*
Y242913D01*
X260729D01*
X260663Y242979D01*
Y243045D01*
X260729Y243110D01*
X260926D01*
X260729D01*
X260663Y243176D01*
Y243241D01*
X260729Y243307D01*
X260926D01*
X260270Y242913D02*
X260532D01*
X260270Y243176D01*
Y243241D01*
X260335Y243307D01*
X260467D01*
X260532Y243241D01*
X262238Y235367D02*
X262303Y235433D01*
X262434D01*
X262500Y235367D01*
Y235105D01*
X262434Y235039D01*
X262303D01*
X262238Y235105D01*
X261844Y235039D02*
X262106D01*
X261844Y235302D01*
Y235367D01*
X261910Y235433D01*
X262041D01*
X262106Y235367D01*
X261450Y235039D02*
X261713D01*
X261450Y235302D01*
Y235367D01*
X261516Y235433D01*
X261647D01*
X261713Y235367D01*
X261319Y234974D02*
X261057D01*
X260663Y235367D02*
X260729Y235433D01*
X260860D01*
X260926Y235367D01*
Y235105D01*
X260860Y235039D01*
X260729D01*
X260663Y235105D01*
Y235236D01*
X260795D01*
X260270Y235039D02*
X260532D01*
X260270Y235302D01*
Y235367D01*
X260335Y235433D01*
X260467D01*
X260532Y235367D01*
X262139Y227296D02*
X262205Y227362D01*
X262336D01*
X262402Y227296D01*
Y227034D01*
X262336Y226968D01*
X262205D01*
X262139Y227034D01*
X261746Y226968D02*
X262008D01*
X261746Y227231D01*
Y227296D01*
X261811Y227362D01*
X261942D01*
X262008Y227296D01*
X261352Y226968D02*
X261614D01*
X261352Y227231D01*
Y227296D01*
X261418Y227362D01*
X261549D01*
X261614Y227296D01*
X261221Y226903D02*
X260958D01*
X260827Y227362D02*
Y226968D01*
X260565D01*
X260434Y227362D02*
Y226968D01*
X260237D01*
X260171Y227034D01*
Y227296D01*
X260237Y227362D01*
X260434D01*
X259778Y226968D02*
X260040D01*
X259778Y227231D01*
Y227296D01*
X259843Y227362D01*
X259975D01*
X260040Y227296D01*
X262238Y251115D02*
X262303Y251181D01*
X262434D01*
X262500Y251115D01*
Y250853D01*
X262434Y250787D01*
X262303D01*
X262238Y250853D01*
X261844Y250787D02*
X262106D01*
X261844Y251050D01*
Y251115D01*
X261910Y251181D01*
X262041D01*
X262106Y251115D01*
X261450Y250787D02*
X261713D01*
X261450Y251050D01*
Y251115D01*
X261516Y251181D01*
X261647D01*
X261713Y251115D01*
X261319Y250722D02*
X261057D01*
X260926Y250787D02*
Y251181D01*
X260729D01*
X260663Y251115D01*
Y250984D01*
X260729Y250919D01*
X260926D01*
X260532Y251181D02*
Y250919D01*
X260401Y250787D01*
X260270Y250919D01*
Y251181D01*
X259876Y250787D02*
X260139D01*
X259876Y251050D01*
Y251115D01*
X259942Y251181D01*
X260073D01*
X260139Y251115D01*
X262238Y191863D02*
X262303Y191929D01*
X262434D01*
X262500Y191863D01*
Y191601D01*
X262434Y191535D01*
X262303D01*
X262238Y191601D01*
X261844Y191535D02*
X262106D01*
X261844Y191798D01*
Y191863D01*
X261910Y191929D01*
X262041D01*
X262106Y191863D01*
X261713D02*
X261647Y191929D01*
X261516D01*
X261450Y191863D01*
Y191798D01*
X261516Y191732D01*
X261582D01*
X261516D01*
X261450Y191667D01*
Y191601D01*
X261516Y191535D01*
X261647D01*
X261713Y191601D01*
X261319Y191470D02*
X261057D01*
X260926Y191929D02*
Y191535D01*
X260729D01*
X260663Y191601D01*
Y191667D01*
X260729Y191732D01*
X260926D01*
X260729D01*
X260663Y191798D01*
Y191863D01*
X260729Y191929D01*
X260926D01*
X260270Y191535D02*
X260532D01*
X260270Y191798D01*
Y191863D01*
X260335Y191929D01*
X260467D01*
X260532Y191863D01*
X262238Y184186D02*
X262303Y184252D01*
X262434D01*
X262500Y184186D01*
Y183924D01*
X262434Y183858D01*
X262303D01*
X262238Y183924D01*
X261844Y183858D02*
X262106D01*
X261844Y184121D01*
Y184186D01*
X261910Y184252D01*
X262041D01*
X262106Y184186D01*
X261713D02*
X261647Y184252D01*
X261516D01*
X261450Y184186D01*
Y184121D01*
X261516Y184055D01*
X261582D01*
X261516D01*
X261450Y183989D01*
Y183924D01*
X261516Y183858D01*
X261647D01*
X261713Y183924D01*
X261319Y183793D02*
X261057D01*
X260663Y184186D02*
X260729Y184252D01*
X260860D01*
X260926Y184186D01*
Y183924D01*
X260860Y183858D01*
X260729D01*
X260663Y183924D01*
Y184055D01*
X260795D01*
X260270Y183858D02*
X260532D01*
X260270Y184121D01*
Y184186D01*
X260335Y184252D01*
X260467D01*
X260532Y184186D01*
X262238Y176312D02*
X262303Y176378D01*
X262434D01*
X262500Y176312D01*
Y176050D01*
X262434Y175984D01*
X262303D01*
X262238Y176050D01*
X261844Y175984D02*
X262106D01*
X261844Y176247D01*
Y176312D01*
X261910Y176378D01*
X262041D01*
X262106Y176312D01*
X261713D02*
X261647Y176378D01*
X261516D01*
X261450Y176312D01*
Y176247D01*
X261516Y176181D01*
X261582D01*
X261516D01*
X261450Y176115D01*
Y176050D01*
X261516Y175984D01*
X261647D01*
X261713Y176050D01*
X261319Y175919D02*
X261057D01*
X260926Y176378D02*
Y175984D01*
X260663D01*
X260532Y176378D02*
Y175984D01*
X260335D01*
X260270Y176050D01*
Y176312D01*
X260335Y176378D01*
X260532D01*
X259876Y175984D02*
X260139D01*
X259876Y176247D01*
Y176312D01*
X259942Y176378D01*
X260073D01*
X260139Y176312D01*
X262238Y199934D02*
X262303Y200000D01*
X262434D01*
X262500Y199934D01*
Y199672D01*
X262434Y199606D01*
X262303D01*
X262238Y199672D01*
X261844Y199606D02*
X262106D01*
X261844Y199869D01*
Y199934D01*
X261910Y200000D01*
X262041D01*
X262106Y199934D01*
X261713D02*
X261647Y200000D01*
X261516D01*
X261450Y199934D01*
Y199869D01*
X261516Y199803D01*
X261582D01*
X261516D01*
X261450Y199737D01*
Y199672D01*
X261516Y199606D01*
X261647D01*
X261713Y199672D01*
X261319Y199541D02*
X261057D01*
X260926Y199606D02*
Y200000D01*
X260729D01*
X260663Y199934D01*
Y199803D01*
X260729Y199737D01*
X260926D01*
X260532Y200000D02*
Y199737D01*
X260401Y199606D01*
X260270Y199737D01*
Y200000D01*
X259876Y199606D02*
X260139D01*
X259876Y199869D01*
Y199934D01*
X259942Y200000D01*
X260073D01*
X260139Y199934D01*
X289777Y219029D02*
X289843Y219094D01*
X289974D01*
X290039Y219029D01*
Y218766D01*
X289974Y218701D01*
X289843D01*
X289777Y218766D01*
X289646Y219029D02*
X289580Y219094D01*
X289449D01*
X289383Y219029D01*
Y218963D01*
X289449Y218898D01*
X289515D01*
X289449D01*
X289383Y218832D01*
Y218766D01*
X289449Y218701D01*
X289580D01*
X289646Y218766D01*
X289252Y218701D02*
X289121D01*
X289187D01*
Y219094D01*
X289252Y219029D01*
X293576D02*
X293642Y219094D01*
X293773D01*
X293839Y219029D01*
Y218766D01*
X293773Y218701D01*
X293642D01*
X293576Y218766D01*
X293445Y219029D02*
X293379Y219094D01*
X293248D01*
X293183Y219029D01*
Y218963D01*
X293248Y218898D01*
X293314D01*
X293248D01*
X293183Y218832D01*
Y218766D01*
X293248Y218701D01*
X293379D01*
X293445Y218766D01*
X292789Y218701D02*
X293051D01*
X292789Y218963D01*
Y219029D01*
X292855Y219094D01*
X292986D01*
X293051Y219029D01*
X296194Y222900D02*
X296260Y222835D01*
Y222703D01*
X296194Y222638D01*
X295932D01*
X295866Y222703D01*
Y222835D01*
X295932Y222900D01*
X296194Y223031D02*
X296260Y223097D01*
Y223228D01*
X296194Y223294D01*
X296129D01*
X296063Y223228D01*
Y223163D01*
Y223228D01*
X295997Y223294D01*
X295932D01*
X295866Y223228D01*
Y223097D01*
X295932Y223031D01*
X295866Y223622D02*
X296260D01*
X296063Y223425D01*
Y223687D01*
X286352Y217060D02*
X286417Y217126D01*
X286549D01*
X286614Y217060D01*
Y216798D01*
X286549Y216732D01*
X286417D01*
X286352Y216798D01*
X286221Y217060D02*
X286155Y217126D01*
X286024D01*
X285958Y217060D01*
Y216995D01*
X286024Y216929D01*
X286089D01*
X286024D01*
X285958Y216863D01*
Y216798D01*
X286024Y216732D01*
X286155D01*
X286221Y216798D01*
X285565Y217126D02*
X285827D01*
Y216929D01*
X285696Y216995D01*
X285630D01*
X285565Y216929D01*
Y216798D01*
X285630Y216732D01*
X285761D01*
X285827Y216798D01*
X289403Y215978D02*
X289469Y216043D01*
X289600D01*
X289665Y215978D01*
Y215715D01*
X289600Y215650D01*
X289469D01*
X289403Y215715D01*
X289272Y215978D02*
X289206Y216043D01*
X289075D01*
X289009Y215978D01*
Y215912D01*
X289075Y215846D01*
X289141D01*
X289075D01*
X289009Y215781D01*
Y215715D01*
X289075Y215650D01*
X289206D01*
X289272Y215715D01*
X288616Y216043D02*
X288747Y215978D01*
X288878Y215846D01*
Y215715D01*
X288813Y215650D01*
X288681D01*
X288616Y215715D01*
Y215781D01*
X288681Y215846D01*
X288878D01*
X276752Y224586D02*
Y224193D01*
X276555D01*
X276490Y224259D01*
Y224521D01*
X276555Y224586D01*
X276752D01*
X276096Y224193D02*
X276358D01*
X276096Y224455D01*
Y224521D01*
X276162Y224586D01*
X276293D01*
X276358Y224521D01*
X279462Y220538D02*
Y220800D01*
X279528Y220866D01*
X279659D01*
X279724Y220800D01*
Y220538D01*
X279659Y220472D01*
X279528D01*
X279593Y220604D02*
X279462Y220472D01*
X279528D02*
X279462Y220538D01*
X279331Y220472D02*
X279200D01*
X279265D01*
Y220866D01*
X279331Y220800D01*
X279659Y223097D02*
Y223359D01*
X279724Y223425D01*
X279856D01*
X279921Y223359D01*
Y223097D01*
X279856Y223032D01*
X279724D01*
X279790Y223163D02*
X279659Y223032D01*
X279724D02*
X279659Y223097D01*
X279265Y223032D02*
X279528D01*
X279265Y223294D01*
Y223359D01*
X279331Y223425D01*
X279462D01*
X279528Y223359D01*
X287106Y217520D02*
Y217913D01*
X286910D01*
X286844Y217848D01*
Y217716D01*
X286910Y217651D01*
X287106D01*
X286975D02*
X286844Y217520D01*
X286516D02*
Y217913D01*
X286713Y217716D01*
X286450D01*
X285827Y220866D02*
Y221260D01*
X285630D01*
X285564Y221194D01*
Y221063D01*
X285630Y220997D01*
X285827D01*
X285696D02*
X285564Y220866D01*
X285433Y221194D02*
X285368Y221260D01*
X285236D01*
X285171Y221194D01*
Y221129D01*
X285236Y221063D01*
X285171Y220997D01*
Y220932D01*
X285236Y220866D01*
X285368D01*
X285433Y220932D01*
Y220997D01*
X285368Y221063D01*
X285433Y221129D01*
Y221194D01*
X285368Y221063D02*
X285236D01*
X283760Y219882D02*
Y220275D01*
X283563D01*
X283497Y220210D01*
Y220079D01*
X283563Y220013D01*
X283760D01*
X283629D02*
X283497Y219882D01*
X283366D02*
X283235D01*
X283301D01*
Y220275D01*
X283366Y220210D01*
X283038D02*
X282973Y220275D01*
X282841D01*
X282776Y220210D01*
Y219947D01*
X282841Y219882D01*
X282973D01*
X283038Y219947D01*
Y220210D01*
X285039Y222047D02*
Y222441D01*
X284843D01*
X284777Y222375D01*
Y222244D01*
X284843Y222178D01*
X285039D01*
X284908D02*
X284777Y222047D01*
X284646D02*
X284515D01*
X284580D01*
Y222441D01*
X284646Y222375D01*
X284055Y222047D02*
X284318D01*
X284055Y222310D01*
Y222375D01*
X284121Y222441D01*
X284252D01*
X284318Y222375D01*
X282480Y220472D02*
Y220866D01*
X282284D01*
X282218Y220800D01*
Y220669D01*
X282284Y220604D01*
X282480D01*
X282349D02*
X282218Y220472D01*
X282087D02*
X281956D01*
X282021D01*
Y220866D01*
X282087Y220800D01*
X281759D02*
X281693Y220866D01*
X281562D01*
X281496Y220800D01*
Y220735D01*
X281562Y220669D01*
X281628D01*
X281562D01*
X281496Y220604D01*
Y220538D01*
X281562Y220472D01*
X281693D01*
X281759Y220538D01*
X284744Y224114D02*
Y224508D01*
X284547D01*
X284482Y224442D01*
Y224311D01*
X284547Y224245D01*
X284744D01*
X284613D02*
X284482Y224114D01*
X284351D02*
X284219D01*
X284285D01*
Y224508D01*
X284351Y224442D01*
X283760Y224508D02*
X283891Y224442D01*
X284023Y224311D01*
Y224180D01*
X283957Y224114D01*
X283826D01*
X283760Y224180D01*
Y224245D01*
X283826Y224311D01*
X284023D01*
X283465Y225197D02*
Y225590D01*
X283268D01*
X283202Y225525D01*
Y225394D01*
X283268Y225328D01*
X283465D01*
X283333D02*
X283202Y225197D01*
X283071D02*
X282940D01*
X283005D01*
Y225590D01*
X283071Y225525D01*
X282743D02*
X282677Y225590D01*
X282546D01*
X282481Y225525D01*
Y225459D01*
X282546Y225394D01*
X282481Y225328D01*
Y225262D01*
X282546Y225197D01*
X282677D01*
X282743Y225262D01*
Y225328D01*
X282677Y225394D01*
X282743Y225459D01*
Y225525D01*
X282677Y225394D02*
X282546D01*
X289665Y219370D02*
Y219764D01*
X289469D01*
X289403Y219698D01*
Y219567D01*
X289469Y219501D01*
X289665D01*
X289534D02*
X289403Y219370D01*
X289272Y219698D02*
X289206Y219764D01*
X289075D01*
X289009Y219698D01*
Y219632D01*
X289075Y219567D01*
X289141D01*
X289075D01*
X289009Y219501D01*
Y219436D01*
X289075Y219370D01*
X289206D01*
X289272Y219436D01*
X288616Y219370D02*
X288878D01*
X288616Y219632D01*
Y219698D01*
X288681Y219764D01*
X288813D01*
X288878Y219698D01*
X288287Y219685D02*
Y220079D01*
X288091D01*
X288025Y220013D01*
Y219882D01*
X288091Y219816D01*
X288287D01*
X288156D02*
X288025Y219685D01*
X287894Y220013D02*
X287828Y220079D01*
X287697D01*
X287631Y220013D01*
Y219947D01*
X287697Y219882D01*
X287763D01*
X287697D01*
X287631Y219816D01*
Y219751D01*
X287697Y219685D01*
X287828D01*
X287894Y219751D01*
X287500Y220013D02*
X287435Y220079D01*
X287303D01*
X287238Y220013D01*
Y219947D01*
X287303Y219882D01*
X287369D01*
X287303D01*
X287238Y219816D01*
Y219751D01*
X287303Y219685D01*
X287435D01*
X287500Y219751D01*
X253740Y225000D02*
Y224672D01*
X253675Y224606D01*
X253543D01*
X253478Y224672D01*
Y225000D01*
X253347Y224606D02*
X253215D01*
X253281D01*
Y225000D01*
X253347Y224934D01*
X274000Y224624D02*
Y224296D01*
X273935Y224230D01*
X273804D01*
X273738Y224296D01*
Y224624D01*
X273344Y224230D02*
X273607D01*
X273344Y224492D01*
Y224558D01*
X273410Y224624D01*
X273541D01*
X273607Y224558D01*
X279598Y218732D02*
Y218404D01*
X279532Y218339D01*
X279401D01*
X279335Y218404D01*
Y218732D01*
X279204Y218667D02*
X279139Y218732D01*
X279007D01*
X278942Y218667D01*
Y218601D01*
X279007Y218536D01*
X279073D01*
X279007D01*
X278942Y218470D01*
Y218404D01*
X279007Y218339D01*
X279139D01*
X279204Y218404D01*
X295609Y224207D02*
Y224141D01*
X295478Y224010D01*
X295347Y224141D01*
Y224207D01*
X295478Y224010D02*
Y223813D01*
X295216D02*
X295085D01*
X295150D01*
Y224207D01*
X295216Y224141D01*
X291942Y223584D02*
Y223518D01*
X291810Y223387D01*
X291679Y223518D01*
Y223584D01*
X291810Y223387D02*
Y223190D01*
X291286D02*
X291548D01*
X291286Y223452D01*
Y223518D01*
X291351Y223584D01*
X291482D01*
X291548Y223518D01*
D30*
X248435Y202181D02*
X248927D01*
Y207299D01*
X248435D02*
X248927D01*
X248435Y183677D02*
X248927D01*
Y178559D02*
Y183677D01*
X248435Y178559D02*
X248927D01*
X248435Y186433D02*
X248927D01*
Y191551D01*
X248435D02*
X248927D01*
X248435Y199425D02*
X248927D01*
Y194307D02*
Y199425D01*
X248435Y194307D02*
X248927D01*
X248435Y253362D02*
X248927D01*
Y258480D01*
X248435D02*
X248927D01*
X248435Y234858D02*
X248927D01*
Y229740D02*
Y234858D01*
X248435Y229740D02*
X248927D01*
X248435Y237614D02*
X248927D01*
Y242732D01*
X248435D02*
X248927D01*
X248435Y250606D02*
X248927D01*
Y245488D02*
Y250606D01*
X248435Y245488D02*
X248927D01*
D52*
X250994Y206709D02*
G03*
X250994Y206709I-000098J000000D01*
G01*
Y183087D02*
G03*
X250994Y183087I-000098J000000D01*
G01*
Y190961D02*
G03*
X250994Y190961I-000098J000000D01*
G01*
Y198835D02*
G03*
X250994Y198835I-000098J000000D01*
G01*
Y257890D02*
G03*
X250994Y257890I-000098J000000D01*
G01*
Y234268D02*
G03*
X250994Y234268I-000098J000000D01*
G01*
Y242142D02*
G03*
X250994Y242142I-000098J000000D01*
G01*
Y250016D02*
G03*
X250994Y250016I-000098J000000D01*
G01*
D53*
X252234Y222028D02*
G03*
X252234Y222028I-000049J000000D01*
G01*
X278829Y222666D02*
G03*
X278829Y222666I-000049J000000D01*
G01*
Y219910D02*
G03*
X278829Y219910I-000049J000000D01*
G01*
X277037Y215728D02*
G03*
X277037Y215728I-000049J000000D01*
G01*
X271614Y221750D02*
G03*
X271614Y221750I-000049J000000D01*
G01*
D54*
X253130Y222618D02*
G03*
X253130Y222618I-000118J000000D01*
G01*
X277933Y216319D02*
G03*
X277933Y216319I-000118J000000D01*
G01*
X272520Y222244D02*
G03*
X272520Y222244I-000118J000000D01*
G01*
D56*
X252618Y222224D02*
Y224232D01*
X254075Y222224D02*
Y224232D01*
X252618Y222224D02*
X254075D01*
X252618Y224232D02*
X254075D01*
X261555Y227844D02*
X261870D01*
X261555Y228455D02*
X261870D01*
X276949Y223946D02*
X277323D01*
X276949Y222922D02*
Y223946D01*
X278386D02*
X278760D01*
Y222922D02*
Y223946D01*
X276949Y221190D02*
X277323D01*
X276949Y220166D02*
Y221190D01*
X278386D02*
X278760D01*
Y220166D02*
Y221190D01*
X277421Y215925D02*
Y217933D01*
X278878Y215925D02*
Y217933D01*
X277421Y215925D02*
X278878D01*
X277421Y217933D02*
X278878D01*
X272008Y221850D02*
Y223819D01*
X273268Y221850D02*
Y223819D01*
X272008Y221850D02*
X273268D01*
X272008Y223819D02*
X273268D01*
X261555Y251467D02*
X261870D01*
X261555Y252077D02*
X261870D01*
X261555Y243593D02*
X261870D01*
X261555Y244203D02*
X261870D01*
X261555Y235718D02*
X261870D01*
X261555Y236329D02*
X261870D01*
X261555Y200285D02*
X261870D01*
X261555Y200896D02*
X261870D01*
X261555Y184537D02*
X261870D01*
X261555Y185148D02*
X261870D01*
X261555Y192411D02*
X261870D01*
X261555Y193022D02*
X261870D01*
X261555Y176663D02*
X261870D01*
X261555Y177274D02*
X261870D01*
X285246Y215591D02*
Y215906D01*
X284636Y215591D02*
Y215906D01*
X286427Y215591D02*
Y215906D01*
X285817Y215591D02*
Y215906D01*
X288770Y214508D02*
Y214823D01*
X289380Y214508D02*
Y214823D01*
M02*
