M48
;Layer_Color=9474304
;FILE_FORMAT=2:4
INCH
;TYPE=PLATED
T1F00S00C0.0100
T2F00S00C0.0280
T3F00S00C0.0315
T4F00S00C0.0394
T5F00S00C0.0420
T6F00S00C0.0472
T7F00S00C0.0512
T8F00S00C0.0591
T9F00S00C0.1969
;TYPE=NON_PLATED
T10F00S00C0.1220
%
T01
X295276Y185039
X291339
X287402
X283465
Y181102
X287402
X291339
X295276
X291339Y177165
X287402
X283465
X279528
X276063Y178425
X272953Y179213
X272992Y182323
Y187008
X275787Y185945
X279528Y185039
X267717Y187008
X267323
Y187402
X267717
X266929
Y187008
Y180709
Y180315
X267323
X267717
Y180709
X267323
Y179921
X267717
Y179528
X267323
Y179134
X267717
X266929
Y179528
Y179921
X265748Y177165
X264764Y179921
X264567Y181890
X263780
Y182677
X264567
X265354
Y181890
X265591Y185000
X260039Y187205
X258268Y185433
X257480
X256693
X255906
X255118
Y183465
X255906
X256693
X257480
X258268
X257480Y180709
X256693
X255906
X255118
Y178346
Y177559
Y176772
X255906
X256693
Y177559
X255906
Y178346
X256693
X257480
Y177559
Y176772
X258268
Y177559
Y178346
X260039Y179528
Y180315
X252756
Y179921
X252362
Y179528
X252756
X251968
X251575
X251181
X250787
Y179921
X251181
X251575
X251968
Y180315
X252362
X251575
X251181
X250787
Y181890
X251181
X251575
X251968
X252362
X252756
Y182283
Y182677
X252362
Y182283
X251968
Y182677
X251575
Y182283
X251181
X250787
Y182677
X251181
Y187402
X250787
X251575
X251968
X252362
X252756
X245669
X242520Y187008
Y186220
X240551
Y187008
Y183858
Y183071
Y182283
Y181496
Y180709
Y179921
Y179134
Y178346
Y177559
Y176772
X242520
Y177559
Y178346
Y179134
Y179921
Y180709
Y181496
Y182283
Y183071
Y183858
X244094
Y182283
Y180709
Y179134
Y177559
X245669
Y179134
X247244
Y177559
X245472Y180906
Y188583
X242520Y187795
X240551
Y188583
Y189370
Y190157
Y190945
X242520
Y190157
Y195276
Y196063
Y197638
Y198425
Y199213
X238976
Y198425
Y197638
Y196063
Y195276
X245472Y195079
Y196457
X246378Y192913
X247913
Y200787
X246339
X245472Y202953
X250787Y198425
X251181
Y198032
X250787
Y197638
X251181
X251575
X251968
X252362
X252756
Y198032
X252362
X251968
X251575
Y198425
X251968
X252362
X252756
Y196063
Y195669
Y195276
X252362
Y195669
X251968
Y195276
X251575
Y195669
X251181
Y195276
X250787
Y195669
Y196063
X251181
X251575
X251968
X252362
X255512
X256299
X257087
X257874
X260039
Y195079
X258268Y194094
Y193307
X257480
Y194094
X256693
Y193307
X255906
Y194094
X255118
Y193307
Y191339
X255906
X256693
X257480
X258268
X257087Y188583
X256299
X255512
X252756Y188189
Y187795
X252362
Y188189
X251968
Y187795
X251575
Y188189
X251181
Y187795
X250787
Y188189
Y189764
X251181
Y190157
X250787
Y190551
X251181
X251575
Y190157
Y189764
X251968
Y190157
X252362
Y189764
X252756
Y190157
Y190551
X252362
X251968
X260039Y188189
X264764Y187795
X264567Y189764
Y190551
X263780
Y189764
X265354
Y190551
X265591Y192913
X264764Y195669
X258268Y199213
X257480
X256693
X255906
X255118
Y201181
X255906
X256693
X257480
X258268
Y201968
X257480
X256693
X255906
X255118
X260039Y202953
X266929Y202756
X267323
X267717
X265748Y200787
X266929Y196457
X267323
X267717
Y196063
X267323
Y195669
X267717
Y195276
X267323
Y194882
X267717
X266929
Y195276
Y195669
Y196063
X272953Y195000
X272992Y198110
X272953Y202795
X275984Y201181
X275551Y194370
X279528Y192913
Y196850
Y188976
X272913Y190236
X267717Y188583
X267323
Y188189
X267717
Y187795
X267323
X266929
Y188189
Y188583
X283465Y188976
Y192913
Y196850
Y200787
X287402
X291339
X295276
Y196850
X291339
X287402
Y192913
X291339
X295276
Y188976
X291339
X287402
Y204724
X291339
X283465Y208661
Y212598
X288976Y218465
X290433Y218228
X292362Y218268
X279291Y217992
X280079Y216535
X280276Y215512
X278346Y216299
X279528Y212598
Y208661
Y204724
X272992Y205984
X267717Y204331
X267323
Y203937
X267717
Y203543
X267323
Y203150
X267717
X266929
Y203543
Y203937
Y204331
X266142Y205512
Y206299
Y207087
X264764Y203543
X260039Y204134
X259843Y207087
X259055
X258268
X257480
X256693
X255906
X255118
Y204331
X255906
X256693
X252756Y203937
Y203543
Y203150
X252362
X251968
X251575
X251181
X250787
Y203543
X251181
X251575
X251968
X252362
Y203937
X251968
X251575
X251181
X250787
Y205512
X251181
X251575
X251968
X252362
X252756
Y205906
X252362
X251968
X251575
X251181
X250787
Y206299
X251181
X251575
X251968
X252362
X252756
X247913Y208661
X246339
X246457Y212598
X246850
X247244
X247638
X248819
X244094Y211024
X242520Y206299
Y205512
Y203937
Y203150
X238976
Y203937
Y205512
Y206299
X245472Y204331
X246457Y226968
X246850Y227854
X247244
X247638
X247933Y228346
X246358
X245472Y232677
Y234055
X242520Y233858
Y233071
Y232283
Y231496
Y230709
Y229921
X238976
Y230709
Y231496
Y233071
Y233858
X250787
X251181
Y233465
X250787
Y233071
X251181
X251575
X251968
X252362
X252756
Y233465
X252362
X251968
X251575
Y233858
X251968
X252362
X252756
Y231496
Y231102
Y230709
X252362
X251968
X251575
X251181
X250787
Y231102
X251181
X251575
X251968
X252362
Y231496
X251968
X251575
X251181
X250787
X255118Y231890
X255906
X256693
X257480
Y229528
Y228740
X256693
X255906
X255118
Y229528
X255906
X256693
X258268
Y228740
X260039Y230512
Y231496
X264764Y231102
X264173Y222047
X256102Y222441
X255276Y222323
X255709Y223071
X255276Y223858
X253740Y223819
Y223425
X254252Y224606
X250197Y226968
X265748Y228346
X266929Y230315
Y230709
X267323
Y230315
X267717
Y230709
Y231102
X267323
X266929
Y231496
X267323
X267717
Y231890
X267323
X266929
X272992Y230394
X273071Y233504
X273228Y225197
X272874
X273819
X274213
X275000Y224409
X277854Y223720
X277264Y222736
X278740Y222638
Y221575
X277028Y221358
X276063Y221425
X274606Y220472
X274213Y220472
X273819
X273228
X272874
X273543Y220118
X273504Y221201
X277835Y219685
X281181Y222087
X280354Y223819
X279409Y224134
X269488Y224409
X268937Y223071
Y222520
X267717Y221457
X281496Y221654
X281791Y220768
X283583Y221535
X283661Y222047
X283366Y222441
X284941Y222638
X285000Y223583
Y224016
X285591Y224803
X283543Y224370
X283189Y225276
X282441Y224803
X281850
X281378Y225669
X285433Y229921
X287087Y229213
X287559
X288071Y229134
X289370Y228346
X289961Y224213
X292126
X292520Y223976
X293032Y224016
X293701
X294685
X293622Y222835
X292126Y223032
X291732Y223228
Y222047
X292165
X292283Y221299
X291732Y220551
Y220118
X291142Y221732
X290945Y222087
X290748Y222480
X289370Y222323
X288701Y222205
X288091Y222224
X287795Y221929
X288189Y221299
X288780Y221063
X289528Y220276
Y219961
Y219213
X287953Y219882
X287874Y220394
X286614Y220157
X286142Y219488
X285945Y221339
X286339Y222047
X287559Y223110
X293583Y220787
X294488Y219843
X295276Y220236
X294685Y228346
X287402Y231890
X289370Y238189
X285433
X281496
X285433Y242126
X289370
X293307
Y246063
X289370
X285433
X281496
X294685Y237913
X281024Y236181
X272953Y238307
X273110Y241417
X272992Y246181
X272913Y249291
X267717Y247638
X267323
Y247244
X267717
Y246850
X267323
Y246457
X267717
Y246063
X267323
X266929
Y246457
Y246850
Y247244
Y247638
X265748Y244094
X266929Y239764
X267323
X267717
Y239370
X267323
Y238976
X267717
Y238583
X267323
Y238189
X267717
X266929
Y238583
Y238976
Y239370
X277205Y244291
X264764Y246850
X260039Y247244
Y246457
X258268Y245276
Y244488
X257480
X256693
X255906
X255118
Y245276
X255906
X256693
X257480
Y242520
X256693
X255906
X255118
Y239764
X255906
X256693
X257480
Y237402
Y236614
X256693
X255906
X255118
Y237402
X255906
X256693
X258268
Y236614
Y234646
X257480
X256693
X255906
X255118
X252756Y238583
Y238976
X252362
Y238583
X251968
Y238976
Y239370
X252362
X252756
X251575
Y238976
Y238583
X251181
X250787
Y238976
X251181
Y239370
X250787
Y240945
X251181
Y241339
Y241732
X250787
Y241339
X251575
Y241732
X251968
Y241339
X252362
Y241732
X252756
Y241339
Y240945
X252362
X251968
X251575
Y246457
X251968
X252362
Y246850
Y247244
X252756
Y246850
Y246457
X251968Y246850
Y247244
X251575
Y246850
X251181
X250787
Y247244
X251181
Y246457
X250787
Y248819
X251181
Y249213
X250787
Y249606
X251181
X251575
Y249213
Y248819
X251968
Y249213
X252362
Y248819
X252756
Y249213
Y249606
X252362
X251968
X255118Y247638
X255906
X256693
X258268Y242520
X259055
X260039Y239370
Y238386
X264764Y238976
X265512Y236220
X247933
X246555
X245472Y240551
Y241929
X242520Y241732
Y240945
Y239370
Y238583
Y237795
X238976
Y238583
Y239370
Y240945
Y241732
Y245669
Y246457
Y247244
Y248819
Y249606
X242520Y247244
Y246457
Y245669
X245472Y248425
Y249803
X247047Y244094
X247933
X248032Y254724
Y256299
Y257874
X246457
X245472Y256299
X243307Y257874
X241732
X240157
Y256299
Y254724
X241732
X243307
X250787Y254724
X251181
Y255118
X250787
X251575
Y254724
Y254331
X251181
X250787
X251968
X252362
X252756
Y254724
Y255118
X252362
Y254724
X251968
Y255118
Y256693
X252362
X252756
Y257087
X252362
X251968
Y257480
X251575
Y257087
X251181
X250787
Y256693
X251181
X251575
X251181Y257480
X250787
X252362
X252756
X255118Y258268
X255906
X256693
X257480
X258268
X259055
Y253937
X258268
Y253150
Y252362
X259055
Y253150
X257480
Y252362
X256693
X255906
Y253150
X256693
Y253937
X255906
X255118
Y253150
Y252362
Y250394
X255906
X256693
X257480
X258268
X259055
X257480Y253937
X266929
X267323
X267717
Y254331
Y254724
X267323
Y254331
X266929
Y254724
Y255118
X267323
X267717
Y255512
X267323
X266929
X265748Y251968
X272992Y253937
X272874Y257165
X277559Y257874
X276968Y252165
X281496Y253937
Y250000
X285433
X289370
X293307
Y253937
X289370
X285433
Y257874
X289370
X293307
X281496
T02
X291642Y219193
X291092
T03
X264189Y186220
X263189
X262189
X261189
Y178346
X262189
X263189
X264189
Y194094
X263189
X262189
X261189
Y201968
X262189
X263189
X264189
X262303Y211122
Y213091
X256299
Y211122
X238780Y217520
Y219488
Y223622
Y225591
X261205Y229528
X262205
X263205
X264205
X264189Y237402
X263189
X262189
X261189
Y245276
X262189
X263189
X264189
X264220Y253150
X263220
X262220
X261220
T04
X274268Y183465
X273268
X274197Y176575
X275197
X238976Y181102
X236976
X237008Y188976
X239008
X238976Y196850
X236976
X272425Y199409
X273425
X273228Y191339
X274228
X294646Y205197
X295646
X291968Y209512
Y210512
X287697Y214240
Y215240
Y216240
X239008Y204724
X237008
X236976Y232283
X238976
X266339Y226142
Y220236
X276244Y227677
X277244
X295768Y227740
Y228740
Y226740
Y225740
Y224740
Y231071
Y232071
Y233071
Y234071
Y235071
Y237567
Y238567
Y239567
Y240567
Y241567
X274228Y242520
X273228
X276283Y235433
X277283
X238976Y240157
X236976
X237008Y248032
X239008
Y255906
X237008
X273213Y250591
X274213
T05
X295472Y217748
Y216748
Y215748
Y214748
Y213748
Y211528
Y210528
Y209528
Y208528
Y207528
X293346Y213425
X291576
Y215985
X293346
T06
X242520Y200878
Y196760
Y193004
Y188886
Y204634
Y208752
Y236130
Y240248
Y244004
Y248122
Y251878
Y255996
T07
X284535Y217717
Y213717
X266535Y217717
Y209717
X242913Y217323
Y225323
X260913
Y221323
T08
X273622Y181102
Y188976
Y196850
X289764Y206299
Y208268
X273622Y204724
Y232283
X281496Y244094
X283858
X286220
X288583
X290945
X273622Y240157
Y248032
Y255906
T09
X234331Y181102
X234252Y188976
Y196850
Y204724
Y212598
Y216535
Y220472
Y224409
Y232283
Y240157
Y248032
Y255906
T10
X296260Y176181
X232283
Y258858
X296260
M30
